<svg width="86" height="68" fill="none" xmlns="http://www.w3.org/2000/svg"><path d="M74.784 14.79c-.098.288-.262.55-.478.764-.298.25-.69.803-1.065.236-.153-.231.152-.757.228-1.153.093-.493.35-1.053.203-1.468-.275-.756-.798-1.424-1.22-2.127l-1.016 1.522c-.175 1.91.653 3.526 1.489 5.26l.677-.848c.766.526.736 1.28.34 1.873-.515.777-1.367.479-1.765-.076a11.204 11.204 0 0 1-1.466-2.898c-.46-1.349-.921-2.76-.098-4.167.116-1.298.58-1.711 1.85-1.654.823-.198 1.285.176 1.643.903.597 1.221 1.253 2.413.678 3.832ZM38.803 37.267c-.916.079-1.246-.372-1.332-1.086-.627-1.136-1.217-2.293-1.898-3.396-.245-.398-.27-1.619-1.253-.593-.128 1.052-.235 2.104-.39 3.156-.186 1.249-.35 2.508-.653 3.732-.098.403-.59.702-.9 1.063-.251-.332-.64-.628-.729-.996-.398-1.692-.735-3.4-1.053-5.11-.393-2.117-.744-4.239-1.114-6.359-.064-.37-.123-.742-.176-1.113-.276-.97-.527-1.952-.84-2.906-.152-.45-.49-.835-.671-1.277-.2-.487-.318-1.008-.47-1.517 1.196-.405 1.732-.014 1.955.935.35 1.519.721 3.034 1.083 4.55.288 1.537.568 3.073.865 4.607.372 1.94.755 3.876 1.322 5.787l.809-4.764c.054-.295.053-.618.176-.877.2-.421.503-1.147.728-1.133.584.035 1.366.24 1.682.665.714.96 1.214 2.086 1.765 3.156.323.632.574 1.3.859 1.95.074.517.154 1.028.235 1.526ZM48.289 34.51l.946 3.31.851 2.316c.08.442.16.877.24 1.336-1.28.472-1.172-.593-1.502-1.124l-.83-1.881c-.474-1.69-.864-3.406-1.44-5.058-1.032-2.963-1.22-6.05-1.506-9.119-.033-.35.144-.717.223-1.076-.16-1.994.58-3.799 1.25-5.603.112-.302.665-.439 1.013-.65.214.164.59.308.61.494.122 1.055.187 2.115.197 3.177 0 .209-.323.42-.496.63-.165-.22-.43-.42-.476-.66-.083-.434-.032-.894-.037-1.345l-.864 3.748c.22 2.397.385 4.801.685 7.19.121.96.54 1.883.823 2.823.711-.272 1.405-.644 2.14-.761.28-.046.737.442.96.786.132.205-.031.601-.063.913-.309-.075-.658-.084-.92-.24-.53-.328-1.357.012-1.804.794Z" fill="#414141"/><path d="M56.08 28.22c-.638.056-1.276.15-1.914.23l-.114.201.579 3.748c.105.497.173 1.001.203 1.508 0 .25-.237.5-.367.75-.222-.162-.572-.283-.647-.497a14.339 14.339 0 0 1-.39-1.754l-.6-3.116-1.931.442-2.974 1.273-.135-.304c.63-1.27 1.671-1.94 3.105-2.04l1.852-.674a.335.335 0 0 0 .016-.176c-.203-.945-.447-1.885-.597-2.839-.175-1.136-.275-2.28-.407-3.431l-.423-2.93-.277-1.93c.858-.361 1.228-.073 1.306.728.038.402.119.8.175 1.2.07.838.136 1.675.202 2.512.218 1.275.434 2.552.658 3.825.14.807.295 1.612.443 2.416l2.794-.21c.133.602.153 1.005-.556 1.068ZM30.144 15.854c-.044.236-.316.584-.509.603-.225.023-.481-.258-.716-.418-.288-.194-.567-.4-.85-.601-2-.133-3.75.591-5.524 1.422a51.44 51.44 0 0 0-9.006 5.352c-.808.605-1.506 1.356-2.256 2.041l.125.283c.319.058.64.098.963.119 1.779.01 3.562-.058 5.337.023 1.774.08 3.54.34 5.106 1.3 2.457 1.14 3.91 3.098 4.964 5.555 1.555 3.635 1.288 7.097-.818 10.313-.941 1.441-2.447 2.525-3.697 3.753l-1.229.83c-.99.758-1.92 1.625-3.245 1.625l-.232-.323 2.83-2.119 1.44-1.308c1.033-1.273 2.255-2.443 3.046-3.858.792-1.415 1.58-2.993 1.352-4.734-.335-2.64-1.076-5.14-3.05-7.068-.647-.63-1.453-1.102-2.184-1.648-3.16-1.333-6.495-1.052-9.8-1.052-.811 0-1.733.09-2.063-.808-.33-.898-.002-1.808.75-2.42 1.44-1.16 2.91-2.29 4.407-3.378a33.233 33.233 0 0 1 9.793-4.922c1.053-.321 2.282-.035 3.435-.028 1.271.117 1.796.564 1.631 1.466ZM76 37.181c-.918.516-1.229 0-1.424-.585-1.15-3.61-2.022-7.271-1.94-11.096-.05-.977-.1-1.953-.148-2.928-.176-.852-.351-1.705-.537-2.562 1.28-.197 1.527.243 1.523 2.355l.21 3.348C73.698 29.694 74.99 33.43 76 37.18ZM64.808 55.17l-1.58-.788c-1.778-.69-3.546-1.411-5.341-2.057-.762-.273-1.592-.35-2.373-.58-.37-.107-.703-.35-1.053-.54l-.4.047-5.669 3.14-2.915 1.614L41.882 58c.132-.46.126-.912.314-1.014 1.053-.578 2.15-1.071 3.233-1.594l2.31-1.881c1.478-.905 2.956-1.81 4.433-2.717.026-.015.066-.047.061-.061a1.127 1.127 0 0 0-.075-.161l-2.498-1.053c-.802-.285-1.617-.543-2.4-.876-.314-.132-.556-.432-.832-.654.072-.127.144-.253.218-.377l3.209 1.295 2.088.414 1.46.477.608-.066 1.687-.847a19.7 19.7 0 0 1 1.838-.774c.156-.05.421.239.635.372-.123.175-.209.42-.379.526-.46.29-.957.526-1.44.775l-.422.493 7.753 3c.732.283 1.327.658 1.125 1.893ZM44.636 38.445c-.351-.57-.795-1.105-1.064-1.715-.537-1.211-.985-2.455-1.469-3.696.24-.232.46-.482.662-.747.958-1.484.55-3.143.526-4.735 0-.258-.503-.509-.775-.761-.425.175-1.054.228-1.23.542-.587 1.041-1.242 2.104-1.031 3.409l-.048 1.64-1.562-.202c-.079 1.141.37 1.464 1.803 1.455.35.949.584 1.955 1.053 2.834.627 1.157.951 2.608 2.457 3.076 1.13.308 1.673-.02 1.772-1.096l-1.094-.004Zm-3.191-7.707.86-2.492-.625 3.72c-.084-.409-.158-.82-.235-1.228ZM63.713 35.526a6.508 6.508 0 0 1-.853-.702c-.146-.165-.151-.447-.24-.668-.666-1.627-1.368-1.881-2.893-1.06-.813.436-1.422.1-1.756-.77-.497-1.284.218-2.335.506-3.471.526-.935 1.006-1.898 1.597-2.787.235-.35.716-.54 1.085-.803l1.13-.236c.32 1.018-.072 1.402-.921 1.478l-1.645 2.344-.774 2.806.275.167c.367-.156.738-.305 1.101-.468 1.074-.483 1.85-.304 2.457.69.483.774.894 1.59 1.23 2.438.096.27-.196.691-.3 1.042ZM69.044 36.655c-.204.039-.527-.572-.804-.886l-.364-1.902-1.492-7.323c-.445-2.208-.893-4.414-1.327-6.625-.275-1.403-.526-2.826-.788-4.237-.302-1.06-.605-2.119-.91-3.178.775-.317 1.277-.203 1.454.47.216.82.334 1.664.494 2.5.502 2.475.993 4.951 1.51 7.424.278 1.338.63 2.658.89 3.998.436 2.248.824 4.507 1.228 6.76l.35 1.886c.292.459.44.98-.241 1.113Z" fill="#414141"/></svg>