<svg xmlns="http://www.w3.org/2000/svg" fill="none" viewBox="0 0 699 568.39"><mask id="a" width="699" height="522" x="0" y="0" maskUnits="userSpaceOnUse" style="mask-type:alpha"><path fill="#fff" d="M0 0h699v522H0z"/></mask><g mask="url(#a)"><circle cx="316" cy="284" r="284" fill="#DA6832"/></g><path fill="#000" d="M233.942 419.652c-.374 2.548-.724 5.101-1.054 7.66l2.585.592c3.642-28.303 10.002-55.676 18.792-80.327l77.09 83.539c-3.057 2.813-7.411 8.482-12.572 15.884l2.747.629c5.342-7.628 9.765-13.282 12.492-15.363l1.135-.863-81.887-88.741-.73 2.01c-8.44 23.178-14.697 48.405-18.598 74.98Z"/><path fill="#E8E8E8" d="M235.473 427.904 318.782 447c5.162-7.401 9.516-13.071 12.573-15.883l-77.09-83.54c-8.79 24.652-15.15 52.024-18.792 80.327Z"/><path fill="#000" fill-rule="evenodd" d="M245.935 401.536c.462-.073.76 3.013 3.044 5.385 3.09 3.205 7.695 3.176 7.665 3.886-.033.796-5.518 2.518-8.906-.338-3.499-2.949-2.463-8.833-1.803-8.933Zm19.549 21.094c3.969 2.357 8.292 2.588 8.257 3.169-.037.628-4.328 1.616-8.093-.152-4.546-2.134-6.423-7.401-5.924-7.748.362-.254 2.315 2.682 5.76 4.731Z" clip-rule="evenodd" opacity=".15"/><path fill="#000" d="m398.128 369.19 1.292.39c.392.12.804.227 1.226.324 11.388 2.61 33.135-2.684 47.64-11.767 16.029-10.041 24.869-22.404 29.983-32.25-1.872 1.822-3.807 3.361-5.672 4.647-5.236 8.306-13.223 17.583-25.696 25.397-13.925 8.72-34.6 13.872-45.422 11.498l32.152-94.678c21.207-7.213 47.236-14.077 52.295-6.436 1.751 2.644.221 6.84-1.976 10.638-.483.838-1 1.655-1.519 2.429-.145.219-.287.43-.434.64-3.782 5.473-8.875 10.745-11.325 13.276-.65.672-1.116 1.159-1.386 1.46-.475.54-.424 1.364.117 1.838.542.475 1.362.423 1.841-.116.226-.26.702-.749 1.302-1.372 3.309-3.424 6.94-7.377 9.967-11.383.452-.589.882-1.178 1.299-1.766l1.659-2.478c3.457-5.509 5.149-10.8 2.628-14.599-4.973-7.514-22.745-5.731-55.915 5.615l-.608.207-33.448 98.486Z"/><path fill="#000" d="M459.33 335.393c.129.482.516.827.967.93.203.047.418.045.632-.013.105-.027 5.522-1.545 11.668-5.776 1.864-1.286 3.8-2.825 5.672-4.647 4.056-3.941 7.824-9.217 9.998-16.183 4.139-13.261.282-24.485-2.796-30.223-.514.822-1.072 1.651-1.659 2.478.312.653.631 1.371.942 2.143 2.301 5.748 4.198 14.664 1.025 24.827-.825 2.631-1.885 4.998-3.111 7.135-1.113 1.945-2.366 3.696-3.693 5.268-.924 1.1-1.883 2.114-2.862 3.044-.897.853-1.804 1.637-2.708 2.352-6.603 5.237-13.045 7.042-13.157 7.068-.694.187-1.106.904-.918 1.597Z"/><path fill="#FFF6A6" d="M401.479 367.429c10.822 2.374 31.497-2.778 45.422-11.498 12.473-7.814 20.46-17.091 25.696-25.397-6.146 4.231-11.563 5.749-11.668 5.776-.214.058-.429.06-.632.014-.451-.104-.838-.449-.967-.931-.188-.693.225-1.41.918-1.597.113-.026 6.554-1.831 13.157-7.068.904-.715 1.811-1.499 2.708-2.352.979-.93 1.939-1.944 2.862-3.044 1.327-1.572 2.58-3.323 3.693-5.268 1.226-2.137 2.286-4.504 3.111-7.135 3.173-10.163 1.276-19.079-1.025-24.827-.311-.772-.63-1.49-.942-2.143-.417.588-.847 1.177-1.299 1.766-3.027 4.006-6.658 7.959-9.967 11.383-.6.623-1.076 1.112-1.302 1.372-.479.539-1.299.591-1.841.116-.541-.474-.592-1.298-.117-1.838.27-.301.736-.788 1.386-1.46 2.45-2.531 7.543-7.803 11.325-13.276.147-.21.289-.421.434-.64l1.519-2.429c2.197-3.799 3.727-7.994 1.976-10.638-5.059-7.641-31.088-.777-52.295 6.436l-32.152 94.678Z"/><path fill="#000" fill-rule="evenodd" d="M429.71 272.63c5.203-3.234 9.981-4.915 10.489-3.193 2.324 7.873-3.588 45.965-20.261 67.509-4.375 21.928-8.981 28.733-16.814 31.253-1.482.476-3.196-.485-4.737-1.487-16.074-10.422-3.022-72.722 31.323-94.082Zm55.825 9.574c.627 2.08-.962 4.774-5.022 8.232-3.433 2.917-10.799 7.36-10.355 4.731 2.974-3.009 10.279-11.85 12.934-15.368.727-.97 2.118 1.34 2.443 2.405Zm-11.146 46.762c-1.112 5.599-6.847 9.138-10.273 13.706-1.927-2.082-3.393-5.242-2.527-8.253 4.762-2.373 7.292-4.566 12.8-5.453Z" clip-rule="evenodd" opacity=".05"/><g clip-path="url(#b)"><path fill="#906A38" d="m461.634 262.24-.053.231c-.017.077-.035.154-.052.228 2.807-.562 5.388-.974 7.744-1.238l-.505-.261-.487-.244c-.644-.323-1.246-.61-1.805-.841-.244-.111-.477-.212-.7-.305-.331-.14-.644-.268-.94-.378l-.414-.155-.305-.104-.295-.093-.357-.104-.325-.074c-.151-.034-.273-.062-.37-.085-.701.835-.92 2.148-1.136 3.423ZM491.789 283.05c-1.419 1.458-2.556 3.166-3.354 5.037l1.979 1.966c3.235 3.224 6.37 6.348 9.324 8.687.083-.67.331-1.309.721-1.86.349-.478.812-.861 1.347-1.114.177-.063.334-.176.45-.324.122-.183.187-.399.185-.62.049-.626.267-1.227.63-1.739.575-.791 1.856-1.733 4.67-1.711l.041.009c-1.102-1.201-2.352-2.504-3.754-3.894-.518-.514-1.061-1.045-1.628-1.591-1.42-1.359-2.981-2.789-4.685-4.291-.569-.502-1.159-1.009-1.763-1.527-.875.439-1.709.956-2.493 1.543-.59.436-1.148.914-1.67 1.429Z"/><path fill="url(#c)" fill-rule="evenodd" d="m502.499 300.428.052.093c.123.169.262.327.414.471.101.1.218.204.355.317.307.245.64.457.993.633.135.072.275.137.417.194.34.131.69.234 1.046.308l.406.093c.434.085.873.141 1.314.169.572.045 1.148.034 1.718-.033l.227-.038.383-.083c.127-.031.25-.067.37-.104.191-.062.377-.138.557-.227.269-.131.518-.298.742-.496.229-.202.438-.426.624-.669.183-.23.337-.482.459-.749.133-.267.228-.552.283-.845.039-.194.06-.391.062-.588.018-.077-.002-.159-.005-.241-.008-.17-.03-.339-.063-.506-.087-.427-.236-.84-.442-1.225l-.14-.249c-.325-.533-.718-1.022-1.168-1.456l-.024-.005-.063-.062c-.735-.638-1.656-1.023-2.627-1.098-.226-.024-.454-.036-.681-.036-.592-.02-1.183.046-1.756.196-.303.062-.579.217-.79.442-.1.161-.151.346-.148.535-.025.109-.03.241-.057.38-.073.457-.242.895-.496 1.283-.03.051-.062.101-.098.149-.148.208-.321.398-.514.565-.256.222-.539.41-.843.559-.113.053-.221.117-.322.191-.048.041-.091.089-.126.142-.418.554-.26 1.504-.059 1.99Z" clip-rule="evenodd"/><path fill="#000" fill-rule="evenodd" d="m503.505 299.159.024.027c-.054.005-.108.001-.16-.011l.136-.016Z" clip-rule="evenodd" opacity=".4"/><path fill="#000" fill-rule="evenodd" d="M502.701 298.261c-.02.084-.018.171.006.254-.009.103.011.207.058.3.046.093.118.171.206.226.117.083.256.128.398.13l.137-.016.023.027c.105.135.219.262.341.381.27.159.568.264.879.309.158.038.307.105.443.195-.104.009-.206.026-.307.049-.297.053-.601.054-.899.004-.349-.02-.698-.011-1.045.025-.098.007-.19.048-.261.116-.07.069-.114.16-.124.257.122.17.259.329.409.474.101.1.218.204.355.317.032-.029.059-.064.079-.102.034-.074.052-.154.054-.235.537.055 1.078.043 1.612-.037.637-.144 1.003.589 1.654.251.041-.025.077-.059.104-.1.024.06.061.113.11.156.048.043.105.074.167.091l1.092.332c.092.029.191.021.278-.022.086-.044.151-.119.182-.21.13-.009.255-.014.382-.028.091-.01.177-.048.245-.109.069-.061.116-.142.137-.231.296.008.592-.001.887-.027.07-.005.137-.027.195-.064.059-.038.107-.089.141-.15.519-.003 1.036.065 1.536.203.183-.23.337-.482.459-.749-.817-.267-1.68-.365-2.535-.287-.072.006-.141.03-.2.071-.06.04-.108.095-.14.159-.469.013-.939-.019-1.403-.095-.06-.015-.124-.017-.185-.004-.061.012-.119.039-.168.076-.05.038-.091.087-.119.142-.029.056-.044.117-.046.18-.121-.066-.248-.13-.381-.203.056-.032.104-.076.14-.129.037-.054.06-.115.068-.179.009-.064.002-.129-.019-.19-.021-.061-.056-.116-.102-.161l-.173-.142c.011-.067.006-.135-.013-.199s-.053-.123-.098-.173c-.189-.215-.423-.387-.685-.503-.089-.042-.19-.052-.285-.027-.038-.094-.076-.188-.11-.286-.027-.087-.083-.162-.158-.214-.075-.052-.165-.079-.256-.075-.092.004-.179.038-.249.096s-.12.138-.14.227c-.028.122-.057.248-.085.369l-.122-.027c-.123-.028-.24-.077-.347-.144-.159-.148-.095-.501-.265-.71-.055-.076-.132-.132-.22-.162-.089-.029-.184-.03-.273-.003-.037-.046-.079-.087-.126-.122-.018-.031-.041-.059-.066-.084-.256.222-.539.41-.843.559-.117.062-.228.137-.329.223Z" clip-rule="evenodd" opacity=".4"/><path fill="#000" fill-rule="evenodd" d="M504.478 296.797c.07.038.145.064.222.077.019.028.042.052.069.071.14.113.294.208.458.28.073.033.153.044.231.032.078-.011.152-.045.212-.097.093.056.201.081.309.071l.024.006c.631.553 1.434.873 2.274.905.036.002.073-.001.109-.009-.004.147-.023.293-.057.436-.017.063-.019.13-.006.194.014.064.043.124.084.175.041.051.094.092.154.119.06.027.125.039.191.036.29-.036.48.238.795.263.315.026.708-.03 1.055-.031.197-.002.391.012.586.019.154.03.311.042.467.034l.189-.004c.333.025.663.058.995.104l.036.009c.039-.194.06-.391.062-.588.018-.077-.002-.159-.005-.241-.34-.069-.685-.11-1.033-.121l-.13.008c-.185-.012-.377-.013-.564-.022-.186-.008-.235-.092-.35-.132-.317-.111-.701-.113-.923-.399-.132-.208-.24-.431-.322-.664-.093-.233-.226-.449-.393-.637-.086-.088-.184-.164-.291-.224l-.16-.067-.013-.054c-.111-.282-.133-.488-.4-.681-.137-.098-.29-.171-.452-.215-.046-.14-.102-.277-.167-.41.167-.098.346-.174.532-.228.069-.018.133-.055.183-.106.05-.052.085-.116.101-.186.016-.07.013-.143-.01-.211s-.064-.129-.119-.175c0-.035-.005-.069-.015-.102-.226-.024-.453-.036-.68-.036-.592-.02-1.184.046-1.756.195-.016.049-.028.1-.035.15.002.088.024.174.067.251-.036.092-.039.193-.007.286.032.094.096.173.181.224.096.063.208.099.323.103.135.037.274.056.414.057.03.075.072.153.081.172.026.061.058.119.097.172-.099.229-.039.525.262.573.302.048.524.069.598.398.024.124.079.24.16.338.081.097.185.173.302.22-.14-.019-.284-.001-.414.055-.046.02-.088.046-.125.078-.224-.044-.442-.112-.651-.205-.131-.06-.258-.129-.38-.206l-.154-.113c.064-.015.123-.045.173-.088.049-.042.088-.096.113-.156.025-.061.036-.126.031-.191-.005-.066-.025-.129-.059-.185-.082-.134-.208-.234-.357-.285-.149-.05-.31-.047-.457.009-.041-.044-.089-.081-.142-.109-.073-.044-.158-.063-.243-.056-.057-.011-.116-.01-.172.003-.077.013-.155.02-.232.024l-.143-.033c-.081-.019-.156-.066-.231-.109-.08.439-.247.857-.492 1.229Z" clip-rule="evenodd" opacity=".4"/><path fill="#000" fill-rule="evenodd" d="M509.686 296.231c-.025.107-.006.22.053.314s.152.16.26.185c.059.013.12.013.18 0 .059-.013.114-.039.162-.076l.166.213c.116.174.278.313.468.403.052.016.105.028.158.036-.024.108-.005.221.053.314.059.094.153.16.261.185.406.093.841.193 1.264.29.058.013.119.011.176-.007-.086-.428-.235-.84-.442-1.225l-.04.025c-.238-.178-.516-.297-.81-.348-.089-.02-.174-.04-.264-.06-.089-.021-.045-.011-.08-.061-.136-.155-.256-.32-.387-.478-.077-.096-.185-.163-.305-.19-.12-.028-.246-.014-.357.038-.126.041-.244.102-.35.181-.036.03-.067.066-.093.107l-.013.061c-.023.029-.043.06-.06.093ZM504.297 301.938c.135.072.275.137.417.194.34.131.69.234 1.046.308-.006-.055-.026-.109-.059-.154-.064-.087-.144-.161-.237-.217-.064-.036-.132-.064-.203-.085-.054-.016-.11-.029-.166-.038-.027-.07-.068-.135-.119-.19-.084-.074-.192-.114-.304-.112-.108.008-.21.055-.287.131-.039.04-.067.089-.08.144 0 0-.007.011-.008.019ZM506.177 302.523c.434.085.872.141 1.313.169.573.045 1.149.034 1.719-.034l.227-.037.383-.083c.126-.031.25-.067.37-.104.19-.062.377-.138.556-.227l-1.052-.241c-.408-.133-.843-.161-1.265-.08-.376.097-.718.297-.988.576-.015.015-.028.03-.04.047l-.025-.006c-.052-.009-.106-.014-.159-.015-.181-.119-.382-.203-.593-.247-.096-.012-.192.01-.274.062-.081.051-.142.129-.172.22Z" clip-rule="evenodd" opacity=".4"/><path fill="#000" fill-rule="evenodd" d="M481.871 284.494c.385-.502.756-1.002 1.11-1.502l.114.099.144.118.247.211c.66.557 1.278 1.104 1.836 1.638.821.786 1.636 1.58 2.453 2.365l.038.039.637.633 1.98 1.966c3.235 3.224 6.369 6.348 9.323 8.687.084-.67.332-1.309.722-1.86.348-.478.811-.861 1.346-1.114.178-.063.334-.176.451-.324.121-.184.186-.399.185-.62.048-.626.266-1.227.629-1.74.575-.791 1.856-1.732 4.67-1.71l.041.009c-1.102-1.201-2.352-2.505-3.753-3.894-.518-.515-1.061-1.045-1.629-1.591-1.42-1.359-2.981-2.789-4.685-4.291-.569-.502-1.159-1.009-1.763-1.528l-.671-.581c-1.618-1.357-3.356-2.768-5.211-4.215-.472-.364-.955-.74-1.455-1.115l-.599-.449c.297-.911.496-1.85.596-2.803 8.746 6.538 17.851 14.555 24.435 22.541.538.533 1.012 1.126 1.413 1.768l.021.005c.709 1.105 1.084 2.391 1.08 3.704-.033.904-.254 1.791-.649 2.606-.395.814-.956 1.537-1.646 2.123-1.754 1.567-4.228 1.799-6.252 1.613-.636-.057-1.267-.158-1.89-.301-.471-.104-.934-.241-1.386-.411-.86-.348-1.654-.841-2.348-1.457-3.961-2.408-8.083-6.484-12.506-10.89-1.127-1.113-2.273-2.269-3.44-3.412-.628-.618-1.27-1.235-1.912-1.848-.643-.613-1.33-1.215-2.103-1.858.127-.219.279-.415.427-.611Zm20.629 15.934.051.093c.124.169.262.327.414.471.101.1.218.204.355.317.308.245.641.458.993.633.136.072.275.137.417.194.34.131.69.234 1.046.308l.407.093c.433.085.872.141 1.313.169.573.045 1.148.034 1.719-.033l.226-.038.383-.083c.127-.031.251-.067.37-.103.191-.063.377-.138.557-.227.269-.132.519-.299.743-.497.228-.202.437-.426.624-.669.182-.23.336-.482.458-.749.133-.267.229-.551.283-.845.04-.194.06-.391.063-.588.017-.077-.003-.159-.005-.24-.009-.17-.03-.34-.064-.506-.086-.428-.235-.841-.442-1.225l-.14-.25c-.325-.533-.718-1.022-1.168-1.456l-.024-.005-.063-.062c-.735-.638-1.656-1.023-2.627-1.098-.226-.024-.453-.036-.681-.036-.591-.02-1.183.046-1.756.196-.302.062-.579.217-.79.442-.099.161-.151.346-.148.535-.025.109-.029.241-.057.38-.073.458-.242.895-.495 1.283-.03.051-.063.101-.098.149-.149.208-.322.398-.515.565-.255.223-.539.41-.843.559-.113.053-.221.117-.321.191-.049.041-.092.089-.127.142-.418.554-.259 1.504-.058 1.99ZM458.766 263.295c.95-.212 1.879-.409 2.788-.591.016-.073.034-.15.052-.227l.053-.232c.215-1.275.435-2.587 1.163-3.433.098.022.22.05.37.085l.325.074.357.104.295.093.306.104c.134.031.273.097.414.155.295.11.608.237.94.378.222.093.456.194.7.305.554.251 1.159.539 1.805.841l.487.244.505.261c1.698-.18 3.281-.294 4.75-.342-4.388-2.561-8.032-4.264-10.296-4.783-1.057-.242-1.818-.224-2.209.084-2.406 1.871-2.303 5.082-2.805 6.88Z" clip-rule="evenodd"/><path fill="#F96009" fill-rule="evenodd" d="M504.503 299.546c.164-.009.409.619.251.771-.087.079-.301.025-.407-.093-.035-.054-.06-.115-.071-.179-.011-.064-.01-.13.005-.193.014-.063.041-.123.079-.176.039-.052.087-.096.143-.13ZM504.875 297.922c.089.021.136.262.041.437-.096.175-.409.252-.469.179-.06-.074.271-.66.428-.616ZM505.87 295.446c.048-.008.098-.004.145.011.047.016.089.043.123.079.034.036.059.079.072.127.013.048.014.098.003.146-.011.048-.034.092-.066.13-.033.037-.074.065-.12.083-.046.017-.096.023-.145.017-.049-.006-.096-.025-.136-.053-.029-.043-.048-.092-.057-.143-.009-.051-.008-.103.003-.154.012-.05.034-.098.064-.139.031-.042.069-.078.114-.104ZM507.588 295.413c-.047-.075.199-.382.362-.345.033.013.061.036.081.065.019.03.028.065.026.101-.025.165-.409.256-.469.179ZM509.714 295.473c.201-.019.523.795.354.935-.095.081-.385-.037-.509-.262-.123-.225.02-.666.155-.673ZM511.601 297.187c-.033.021-.069.035-.107.042-.039.006-.078.005-.116-.003-.038-.009-.073-.025-.105-.048-.031-.022-.058-.051-.078-.084-.022-.033-.037-.069-.044-.108-.007-.038-.006-.077.003-.115.009-.038.025-.074.048-.105.023-.032.052-.058.086-.078.143-.027.4.382.313.499ZM512.032 298.422c.09.021.145.636-.021.709-.023.007-.048.008-.071.003-.024-.005-.046-.017-.063-.034-.163-.148.064-.69.155-.678ZM511.429 300.42c.08.133.106.292.071.444-.035.151-.127.283-.257.368-.069.031-.146.039-.219.022-.074-.016-.14-.057-.188-.115-.105-.23.437-.806.593-.719ZM510.037 301.528c.038.056-.118.306-.366.343-.106.015-.263-.009-.272-.062-.009-.053.576-.368.638-.281ZM508.556 301.757c-.023.097-.349.176-.438.04-.023-.044-.029-.096-.018-.145.011-.049.039-.092.08-.122.139-.084.398.129.376.227ZM507.336 301.477c.009.092-.17.201-.33.211-.299.017-.53-.301-.483-.397.048-.096.798.012.813.186ZM505.67 300.668c.157-.015.435.433.283.633-.056.059-.131.095-.211.104-.08.008-.161-.013-.227-.059-.189-.167-.003-.663.155-.678ZM508.084 300.081c.208-.047.397.133.375.231-.022.097-.516.271-.602.144-.086-.127.011-.327.227-.375ZM509.823 299.343c.118.027.252.113.242.196-.034.15-.546.255-.607.147-.061-.108.136-.37.365-.343ZM510.268 298.018c-.088-.102-.123-.264-.072-.299.05-.035.526.296.479.392-.048.096-.271.062-.407-.093ZM508.653 296.366c.155-.003.263.253.206.333-.057.081-.369.044-.406-.093-.003-.058.015-.115.053-.159.037-.045.09-.074.147-.081ZM506.734 296.64c-.034-.094-.014-.234.063-.272.156-.067.532.288.482.396-.09.051-.196.066-.296.043-.101-.023-.189-.083-.249-.167ZM509.063 298.314c-.068.036-.146.047-.221.03-.075-.017-.141-.061-.186-.123-.031-.103-.021-.213.027-.308.048-.096.131-.169.232-.205.15.017.302.475.148.606ZM506.28 297.39c-.015.025-.035.046-.058.064-.024.017-.05.029-.078.036-.029.006-.058.007-.087.002-.028-.004-.056-.015-.08-.031-.128-.076-.13-.256-.073-.298.057-.043.392.119.376.227ZM505.8 298.848c.041.12-.009.263-.061.268-.053.005-.251-.417-.176-.468.076-.051.194.053.237.2ZM507.22 298.887c-.014-.03-.02-.063-.016-.095.004-.033.017-.064.038-.089.02-.026.048-.045.079-.056.031-.011.064-.012.096-.005s.062.023.085.047c.023.023.039.052.047.084.007.032.005.066-.005.097-.011.031-.03.058-.056.079-.021.014-.045.024-.071.029-.025.005-.051.004-.076-.002-.026-.005-.049-.016-.07-.032-.021-.015-.038-.035-.051-.057ZM506.565 299.878c.116-.003.277.49.145.601-.064.054-.2.014-.269-.061-.162-.17.022-.542.124-.54ZM503.72 299.226c.12.057.031.63-.154.673-.095.021-.212-.086-.242-.196-.075-.252.293-.531.396-.477Z" clip-rule="evenodd"/><path fill="#000" fill-rule="evenodd" d="M524.89 277.901c-.052-1.64-.967-2.482-1.218-4.018-.342-2.24.748-4.178 2.504-7.437 1.202-2.364 2.573-4.638 4.101-6.806 1.803-2.47 3.093-3.734 3.756-3.544 1.26.362 1.93 4.044.898 7.149-1.377 4.14-5.359 4.715-6.245 8.583-.726 3.166 1.613 4.736.757 7.783-1.511 5.379-10.74 7.309-11.122 6.53-.382-.78 6.686-3.676 6.569-8.24ZM529.658 230.258c.338.393-3.633 3.179-3.336 6.981.186 2.376 2.352 3.752 1.982 5.927-.454 2.708-4.199 3.165-4.531 5.772-.289 2.305 2.444 3.483 2.238 5.986-.21 2.597-3.301 4.605-3.898 4.182-.596-.422 1.501-3.074.613-5.601-.69-1.974-3.2-2.836-3.12-4.454.061-1.554 2.362-2.073 3.021-3.849.831-2.245-1.172-4.221-1.048-6.512.283-5.212 7.628-8.946 8.079-8.432Z" clip-rule="evenodd" opacity=".14"/><path fill="#FFD953" d="m482.982 282.988.114.099.144.118.247.211c.659.557 1.278 1.104 1.836 1.638.821.786 1.636 1.58 2.452 2.365l.039.039c.826-1.853 1.977-3.544 3.398-4.993l.044-.041c-.552-.197-1.088-.437-1.602-.718-.381-.203-.73-.419-1.082-.675-1.015-.68-1.948-1.474-2.781-2.368-.299.521-.612 1.047-.942 1.574l-.743 1.112-.916 1.366-.208.273Z"/><path fill="#FFF499" d="M485.77 278.68c.833.893 1.766 1.688 2.781 2.367.372.244.721.46 1.082.675.514.282 1.05.522 1.602.718.09-.093.183-.183.28-.269.097-.086.189-.172.277-.257.097-.089.195-.178.29-.258.072-.069.15-.132.229-.196l.19-.157.386-.304.514-.374.188-.132c.537-.37 1.096-.707 1.673-1.009-1.618-1.358-3.356-2.769-5.211-4.215-.472-.365-.955-.741-1.455-1.116l-.599-.449c-.072.24-.153.482-.243.726-.138.396-.292.788-.462 1.176-.45 1.052-.957 2.078-1.522 3.074Z"/><path fill="#840000" d="m487.797 287.454.638.633c.797-1.871 1.934-3.579 3.353-5.037.525-.524 1.086-1.009 1.681-1.452.783-.588 1.617-1.104 2.492-1.544l-.671-.581c-.577.303-1.136.64-1.673 1.009l-.188.132-.514.374-.386.304-.19.158c-.079.063-.157.126-.229.195-.095.081-.193.17-.29.258-.097.089-.184.167-.277.257-.093.09-.19.175-.28.269l-.044.042c-1.428 1.444-2.587 3.132-3.422 4.983Z"/></g><path fill="#000" d="M300.454 259.405c17.864-42.569 45.367-76.148 77.445-94.546 3.729-2.14 9.028-1.634 14.92 1.421 9.104 4.718 18.676 14.769 26.262 27.582 6.298 10.634 14.277 28.361 16.514 52.419.009.109.016.23.021.355.555 4.767.952 12.531.011 23.544-.974 11.376-3.145 23.482-6.456 35.985-3.216 12.148-8.151 22.963-14.738 32.365-4.142 14.171-7.787 24.884-10.456 30.54-11.885 25.217-26.225 44.69-41.464 56.304-12.833 9.778-25.915 13.735-36.962 11.203-.3-.069-.603-.147-.898-.223-22.956-6.061-38.078-28.086-42.586-62.018-2.208-16.626-1.722-35.821 1.396-55.512 3.153-19.896 9.03-40.441 16.991-59.419Zm-14.415 59.83c-3.085 19.446-3.561 38.379-1.387 54.758 4.357 32.82 18.801 54.071 40.664 59.842 10.445 2.749 23.086-.984 35.614-10.533 14.911-11.36 28.982-30.497 40.691-55.34 2.334-4.956 5.247-13.392 8.355-23.592-3.658 4.408-7.721 8.454-12.199 12.128-.322.263-.739.347-1.117.261-.272-.063-.525-.21-.715-.442-.459-.558-.378-1.377.179-1.83 6.087-4.997 11.404-10.708 15.933-17.104 1.761-2.493 3.404-5.09 4.926-7.792 4.118-7.293 7.348-15.337 9.668-24.093 1.727-6.509 6.378-25.664 6.91-44.371.139-4.86-.002-9.695-.546-14.267-.001-.124-.004-.24-.016-.341-.021-.223-.044-.442-.066-.66-2.276-23.239-9.99-40.366-16.093-50.673-7.347-12.404-16.538-22.098-25.222-26.597-1.919-.995-3.744-1.691-5.431-2.078-2.772-.635-5.165-.44-6.992.607-31.581 18.114-58.692 51.249-76.337 93.295-7.882 18.787-13.7 39.128-16.819 58.822Z"/><path fill="#FFF6A6" d="M286.039 319.235c-3.084 19.446-3.561 38.379-1.386 54.758 4.356 32.82 18.8 54.071 40.663 59.842 10.445 2.749 23.086-.984 35.614-10.533 14.911-11.36 28.983-30.497 40.692-55.34 2.333-4.955 5.247-13.392 8.354-23.592-3.658 4.408-7.721 8.454-12.199 12.128-.321.263-.739.347-1.117.261-.272-.063-.525-.21-.715-.442-.458-.558-.378-1.377.18-1.83 6.086-4.997 11.403-10.708 15.932-17.104 1.761-2.493 3.404-5.09 4.926-7.792 4.119-7.293 7.348-15.337 9.668-24.093 1.727-6.509 6.378-25.664 6.91-44.371.139-4.86-.002-9.695-.546-14.267-.027-.233-.05-.468-.083-.698-.01-.105-.009-.203.001-.303-2.275-23.238-9.99-40.366-16.093-50.673-7.347-12.404-16.538-22.098-25.222-26.596-1.919-.996-3.744-1.692-5.431-2.078-2.772-.636-5.165-.441-6.992.606-31.581 18.114-58.691 51.249-76.337 93.295-7.882 18.787-13.7 39.128-16.819 58.822Z"/><path fill="#000" fill-rule="evenodd" d="M412.468 340.216c-.939-.232-14.65 18.286-22.807 19.104-3.687.368-7.58-11.573-7.58-11.573s-10.101 8.067-13.109 6.801c-4.304-1.807-4.936-13.923-4.936-13.923s-9.172 7.258-15.27 5.028c-2.474-.905-3.532-14.452-3.532-14.452s-9.516 8.65-14.143 5.713c-4.626-2.94-4.866-39.815-14.493-11.422-18.432 54.38-22.835 86.897-10.405 99.517 11.331 11.501 28.459 11.334 36.208 10.004 51.394-20.345 71.007-94.565 70.067-94.797Z" clip-rule="evenodd" opacity=".1"/><path fill="#000" d="M275.938 260.358c11.228-16.977 25.634-33.02 37.599-41.869 7.857-5.817 14.103-8.243 18.57-7.219.065.014.129.033.19.047 14.681 3.733 12.111 53.02 5.598 86.827-1.91 9.918-1.003 18.675-.049 27.947.401 3.886.809 7.82 1.013 11.913.001.03.003.061.006.087.002.043.007.079.006.121.357 7.268.08 15.049-1.967 23.979-4.619 20.15-10.971 37.057-18.372 48.891-4.869 7.788-10.022 13.024-15.245 15.578-2.926 3.251-6.041 5.084-9.079 5.028-.524-.009-1.051-.078-1.58-.199-3.393-.778-6.868-3.818-9.926-8.689-6.331-4.463-14.152-11.792-20.418-22.508-6.351-10.868-10.092-23.364-11.114-37.138-1.138-15.342 1.123-32.281 6.723-50.42-1.009.854-1.472.876-2.019.652-.544-.223-.879-.757-.852-1.361.646-13.904 8.073-32.253 20.916-51.667Zm-18.068 48.743c.508-.537 1.14-1.221 1.927-2.1 3.205-3.585 7.977-9.216 14.182-16.745.46-.552 1.279-.634 1.837-.177.553.461.636 1.278.174 1.835-6.037 7.323-10.73 12.866-13.951 16.485-6.708 19.765-9.487 38.123-8.268 54.565.99 13.378 4.612 25.492 10.765 36.015 4.956 8.48 10.72 14.446 15.234 18.283-3.603-8.016-6.185-18.982-6.595-31.901-.023-.719.543-1.32 1.262-1.343.72-.023 1.318.541 1.341 1.26.509 15.959 4.39 28.328 8.954 35.796 1.505 2.464 3.084 4.385 4.644 5.734 1.31 1.134 2.611 1.863 3.834 2.144.353.081.702.126 1.043.132.86.018 1.768-.21 2.705-.658 1.555-.737 3.182-2.086 4.794-3.951 1.345-1.558 2.682-3.469 3.946-5.7 4.174-7.366 7.284-17.39 8.75-28.227.095-.713.753-1.211 1.466-1.116.718.1 1.209.755 1.115 1.464-1.567 11.596-5.014 22.042-9.276 29.46 10.344-9.429 20.123-30.443 26.611-58.747 1.98-8.638 2.249-16.216 1.9-23.315-1.741-8.568-3.823-14.822-5.502-19.855-.838-2.521-1.566-4.7-2.137-6.8-.188-.693.225-1.41.918-1.597.693-.187 1.407.224 1.599.918.549 2.027 1.268 4.174 2.092 6.661.517 1.55 1.073 3.216 1.645 5.03-.793-8.133-1.265-16.055.46-24.999 3.7-19.203 5.552-39.303 5.086-55.15-.497-16.926-3.694-27.37-8.767-28.661-.044-.01-.084-.023-.129-.034-3.588-.822-9.418 1.58-16.439 6.773-11.739 8.682-25.907 24.473-36.978 41.212-11.659 17.626-18.76 34.272-20.242 47.309Z"/><path fill="#FFF6A6" d="M257.87 309.101c.508-.537 1.14-1.221 1.927-2.1 3.205-3.585 7.977-9.216 14.182-16.745.46-.552 1.279-.633 1.837-.177.553.461.635 1.278.174 1.835-6.037 7.323-10.73 12.866-13.951 16.485-6.708 19.765-9.487 38.123-8.268 54.565.989 13.378 4.612 25.492 10.765 36.015 4.956 8.48 10.72 14.446 15.234 18.283-3.603-8.016-6.185-18.982-6.595-31.901-.023-.719.543-1.32 1.262-1.343.72-.023 1.318.541 1.341 1.26.509 15.959 4.39 28.328 8.954 35.796 1.505 2.464 3.084 4.385 4.644 5.734 1.31 1.134 2.61 1.863 3.834 2.144.353.081.702.126 1.043.132.86.018 1.768-.21 2.705-.658 1.555-.737 3.182-2.086 4.794-3.951 1.345-1.558 2.682-3.469 3.946-5.7 4.174-7.366 7.284-17.39 8.75-28.227.095-.713.752-1.211 1.466-1.116.718.1 1.209.755 1.115 1.464-1.567 11.596-5.014 22.042-9.277 29.46 10.345-9.429 20.124-30.443 26.612-58.747 1.98-8.638 2.249-16.216 1.9-23.315-1.741-8.568-3.823-14.822-5.502-19.855-.838-2.521-1.566-4.7-2.137-6.8-.188-.693.225-1.41.918-1.597.693-.187 1.407.224 1.599.918.549 2.027 1.268 4.174 2.092 6.661.517 1.55 1.073 3.216 1.645 5.03-.793-8.133-1.265-16.055.46-24.999 3.7-19.203 5.552-39.303 5.086-55.15-.497-16.926-3.694-27.37-8.767-28.661-.044-.01-.084-.023-.129-.033-3.589-.823-9.418 1.579-16.439 6.772-11.739 8.682-25.907 24.473-36.978 41.212-11.659 17.626-18.76 34.272-20.242 47.309Z"/><path fill="#000" fill-rule="evenodd" d="M283.568 420.517c-23.153-14.89-11.959-34.37-9.845-36.483 1.423 12.028 8.669 34.333 9.845 36.483Zm-23.103-111.15c6.137-8.745 13.605-21.187 15.395-18.641 1.791 2.547-7.275 13.303-19.944 38.491-2.444 1.499 1.539-9.906 4.549-19.85Zm29.361-3.46c3.848-.066 6.99-1.85 7.051-1.481.082.48-4.214 4.033-8.996 3.77-5.214-.285-8.599-4.962-8.343-5.484.248-.503 4.232 3.298 10.288 3.195Zm11.793-8.525c-5.214-.285-8.599-4.962-8.343-5.484.249-.507 4.237 3.296 10.288 3.192 3.849-.067 6.991-1.85 7.052-1.482.082.481-4.214 4.033-8.997 3.774Zm8.54 12.271c-5.213-.284-8.599-4.961-8.342-5.483.249-.507 4.237 3.295 10.288 3.191 3.848-.067 6.99-1.85 7.051-1.481.083.48-4.214 4.032-8.997 3.773Zm-23.484 18.343c3.785.393 6.996-1.033 7.033-.653.049.494-4.411 3.565-9.097 2.734-5.106-.905-8.127-6.032-7.843-6.527.278-.483 3.948 3.827 9.907 4.446Zm1.201 9.913c.239-.517 4.344 3.073 10.418 2.683 3.864-.251 6.971-2.175 7.045-1.807.093.47-4.127 4.211-8.941 4.18-5.237-.034-8.763-4.526-8.522-5.056Zm13.607-10.916c.205-.538 4.595 2.481 10.701 1.338 3.883-.725 6.886-3.002 6.986-2.654.128.452-3.876 4.649-8.733 5.219-5.297.618-9.165-3.353-8.954-3.903Zm5.221-11.129c.082.48-4.214 4.033-8.996 3.77-5.214-.285-8.599-4.962-8.343-5.484.249-.507 4.237 3.295 10.288 3.191 3.848-.062 6.99-1.846 7.051-1.477Z" clip-rule="evenodd" opacity=".1"/><path fill="#000" d="M367.756 171.431c3.946-6.854 16.682-22.704 49.714-21.84 2.56.065 5.133.39 7.641.965 8.255 1.892 15.977 6.478 22.333 13.258 5.809 6.198 10.083 13.885 12.04 21.64 2.993 11.858-3.061 24.159-11.434 41.184-1.657 3.367-3.37 6.846-5.154 10.598-1.553 3.267-4.778 10.06-7.921 15.578-4.658 8.19-7.502 10.986-10.494 10.326l-.049-.011c-1.077-.247-2.979-1.093-3.626-3.984-.297-1.333-.286-2.856-.277-4.332.006-1.297.021-3.921-.512-4.45-.806.23-2.623 1.89-3.624 2.801-2.579 2.353-5.501 5.02-8.805 4.263-.736-.169-1.429-.503-2.054-.988-3.793-2.673-3.181-7.809-2.688-11.938.18-1.493.349-2.902.311-4.026-.037-1.124-.264-1.385-.268-1.386-.004-.001-.011-.007-.04-.013-1.166-.268-4.387 1.54-6.312 2.624-3.142 1.763-5.856 3.285-8.303 2.724-.589-.135-1.127-.382-1.594-.737-3.03-2.305-1.625-6.982.002-12.398.548-1.814 1.486-4.936 1.574-6.496-1.364.426-3.795 1.851-5.213 2.68-3.202 1.876-5.514 3.23-7.571 2.759-.565-.129-1.089-.399-1.511-.778-2.235-2.025-.623-5.436.246-7.271 1.045-2.208 2.585-4.855 4.211-7.656 1.403-2.409 2.851-4.901 3.912-7.008.448-.892.765-1.602.985-2.154-2.12.907-5.284 2.729-7.049 3.747-4.764 2.74-6.765 3.836-8.537 3.43-.634-.145-1.187-.477-1.598-.96-.677-.8-.958-1.907-.834-3.288.367-4.214 4.877-13.439 13.498-22.216-4.699.815-8.25 1.283-10.604.743-1.296-.297-2.241-.915-2.813-1.836-1.666-2.698-.695-8.145 2.418-13.554Zm-.201 12.186c.2.324.609.537 1.178.667 3.898.894 15.236-2.232 17.11-1.803.378.087.372.316-.152.756-13.736 11.382-19.129 24.869-17.611 26.665.048.054.109.085.19.103 1.947.447 13.928-8.505 17.269-7.74.219.051.399.143.538.282 2.805 2.766-12.906 22.715-10.405 24.98.092.081.208.137.342.168 2.292.526 10.187-6.317 13.422-5.575.24.055.457.152.642.297 3.162 2.48-5.043 16.779-1.863 19.196.179.135.377.223.6.274 3.13.718 10.576-6.274 14.616-5.348.301.069.583.18.84.346 4.118 2.584-2.117 14.088 2.817 17.462.35.281.708.457 1.082.543 3.869.887 8.868-7.914 12.428-7.098.134.031.265.074.393.133 4.262 1.934.112 11.771 4.022 12.667l.025.005c3.44.759 11.851-16.787 15.505-24.477 10.842-22.816 19.717-36.936 16.413-50.032-3.64-14.43-15.99-29.228-32.426-32.995-2.301-.527-4.681-.838-7.127-.898-42.867-1.123-52.604 26.967-49.848 31.422Z"/><path fill="url(#d)" d="M367.555 183.617c.2.324.609.537 1.178.667 3.897.894 15.236-2.232 17.109-1.803.378.087.373.316-.151.756-13.736 11.382-19.129 24.869-17.611 26.665.047.054.109.085.19.103 1.947.447 13.928-8.505 17.268-7.74.22.051.4.143.539.282 2.805 2.766-12.907 22.715-10.406 24.98.093.081.208.137.343.168 2.292.525 10.187-6.317 13.422-5.575.24.055.457.152.642.297 3.162 2.48-5.044 16.779-1.863 19.196.179.135.377.223.6.274 3.13.718 10.576-6.274 14.616-5.348.3.069.583.18.84.346 4.118 2.584-2.117 14.088 2.816 17.462.351.281.708.457 1.082.543 3.87.887 8.868-7.914 12.429-7.098.134.031.265.074.393.133 4.262 1.934.112 11.771 4.022 12.667l.024.005c3.441.759 11.852-16.787 15.506-24.477 10.842-22.816 19.716-36.936 16.413-50.032-3.64-14.43-15.991-29.228-32.427-32.995-2.3-.527-4.68-.838-7.126-.898-42.867-1.123-52.604 26.967-49.848 31.422Z"/><path fill="#000" fill-rule="evenodd" d="M394.128 203.722c.389-.428-.632-2.132-.842-3.176-.448-2.243.513-4.308.043-4.536-.731-.355-4.346 3.02-3.29 5.638.736 1.826 3.512 2.706 4.089 2.074Zm1.274 16.202c1.417 1.602 4.751 1.354 5.001.578.199-.608-1.825-1.499-2.694-3.176-1.525-2.939.181-6.316-.1-6.415-.399-.143-4.567 6.34-2.207 9.013Zm9.089-15.391c.172-.302-1.44-1.219-2.185-2.915-.795-1.814-.295-3.622-.58-3.683-.387-.084-2.065 2.68-.949 4.756.959 1.77 3.505 2.213 3.714 1.842Zm3.9 10.981c1.96 1.547 5.12 1.4 5.438.538.239-.651-2.897-3.04-3.446-3.631-1.524-1.636-2.885-4.379-3.456-4.202-.924.284-1.256 5.147 1.464 7.295Zm-.276 6.188c-.432-.078-3.694 8.629-.967 10.433 1.72 1.138 5.343-.783 5.223-1.643-.07-.516-1.675-.491-2.69-1.326-2.65-2.193-1.234-7.401-1.566-7.464Zm12.665 4.466c1.887 1.736 5.007 1.28 5.074.877.051-.3-1.878-.563-3.411-1.918-2.152-1.899-2.422-4.678-2.791-4.618-.428.073-.985 3.718 1.128 5.659Zm-.765 7.071c-.2.052.067 6.185 3.351 7.16 2.427.723 5.288-1.74 5.079-2.246-.195-.472-3.113.928-5.47-.399-2.432-1.369-2.814-4.554-2.96-4.515Z" clip-rule="evenodd" opacity=".6" style="mix-blend-mode:soft-light"/><path fill="#D4D5D7" d="M445.406 201.65c.829-2.199 2.74-6.11 6.19-7.631 1.465-.642 3.853-1.244 5.763-.807.796.183 1.431.529 1.931 1.058.869.909 1.375 2.452 1.301 3.934-.052.975-.352 1.646-.627 1.878-.133.114-.242.158-.798.197l-.004-.001c-.131.008-.282.016-.464.026-.723.035-1.619.082-2.703.333-4.614 1.075-8.299 3.695-10.987 5.608-.261.184-.547.387-.832.587.002-.008 0-.021.002-.029.116-1.307.459-3.121 1.228-5.153Zm9.131-4.355c-.276-.665-1.038-.977-1.705-.702l-1.848.768c-.662.275-.979 1.04-.699 1.703.169.402.517.678.911.768.256.059.534.041.794-.066l1.844-.769c.667-.279.979-1.04.703-1.702Z"/><path fill="#EEB566" d="M434.54 232.428c2.605 5.058 11.269 6.471 17.769 4.522-.252-2.673-.962-5.416-2.539-7.999-1.7-2.791-4.167-4.288-6.15-5.49l-.308-.19c-.616-.372-.809-1.173-.437-1.788.376-.614 1.178-.807 1.793-.431l.304.185c2.107 1.278 4.991 3.029 7.026 6.357 1.981 3.245 2.756 6.695 2.966 9.939.042.172.05.344.028.515.141 3.04-.188 5.878-.452 8.167-.189 1.61-.419 3.6-.211 4.207.185.03.516.003.979-.168 2.441-.906 6.307-4.69 9.027-10.864 2.752-6.256 3.967-14.433 3.246-21.87-.714-7.354-3.239-12.688-6.747-14.274-.224-.103-.472-.181-.736-.241-.268-.062-.554-.102-.862-.121-1.37-.088-3.102.246-5.043.985-2.668 1.02-5.714 2.834-8.617 5.159-.005.004-.01.007-.016.014-4.129 3.309-7.959 7.643-9.949 12.165-1.18 2.681-2.886 7.699-1.071 11.221Z"/><path fill="#000" fill-rule="evenodd" d="M441.612 208.983c-3.481 3.188-6.569 7.048-8.388 11.177-1.668 3.787-3.196 9.201-1.002 13.459 1.427 2.771 4.558 4.992 8.591 6.1 3.694 1.014 7.758.98 11.612-.085-.009 2.262-.257 4.406-.476 6.278l-.002.017c-.413 3.57-.686 5.927 1.153 6.809.171.078.372.154.611.209.606.139 1.43.144 2.506-.255 3.038-1.123 7.462-5.347 10.504-12.251 5.884-13.374 4.777-34.469-4.302-39.314 1.349-2.263.965-6.337-1.242-8.654-.927-.973-2.054-1.526-3.237-1.798-2.767-.634-5.843.28-7.398.962-6.868 3.032-9.546 13.411-8.93 17.346Zm17.678-14.713c.869.909 1.375 2.452 1.301 3.934-.053.975-.352 1.646-.627 1.878-.133.114-.242.158-.798.197l-.004-.001c-.131.008-.282.016-.464.026-.723.035-1.619.082-2.703.333-4.614 1.075-8.299 3.695-10.987 5.608-.075.053-.152.107-.23.162-.195.138-.399.283-.602.425.002-.008 0-.021.002-.029.116-1.307.459-3.121 1.228-5.153.829-2.199 2.74-6.11 6.19-7.631 1.465-.642 3.853-1.244 5.763-.807.796.183 1.431.529 1.931 1.058Zm-6.981 42.68c-6.5 1.949-15.164.536-17.769-4.522-1.815-3.522-.109-8.54 1.071-11.221 1.99-4.522 5.82-8.856 9.949-12.165.006-.007.011-.01.016-.014 2.903-2.325 5.949-4.139 8.617-5.159 1.941-.739 3.673-1.073 5.043-.985.308.019.594.059.862.121.264.06.512.138.736.241 3.508 1.586 6.033 6.92 6.747 14.274.721 7.437-.495 15.614-3.246 21.87-2.72 6.174-6.586 9.958-9.027 10.864-.463.171-.794.198-.979.168-.208-.607.022-2.597.211-4.207l.004-.036c.263-2.283.589-5.107.448-8.131.022-.171.014-.343-.028-.515-.21-3.244-.985-6.694-2.966-9.939-2.035-3.328-4.919-5.079-7.026-6.357l-.304-.185c-.616-.376-1.417-.183-1.793.431-.372.615-.179 1.416.437 1.788l.308.19c1.983 1.202 4.45 2.699 6.15 5.49 1.577 2.583 2.287 5.326 2.539 7.999Zm-1.113-37.118c-.394-.09-.741-.366-.91-.768-.28-.663.036-1.427.698-1.703l1.849-.768c.666-.275 1.429.037 1.704.702.276.662-.035 1.423-.702 1.702l-1.845.769c-.26.107-.538.125-.794.066Z" clip-rule="evenodd"/><path fill="#fff" d="M465.918 209.901c-.002-.03-.002-.047-.001-.072.802 2.174 1.379 4.772 1.659 7.694.721 7.437-.495 15.614-3.246 21.87-1.088 2.468-2.36 4.548-3.646 6.219 1.477-4.503 6.246-19 5.234-35.711Z"/><path fill="#000" d="M447.807 233.372c-.443-3.387-3.918-8.435-4.652-10.218.05.041.101.083.161.118l.307.19c1.984 1.202 4.451 2.699 6.151 5.49 1.577 2.583 2.287 5.326 2.539 7.999-.174.05-.348.099-.526.148-1.448-.216-3.667-1.34-3.98-3.727Z" opacity=".26"/><path fill="#000" d="M435.486 180.557c.036.013.067.024.103.037.665.272.982 1.032.711 1.696-2.004 4.877-7.338 7.696-12.404 6.561-5.404-1.209-9.07-6.527-8.335-12.105.095-.713.748-1.212 1.463-1.121.714.095 1.215.748 1.124 1.462-.56 4.251 2.213 8.3 6.321 9.225 3.846.86 7.894-1.293 9.422-5.01.255-.629.957-.947 1.595-.745ZM322.343 438.221l3.642-28.935c-.285-.305-.546-.659-.777-1.071-1.316-2.34-1.489-5.973-.45-9.255.217-.685.953-1.076 1.636-.847.686.217 1.066.949.849 1.634-.548 1.721-.652 3.367-.489 4.729.12 1.006.386 1.862.726 2.465.295.525.639.856.967.935.061.014.186-.008.354-.089.077-.038.162-.092.258-.155.465-.312 1.148-.976 1.956-2.243.242-.385.498-.813.763-1.316l.001-.004c.09-.168.182-.343.27-.524.655-1.307 1.358-2.996 2.077-5.159.225-.684.963-1.048 1.644-.828.683.229 1.054.963.829 1.647-.728 2.187-1.501 4.082-2.299 5.663-.048.43-.074.825-.093 1.205-.055 1.099-.009 1.981.096 2.68.268 1.745.888 2.378 1.197 2.449.109.012.269-.015.466-.09.82-.312 2.294-1.461 3.591-3.893.869-1.626 1.655-3.821 2.12-6.727.112-.713.782-1.192 1.492-1.08.705.114 1.194.782 1.083 1.491-1.243 7.773-4.567 10.891-6.056 11.917l-6.799 24.772c3.009 2.104 6.9 5.696 8.637 10.978 1.701 5.175 1.94 9.861.709 13.924-1.184 3.915-3.484 6.413-5.205 7.817-1.68 1.375-4.699 3.123-6.13 2.312-.378-.215-.645-.579-.729-1-.158-.784.294-1.377.922-2.19.798-1.039 2.134-2.779 2.727-5.369 1.074-4.684-.783-9.57-2.699-12.338-1.132-1.631-2.233-2.46-2.765-2.531-.013.002-1.228.244-3.299 6.05-1.314 3.681-2.492 8.243-3.358 11.574-.782 3.02-1.174 4.503-1.501 5.167-.418.836-1.142 1.041-1.681.952-.038-.004-.074-.013-.111-.021-.988-.227-1.555-1.297-2.283-4.241-.414-1.684-.723-3.378-.751-3.594-1.612-11.332 4.027-21.973 8.46-26.831-.002-.009.001-.022.003-.03Zm-5.885 26.495c.094.615.389 2.072.718 3.399.163-.617.338-1.286.511-1.947 3.459-13.357 5.877-20.045 9.512-19.553 1.979.27 3.713 2.389 4.574 3.633 2.219 3.2 4.358 8.89 3.096 14.398-.388 1.693-1.037 3.087-1.687 4.185 1.042-.739 2.204-1.793 3.205-3.234 2.018-2.887 3.855-8.046 1.173-16.219-1.862-5.652-6.646-9.154-9.338-10.736-.618-.364-.824-1.163-.46-1.78.275-.471.799-.706 1.307-.628l6.159-22.446c-.1-.01-.2-.024-.297-.046l-.025-.006c-2.125-.508-2.937-2.732-3.2-4.963-1.079 1.145-2.17 1.724-3.245 1.708l-3.252 25.817c.285.061.549.22.746.461.449.56.355 1.38-.206 1.829-2.993 2.385-11.094 13.444-9.291 26.128ZM351.375 414.153c-.483-.376-.906-.883-1.262-1.512-1.316-2.339-1.489-5.972-.45-9.254.217-.685.953-1.076 1.636-.847.686.217 1.066.949.849 1.634-.587 1.852-.664 3.625-.447 5.046.135.868.38 1.608.684 2.148.295.525.638.855.967.935.109.025.381-.058.775-.361.208-.157.452-.383.722-.684.454-.507.986-1.24 1.571-2.281.086-.151.173-.31.263-.478l.001-.004c.09-.167.181-.343.27-.523.654-1.307 1.358-2.996 2.076-5.16.226-.683.964-1.048 1.645-.828.683.23 1.054.964.829 1.647-.728 2.188-1.501 4.083-2.3 5.664-.015.142-.024.272-.033.407-.093 1.059-.104 1.946-.05 2.68.17 2.359.935 3.162 1.284 3.247.221.025.637-.111 1.153-.458.897-.611 2.103-1.859 3.152-4.011.77-1.567 1.453-3.615 1.871-6.241.113-.713.783-1.192 1.493-1.08.705.114 1.194.782 1.083 1.491-1.053 6.59-3.606 9.833-5.262 11.291l-6.222 26.921c4.773 3.026 11.82 9.627 11.663 22.164-.095 7.374-7.214 16.543-9.501 17.562-.9.4-1.516-.049-1.684-.194-.278-.243-.693-.8-.392-1.816 3.947-13.357.416-20.942-.758-22.95-.874-1.491-1.768-2.311-2.438-2.653-1.345 2.004-3.667 11.426-5.086 17.185-.761 3.098-1.478 6.023-2.084 8.144-.764 2.679-1.319 4.615-2.941 4.243-.406-.093-.978-.378-1.399-1.213-2.266-4.519-.283-29.652 3.773-38.818.767-1.742 1.692-2.359 2.247-2.728.05-.035.116-.08.167-.115 1.037-8.239 1.432-15.484 1.81-22.49.104-1.873.208-3.78.325-5.71Zm2.277 5.854c-.382 7.077-.779 14.39-1.837 22.757-.136 1.096-.832 1.561-1.292 1.869-.419.276-.849.567-1.315 1.613-3.503 7.926-4.932 26.948-4.335 34.066.626-2.21 1.403-5.356 2.074-8.095 3.921-15.913 5.24-19.841 7.768-19.261 1.618.371 3.227 1.803 4.533 4.038 3.057 5.217 3.728 13.018 1.928 21.394 2.372-3.015 5.496-8.191 5.554-12.715.168-13.368-8.727-19.222-12.562-21.118-.142-.071-.237-.123-.282-.15-.619-.36-.84-1.167-.476-1.784.364-.622 1.153-.834 1.771-.47.028.01.07.033.128.059l5.547-24.013c-.358.051-.703.044-1.02-.029l-.025-.005c-2.125-.509-2.937-2.733-3.2-4.963-.887.941-1.78 1.493-2.668 1.657-.103 1.736-.198 3.458-.291 5.15Z"/><path fill="#DCD7B0" d="M356.611 413.2c.263 2.23 1.075 4.454 3.2 4.963l.025.005c.317.073.662.08 1.02.029l-5.547 24.013c-.058-.026-.1-.048-.128-.059-.618-.364-1.407-.152-1.771.47-.364.617-.143 1.424.476 1.784.045.027.14.079.282.15 3.835 1.896 12.73 7.75 12.562 21.118-.057 4.524-3.182 9.7-5.554 12.715 1.8-8.376 1.129-16.177-1.928-21.394-1.306-2.235-2.915-3.667-4.533-4.038-2.528-.58-3.847 3.348-7.768 19.261-.671 2.739-1.448 5.885-2.074 8.095-.597-7.118.833-26.14 4.335-34.066.466-1.046.896-1.337 1.315-1.612.46-.309 1.157-.774 1.292-1.87 1.058-8.367 1.455-15.68 1.837-22.757.093-1.692.188-3.414.291-5.15.889-.164 1.781-.716 2.668-1.657ZM325.75 438.588c.56-.448.654-1.269.205-1.829-.197-.241-.46-.4-.745-.461l3.252-25.816c1.074.015 2.165-.564 3.245-1.709.263 2.231 1.075 4.455 3.2 4.963l.024.006c.098.022.197.036.298.047l-6.159 22.445c-.508-.078-1.033.157-1.307.628-.364.617-.158 1.416.46 1.78 2.692 1.583 7.476 5.085 9.337 10.736 2.683 8.173.846 13.332-1.172 16.219-1.002 1.441-2.163 2.495-3.205 3.234.649-1.098 1.298-2.492 1.686-4.184 1.263-5.509-.877-11.199-3.095-14.399-.861-1.244-2.596-3.363-4.574-3.633-3.635-.491-6.053 6.196-9.513 19.553-.173.661-.348 1.331-.51 1.947-.329-1.327-.624-2.783-.718-3.399-1.803-12.683 6.297-23.742 9.291-26.128Z"/><path fill="#000" fill-rule="evenodd" d="M336.843 396.872c.945-.052 2.049 2.2 1.982 4.193-.111 3.136-3.138 5.403-4.075 4.94-1.46-.723.317-9.036 2.093-9.133Zm-9.237 1.22c5.609-6.67 2.538 8.503 1.284 8.972-.599.225-1.796-1.382-2.331-2.671-1.21-2.952.541-5.699 1.047-6.301Zm34.141 3.284c.945-.053 2.05 2.2 1.982 4.192-.111 3.137-3.138 5.404-4.075 4.941-1.465-.72.316-9.032 2.093-9.133Zm-7.954 10.195c-.599.226-1.796-1.382-2.331-2.67-1.214-2.953.537-5.701 1.043-6.303 5.61-6.673 2.543 8.5 1.288 8.973Z" clip-rule="evenodd" opacity=".05"/><path fill="#000" fill-rule="evenodd" d="M322.156 451.577c.382-.506-1.131-2.084-.745-2.572.35-.445 1.943.424 2.274-.013.325-.425-.823-1.799-.608-2.01.202-.193 1.334.878 1.877.562.242-.141.284-.49.3-.73.055-.816-.14-2.335.016-2.402.222-.09 1.044 2.09 1.935 2.046 1.133-.052 1.901-3.572 2.015-3.546.113.03-.836 3.462-.079 3.853.665.349 2.466-1.819 2.652-1.661.216.178-2.133 3.053-1.535 3.788.514.631 3.022-.606 3.155-.345.128.261-2.311 1.663-2.106 2.188.191.492 2.545-.113 2.825.515.267.608-1.646 1.789-1.374 2.488.271.699 2.578.398 2.637.737.056.316-1.937.799-1.932 1.428.009.69 2.388 1.022 2.405 1.752.014.648-1.888 1.088-1.834 1.583.056.483 1.906.416 2.041 1.002.124.524-1.085 1.546-1.902 1.299-.72-.216-1.236-2.33-1.604-5.841-.063-.604-.218-1.678-.589-2.673-.497-1.323-1.252-1.722-1.703-3.06-.365-1.075-.365-1.955-1.156-2.534-.249-.181-.729-.385-1.369-.446-.774-.075-1.295.066-1.669.284-.593.347-.733.827-1.142 1.473-.491.78-1.021 1.001-1.482 1.796-.475.823-.664 1.668-.774 2.224-.151.751-.349 1.407-.495 2.155-.206 1.051-.383 1.933-.823 3.016-.587 1.442-1.208 2.116-1.695 2.149-.661.045-1.353-.647-1.253-.953.083-.251.803-.184 1.317-.502.468-.286.913-.812.798-1.15-.179-.524-1.69-.409-1.722-.66-.036-.311 2.265-.664 2.314-1.341.04-.605-1.747-1.152-1.674-1.451.082-.319 2.18.081 2.362-.395.205-.542-2.176-1.929-2.037-2.201.126-.232 2.012.632 2.379.148Zm2.94-15.399c.81-5.681 2.114-19.882 2.517-27.126 1.062-.94 2.428-1.075 2.82-.921 1.715 2.448-1.038 29.071-5.337 28.047Zm28.593 3.452c-.418 1.447-2.312 1.649-2.41 1.182-.835-3.99 2.142-27.246 2.811-28.596 5.03-10.148 2.143 18.551-.401 27.414Zm-3.273 18.177c-.025-.523-1.621-.765-1.605-1.171.018-.471 2.221-.619 2.284-1.212.057-.529-1.626-1.06-1.548-1.422.085-.387 2.106-.116 2.294-.675.16-.476-1.076-1.336-1.007-1.432.082-.113 1.781 1.19 2.512.709.604-.396.326-1.891.436-1.904.092-.009.191.979.56 1.064.501.11 1.223-1.489 1.394-1.415.191.082-.576 2.179-.271 2.339.325.168 1.63-1.865 1.99-1.68.383.194-.691 2.712-.161 3.035.492.296 2.088-1.517 2.313-1.341.253.203-1.589 2.771-1.137 3.208.326.314 1.631-.677 1.954-.351.431.432-1.393 2.697-.882 3.267.389.431 1.871-.417 2.149-.041.326.442-1.41 2.065-1.022 2.705.313.516 1.769-.009 2.032.465.351.632-1.888 2.225-1.52 3.121.316.769 2.225.335 2.453.964.268.737-1.911 2.626-2.894 2.139-.623-.305-.434-1.616-.643-3.616-.139-1.335-.378-2.586-.672-3.491-.394-1.227-.988-1.846-1.295-3.099-.21-.86-.338-1.757-.846-2.732-.329-.635-.737-1.169-1.388-1.519-.499-.268-1.177-.466-1.809-.282-.762.223-1.205.886-1.579 1.642-.755 1.523-1.259 3.514-1.312 3.971-.125 1.066-.194 2.075-.316 3.132-.112.936-.566 2.601-.93 4.06-.261 1.042-.589 2.249-1.531 2.588-.657.238-1.523.019-1.65-.378-.142-.443.775-.878.916-1.661.164-.903-.73-1.65-.425-2.234.375-.722 2.197-.368 2.322-.801.141-.484-1.969-1.374-1.838-1.891.126-.492 2.234-.321 2.294-.675.06-.357-2.055-.851-2.052-1.538.006-.751 2.467-1.186 2.43-1.848Z" clip-rule="evenodd" opacity=".17"/><path fill="#000" d="M382.001 510.226c-.303 3.807-.643 7.613-1.013 11.419h-3.928c4.107-42.11 3.983-83.776-.55-122.314l-138.954 95.195c3.484 5.077 7.894 14.713 12.897 27.119h-4.175c-5.189-12.794-9.704-22.431-12.953-26.342l-1.352-1.622 147.6-101.124.39 3.146c4.515 36.293 5.2 74.825 2.038 114.523Z"/><path fill="#8F85BA" d="M377.06 521.646H250.453c-5.003-12.406-9.413-22.043-12.897-27.12l138.954-95.195c4.534 38.538 4.657 80.204.55 122.315Z"/><path fill="#000" fill-rule="evenodd" d="M370.68 480.072c-.643-.259-2.094 4.102-6.177 6.774-5.522 3.609-12.162 2.042-12.353 3.078-.216 1.16 7.134 5.466 12.971 2.461 6.028-3.103 6.479-11.949 5.559-12.313Zm-35.207 24.01c-6.51 2.091-12.828.993-12.97 1.845-.155.919 5.713 3.769 11.735 2.461 7.27-1.579 11.723-8.569 11.118-9.235-.439-.487-4.231 3.109-9.883 4.929Z" clip-rule="evenodd" opacity=".15"/><path fill="#000" d="m161.641 382.91-1.995.136c-.606.044-1.236.062-1.878.062-17.307 0-46.954-14.856-64.8907-32.787-19.8205-19.82-28.4924-40.616-32.6183-56.541 2.1 3.254 4.3853 6.119 6.6521 8.595 4.8115 13.739 13.2734 29.793 28.6962 45.217 17.2207 17.215 45.3667 31.509 61.7777 31.663l-15.089-147.48c-28.233-17.449-63.5445-35.991-73.3775-26.625-3.4033 3.242-2.5818 9.812-.6671 16.03.42 1.37.8956 2.723 1.3897 4.013.1359.364.2718.716.4139 1.068 3.6503 9.163 9.2586 18.469 11.9577 22.939.7165 1.185 1.2292 2.044 1.5195 2.569.5065.938.1606 2.111-.7783 2.618-.9388.506-2.1062.16-2.6188-.778-.2409-.451-.7659-1.316-1.4268-2.415-3.6442-6.045-7.5786-12.96-10.6237-19.752-.457-1-.8832-1.995-1.2908-2.983l-1.5751-4.13c-3.1685-9.108-3.8603-17.314 1.0377-21.969 9.6663-9.213 34.7366-.748 78.8746 26.637l.809.5 15.701 153.413Z"/><path fill="#000" d="M84.4588 313.792c-.3459.655-1.0191 1.025-1.7047 1.025-.3088 0-.6176-.074-.9079-.228-.1421-.074-7.4613-4.063-14.9349-12.214-2.2668-2.476-4.5521-5.341-6.6522-8.595-4.5521-7.039-8.2456-15.912-9.0795-26.699-1.5873-20.536 7.696-35.479 14.0393-42.752.4694 1.358 1.0006 2.741 1.575 4.13-.667.84-1.365 1.773-2.0691 2.785-5.2254 7.546-10.914 19.802-9.6972 35.541.3212 4.075 1.0686 7.848 2.1309 11.343.9636 3.18 2.1927 6.125 3.5886 8.836.9697 1.895 2.0197 3.68 3.1253 5.347 1.013 1.531 2.063 2.964 3.1315 4.297 7.801 9.756 16.5037 14.498 16.6582 14.572.9388.5 1.297 1.674.7967 2.612Z"/><path fill="#8F85BA" d="M157.385 379.255c-16.411-.154-44.557-14.448-61.7776-31.663-15.4228-15.424-23.8847-31.478-28.6962-45.217 7.4736 8.151 14.7928 12.14 14.9348 12.214.2903.154.5992.228.908.228.6856 0 1.3588-.37 1.7047-1.025.5003-.938.1421-2.112-.7968-2.612-.1544-.074-8.8571-4.816-16.6581-14.572-1.0685-1.333-2.1185-2.766-3.1315-4.297-1.1056-1.667-2.1556-3.452-3.1253-5.347-1.3959-2.711-2.625-5.656-3.5886-8.836-1.0624-3.495-1.8097-7.268-2.1309-11.343-1.2168-15.739 4.4718-27.995 9.6972-35.541.7041-1.012 1.402-1.945 2.0691-2.785.4077.988.8338 1.983 1.2909 2.983 3.045 6.792 6.9795 13.707 10.6237 19.752.6608 1.099 1.1859 1.964 1.4267 2.415.5127.938 1.6801 1.284 2.6189.778.9388-.507 1.2847-1.68.7782-2.618-.2903-.525-.8029-1.384-1.5194-2.569-2.6991-4.471-8.3074-13.776-11.9578-22.939-.142-.352-.2779-.704-.4138-1.068l-1.3897-4.013c-1.9147-6.218-2.7362-12.788.667-16.03 9.8331-9.366 45.1445 9.176 73.3775 26.625l15.089 147.48Z"/><path fill="#000" fill-rule="evenodd" d="M147.997 232.899c-6.442-6.397-12.785-10.41-14.089-8.089-5.96 10.608-10.03 67.618 6.912 104.277-.939 33.139 3.459 44.5 13.934 50.736 1.983 1.18 4.775.358 7.332-.58 26.658-9.738 28.43-104.097-14.089-146.344Zm-83.7724-4.656c-1.5935 2.798-.1914 7.219 4.5274 13.56 3.9901 5.353 13.1561 14.214 13.3846 10.268-3.2983-5.335-10.9201-20.53-13.5884-26.495-.7288-1.642-3.5021 1.235-4.3236 2.667Zm.6177 71.274c-.2471 8.459 6.8621 15.473 10.2963 23.21 3.4712-2.371 6.6336-6.453 6.3804-11.09-6.0901-5.007-9.0178-9.015-16.6767-12.12Z" clip-rule="evenodd" opacity=".05"/><g clip-path="url(#e)"><path fill="#000" d="M88.9301 134.443c-2.2297-3.389-12.8101-3.939-19.4129-3.939-4.365-.055-8.7263.278-13.0325.994-2.625.5-5.5589 1.291-6.5039 3.087-10.7224 7.41-11.7354 22.093-2.8659 41.475 1.5689 3.427 5.7071 12.454 14.7496 15.906.8029 2.507 1.6738 8.731 2.0753 16.381.4059-2.318 1.5343-4.449 3.2242-6.088l.1853-.167c-.236-3.026-.6485-6.036-1.2353-9.015 2.0189.301 4.0686.334 6.0962.099-.4399 2.161-.7473 4.347-.9203 6.545 1.2772-.474 2.6098-.783 3.9653-.92.1712-2.203.5539-4.384 1.1427-6.514 9.2216-2.877 14.8237-11.114 16.899-16.332 2.4913-6.082 4.1151-12.484 4.8239-19.018.9574-10.756-2.2174-18.517-9.1907-22.494Zm-19.419-.092c7.1277 0 12.0442.759 14.5086 1.469-2.4706.71-7.3809 1.47-14.5086 1.47-7.1278 0-12.0443-.76-14.5087-1.47 2.4644-.71 7.3809-1.469 14.5087-1.469Zm23.4708 29.805c-.8443 3.534-1.9382 7.005-3.2736 10.385-2.0437 5.016-5.6104 9.264-10.1974 12.146-3.0155 1.825-6.4748 2.786-9.9998 2.778-1.6531.009-3.2993-.212-4.8919-.654-1.7838-.502-3.4708-1.299-4.9906-2.359-4.4224-3.087-7.1463-7.953-8.9992-11.997-1.6132-3.449-2.9595-7.016-4.0271-10.67-4.0457-14.134-.2039-21.537 4.7497-25.408 3.638 2.352 12.4149 2.772 18.1714 2.772 4.3592.05 8.7143-.287 13.014-1.006 1.9024-.365 3.9653-.877 5.318-1.803 7.9615 5.285 7.2512 16.801 5.1265 25.816Z"/><path fill="url(#f)" d="M92.9818 164.155c-.8443 3.535-1.9383 7.006-3.2736 10.386-2.1927 5.557-8.9127 14.924-20.1973 14.924-10.7657 0-15.9416-8.57-18.894-15.023-1.6132-3.448-2.9595-7.015-4.0271-10.669.0635-1.406.3859-2.787.9512-4.076 5.3797-11.54 39.1283-11.688 44.6069.445.5364 1.271.8196 2.634.8339 4.013Z"/><path fill="#000" fill-rule="evenodd" d="M84.52 154.999c.6609-.383 7.2389 3.865 6.1765 6.687-1.6615 4.513-19.9378 3.89-19.9378 3.704 0-.185 13.9281-.376 16.059-4.939 1.1365-2.347-2.7918-5.162-2.2977-5.452Z" clip-rule="evenodd" opacity=".1"/><g fill="#000" opacity=".1"><path d="M72.204 193.176c-.4399 2.161-.7472 4.347-.9203 6.545-1.4554.526-2.794 1.332-3.9406 2.371-.236-3.026-.6485-6.036-1.2353-9.015 2.0189.301 4.0686.334 6.0962.099ZM69.5109 137.29c8.0129 0 14.5087-.658 14.5087-1.47 0-.811-6.4958-1.469-14.5087-1.469-8.0129 0-14.5087.658-14.5087 1.469 0 .812 6.4958 1.47 14.5087 1.47ZM87.8553 138.29c-1.3527.926-3.4156 1.439-5.318 1.803-4.3025.735-8.6617 1.086-13.0263 1.05-5.7566 0-14.5334-.42-18.1714-2.773-6.0715 4.749-10.5001 14.819-.7227 36.079 2.9524 6.452 8.1284 15.022 18.8941 15.022 11.2845 0 18.0046-9.379 20.1973-14.924 2.6559-6.619 9.9998-28.329-1.853-36.257Z" opacity=".1"/></g><g fill="#fff" fill-rule="evenodd" clip-rule="evenodd" opacity=".77"><path d="M92.1483 158.463c-.1606-4.477-2.7548-9.114-3.2304-9.046-.4755.068 1.9086 3.939 1.9395 9.694 0 2.383-2.3533 12.207-1.9395 12.269.5251.074 3.4465-7.379 3.2304-12.917ZM69.5111 142.958c-10.3889.037-17.2943-3.007-17.4178-2.581-.1236.426 7.5353 4.526 17.4178 4.52 9.0981 0 16.2752-3.439 16.1517-3.871-.1236-.433-7.381 1.907-16.1517 1.932Z" opacity=".77"/></g></g><path fill="#000" d="M339.001 256.603c-11.705-67.438-40.302-125.078-80.53-162.2923-4.676-4.3284-12.495-5.3534-22.013-2.8897-14.707 3.8035-31.853 15.159-47.047 31.163-12.612 13.282-29.999 36.257-41.191 70.285-.05.155-.099.328-.149.507-2.378 6.705-5.521 17.795-7.807 34.022-2.359 16.764-3.23 34.979-2.588 54.145.624 18.622 4.169 35.886 10.568 51.656 1.291 21.852 3.008 38.542 4.991 47.6 8.814 40.382 23.076 73.274 41.235 95.107 15.293 18.382 32.871 28.434 49.659 28.434.457 0 .92-.012 1.371-.025 35.151-1.154 64.273-27.977 82.012-75.521 8.691-23.297 14.342-51.2 16.356-80.689 2.032-29.799.346-61.438-4.867-91.502Zm1.013 91.242c-1.983 29.126-7.56 56.646-16.121 79.597-17.152 45.988-45.04 71.915-78.516 73.014-15.991.513-33.008-9.07-47.937-27.02-17.769-21.358-31.753-53.675-40.437-93.458-1.73-7.935-3.144-21.093-4.256-36.863 3.823 7.583 8.351 14.776 13.601 21.568.377.488.951.747 1.525.747.414 0 .828-.129 1.18-.401.846-.654 1.001-1.865.346-2.704-7.134-9.238-12.921-19.253-17.344-29.997-1.717-4.186-3.23-8.483-4.533-12.892-3.533-11.905-5.534-24.6-5.985-38.023-.34-9.978-.717-39.203 4.706-66.414 1.408-7.07 3.212-14.01 5.51-20.438.043-.179.086-.346.136-.488.105-.314.21-.623.315-.932 10.975-32.83 27.782-55.028 40.005-67.902 14.712-15.492 31.191-26.4579 45.218-30.0824 3.101-.8027 5.967-1.204 8.53-1.204 4.213 0 7.604 1.0743 9.895 3.1922 39.604 36.6402 67.781 93.5082 79.344 160.1192 5.163 29.762 6.831 61.085 4.818 90.581Z"/><path fill="#8F85BA" d="M340.013 347.845c-1.982 29.126-7.56 56.646-16.12 79.597-17.153 45.988-45.04 71.915-78.516 73.014-15.992.513-33.008-9.07-47.937-27.02-17.77-21.358-31.753-53.675-40.437-93.458-1.73-7.935-3.144-21.093-4.256-36.862 3.823 7.582 8.351 14.775 13.601 21.567.376.488.951.747 1.525.747.414 0 .828-.129 1.18-.401.846-.654 1.001-1.865.346-2.704-7.134-9.238-12.921-19.253-17.344-29.996-1.717-4.187-3.23-8.484-4.533-12.893-3.533-11.905-5.535-24.6-5.985-38.023-.34-9.978-.717-39.202 4.706-66.414 1.408-7.07 3.212-14.01 5.51-20.438.117-.327.228-.66.352-.981.049-.149.08-.291.098-.439 10.976-32.83 27.782-55.028 40.006-67.902 14.712-15.492 31.191-26.4578 45.218-30.0823 3.101-.8027 5.967-1.2041 8.53-1.2041 4.213 0 7.603 1.0744 9.895 3.1923 39.604 36.6401 67.781 93.5081 79.344 160.1191 5.163 29.762 6.831 61.085 4.817 90.581Z"/><path fill="#000" fill-rule="evenodd" d="M150.523 336.286c1.433-.024 15.102 31.281 26.609 35.165 5.201 1.753 14.774-14.214 14.774-14.214s11.915 15.004 16.677 14.17c6.813-1.185 11.735-18.486 11.735-18.486s10.84 13.528 20.383 12.324c3.873-.488 9.882-19.715 9.882-19.715s10.877 15.652 18.53 12.942c7.653-2.717 20.203-55.93 24.706-11.707 8.616 84.696 4.213 133.148-17.912 147.27-20.166 12.867-44.841 6.952-55.589 2.463-67.472-46.426-71.228-160.187-69.795-160.212Z" clip-rule="evenodd" opacity=".1"/><path fill="#000" d="M374.083 266.102c-10.593-28.255-26.084-56.213-40.432-72.965-9.419-11.009-17.634-16.585-24.422-16.585-.099 0-.198.006-.29.006-22.434.531-35.034 72.613-36.819 123.628-.525 14.967-4.731 27.322-9.178 40.406-1.866 5.483-3.756 11.034-5.405 16.881-.012.044-.024.087-.037.124-.018.062-.037.111-.049.173-2.922 10.385-5.096 21.722-5.096 35.306 0 30.651 3.576 57.189 10.346 76.744 4.453 12.868 10.16 22.142 16.856 27.563 3.15 5.669 7.041 9.349 11.445 10.275.76.16 1.544.234 2.347.234 5.157 0 11.179-3.241 17.208-9.268 10.617-4.353 24.335-12.355 36.929-25.766 12.767-13.603 22.304-30.422 28.338-49.99 6.72-21.796 9.061-47.025 6.98-75.095 1.173 1.569 1.834 1.754 2.699 1.612.858-.142 1.519-.803 1.68-1.686 3.669-20.308-.982-49.285-13.1-81.597Zm9.956 76.429c-.556-.945-1.241-2.143-2.088-3.674-3.44-6.242-8.468-15.961-14.934-28.897-.482-.951-1.637-1.34-2.595-.864-.951.481-1.34 1.636-.858 2.593 6.294 12.584 11.235 22.148 14.688 28.446 3.144 30.787 1.081 58.239-6.121 81.597-5.856 19.006-15.096 35.313-27.461 48.483-9.963 10.614-20.259 17.326-28.048 21.377 7.857-10.392 15.213-25.384 20.08-43.92.272-1.031-.346-2.087-1.377-2.359-1.032-.272-2.082.346-2.354 1.377-6.016 22.895-15.713 39.486-24.774 48.767-2.989 3.062-5.904 5.316-8.604 6.749-2.266 1.204-4.385 1.827-6.244 1.827-.537 0-1.056-.049-1.55-.154-1.248-.259-2.483-.889-3.688-1.846-2.001-1.581-3.903-4.069-5.614-7.299-1.427-2.698-2.724-5.903-3.811-9.546-3.589-12.028-4.762-27.544-3.292-43.691.099-1.062-.686-2-1.748-2.099-1.069-.093-1.995.691-2.094 1.747-1.575 17.277-.056 33.516 3.644 45.649-11.816-17.054-18.98-50.663-18.98-93.718 0-13.139 2.118-24.18 4.972-34.324 5.349-11.806 10.426-20.154 14.515-26.872 2.044-3.365 3.817-6.274 5.336-9.12.5-.939.142-2.112-.797-2.612-.939-.5-2.106-.142-2.612.797-1.464 2.747-3.212 5.612-5.226 8.934-1.26 2.069-2.612 4.292-4.039 6.724 3.835-11.491 7.14-22.784 7.609-36.281 1.013-28.978 4.991-58.641 10.908-81.388 6.319-24.297 14.391-38.331 22.143-38.517.068 0 .13-.006.198-.006 5.454 0 13.075 5.403 21.494 15.233 14.076 16.437 29.308 43.95 39.752 71.81 11.001 29.336 15.744 55.744 13.57 75.077Z"/><path fill="#8F85BA" d="M384.039 342.531c-.556-.945-1.241-2.143-2.088-3.674-3.44-6.242-8.468-15.961-14.934-28.897-.482-.951-1.637-1.34-2.595-.864-.951.481-1.34 1.636-.858 2.593 6.294 12.584 11.235 22.148 14.688 28.446 3.144 30.787 1.081 58.239-6.121 81.597-5.856 19.006-15.096 35.313-27.461 48.483-9.963 10.614-20.259 17.326-28.048 21.377 7.857-10.392 15.213-25.384 20.08-43.92.272-1.031-.346-2.087-1.377-2.359-1.032-.272-2.082.346-2.354 1.377-6.016 22.895-15.713 39.486-24.774 48.767-2.989 3.062-5.904 5.316-8.604 6.749-2.266 1.204-4.385 1.827-6.244 1.827-.537 0-1.056-.049-1.55-.154-1.248-.259-2.483-.889-3.688-1.846-2.001-1.581-3.903-4.069-5.614-7.299-1.427-2.698-2.724-5.902-3.811-9.545-3.589-12.029-4.762-27.545-3.292-43.692.099-1.062-.686-2-1.748-2.099-1.069-.093-1.995.691-2.094 1.747-1.575 17.277-.056 33.516 3.644 45.649-11.816-17.054-18.98-50.663-18.98-93.718 0-13.139 2.118-24.18 4.972-34.324 5.349-11.806 10.426-20.154 14.515-26.872 2.044-3.365 3.817-6.274 5.336-9.12.5-.939.142-2.112-.797-2.612-.939-.5-2.106-.142-2.612.797-1.464 2.747-3.212 5.612-5.226 8.934-1.26 2.069-2.612 4.292-4.039 6.724 3.835-11.491 7.14-22.784 7.609-36.281 1.013-28.978 4.991-58.64 10.908-81.388 6.319-24.297 14.391-38.331 22.143-38.517.068 0 .13-.006.198-.006 5.454 0 13.075 5.403 21.494 15.233 14.076 16.437 29.308 43.95 39.752 71.81 11.001 29.336 15.744 55.744 13.57 75.077Z"/><path fill="#000" fill-rule="evenodd" d="M310.063 495.037c38.356-13.85 28.64-45.711 26.287-49.465-6.034 16.913-23.878 46.748-26.287 49.465Zm70.14-152.982c-5.966-14.67-12.631-35.127-16.059-32.039-3.428 3.087 6.103 21.635 16.059 62.233 3.033 2.976 1.057-14.825 0-30.194Zm-41.246-14.726c-5.535-1.371-9.481-4.989-9.691-4.476-.278.666 4.749 7.224 11.741 8.428 7.622 1.315 14.058-4.322 13.86-5.162-.191-.809-7.202 3.365-15.91 1.21Zm-14.207-16.227c7.622 1.315 14.058-4.322 13.861-5.162-.192-.815-7.208 3.359-15.911 1.204-5.534-1.37-9.481-4.989-9.691-4.476-.278.667 4.75 7.224 11.741 8.434Zm-16.392 14.906c7.622 1.315 14.058-4.322 13.86-5.162-.191-.815-7.208 3.359-15.911 1.204-5.534-1.371-9.481-4.989-9.691-4.477-.278.667 4.75 7.225 11.742 8.435Zm27.838 34.287c-5.596-.685-9.759-3.81-9.938-3.272-.235.697 5.188 6.613 12.229 6.965 7.671.382 13.731-6.027 13.483-6.836-.24-.79-6.967 4.224-15.774 3.143Zm-5.016 13.93c-.173-.827-7.288 3.001-15.929.426-5.497-1.642-9.345-5.452-9.574-4.946-.29.649 4.565 7.453 11.526 9.003 7.572 1.685 14.15-3.637 13.977-4.483Zm-16.034-20.283c-.117-.846-7.455 2.062-15.892-1.612-5.368-2.334-8.95-6.619-9.21-6.15-.333.611 4.058 8.002 10.884 10.435 7.442 2.649 14.341-1.809 14.218-2.673Zm-3.854-17.814c-.278.667 4.75 7.224 11.741 8.428 7.622 1.315 14.058-4.322 13.861-5.162-.192-.815-7.208 3.359-15.911 1.204-5.534-1.364-9.481-4.983-9.691-4.47Z" clip-rule="evenodd" opacity=".1"/><path fill="#000" d="M270.94 107.168c-3.428-11.2128-16.571-38.3378-64.551-48.0319C202.671 58.3828 198.848 58 195.037 58c-12.545 0-25.213 4.069-36.633 11.7626-10.439 7.0328-19.154 16.7269-24.546 27.2855-8.245 16.1469-3.576 35.9299 2.878 63.3079 1.279 5.415 2.601 11.009 3.935 17.023 1.161 5.236 3.57 16.122 6.281 25.137 4.015 13.38 7.196 18.363 11.736 18.4h.074c1.637 0 4.663-.592 6.553-4.556.871-1.828 1.359-4.033 1.835-6.169.42-1.877 1.266-5.674 2.211-6.261 1.087.599 3.162 3.6 4.305 5.248 2.946 4.255 6.282 9.077 11.303 9.077 1.118 0 2.23-.253 3.292-.747 6.362-2.606 7.177-10.231 7.832-16.363.235-2.216.457-4.31.883-5.921.426-1.612.84-1.914.846-1.914.007 0 .019-.006.062-.006 1.773 0 5.825 3.68 8.246 5.884 3.953 3.587 7.369 6.687 11.087 6.687.895 0 1.754-.179 2.545-.537 5.138-2.328 4.657-9.552 4.101-17.919-.192-2.803-.513-7.625-.124-9.91 1.829 1.068 4.867 3.933 6.64 5.6 4.002 3.773 6.893 6.496 10.018 6.496.859 0 1.705-.216 2.44-.624 3.897-2.185 2.699-7.65 2.051-10.589-.779-3.538-2.125-7.873-3.546-12.46-1.229-3.946-2.495-8.027-3.329-11.423-.352-1.439-.574-2.569-.71-3.44 2.761 2.013 6.726 5.693 8.937 7.75 5.973 5.538 8.499 7.786 11.192 7.786.964 0 1.872-.297 2.625-.859 1.242-.932 2.014-2.438 2.292-4.476.865-6.212-2.594-21.037-12.137-36.578 6.516 2.735 11.488 4.587 15.064 4.587 1.971 0 3.54-.58 4.67-1.722 3.298-3.347 3.7-11.541.994-20.389Zm-3.743 17.678c-.395.401-1.056.574-1.921.574-5.923 0-21.259-8.274-24.107-8.274-.574 0-.642.334-.03 1.143 16.065 20.999 19.388 42.277 16.602 44.37-.086.062-.185.087-.309.087-2.958 0-17.294-16.906-22.371-16.906-.334 0-.624.074-.871.228-4.966 3.069 11.118 37.103 6.757 39.548-.161.087-.346.13-.55.13-3.483 0-12.618-12.504-17.535-12.504-.364 0-.71.068-1.025.217-5.386 2.537 1.729 25.92-3.663 28.359-.302.136-.617.198-.957.198-4.756 0-13.193-12.571-19.333-12.571-.457 0-.902.067-1.328.222-6.8 2.371-1.606 21.061-9.845 24.303-.599.29-1.174.426-1.742.426-5.88 0-10.185-14.374-15.596-14.374-.203 0-.407.018-.611.061-6.794 1.383-4.058 16.974-10 16.974h-.037c-5.219-.043-11.556-28.187-14.286-40.511-8.104-36.566-16.245-59.912-7.14-77.7444 10.03-19.6475 32.76-36.9425 57.738-36.9425 3.496 0 7.035.3396 10.586 1.062 62.266 12.5777 67.028 56.3989 61.574 61.9249Z"/><path fill="url(#g)" d="M267.198 124.846c-.396.401-1.057.574-1.921.574-5.924 0-21.26-8.274-24.107-8.274-.575 0-.643.334-.031 1.143 16.065 20.999 19.388 42.277 16.602 44.37-.086.062-.185.087-.309.087-2.958 0-17.294-16.906-22.371-16.906-.334 0-.624.074-.871.228-4.966 3.069 11.118 37.103 6.757 39.548-.16.087-.346.13-.549.13-3.484 0-12.619-12.504-17.536-12.504-.364 0-.71.068-1.025.217-5.386 2.537 1.729 25.92-3.663 28.359-.302.136-.617.198-.957.198-4.756 0-13.193-12.571-19.333-12.571-.457 0-.901.067-1.328.222-6.8 2.371-1.605 21.061-9.845 24.303-.599.29-1.174.426-1.742.426-5.88 0-10.185-14.374-15.596-14.374-.203 0-.407.018-.611.061-6.794 1.383-4.058 16.974-10 16.974h-.037c-5.219-.043-11.556-28.187-14.286-40.511-8.104-36.566-16.245-59.912-7.14-77.7443 10.03-19.6476 32.76-36.9426 57.738-36.9426 3.496 0 7.035.3396 10.587 1.0621 62.265 12.5776 67.027 56.3988 61.574 61.9248Z"/><path fill="#000" fill-rule="evenodd" d="M222.177 145.099c-.42-.747 1.618-2.872 2.266-4.31 1.39-3.094.686-6.397 1.44-6.57 1.173-.272 5.274 5.804 2.884 9.237-1.668 2.396-5.966 2.748-6.59 1.643Zm-7.202 22.994c-2.576 1.846-7.307.383-7.412-.821-.086-.945 3.132-1.563 4.941-3.699 3.175-3.742 1.828-9.188 2.267-9.237.624-.074 4.497 10.676.204 13.757Zm-8.03-25.254c-.148-.494 2.483-1.285 4.12-3.489 1.748-2.359 1.625-5.137 2.057-5.131.587.006 2.094 4.557-.204 7.187-1.97 2.242-5.794 2.038-5.973 1.433Zm-9.264 14.578c-3.342 1.587-7.857.327-8.03-1.025-.13-1.019 5.188-3.433 6.177-4.106 2.742-1.859 5.614-5.372 6.38-4.927 1.241.716.111 7.854-4.527 10.058Zm-1.65 9.033c.649.031 2.477 13.696-2.056 15.4-2.86 1.074-7.455-2.902-6.998-4.106.271-.723 2.581-.155 4.323-1.025 4.552-2.291 4.231-10.287 4.731-10.269Zm-19.765 2.26c-3.298 1.883-7.652.192-7.615-.413.025-.451 2.897-.192 5.559-1.643 3.737-2.031 5.046-5.958 5.559-5.748.593.247.191 5.699-3.503 7.804Zm-1.235 10.472c.272.142-2.143 8.916-7.208 9.237-3.743.241-7.06-4.266-6.59-4.927.438-.617 4.187 2.371 8.029 1.235 3.966-1.173 5.572-5.65 5.769-5.545Z" clip-rule="evenodd" opacity=".17" style="mix-blend-mode:color-burn"/><path fill="#D4D5D7" d="M148.742 124.914c-.469-3.452-1.933-9.737-6.411-13.078-1.903-1.414-5.151-3.075-8.054-3.075-1.211 0-2.242.29-3.138.889-1.557 1.025-2.798 3.088-3.181 5.255-.247 1.426-.037 2.494.284 2.921.155.209.297.308 1.087.549h.006c.186.056.402.117.661.191 1.032.291 2.31.655 3.793 1.377 6.306 3.082 10.759 8.089 14.008 11.744.315.352.661.741 1.007 1.124 0-.012.006-.031.006-.043.266-1.926.371-4.662-.068-7.854Zm-11.741-9.318c.617-.87 1.822-1.068 2.692-.45l2.416 1.722c.864.618 1.068 1.828.444 2.693-.377.524-.97.808-1.569.808-.389 0-.784-.117-1.124-.358l-2.409-1.722c-.87-.624-1.068-1.828-.45-2.693Z"/><path fill="#FFF6A6" d="M154.245 172.995c-5.546 6.576-18.925 5.582-27.671.346 1.131-3.025 2.842-6.02 5.448-8.694.958-.981 2.94-1.265 5.04-1.568 4.398-.63 10.42-1.494 11.359-9.904.117-1.062-.649-2.013-1.705-2.136-1.062-.118-2.013.648-2.137 1.71-.605 5.44-3.897 5.915-8.06 6.514-2.65.377-5.392.772-7.258 2.686-7.961 8.163-8.542 18.406-8.925 25.186-.111 2.032-.253 4.532-.636 5.304-.278-.018-.741-.173-1.34-.562-3.224-2.118-7.554-8.866-9.438-18.69-1.902-9.954-.951-22.173 2.551-32.682 3.465-10.392 8.876-17.264 14.465-18.394.359-.074.741-.105 1.143-.105.408 0 .834.037 1.285.111 2.007.327 4.397 1.383 6.954 3.093 3.515 2.359 7.313 5.99 10.735 10.312.006.006.013.012.019.025 4.867 6.149 8.962 13.682 10.339 20.876.816 4.266 1.619 12.083-2.168 16.572Z"/><path fill="#000" fill-rule="evenodd" d="M151.793 136.769c3.972 5.761 7.153 12.362 8.413 18.931 1.155 6.027 1.569 14.356-3.008 19.784-2.977 3.532-8.234 5.705-14.422 5.971-5.893.253-11.983-1.266-17.344-4.304-.867 3.708-1.073 7.281-1.24 10.17l-.002.036v.007c-.259 4.554-.464 8.157-3.465 8.835-.271.056-.586.099-.951.099-.92 0-2.112-.265-3.533-1.198-4.015-2.63-9.005-10.2-11.111-21.185-4.071-21.277 4.508-51.397 19.221-55.392-1.198-3.717.704-9.478 4.657-12.096 1.662-1.099 3.471-1.525 5.269-1.525 4.206 0 8.344 2.34 10.364 3.841 8.913 6.656 9.345 22.543 7.152 28.026Zm-20.654-27.119c-1.556 1.025-2.798 3.088-3.181 5.255-.247 1.426-.037 2.494.284 2.921.155.209.297.308 1.087.549h.006c.186.056.402.117.661.191 1.032.291 2.31.655 3.793 1.377 6.306 3.081 10.759 8.089 14.008 11.744.09.101.183.205.278.311.235.264.482.54.729.813 0-.003 0-.007.001-.01.002-.011.005-.024.005-.033.266-1.926.371-4.662-.068-7.854-.469-3.452-1.933-9.737-6.411-13.078-1.902-1.414-5.151-3.075-8.054-3.075-1.211 0-2.242.29-3.138.889Zm-4.564 63.691c8.746 5.236 22.124 6.23 27.67-.346 3.787-4.489 2.984-12.306 2.168-16.572-1.377-7.194-5.472-14.727-10.339-20.876-.006-.013-.012-.019-.019-.025-3.421-4.322-7.22-7.953-10.734-10.312-2.558-1.71-4.948-2.766-6.955-3.093-.451-.074-.877-.111-1.285-.111-.401 0-.784.031-1.143.105-5.589 1.13-11 8.002-14.465 18.394-3.502 10.509-4.453 22.728-2.551 32.682 1.884 9.824 6.214 16.572 9.438 18.69.599.389 1.062.544 1.34.562.383-.772.525-3.272.636-5.304.383-6.78.964-17.023 8.925-25.186 1.866-1.914 4.608-2.309 7.258-2.686 4.163-.599 7.455-1.074 8.06-6.514.124-1.062 1.075-1.828 2.137-1.71 1.056.123 1.822 1.074 1.705 2.136-.939 8.41-6.961 9.274-11.359 9.904l-.012.002c-2.095.302-4.072.586-5.028 1.566-2.606 2.674-4.317 5.669-5.447 8.694Zm14.409-52.972c.599 0 1.192-.284 1.569-.808.624-.865.42-2.075-.445-2.693l-2.415-1.722c-.871-.618-2.075-.42-2.693.45-.617.865-.42 2.069.451 2.693l2.409 1.722c.34.241.735.358 1.124.358Z" clip-rule="evenodd"/><path fill="#fff" d="M116.395 130.045c.013-.043.019-.068.025-.105-1.877 2.877-3.57 6.44-4.941 10.571-3.502 10.509-4.453 22.729-2.551 32.682.754 3.927 1.902 7.354 3.206 10.194-.643-6.996-2.73-29.527 4.261-53.342Z"/><path fill="#000" d="M137.062 163.079c-2.1.303-4.082.587-5.04 1.568-2.606 2.674-4.317 5.669-5.447 8.694.401.241.815.469 1.235.692 2.156.16 5.726-.729 6.967-4.069.859-2.31 2.878-4.946 4.917-7.317-.902.185-1.798.315-2.632.432Z" opacity=".26"/><path fill="#000" d="M170.128 97.921c-.055.0062-.105.0123-.16.0185-1.05.1729-1.761 1.167-1.588 2.2165 1.279 7.712 8.048 13.553 15.738 13.59 8.203.044 15.256-6.427 16.041-14.7321.098-1.062-.68-2.0006-1.742-2.1055-1.063-.0988-2.001.6792-2.106 1.7412-.6 6.3294-5.942 11.2624-12.181 11.2374-5.836-.031-10.969-4.482-11.945-10.3606-.161-.9941-1.069-1.6857-2.057-1.6054ZM248.217 507.779l4.318-43.024c.512-.346 1.007-.772 1.476-1.29 2.674-2.946 4.126-8.139 3.712-13.226-.086-1.062-1.019-1.871-2.081-1.766-1.063.086-1.853 1.018-1.767 2.08.222 2.668-.173 5.082-.858 6.996-.507 1.414-1.174 2.563-1.866 3.322-.599.661-1.204 1.025-1.705 1.031-.092 0-.265-.074-.481-.247-.099-.08-.204-.185-.321-.308-.569-.605-1.335-1.791-2.082-3.89-.222-.636-.451-1.34-.667-2.155v-.006c-.074-.272-.148-.556-.216-.846-.513-2.106-.97-4.78-1.291-8.145-.099-1.062-1.044-1.834-2.1-1.741-1.062.105-1.841 1.044-1.742 2.106.327 3.402.815 6.397 1.445 8.947-.074.636-.166 1.216-.265 1.772-.284 1.605-.643 2.865-1.025 3.84-.964 2.433-2.07 3.143-2.539 3.143-.161-.018-.383-.111-.642-.284-1.081-.722-2.829-2.871-3.898-6.817-.716-2.636-1.124-6.069-.834-10.422.074-1.068-.735-1.982-1.797-2.056-1.056-.068-1.983.734-2.057 1.796-.778 11.646 2.99 17.252 4.799 19.228l1.619 38.054c-5.04 2.044-11.847 5.946-16.103 13.004-4.169 6.915-6.065 13.608-5.633 19.888.414 6.051 2.91 10.423 4.929 13.022 1.971 2.544 5.751 6.07 8.085 5.372.618-.185 1.125-.624 1.384-1.204.488-1.081.031-2.087-.605-3.47-.81-1.766-2.162-4.724-2.162-8.663 0-7.126 4.299-13.572 7.98-16.937 2.174-1.982 4.039-2.816 4.83-2.741.018.006 1.692.759 2.761 9.836.679 5.754.871 12.738 1.019 17.838.13 4.625.204 6.897.457 7.965.327 1.346 1.303 1.884 2.112 1.933.056.006.112.006.167.006 1.501 0 2.675-1.358 4.701-5.372 1.155-2.297 2.161-4.643 2.273-4.946 6.077-15.844 1.457-33.089-3.336-41.579.006-.013.006-.031.006-.044Zm-.271 40.24c-.34.859-1.248 2.865-2.162 4.674-.031-.944-.062-1.969-.093-2.982-.574-20.45-1.853-30.916-7.263-31.41-2.947-.266-6.152 2.223-7.808 3.736-4.261 3.89-9.234 11.404-9.234 19.783 0 2.575.476 4.804 1.051 6.607-1.261-1.414-2.588-3.322-3.558-5.736-1.958-4.841-2.903-12.905 3.675-23.828 4.558-7.552 12.625-11.028 17.035-12.423 1.013-.321 1.575-1.408 1.254-2.421-.241-.772-.921-1.284-1.68-1.34l-1.464-34.479c.148.019.296.031.444.031h.037c3.237-.031 5.146-2.976 6.264-6.113 1.179 2.013 2.563 3.211 4.119 3.545l-3.848 38.387c-.432-.006-.864.136-1.229.42-.834.661-.97 1.877-.309 2.711 3.533 4.439 11.569 23.105 4.769 40.838ZM214.265 463.378c.821-.383 1.6-.975 2.322-1.766 2.675-2.945 4.126-8.138 3.712-13.226-.086-1.062-1.019-1.871-2.081-1.766-1.063.087-1.853 1.019-1.767 2.081.235 2.871-.241 5.458-1.025 7.44-.482 1.211-1.081 2.199-1.699 2.878-.599.661-1.204 1.025-1.704 1.031-.167 0-.531-.21-1.001-.778-.247-.296-.525-.704-.815-1.229-.488-.883-1.013-2.118-1.513-3.816-.075-.247-.149-.506-.223-.778v-.006c-.074-.271-.148-.556-.216-.846-.513-2.105-.97-4.779-1.291-8.144-.099-1.062-1.044-1.834-2.1-1.741-1.062.105-1.84 1.043-1.742 2.105.328 3.403.816 6.397 1.446 8.947-.025.21-.056.402-.087.599-.216 1.562-.494 2.847-.815 3.89-1.025 3.353-2.397 4.261-2.928 4.267-.327-.037-.883-.371-1.513-1.044-1.093-1.179-2.421-3.383-3.224-6.841-.593-2.519-.902-5.705-.636-9.639.074-1.068-.735-1.982-1.798-2.056-1.056-.068-1.982.735-2.057 1.797-.66 9.873 1.952 15.406 3.861 18.061l.074 40.968c-7.894 2.791-20.253 9.997-24.175 28.168-2.304 10.689 4.941 26.298 7.906 28.527 1.167.877 2.205.432 2.495.278.482-.259 1.266-.926 1.168-2.495-1.279-20.61 6.331-30.403 8.69-32.916 1.754-1.865 3.317-2.754 4.398-3.026 1.278 3.341 1.513 17.727 1.655 26.52.074 4.73.142 9.194.315 12.46.216 4.125.377 7.107 2.841 7.107.618 0 1.538-.222 2.421-1.29 4.769-5.78 10.223-42.759 7.4-57.35-.531-2.772-1.662-3.97-2.341-4.686-.062-.068-.142-.155-.204-.223 1.229-12.25 3.058-22.852 4.83-33.102.47-2.741.951-5.532 1.421-8.36Zm-5.226 7.706c-1.791 10.355-3.638 21.055-4.879 33.497-.167 1.63.686 2.532 1.248 3.131.512.537 1.037 1.099 1.365 2.766 2.433 12.614-1.798 40.579-5.016 50.668-.173-3.402-.253-8.206-.315-12.386-.395-24.297-1-30.41-4.842-30.41-2.458 0-5.256 1.538-7.881 4.335-6.14 6.526-9.691 17.579-9.864 30.28-2.428-5.143-5.226-13.658-3.811-20.216 4.181-19.375 18.962-24.889 25.126-26.359.229-.055.383-.099.457-.123 1.013-.315 1.6-1.408 1.279-2.421-.322-1.019-1.39-1.587-2.403-1.265-.043.006-.111.024-.204.043l-.062-36.541c.501.191 1.001.296 1.483.296h.037c3.236-.031 5.145-2.976 6.263-6.113.969 1.655 2.075 2.748 3.304 3.279-.426 2.544-.858 5.063-1.285 7.539Z"/><path fill="#DCD7B0" d="M207.02 460.266c-1.118 3.137-3.027 6.082-6.263 6.113h-.037c-.482 0-.982-.105-1.483-.296l.062 36.541c.093-.019.161-.037.204-.044 1.013-.321 2.081.247 2.402 1.266.322 1.013-.265 2.106-1.278 2.421-.074.024-.229.068-.457.123-6.164 1.47-20.945 6.984-25.126 26.359-1.415 6.558 1.383 15.073 3.811 20.216.173-12.701 3.724-23.754 9.864-30.28 2.625-2.797 5.423-4.335 7.881-4.335 3.842 0 4.447 6.113 4.842 30.41.062 4.18.142 8.984.315 12.386 3.218-10.089 7.449-38.054 5.016-50.668-.328-1.667-.853-2.229-1.365-2.766-.562-.599-1.415-1.501-1.248-3.131 1.241-12.442 3.088-23.142 4.879-33.497.427-2.476.859-4.995 1.285-7.539-1.229-.531-2.335-1.624-3.304-3.279ZM243.177 507.181c-.661-.834-.525-2.05.309-2.711.364-.284.797-.426 1.229-.42l3.848-38.387c-1.557-.334-2.94-1.532-4.12-3.544-1.118 3.136-3.026 6.081-6.263 6.112h-.037c-.148 0-.296-.012-.445-.031l1.464 34.479c.76.056 1.439.568 1.68 1.34.321 1.013-.241 2.1-1.254 2.421-4.41 1.395-12.476 4.871-17.035 12.423-6.578 10.923-5.633 18.987-3.675 23.828.97 2.414 2.298 4.322 3.558 5.736-.574-1.803-1.05-4.032-1.05-6.607 0-8.379 4.972-15.893 9.234-19.783 1.655-1.513 4.861-4.001 7.807-3.736 5.411.494 6.689 10.96 7.264 31.41.031 1.013.062 2.038.092 2.982.915-1.809 1.823-3.815 2.162-4.674 6.801-17.733-1.235-36.399-4.768-40.838Z"/><path fill="#000" fill-rule="evenodd" d="M240.966 443.218c-1.347-.389-3.688 2.501-4.25 5.403-.877 4.569 2.743 8.848 4.25 8.49 2.347-.562 2.532-13.164 0-13.893Zm12.934 4.822c-5.893-11.497-6.48 11.448-4.824 12.541.79.525 3.051-1.402 4.249-3.087 2.724-3.866 1.106-8.416.575-9.454Zm-50.383-6.563c-1.346-.389-3.687 2.501-4.249 5.403-.877 4.569 2.742 8.848 4.249 8.49 2.354-.556 2.533-13.158 0-13.893Zm8.11 17.369c.791.525 3.051-1.402 4.25-3.087 2.73-3.866 1.112-8.416.58-9.454-5.892-11.503-6.485 11.442-4.83 12.541Z" clip-rule="evenodd" opacity=".05"/><path fill="#000" fill-rule="evenodd" d="M244.067 527.143c-.383-.858 2.322-2.637 1.927-3.47-.358-.76-2.946-.031-3.28-.772-.327-.722 1.785-2.328 1.544-2.704-.228-.346-2.217.827-2.897.191-.302-.284-.247-.803-.191-1.155.191-1.198.976-3.328.772-3.476-.29-.204-2.199 2.674-3.471 2.316-1.619-.451-1.563-5.792-1.736-5.792-.173.006.062 5.279-1.161 5.594-1.075.284-2.959-3.445-3.28-3.279-.37.185 2.069 5.119.964 5.983-.951.741-4.163-1.877-4.441-1.543-.272.333 2.785 3.167 2.316 3.859-.439.648-3.638-1.007-4.249-.192-.587.791 1.785 3.131 1.161 4.051-.624.92-3.854-.278-4.052.191-.185.439 2.532 1.797 2.316 2.705-.241.994-3.786.685-4.052 1.735-.234.932 2.366 2.198 2.125 2.896-.241.679-2.891-.031-3.28.772-.352.716 1.057 2.593 2.317 2.507 1.111-.075 2.557-2.958 4.249-7.91.29-.852.871-2.353 1.736-3.668 1.155-1.747 2.378-2.074 3.471-3.859.883-1.432 1.173-2.704 2.507-3.279.42-.179 1.18-.315 2.125-.191 1.143.148 1.847.525 2.316.963.742.698.785 1.439 1.162 2.507.45 1.291 1.142 1.785 1.544 3.087.414 1.346.407 2.631.383 3.47-.031 1.137.037 2.149 0 3.279-.05 1.587-.087 2.921.191 4.631.371 2.279 1.044 3.458 1.736 3.668.939.284 2.168-.488 2.124-.963-.037-.389-1.099-.531-1.735-1.161-.581-.568-1.05-1.476-.772-1.927.432-.697 2.575-.031 2.705-.383.155-.438-3.051-1.71-2.897-2.704.142-.889 2.903-1.087 2.897-1.544-.012-.487-3.175-.605-3.28-1.352-.117-.852 3.78-2.068 3.669-2.507-.105-.376-3.113.247-3.483-.574Zm.852-23.229c.71-8.477 3.527-29.434 5.343-40.036-1.223-1.71-3.15-2.358-3.768-2.266-3.286 2.97-8.122 42.358-1.575 42.302Zm-42.427-4.483c.124 2.229 2.792 3.15 3.089 2.507 2.526-5.489 5.923-40.085 5.404-42.258-3.903-16.332-9.234 26.099-8.493 39.751Zm-1.29 27.354c.21-.747 2.594-.568 2.705-1.161.13-.685-3.002-1.63-2.897-2.507.093-.784 2.699-.994 2.705-1.543.007-.587-3.001-.865-3.088-1.736-.074-.741 1.995-1.574 1.927-1.735-.08-.191-2.965 1.13-3.86.192-.741-.772.154-2.841 0-2.896-.13-.043-.599 1.352-1.161 1.352-.76-.006-1.273-2.556-1.544-2.507-.303.056.111 3.341-.383 3.47-.525.136-1.736-3.235-2.317-3.087-.617.154.099 4.149-.772 4.44-.809.265-2.514-2.884-2.897-2.705-.432.21 1.378 4.532.581 5.014-.574.346-2.131-1.519-2.705-1.155-.766.482 1.118 4.36.191 5.014-.704.494-2.563-1.223-3.088-.772-.618.531 1.353 3.452.581 4.248-.624.642-2.551-.599-3.089 0-.716.797 1.989 3.841 1.161 5.014-.71 1.007-3.323-.253-3.86.58-.63.976 1.89 4.428 3.471 4.051 1.001-.235 1.162-2.192 2.125-5.014.642-1.883 1.402-3.612 2.125-4.822.976-1.643 2.038-2.34 2.897-4.051.586-1.173 1.068-2.426 2.124-3.667.686-.809 1.452-1.445 2.508-1.735.809-.223 1.853-.284 2.705.191 1.026.574 1.446 1.68 1.736 2.896.587 2.451.655 5.495.581 6.174-.173 1.581-.408 3.063-.581 4.631-.148 1.39-.043 3.946 0 6.175.031 1.593.105 3.445 1.353 4.248.871.562 2.192.531 2.507 0 .352-.593-.827-1.525-.772-2.704.062-1.359 1.6-2.143 1.353-3.088-.303-1.167-3.051-1.259-3.088-1.926-.044-.747 3.298-1.334 3.279-2.124-.018-.753-3.119-1.204-3.088-1.735.031-.537 3.249-.55 3.471-1.544.241-1.087-3.168-2.531-2.896-3.476Z" clip-rule="evenodd" opacity=".17"/><defs><linearGradient id="d" x1="440.036" x2="390.036" y1="156.733" y2="248.257" gradientUnits="userSpaceOnUse"><stop stop-color="#715DD3"/><stop offset=".50226" stop-color="#8769E9"/><stop offset="1" stop-color="#7148B5"/></linearGradient><linearGradient id="f" x1="69.7889" x2="69.7889" y1="189.471" y2="151.047" gradientUnits="userSpaceOnUse"><stop stop-color="#651C35"/><stop offset="1" stop-color="#B6325F"/></linearGradient><linearGradient id="g" x1="201.082" x2="201.082" y1="61.8591" y2="217.057" gradientUnits="userSpaceOnUse"><stop stop-color="#FBA980"/><stop offset="1" stop-color="#F7CB6B"/></linearGradient><clipPath id="b"><path fill="#fff" d="M0 0h74.3746v78.3125H0z" transform="matrix(-.97472 -.22342 -.22342 .97472 541.897 233.042)"/></clipPath><clipPath id="e"><path fill="#fff" d="M0 0h57.1701v77.8491H0z" transform="translate(41.1176 130.498)"/></clipPath><radialGradient id="c" cx="0" cy="0" r="1" gradientTransform="matrix(-7.3157 -1.67686 1.67476 -7.30655 507.806 298.364)" gradientUnits="userSpaceOnUse"><stop stop-color="#FACC22"/><stop offset="1" stop-color="#F83600"/></radialGradient></defs></svg>