<svg xmlns="http://www.w3.org/2000/svg" xml:space="preserve" enable-background="new 0 0 568 568.39" version="1.0" viewBox="0 0 568 568.39"><defs><filter id="a" width="568" height="568" x="0" y="0" filterUnits="userSpaceOnUse"><feColorMatrix values="1 0 0 0 0 0 1 0 0 0 0 0 1 0 0 0 0 0 1 0"/></filter></defs><mask id="b" width="568" height="568" x="0" y="0" maskUnits="userSpaceOnUse"><path fill="#FFF" d="M-32 0h699v522H-32z" filter="url(#a)"/></mask><g mask="url(#b)"><circle cx="284" cy="284" r="284" fill="#DA6832"/></g><path d="M201.94 419.65c-.37 2.55-.72 5.1-1.05 7.66l2.59.59c3.64-28.3 10-55.68 18.79-80.33l77.09 83.54c-3.06 2.81-7.41 8.48-12.57 15.88l2.75.63c5.34-7.63 9.77-13.28 12.49-15.36l1.14-.86-81.89-88.74-.73 2.01c-8.45 23.18-14.71 48.41-18.61 74.98z"/><path fill="#E8E8E8" d="m203.47 427.9 83.31 19.1c5.16-7.4 9.52-13.07 12.57-15.88l-77.09-83.54c-8.78 24.65-15.14 52.02-18.79 80.32z"/><path fill-rule="evenodd" d="M213.93 401.54c.46-.07.76 3.01 3.04 5.38 3.09 3.21 7.7 3.18 7.67 3.89-.03.8-5.52 2.52-8.91-.34-3.49-2.95-2.46-8.83-1.8-8.93zm19.55 21.09c3.97 2.36 8.29 2.59 8.26 3.17-.04.63-4.33 1.62-8.09-.15-4.55-2.13-6.42-7.4-5.92-7.75.36-.26 2.31 2.68 5.75 4.73z" clip-rule="evenodd" enable-background="new" opacity=".15"/><path d="m366.13 369.19 1.29.39c.39.12.8.23 1.23.32 11.39 2.61 33.14-2.68 47.64-11.77 16.03-10.04 24.87-22.4 29.98-32.25-1.87 1.82-3.81 3.36-5.67 4.65-5.24 8.31-13.22 17.58-25.7 25.4-13.92 8.72-34.6 13.87-45.42 11.5l32.15-94.68c21.21-7.21 47.24-14.08 52.29-6.44 1.75 2.64.22 6.84-1.98 10.64-.48.84-1 1.65-1.52 2.43-.14.22-.29.43-.43.64-3.78 5.47-8.88 10.74-11.33 13.28-.65.67-1.12 1.16-1.39 1.46-.48.54-.42 1.36.12 1.84s1.36.42 1.84-.12c.23-.26.7-.75 1.3-1.37 3.31-3.42 6.94-7.38 9.97-11.38.45-.59.88-1.18 1.3-1.77l1.66-2.48c3.46-5.51 5.15-10.8 2.63-14.6-4.97-7.51-22.74-5.73-55.92 5.62l-.61.21-33.43 98.48z"/><path d="M427.33 335.39c.13.48.52.83.97.93.2.05.42.05.63-.01.11-.03 5.52-1.54 11.67-5.78 1.86-1.29 3.8-2.82 5.67-4.65 4.06-3.94 7.82-9.22 10-16.18 4.14-13.26.28-24.49-2.8-30.22-.51.82-1.07 1.65-1.66 2.48.31.65.63 1.37.94 2.14 2.3 5.75 4.2 14.66 1.02 24.83-.82 2.63-1.88 5-3.11 7.14-1.11 1.95-2.37 3.7-3.69 5.27-.92 1.1-1.88 2.11-2.86 3.04-.9.85-1.8 1.64-2.71 2.35-6.6 5.24-13.05 7.04-13.16 7.07-.69.18-1.1.9-.91 1.59z"/><path fill="#FFF6A6" d="M369.48 367.43c10.82 2.37 31.5-2.78 45.42-11.5 12.47-7.81 20.46-17.09 25.7-25.4-6.15 4.23-11.56 5.75-11.67 5.78-.21.06-.43.06-.63.01-.45-.1-.84-.45-.97-.93-.19-.69.23-1.41.92-1.6.11-.03 6.55-1.83 13.16-7.07.9-.71 1.81-1.5 2.71-2.35.98-.93 1.94-1.94 2.86-3.04 1.33-1.57 2.58-3.32 3.69-5.27 1.23-2.14 2.29-4.5 3.11-7.14 3.17-10.16 1.28-19.08-1.02-24.83-.31-.77-.63-1.49-.94-2.14-.42.59-.85 1.18-1.3 1.77-3.03 4.01-6.66 7.96-9.97 11.38-.6.62-1.08 1.11-1.3 1.37-.48.54-1.3.59-1.84.12s-.59-1.3-.12-1.84c.27-.3.74-.79 1.39-1.46 2.45-2.53 7.54-7.8 11.33-13.28.15-.21.29-.42.43-.64l1.52-2.43c2.2-3.8 3.73-7.99 1.98-10.64-5.06-7.64-31.09-.78-52.29 6.44l-32.17 94.69z"/><path fill-rule="evenodd" d="M397.71 272.63c5.2-3.23 9.98-4.92 10.49-3.19 2.32 7.87-3.59 45.96-20.26 67.51-4.38 21.93-8.98 28.73-16.81 31.25-1.48.48-3.2-.49-4.74-1.49-16.08-10.42-3.03-72.72 31.32-94.08zm55.83 9.57c.63 2.08-.96 4.77-5.02 8.23-3.43 2.92-10.8 7.36-10.36 4.73 2.97-3.01 10.28-11.85 12.93-15.37.73-.96 2.12 1.35 2.45 2.41zm-11.15 46.77c-1.11 5.6-6.85 9.14-10.27 13.71-1.93-2.08-3.39-5.24-2.53-8.25 4.76-2.38 7.29-4.58 12.8-5.46z" clip-rule="evenodd" enable-background="new" opacity=".05"/><path fill="none" d="m419.238779 292.594368 17.583814-76.718637 72.751608 16.674576-17.583814 76.718637z"/><path d="M268.45 259.4c17.86-42.57 45.37-76.15 77.44-94.55 3.73-2.14 9.03-1.63 14.92 1.42 9.1 4.72 18.68 14.77 26.26 27.58 6.3 10.63 14.28 28.36 16.51 52.42.01.11.02.23.02.35.55 4.77.95 12.53.01 23.54-.97 11.38-3.15 23.48-6.46 35.99-3.22 12.15-8.15 22.96-14.74 32.36-4.14 14.17-7.79 24.88-10.46 30.54-11.88 25.22-26.22 44.69-41.46 56.3-12.83 9.78-25.92 13.74-36.96 11.2-.3-.07-.6-.15-.9-.22-22.96-6.06-38.08-28.09-42.59-62.02-2.21-16.63-1.72-35.82 1.4-55.51 3.18-19.87 9.05-40.42 17.01-59.4zm-14.41 59.83c-3.08 19.45-3.56 38.38-1.39 54.76 4.36 32.82 18.8 54.07 40.66 59.84 10.44 2.75 23.09-.98 35.61-10.53 14.91-11.36 28.98-30.5 40.69-55.34 2.33-4.96 5.25-13.39 8.36-23.59-3.66 4.41-7.72 8.45-12.2 12.13-.32.26-.74.35-1.12.26-.27-.06-.52-.21-.71-.44-.46-.56-.38-1.38.18-1.83 6.09-5 11.4-10.71 15.93-17.1 1.76-2.49 3.4-5.09 4.93-7.79 4.12-7.29 7.35-15.34 9.67-24.09 1.73-6.51 6.38-25.66 6.91-44.37.14-4.86 0-9.7-.55-14.27 0-.12 0-.24-.02-.34-.02-.22-.04-.44-.07-.66-2.28-23.24-9.99-40.37-16.09-50.67-7.35-12.4-16.54-22.1-25.22-26.6-1.92-1-3.74-1.69-5.43-2.08-2.77-.63-5.17-.44-6.99.61-31.58 18.11-58.69 51.25-76.34 93.29-7.87 18.78-13.69 39.12-16.81 58.81z"/><path fill="#FFF6A6" d="M254.04 319.23c-3.08 19.45-3.56 38.38-1.39 54.76 4.36 32.82 18.8 54.07 40.66 59.84 10.44 2.75 23.09-.98 35.61-10.53 14.91-11.36 28.98-30.5 40.69-55.34 2.33-4.96 5.25-13.39 8.35-23.59-3.66 4.41-7.72 8.45-12.2 12.13-.32.26-.74.35-1.12.26-.27-.06-.52-.21-.71-.44-.46-.56-.38-1.38.18-1.83 6.09-5 11.4-10.71 15.93-17.1 1.76-2.49 3.4-5.09 4.93-7.79 4.12-7.29 7.35-15.34 9.67-24.09 1.73-6.51 6.38-25.66 6.91-44.37.14-4.86 0-9.7-.55-14.27-.03-.23-.05-.47-.08-.7-.01-.1-.01-.2 0-.3-2.28-23.24-9.99-40.37-16.09-50.67-7.35-12.4-16.54-22.1-25.22-26.6-1.92-1-3.74-1.69-5.43-2.08-2.77-.64-5.17-.44-6.99.61-31.58 18.11-58.69 51.25-76.34 93.29-7.87 18.78-13.69 39.12-16.81 58.81z"/><path fill-rule="evenodd" d="M380.47 340.22c-.94-.23-14.65 18.29-22.81 19.1-3.69.37-7.58-11.57-7.58-11.57s-10.1 8.07-13.11 6.8c-4.3-1.81-4.94-13.92-4.94-13.92s-9.17 7.26-15.27 5.03c-2.47-.91-3.53-14.45-3.53-14.45s-9.52 8.65-14.14 5.71c-4.63-2.94-4.87-39.82-14.49-11.42-18.43 54.38-22.83 86.9-10.4 99.52 11.33 11.5 28.46 11.33 36.21 10 51.39-20.35 71-94.57 70.06-94.8z" clip-rule="evenodd" enable-background="new" opacity=".1"/><path d="M243.94 260.36c11.23-16.98 25.63-33.02 37.6-41.87 7.86-5.82 14.1-8.24 18.57-7.22.07.01.13.03.19.05 14.68 3.73 12.11 53.02 5.6 86.83-1.91 9.92-1 18.67-.05 27.95.4 3.89.81 7.82 1.01 11.91 0 .03 0 .06.01.09 0 .04.01.08.01.12.36 7.27.08 15.05-1.97 23.98-4.62 20.15-10.97 37.06-18.37 48.89-4.87 7.79-10.02 13.02-15.25 15.58-2.93 3.25-6.04 5.08-9.08 5.03-.52-.01-1.05-.08-1.58-.2-3.39-.78-6.87-3.82-9.93-8.69-6.33-4.46-14.15-11.79-20.42-22.51-6.35-10.87-10.09-23.36-11.11-37.14-1.14-15.34 1.12-32.28 6.72-50.42-1.01.85-1.47.88-2.02.65-.54-.22-.88-.76-.85-1.36.65-13.91 8.08-32.26 20.92-51.67zm-18.07 48.74c.51-.54 1.14-1.22 1.93-2.1 3.21-3.59 7.98-9.22 14.18-16.74.46-.55 1.28-.63 1.84-.18.55.46.64 1.28.17 1.83-6.04 7.32-10.73 12.87-13.95 16.48-6.71 19.77-9.49 38.12-8.27 54.57.99 13.38 4.61 25.49 10.77 36.02 4.96 8.48 10.72 14.45 15.23 18.28-3.6-8.02-6.18-18.98-6.6-31.9-.02-.72.54-1.32 1.26-1.34.72-.02 1.32.54 1.34 1.26.51 15.96 4.39 28.33 8.95 35.8 1.51 2.46 3.08 4.39 4.64 5.73 1.31 1.13 2.61 1.86 3.83 2.14.35.08.7.13 1.04.13.86.02 1.77-.21 2.71-.66 1.55-.74 3.18-2.09 4.79-3.95 1.34-1.56 2.68-3.47 3.95-5.7 4.17-7.37 7.28-17.39 8.75-28.23.1-.71.75-1.21 1.47-1.12.72.1 1.21.76 1.11 1.46-1.57 11.6-5.01 22.04-9.28 29.46 10.34-9.43 20.12-30.44 26.61-58.75 1.98-8.64 2.25-16.22 1.9-23.32-1.74-8.57-3.82-14.82-5.5-19.86-.84-2.52-1.57-4.7-2.14-6.8-.19-.69.23-1.41.92-1.6.69-.19 1.41.22 1.6.92.55 2.03 1.27 4.17 2.09 6.66.52 1.55 1.07 3.22 1.64 5.03-.79-8.13-1.26-16.05.46-25 3.7-19.2 5.55-39.3 5.09-55.15-.5-16.93-3.69-27.37-8.77-28.66-.04-.01-.08-.02-.13-.03-3.59-.82-9.42 1.58-16.44 6.77-11.74 8.68-25.91 24.47-36.98 41.21-11.63 17.66-18.73 34.3-20.21 47.34z"/><path fill="#FFF6A6" d="M225.87 309.1c.51-.54 1.14-1.22 1.93-2.1 3.21-3.59 7.98-9.22 14.18-16.74.46-.55 1.28-.63 1.84-.18.55.46.63 1.28.17 1.83-6.04 7.32-10.73 12.87-13.95 16.48-6.71 19.77-9.49 38.12-8.27 54.57.99 13.38 4.61 25.49 10.77 36.02 4.96 8.48 10.72 14.45 15.23 18.28-3.6-8.02-6.18-18.98-6.6-31.9-.02-.72.54-1.32 1.26-1.34.72-.02 1.32.54 1.34 1.26.51 15.96 4.39 28.33 8.95 35.8 1.51 2.46 3.08 4.39 4.64 5.73 1.31 1.13 2.61 1.86 3.83 2.14.35.08.7.13 1.04.13.86.02 1.77-.21 2.71-.66 1.55-.74 3.18-2.09 4.79-3.95 1.34-1.56 2.68-3.47 3.95-5.7 4.17-7.37 7.28-17.39 8.75-28.23.1-.71.75-1.21 1.47-1.12.72.1 1.21.76 1.11 1.46-1.57 11.6-5.01 22.04-9.28 29.46 10.34-9.43 20.12-30.44 26.61-58.75 1.98-8.64 2.25-16.22 1.9-23.32-1.74-8.57-3.82-14.82-5.5-19.86-.84-2.52-1.57-4.7-2.14-6.8-.19-.69.23-1.41.92-1.6.69-.19 1.41.22 1.6.92.55 2.03 1.27 4.17 2.09 6.66.52 1.55 1.07 3.22 1.64 5.03-.79-8.13-1.26-16.05.46-25 3.7-19.2 5.55-39.3 5.09-55.15-.5-16.93-3.69-27.37-8.77-28.66-.04-.01-.08-.02-.13-.03-3.59-.82-9.42 1.58-16.44 6.77-11.74 8.68-25.91 24.47-36.98 41.21-11.63 17.66-18.73 34.3-20.21 47.34z"/><path fill-rule="evenodd" d="M251.57 420.52c-23.15-14.89-11.96-34.37-9.84-36.48 1.42 12.02 8.66 34.33 9.84 36.48zm-23.11-111.15c6.14-8.74 13.61-21.19 15.39-18.64 1.79 2.55-7.27 13.3-19.94 38.49-2.44 1.5 1.54-9.91 4.55-19.85zm29.37-3.46c3.85-.07 6.99-1.85 7.05-1.48.08.48-4.21 4.03-9 3.77-5.21-.29-8.6-4.96-8.34-5.48.25-.51 4.23 3.29 10.29 3.19zm11.79-8.53c-5.21-.29-8.6-4.96-8.34-5.48.25-.51 4.24 3.3 10.29 3.19 3.85-.07 6.99-1.85 7.05-1.48.08.48-4.22 4.03-9 3.77zm8.54 12.27c-5.21-.28-8.6-4.96-8.34-5.48.25-.51 4.24 3.29 10.29 3.19 3.85-.07 6.99-1.85 7.05-1.48.08.48-4.22 4.03-9 3.77zM254.67 328c3.79.39 7-1.03 7.03-.65.05.49-4.41 3.57-9.1 2.73-5.11-.9-8.13-6.03-7.84-6.53.29-.48 3.96 3.83 9.91 4.45zm1.21 9.91c.24-.52 4.34 3.07 10.42 2.68 3.86-.25 6.97-2.18 7.04-1.81.09.47-4.13 4.21-8.94 4.18-5.24-.03-8.76-4.52-8.52-5.05zm13.6-10.92c.2-.54 4.6 2.48 10.7 1.34 3.88-.73 6.89-3 6.99-2.65.13.45-3.88 4.65-8.73 5.22-5.3.61-9.17-3.36-8.96-3.91zm5.22-11.13c.08.48-4.21 4.03-9 3.77-5.21-.29-8.6-4.96-8.34-5.48.25-.51 4.24 3.3 10.29 3.19 3.85-.06 6.99-1.85 7.05-1.48z" clip-rule="evenodd" enable-background="new" opacity=".1"/><path d="M335.76 171.43c3.95-6.85 16.68-22.7 49.71-21.84 2.56.07 5.13.39 7.64.96 8.26 1.89 15.98 6.48 22.33 13.26 5.81 6.2 10.08 13.89 12.04 21.64 2.99 11.86-3.06 24.16-11.43 41.18-1.66 3.37-3.37 6.85-5.15 10.6-1.55 3.27-4.78 10.06-7.92 15.58-4.66 8.19-7.5 10.99-10.49 10.33l-.05-.01c-1.08-.25-2.98-1.09-3.63-3.98-.3-1.33-.29-2.86-.28-4.33.01-1.3.02-3.92-.51-4.45-.81.23-2.62 1.89-3.62 2.8-2.58 2.35-5.5 5.02-8.8 4.26-.74-.17-1.43-.5-2.05-.99-3.79-2.67-3.18-7.81-2.69-11.94.18-1.49.35-2.9.31-4.03-.04-1.12-.26-1.39-.27-1.39 0 0-.01-.01-.04-.01-1.17-.27-4.39 1.54-6.31 2.62-3.14 1.76-5.86 3.29-8.3 2.72-.59-.13-1.13-.38-1.59-.74-3.03-2.3-1.62-6.98 0-12.4.55-1.81 1.49-4.94 1.57-6.5-1.36.43-3.8 1.85-5.21 2.68-3.2 1.88-5.51 3.23-7.57 2.76-.57-.13-1.09-.4-1.51-.78-2.23-2.02-.62-5.44.25-7.27 1.05-2.21 2.59-4.85 4.21-7.66 1.4-2.41 2.85-4.9 3.91-7.01.45-.89.76-1.6.98-2.15-2.12.91-5.28 2.73-7.05 3.75-4.76 2.74-6.77 3.84-8.54 3.43-.63-.15-1.19-.48-1.6-.96-.68-.8-.96-1.91-.83-3.29.37-4.21 4.88-13.44 13.5-22.22-4.7.82-8.25 1.28-10.6.74-1.3-.3-2.24-.91-2.81-1.84-1.69-2.66-.72-8.11 2.4-13.52zm-.21 12.19c.2.32.61.54 1.18.67 3.9.89 15.24-2.23 17.11-1.8.38.09.37.32-.15.76-13.74 11.38-19.13 24.87-17.61 26.66.05.05.11.09.19.1 1.95.45 13.93-8.51 17.27-7.74.22.05.4.14.54.28 2.8 2.77-12.91 22.71-10.4 24.98.09.08.21.14.34.17 2.29.53 10.19-6.32 13.42-5.58.24.06.46.15.64.3 3.16 2.48-5.04 16.78-1.86 19.2.18.13.38.22.6.27 3.13.72 10.58-6.27 14.62-5.35.3.07.58.18.84.35 4.12 2.58-2.12 14.09 2.82 17.46.35.28.71.46 1.08.54 3.87.89 8.87-7.91 12.43-7.1.13.03.27.07.39.13 4.26 1.93.11 11.77 4.02 12.67h.02c3.44.76 11.85-16.79 15.51-24.48 10.84-22.82 19.72-36.94 16.41-50.03-3.64-14.43-15.99-29.23-32.43-32.99-2.3-.53-4.68-.84-7.13-.9-42.86-1.12-52.6 26.97-49.85 31.43z"/><linearGradient id="c" x1="401.5633" x2="351.5633" y1="584.803" y2="493.2791" gradientTransform="matrix(1 0 0 -1 0 738)" gradientUnits="userSpaceOnUse"><stop offset="0" style="stop-color:#715dd3"/><stop offset=".5023" style="stop-color:#8769e9"/><stop offset="1" style="stop-color:#7148b5"/></linearGradient><path fill="url(#c)" d="M335.55 183.62c.2.32.61.54 1.18.67 3.9.89 15.24-2.23 17.11-1.8.38.09.37.32-.15.76-13.74 11.38-19.13 24.87-17.61 26.66.05.05.11.09.19.1 1.95.45 13.93-8.51 17.27-7.74.22.05.4.14.54.28 2.8 2.77-12.91 22.71-10.41 24.98.09.08.21.14.34.17 2.29.52 10.19-6.32 13.42-5.58.24.06.46.15.64.3 3.16 2.48-5.04 16.78-1.86 19.2.18.13.38.22.6.27 3.13.72 10.58-6.27 14.62-5.35.3.07.58.18.84.35 4.12 2.58-2.12 14.09 2.82 17.46.35.28.71.46 1.08.54 3.87.89 8.87-7.91 12.43-7.1.13.03.27.07.39.13 4.26 1.93.11 11.77 4.02 12.67h.02c3.44.76 11.85-16.79 15.51-24.48 10.84-22.82 19.72-36.94 16.41-50.03-3.64-14.43-15.99-29.23-32.43-32.99-2.3-.53-4.68-.84-7.13-.9-42.85-1.12-52.59 26.97-49.84 31.43z"/><path fill-rule="evenodd" d="M362.13 203.72c.39-.43-.63-2.13-.84-3.18-.45-2.24.51-4.31.04-4.54-.73-.35-4.35 3.02-3.29 5.64.73 1.83 3.51 2.71 4.09 2.08zm1.27 16.2c1.42 1.6 4.75 1.35 5 .58.2-.61-1.83-1.5-2.69-3.18-1.53-2.94.18-6.32-.1-6.42-.4-.13-4.57 6.35-2.21 9.02zm9.09-15.39c.17-.3-1.44-1.22-2.18-2.92-.8-1.81-.3-3.62-.58-3.68-.39-.08-2.07 2.68-.95 4.76.96 1.77 3.5 2.21 3.71 1.84zm3.9 10.98c1.96 1.55 5.12 1.4 5.44.54.24-.65-2.9-3.04-3.45-3.63-1.52-1.64-2.89-4.38-3.46-4.2-.92.28-1.25 5.15 1.47 7.29zm-.28 6.19c-.43-.08-3.69 8.63-.97 10.43 1.72 1.14 5.34-.78 5.22-1.64-.07-.52-1.67-.49-2.69-1.33-2.64-2.19-1.22-7.4-1.56-7.46zm12.67 4.47c1.89 1.74 5.01 1.28 5.07.88.05-.3-1.88-.56-3.41-1.92-2.15-1.9-2.42-4.68-2.79-4.62-.43.07-.98 3.72 1.13 5.66zm-.76 7.07c-.2.05.07 6.18 3.35 7.16 2.43.72 5.29-1.74 5.08-2.25-.2-.47-3.11.93-5.47-.4-2.44-1.37-2.82-4.55-2.96-4.51z" clip-rule="evenodd" opacity=".6"/><path fill="#D4D5D7" d="M413.41 201.65c.83-2.2 2.74-6.11 6.19-7.63 1.46-.64 3.85-1.24 5.76-.81.8.18 1.43.53 1.93 1.06.87.91 1.38 2.45 1.3 3.93-.05.98-.35 1.65-.63 1.88-.13.11-.24.16-.8.2-.13.01-.28.02-.46.03-.72.04-1.62.08-2.7.33-4.61 1.08-8.3 3.7-10.99 5.61-.26.18-.55.39-.83.59v-.03c.11-1.31.46-3.13 1.23-5.16zm9.13-4.36c-.28-.66-1.04-.98-1.7-.7l-1.85.77c-.66.28-.98 1.04-.7 1.7.17.4.52.68.91.77.26.06.53.04.79-.07l1.84-.77c.67-.27.98-1.03.71-1.7z"/><path fill="#EEB566" d="M402.54 232.43c2.6 5.06 11.27 6.47 17.77 4.52-.25-2.67-.96-5.42-2.54-8-1.7-2.79-4.17-4.29-6.15-5.49l-.31-.19c-.62-.37-.81-1.17-.44-1.79.38-.61 1.18-.81 1.79-.43l.3.18c2.11 1.28 4.99 3.03 7.03 6.36 1.98 3.25 2.76 6.7 2.97 9.94.04.17.05.34.03.51.14 3.04-.19 5.88-.45 8.17-.19 1.61-.42 3.6-.21 4.21.18.03.52 0 .98-.17 2.44-.91 6.31-4.69 9.03-10.86 2.75-6.26 3.97-14.43 3.25-21.87-.71-7.35-3.24-12.69-6.75-14.27-.22-.1-.47-.18-.74-.24s-.55-.1-.86-.12c-1.37-.09-3.1.25-5.04.99-2.67 1.02-5.71 2.83-8.62 5.16 0 0-.01.01-.02.01-4.13 3.31-7.96 7.64-9.95 12.16-1.18 2.68-2.88 7.7-1.07 11.22z"/><path fill-rule="evenodd" d="M409.61 208.98c-3.48 3.19-6.57 7.05-8.39 11.18-1.67 3.79-3.2 9.2-1 13.46 1.43 2.77 4.56 4.99 8.59 6.1 3.69 1.01 7.76.98 11.61-.08-.01 2.26-.26 4.41-.48 6.28v.02c-.41 3.57-.69 5.93 1.15 6.81.17.08.37.15.61.21.61.14 1.43.14 2.51-.26 3.04-1.12 7.46-5.35 10.5-12.25 5.88-13.37 4.78-34.47-4.3-39.31 1.35-2.26.96-6.34-1.24-8.65-.93-.97-2.05-1.53-3.24-1.8-2.77-.63-5.84.28-7.4.96-6.86 3.02-9.53 13.4-8.92 17.33zm17.68-14.71c.87.91 1.38 2.45 1.3 3.93-.05.98-.35 1.65-.63 1.88-.13.11-.24.16-.8.2-.13.01-.28.02-.46.03-.72.04-1.62.08-2.7.33-4.61 1.08-8.3 3.7-10.99 5.61-.07.05-.15.11-.23.16-.2.14-.4.28-.6.43v-.03c.12-1.31.46-3.12 1.23-5.15.83-2.2 2.74-6.11 6.19-7.63 1.46-.64 3.85-1.24 5.76-.81.79.18 1.43.52 1.93 1.05zm-6.98 42.68c-6.5 1.95-15.16.54-17.77-4.52-1.82-3.52-.11-8.54 1.07-11.22 1.99-4.52 5.82-8.86 9.95-12.16.01-.01.01-.01.02-.01 2.9-2.32 5.95-4.14 8.62-5.16 1.94-.74 3.67-1.07 5.04-.99.31.02.59.06.86.12.26.06.51.14.74.24 3.51 1.59 6.03 6.92 6.75 14.27.72 7.44-.49 15.61-3.25 21.87-2.72 6.17-6.59 9.96-9.03 10.86-.46.17-.79.2-.98.17-.21-.61.02-2.6.21-4.21v-.04c.26-2.28.59-5.11.45-8.13.02-.17.01-.34-.03-.51-.21-3.24-.98-6.69-2.97-9.94-2.03-3.33-4.92-5.08-7.03-6.36l-.3-.18c-.62-.38-1.42-.18-1.79.43-.37.62-.18 1.42.44 1.79l.31.19c1.98 1.2 4.45 2.7 6.15 5.49 1.58 2.58 2.29 5.33 2.54 8zm-1.11-37.12c-.39-.09-.74-.37-.91-.77-.28-.66.04-1.43.7-1.7l1.85-.77c.67-.28 1.43.04 1.7.7.28.66-.03 1.42-.7 1.7l-1.85.77c-.26.11-.54.13-.79.07z" clip-rule="evenodd"/><path fill="#FFF" d="M433.92 209.9v-.07c.8 2.17 1.38 4.77 1.66 7.69.72 7.44-.49 15.61-3.25 21.87-1.09 2.47-2.36 4.55-3.65 6.22 1.48-4.5 6.25-19 5.24-35.71z"/><path d="M415.81 233.37c-.44-3.39-3.92-8.43-4.65-10.22.05.04.1.08.16.12l.31.19c1.98 1.2 4.45 2.7 6.15 5.49 1.58 2.58 2.29 5.33 2.54 8-.17.05-.35.1-.53.15-1.45-.22-3.67-1.34-3.98-3.73z" enable-background="new" opacity=".26"/><path d="M403.49 180.56c.04.01.07.02.1.04.67.27.98 1.03.71 1.7-2 4.88-7.34 7.7-12.4 6.56-5.4-1.21-9.07-6.53-8.33-12.1.1-.71.75-1.21 1.46-1.12.71.1 1.22.75 1.12 1.46-.56 4.25 2.21 8.3 6.32 9.22 3.85.86 7.89-1.29 9.42-5.01.26-.64.96-.96 1.6-.75zM290.34 438.22l3.64-28.93c-.28-.31-.55-.66-.78-1.07-1.32-2.34-1.49-5.97-.45-9.26.22-.68.95-1.08 1.64-.85.69.22 1.07.95.85 1.63-.55 1.72-.65 3.37-.49 4.73.12 1.01.39 1.86.73 2.46.29.52.64.86.97.93.06.01.19-.01.35-.09.08-.04.16-.09.26-.15.46-.31 1.15-.98 1.96-2.24.24-.39.5-.81.76-1.32.09-.17.18-.34.27-.52.65-1.31 1.36-3 2.08-5.16.23-.68.96-1.05 1.64-.83.68.23 1.05.96.83 1.65-.73 2.19-1.5 4.08-2.3 5.66-.05.43-.07.82-.09 1.2-.05 1.1-.01 1.98.1 2.68.27 1.74.89 2.38 1.2 2.45.11.01.27-.01.47-.09.82-.31 2.29-1.46 3.59-3.89.87-1.63 1.65-3.82 2.12-6.73.11-.71.78-1.19 1.49-1.08.7.11 1.19.78 1.08 1.49-1.24 7.77-4.57 10.89-6.06 11.92l-6.8 24.77c3.01 2.1 6.9 5.7 8.64 10.98 1.7 5.17 1.94 9.86.71 13.92-1.18 3.92-3.48 6.41-5.21 7.82-1.68 1.38-4.7 3.12-6.13 2.31-.38-.21-.64-.58-.73-1-.16-.78.3-1.38.92-2.19.8-1.04 2.13-2.78 2.73-5.37 1.07-4.68-.78-9.57-2.7-12.34-1.13-1.63-2.23-2.46-2.76-2.53-.01 0-1.23.24-3.3 6.05-1.31 3.68-2.49 8.24-3.36 11.57-.78 3.02-1.17 4.5-1.5 5.17-.42.84-1.14 1.04-1.68.95-.04 0-.07-.01-.11-.02-.99-.23-1.55-1.3-2.28-4.24-.41-1.68-.72-3.38-.75-3.59-1.61-11.33 4.03-21.97 8.46-26.83-.01 0-.01-.01-.01-.02zm-5.88 26.5c.09.61.39 2.07.72 3.4.16-.62.34-1.29.51-1.95 3.46-13.36 5.88-20.05 9.51-19.55 1.98.27 3.71 2.39 4.57 3.63 2.22 3.2 4.36 8.89 3.1 14.4-.39 1.69-1.04 3.09-1.69 4.18 1.04-.74 2.2-1.79 3.21-3.23 2.02-2.89 3.85-8.05 1.17-16.22-1.86-5.65-6.65-9.15-9.34-10.74-.62-.36-.82-1.16-.46-1.78.27-.47.8-.71 1.31-.63l6.16-22.45c-.1-.01-.2-.02-.3-.05l-.02-.01c-2.12-.51-2.94-2.73-3.2-4.96-1.08 1.14-2.17 1.72-3.24 1.71l-3.25 25.82c.29.06.55.22.75.46.45.56.36 1.38-.21 1.83-3 2.39-11.11 13.45-9.3 26.14zM319.38 414.15c-.48-.38-.91-.88-1.26-1.51-1.32-2.34-1.49-5.97-.45-9.25.22-.68.95-1.08 1.64-.85.69.22 1.07.95.85 1.63-.59 1.85-.66 3.62-.45 5.05.14.87.38 1.61.68 2.15.29.52.64.85.97.93.11.02.38-.06.78-.36.21-.16.45-.38.72-.68.45-.51.99-1.24 1.57-2.28.09-.15.17-.31.26-.48.09-.17.18-.34.27-.52.65-1.31 1.36-3 2.08-5.16.23-.68.96-1.05 1.64-.83.68.23 1.05.96.83 1.65-.73 2.19-1.5 4.08-2.3 5.66-.02.14-.02.27-.03.41-.09 1.06-.1 1.95-.05 2.68.17 2.36.93 3.16 1.28 3.25.22.02.64-.11 1.15-.46.9-.61 2.1-1.86 3.15-4.01.77-1.57 1.45-3.61 1.87-6.24.11-.71.78-1.19 1.49-1.08.7.11 1.19.78 1.08 1.49-1.05 6.59-3.61 9.83-5.26 11.29l-6.22 26.92c4.77 3.03 11.82 9.63 11.66 22.16-.1 7.37-7.21 16.54-9.5 17.56-.9.4-1.52-.05-1.68-.19-.28-.24-.69-.8-.39-1.82 3.95-13.36.42-20.94-.76-22.95-.87-1.49-1.77-2.31-2.44-2.65-1.35 2-3.67 11.43-5.09 17.18-.76 3.1-1.48 6.02-2.08 8.14-.76 2.68-1.32 4.61-2.94 4.24-.41-.09-.98-.38-1.4-1.21-2.27-4.52-.28-29.65 3.77-38.82.77-1.74 1.69-2.36 2.25-2.73.05-.03.12-.08.17-.11 1.04-8.24 1.43-15.48 1.81-22.49.1-1.87.21-3.78.33-5.71zm2.27 5.86c-.38 7.08-.78 14.39-1.84 22.76-.14 1.1-.83 1.56-1.29 1.87-.42.28-.85.57-1.32 1.61-3.5 7.93-4.93 26.95-4.34 34.07.63-2.21 1.4-5.36 2.07-8.1 3.92-15.91 5.24-19.84 7.77-19.26 1.62.37 3.23 1.8 4.53 4.04 3.06 5.22 3.73 13.02 1.93 21.39 2.37-3.02 5.5-8.19 5.55-12.71.17-13.37-8.73-19.22-12.56-21.12-.14-.07-.24-.12-.28-.15-.62-.36-.84-1.17-.48-1.78.36-.62 1.15-.83 1.77-.47.03.01.07.03.13.06l5.55-24.01c-.36.05-.7.04-1.02-.03l-.02-.01c-2.12-.51-2.94-2.73-3.2-4.96-.89.94-1.78 1.49-2.67 1.66-.09 1.72-.19 3.45-.28 5.14z"/><path fill="#DCD7B0" d="M324.61 413.2c.26 2.23 1.08 4.45 3.2 4.96l.02.01c.32.07.66.08 1.02.03l-5.55 24.01c-.06-.03-.1-.05-.13-.06-.62-.36-1.41-.15-1.77.47-.36.62-.14 1.42.48 1.78.05.03.14.08.28.15 3.83 1.9 12.73 7.75 12.56 21.12-.06 4.52-3.18 9.7-5.55 12.71 1.8-8.38 1.13-16.18-1.93-21.39-1.31-2.23-2.91-3.67-4.53-4.04-2.53-.58-3.85 3.35-7.77 19.26-.67 2.74-1.45 5.88-2.07 8.1-.6-7.12.83-26.14 4.34-34.07.47-1.05.9-1.34 1.32-1.61.46-.31 1.16-.77 1.29-1.87 1.06-8.37 1.45-15.68 1.84-22.76.09-1.69.19-3.41.29-5.15.88-.16 1.77-.71 2.66-1.65zM293.75 438.59c.56-.45.65-1.27.2-1.83-.2-.24-.46-.4-.74-.46l3.25-25.82c1.07.02 2.17-.56 3.24-1.71.26 2.23 1.08 4.45 3.2 4.96l.02.01c.1.02.2.04.3.05l-6.16 22.45c-.51-.08-1.03.16-1.31.63-.36.62-.16 1.42.46 1.78 2.69 1.58 7.48 5.08 9.34 10.74 2.68 8.17.85 13.33-1.17 16.22-1 1.44-2.16 2.5-3.2 3.23.65-1.1 1.3-2.49 1.69-4.18 1.26-5.51-.88-11.2-3.1-14.4-.86-1.24-2.6-3.36-4.57-3.63-3.64-.49-6.05 6.2-9.51 19.55-.17.66-.35 1.33-.51 1.95-.33-1.33-.62-2.78-.72-3.4-1.8-12.7 6.3-23.76 9.29-26.14z"/><path fill-rule="evenodd" d="M304.84 396.87c.95-.05 2.05 2.2 1.98 4.19-.11 3.14-3.14 5.4-4.08 4.94-1.45-.72.33-9.03 2.1-9.13zm-9.23 1.22c5.61-6.67 2.54 8.5 1.28 8.97-.6.23-1.8-1.38-2.33-2.67-1.21-2.95.54-5.7 1.05-6.3zm34.14 3.29c.94-.05 2.05 2.2 1.98 4.19-.11 3.14-3.14 5.4-4.08 4.94-1.46-.72.32-9.03 2.1-9.13zm-7.96 10.19c-.6.23-1.8-1.38-2.33-2.67-1.21-2.95.54-5.7 1.04-6.3 5.61-6.68 2.55 8.5 1.29 8.97z" clip-rule="evenodd" opacity=".05"/><path fill-rule="evenodd" d="M290.16 451.58c.38-.51-1.13-2.08-.74-2.57.35-.45 1.94.42 2.27-.01.33-.43-.82-1.8-.61-2.01.2-.19 1.33.88 1.88.56.24-.14.28-.49.3-.73.05-.82-.14-2.33.02-2.4.22-.09 1.04 2.09 1.93 2.05 1.13-.05 1.9-3.57 2.02-3.55.11.03-.84 3.46-.08 3.85.67.35 2.47-1.82 2.65-1.66.22.18-2.13 3.05-1.54 3.79.51.63 3.02-.61 3.15-.35.13.26-2.31 1.66-2.11 2.19.19.49 2.54-.11 2.82.52.27.61-1.65 1.79-1.37 2.49.27.7 2.58.4 2.64.74.06.32-1.94.8-1.93 1.43.01.69 2.39 1.02 2.4 1.75.01.65-1.89 1.09-1.83 1.58.06.48 1.91.42 2.04 1 .12.52-1.09 1.55-1.9 1.3-.72-.22-1.24-2.33-1.6-5.84-.06-.6-.22-1.68-.59-2.67-.5-1.32-1.25-1.72-1.7-3.06-.37-1.07-.37-1.95-1.16-2.53-.25-.18-.73-.39-1.37-.45-.77-.07-1.3.07-1.67.28-.59.35-.73.83-1.14 1.47-.49.78-1.02 1-1.48 1.8-.48.82-.66 1.67-.77 2.22-.15.75-.35 1.41-.49 2.15-.21 1.05-.38 1.93-.82 3.02-.59 1.44-1.21 2.12-1.7 2.15-.66.05-1.35-.65-1.25-.95.08-.25.8-.18 1.32-.5.47-.29.91-.81.8-1.15-.18-.52-1.69-.41-1.72-.66-.04-.31 2.26-.66 2.31-1.34.04-.61-1.75-1.15-1.67-1.45.08-.32 2.18.08 2.36-.39.21-.54-2.18-1.93-2.04-2.2.11-.25 2 .61 2.37.13zm2.94-15.4c.81-5.68 2.11-19.88 2.52-27.13 1.06-.94 2.43-1.08 2.82-.92 1.71 2.45-1.05 29.07-5.34 28.05zm28.59 3.45c-.42 1.45-2.31 1.65-2.41 1.18-.83-3.99 2.14-27.25 2.81-28.6 5.03-10.14 2.14 18.56-.4 27.42zm-3.27 18.18c-.02-.52-1.62-.77-1.6-1.17.02-.47 2.22-.62 2.28-1.21.06-.53-1.63-1.06-1.55-1.42.08-.39 2.11-.12 2.29-.68.16-.48-1.08-1.34-1.01-1.43.08-.11 1.78 1.19 2.51.71.6-.4.33-1.89.44-1.9.09-.01.19.98.56 1.06.5.11 1.22-1.49 1.39-1.42.19.08-.58 2.18-.27 2.34.33.17 1.63-1.86 1.99-1.68.38.19-.69 2.71-.16 3.04.49.3 2.09-1.52 2.31-1.34.25.2-1.59 2.77-1.14 3.21.33.31 1.63-.68 1.95-.35.43.43-1.39 2.7-.88 3.27.39.43 1.87-.42 2.15-.04.33.44-1.41 2.07-1.02 2.7.31.52 1.77-.01 2.03.46.35.63-1.89 2.23-1.52 3.12.32.77 2.23.34 2.45.96.27.74-1.91 2.63-2.89 2.14-.62-.3-.43-1.62-.64-3.62-.14-1.33-.38-2.59-.67-3.49-.39-1.23-.99-1.85-1.29-3.1-.21-.86-.34-1.76-.85-2.73-.33-.64-.74-1.17-1.39-1.52-.5-.27-1.18-.47-1.81-.28-.76.22-1.21.89-1.58 1.64-.76 1.52-1.26 3.51-1.31 3.97-.12 1.07-.19 2.07-.32 3.13-.11.94-.57 2.6-.93 4.06-.26 1.04-.59 2.25-1.53 2.59-.66.24-1.52.02-1.65-.38-.14-.44.77-.88.92-1.66.16-.9-.73-1.65-.42-2.23.38-.72 2.2-.37 2.32-.8.14-.48-1.97-1.37-1.84-1.89.13-.49 2.23-.32 2.29-.68.06-.36-2.05-.85-2.05-1.54.01-.75 2.47-1.18 2.44-1.84z" clip-rule="evenodd" opacity=".17"/><path d="M350 510.23c-.3 3.81-.64 7.61-1.01 11.42h-3.93c4.11-42.11 3.98-83.78-.55-122.31l-138.95 95.2c3.48 5.08 7.89 14.71 12.9 27.12h-4.18c-5.19-12.79-9.7-22.43-12.95-26.34l-1.35-1.62 147.6-101.12.39 3.15c4.51 36.27 5.19 74.8 2.03 114.5z"/><path fill="#8F85BA" d="M345.06 521.65H218.45c-5-12.41-9.41-22.04-12.9-27.12l138.95-95.2c4.54 38.54 4.67 80.21.56 122.32z"/><path fill-rule="evenodd" d="M338.68 480.07c-.64-.26-2.09 4.1-6.18 6.77-5.52 3.61-12.16 2.04-12.35 3.08-.22 1.16 7.13 5.47 12.97 2.46 6.03-3.1 6.48-11.94 5.56-12.31zm-35.21 24.01c-6.51 2.09-12.83.99-12.97 1.85-.15.92 5.71 3.77 11.74 2.46 7.27-1.58 11.72-8.57 11.12-9.23-.44-.49-4.24 3.1-9.89 4.92z" clip-rule="evenodd" enable-background="new" opacity=".15"/><path d="m129.64 382.91-2 .14c-.61.04-1.24.06-1.88.06-17.31 0-46.95-14.86-64.89-32.79-19.82-19.82-28.49-40.62-32.62-56.54 2.1 3.25 4.39 6.12 6.65 8.6 4.81 13.74 13.27 29.79 28.7 45.22 17.22 17.21 45.37 31.51 61.78 31.66L110.3 231.77c-28.23-17.45-63.54-35.99-73.38-26.62-3.4 3.24-2.58 9.81-.67 16.03.42 1.37.9 2.72 1.39 4.01.14.36.27.72.41 1.07 3.65 9.16 9.26 18.47 11.96 22.94.72 1.18 1.23 2.04 1.52 2.57.51.94.16 2.11-.78 2.62-.94.51-2.11.16-2.62-.78-.24-.45-.77-1.32-1.43-2.41-3.64-6.04-7.58-12.96-10.62-19.75-.46-1-.88-1.99-1.29-2.98l-1.58-4.13c-3.17-9.11-3.86-17.31 1.04-21.97 9.67-9.21 34.74-.75 78.87 26.64l.81.5 15.71 153.4z"/><path d="M52.46 313.79c-.35.65-1.02 1.02-1.7 1.02-.31 0-.62-.07-.91-.23-.14-.07-7.46-4.06-14.93-12.21-2.27-2.48-4.55-5.34-6.65-8.6-4.55-7.04-8.25-15.91-9.08-26.7-1.59-20.54 7.7-35.48 14.04-42.75.47 1.36 1 2.74 1.57 4.13-.67.84-1.36 1.77-2.07 2.79-5.23 7.55-10.91 19.8-9.7 35.54.32 4.07 1.07 7.85 2.13 11.34.96 3.18 2.19 6.12 3.59 8.84.97 1.9 2.02 3.68 3.13 5.35 1.01 1.53 2.06 2.96 3.13 4.3 7.8 9.76 16.5 14.5 16.66 14.57.93.5 1.29 1.67.79 2.61z"/><path fill="#8F85BA" d="M125.38 379.26c-16.41-.15-44.56-14.45-61.78-31.66-15.42-15.42-23.88-31.48-28.7-45.22 7.47 8.15 14.79 12.14 14.93 12.21.29.15.6.23.91.23.69 0 1.36-.37 1.7-1.02.5-.94.14-2.11-.8-2.61-.15-.07-8.86-4.82-16.66-14.57-1.07-1.33-2.12-2.77-3.13-4.3-1.11-1.67-2.16-3.45-3.13-5.35-1.4-2.71-2.62-5.66-3.59-8.84-1.06-3.49-1.81-7.27-2.13-11.34-1.22-15.74 4.47-28 9.7-35.54.7-1.01 1.4-1.95 2.07-2.79.41.99.83 1.98 1.29 2.98 3.04 6.79 6.98 13.71 10.62 19.75.66 1.1 1.19 1.96 1.43 2.41.51.94 1.68 1.28 2.62.78.94-.51 1.28-1.68.78-2.62-.29-.52-.8-1.38-1.52-2.57-2.7-4.47-8.31-13.78-11.96-22.94-.14-.35-.28-.7-.41-1.07l-1.39-4.01c-1.91-6.22-2.74-12.79.67-16.03 9.83-9.37 45.14 9.18 73.38 26.62l15.1 147.5z"/><path fill-rule="evenodd" d="M116 232.9c-6.44-6.4-12.78-10.41-14.09-8.09-5.96 10.61-10.03 67.62 6.91 104.28-.94 33.14 3.46 44.5 13.93 50.74 1.98 1.18 4.78.36 7.33-.58 26.66-9.74 28.44-104.1-14.08-146.35zm-83.78-4.66c-1.59 2.8-.19 7.22 4.53 13.56 3.99 5.35 13.16 14.21 13.38 10.27-3.3-5.34-10.92-20.53-13.59-26.49-.72-1.65-3.49 1.23-4.32 2.66zm.62 71.28c-.25 8.46 6.86 15.47 10.3 23.21 3.47-2.37 6.63-6.45 6.38-11.09-6.09-5.01-9.02-9.02-16.68-12.12z" clip-rule="evenodd" enable-background="new" opacity=".05"/><path fill="none" d="M9.12 131.12h54.97v74.1H9.12z"/><path d="M307 256.6c-11.71-67.44-40.3-125.08-80.53-162.29-4.68-4.33-12.5-5.35-22.01-2.89-14.71 3.8-31.85 15.16-47.05 31.16-12.61 13.28-30 36.26-41.19 70.29-.05.15-.1.33-.15.51-2.38 6.7-5.52 17.79-7.81 34.02-2.36 16.76-3.23 34.98-2.59 54.15.62 18.62 4.17 35.89 10.57 51.66 1.29 21.85 3.01 38.54 4.99 47.6 8.81 40.38 23.08 73.27 41.24 95.11 15.29 18.38 32.87 28.43 49.66 28.43.46 0 .92-.01 1.37-.02 35.15-1.15 64.27-27.98 82.01-75.52 8.69-23.3 14.34-51.2 16.36-80.69 2.03-29.81.34-61.45-4.87-91.52zm1.01 91.25c-1.98 29.13-7.56 56.65-16.12 79.6-17.15 45.99-45.04 71.92-78.52 73.01-15.99.51-33.01-9.07-47.94-27.02-17.77-21.36-31.75-53.68-40.44-93.46-1.73-7.93-3.14-21.09-4.26-36.86 3.82 7.58 8.35 14.78 13.6 21.57.38.49.95.75 1.52.75.41 0 .83-.13 1.18-.4.85-.65 1-1.86.35-2.7-7.13-9.24-12.92-19.25-17.34-30-1.72-4.19-3.23-8.48-4.53-12.89-3.53-11.9-5.53-24.6-5.99-38.02-.34-9.98-.72-39.2 4.71-66.41 1.41-7.07 3.21-14.01 5.51-20.44.04-.18.09-.35.14-.49.1-.31.21-.62.31-.93 10.98-32.83 27.78-55.03 40.01-67.9 14.71-15.49 31.19-26.46 45.22-30.08 3.1-.8 5.97-1.2 8.53-1.2 4.21 0 7.6 1.07 9.9 3.19 39.6 36.64 67.78 93.51 79.34 160.12 5.17 29.74 6.84 61.06 4.82 90.56z"/><path fill="#8F85BA" d="M308.01 347.85c-1.98 29.13-7.56 56.65-16.12 79.6-17.15 45.99-45.04 71.92-78.52 73.01-15.99.51-33.01-9.07-47.94-27.02-17.77-21.36-31.75-53.68-40.44-93.46-1.73-7.93-3.14-21.09-4.26-36.86 3.82 7.58 8.35 14.77 13.6 21.57.38.49.95.75 1.52.75.41 0 .83-.13 1.18-.4.85-.65 1-1.86.35-2.7-7.13-9.24-12.92-19.25-17.34-30-1.72-4.19-3.23-8.48-4.53-12.89-3.53-11.9-5.54-24.6-5.99-38.02-.34-9.98-.72-39.2 4.71-66.41 1.41-7.07 3.21-14.01 5.51-20.44.12-.33.23-.66.35-.98.05-.15.08-.29.1-.44 10.98-32.83 27.78-55.03 40.01-67.9 14.71-15.49 31.19-26.46 45.22-30.08 3.1-.8 5.97-1.2 8.53-1.2 4.21 0 7.6 1.07 9.9 3.19 39.6 36.64 67.78 93.51 79.34 160.12 5.17 29.74 6.84 61.06 4.82 90.56z"/><path fill-rule="evenodd" d="M118.52 336.29c1.43-.02 15.1 31.28 26.61 35.16 5.2 1.75 14.77-14.21 14.77-14.21s11.91 15 16.68 14.17c6.81-1.19 11.74-18.49 11.74-18.49s10.84 13.53 20.38 12.32c3.87-.49 9.88-19.71 9.88-19.71s10.88 15.65 18.53 12.94c7.65-2.72 20.2-55.93 24.71-11.71 8.62 84.7 4.21 133.15-17.91 147.27-20.17 12.87-44.84 6.95-55.59 2.46-67.47-46.42-71.23-160.18-69.8-160.2z" clip-rule="evenodd" enable-background="new" opacity=".1"/><path d="M342.08 266.1c-10.59-28.25-26.08-56.21-40.43-72.96-9.42-11.01-17.63-16.58-24.42-16.58-.1 0-.2.01-.29.01-22.43.53-35.03 72.61-36.82 123.63-.52 14.97-4.73 27.32-9.18 40.41-1.87 5.48-3.76 11.03-5.4 16.88-.01.04-.02.09-.04.12-.02.06-.04.11-.05.17-2.92 10.39-5.1 21.72-5.1 35.31 0 30.65 3.58 57.19 10.35 76.74 4.45 12.87 10.16 22.14 16.86 27.56 3.15 5.67 7.04 9.35 11.45 10.27.76.16 1.54.23 2.35.23 5.16 0 11.18-3.24 17.21-9.27 10.62-4.35 24.33-12.35 36.93-25.77 12.77-13.6 22.3-30.42 28.34-49.99 6.72-21.8 9.06-47.03 6.98-75.1 1.17 1.57 1.83 1.75 2.7 1.61.86-.14 1.52-.8 1.68-1.69 3.65-20.29-1-49.27-13.12-81.58zm9.96 76.43c-.56-.95-1.24-2.14-2.09-3.67-3.44-6.24-8.47-15.96-14.93-28.9-.48-.95-1.64-1.34-2.6-.86-.95.48-1.34 1.64-.86 2.59 6.29 12.58 11.24 22.15 14.69 28.45 3.14 30.79 1.08 58.24-6.12 81.6-5.86 19.01-15.1 35.31-27.46 48.48-9.96 10.61-20.26 17.33-28.05 21.38 7.86-10.39 15.21-25.38 20.08-43.92.27-1.03-.35-2.09-1.38-2.36-1.03-.27-2.08.35-2.35 1.38-6.02 22.89-15.71 39.49-24.77 48.77-2.99 3.06-5.9 5.32-8.6 6.75-2.27 1.2-4.38 1.83-6.24 1.83-.54 0-1.06-.05-1.55-.15-1.25-.26-2.48-.89-3.69-1.85-2-1.58-3.9-4.07-5.61-7.3-1.43-2.7-2.72-5.9-3.81-9.55-3.59-12.03-4.76-27.54-3.29-43.69.1-1.06-.69-2-1.75-2.1-1.07-.09-1.99.69-2.09 1.75-1.58 17.28-.06 33.52 3.64 45.65-11.82-17.05-18.98-50.66-18.98-93.72 0-13.14 2.12-24.18 4.97-34.32 5.35-11.81 10.43-20.15 14.52-26.87 2.04-3.36 3.82-6.27 5.34-9.12.5-.94.14-2.11-.8-2.61s-2.11-.14-2.61.8c-1.46 2.75-3.21 5.61-5.23 8.93-1.26 2.07-2.61 4.29-4.04 6.72 3.84-11.49 7.14-22.78 7.61-36.28 1.01-28.98 4.99-58.64 10.91-81.39 6.32-24.3 14.39-38.33 22.14-38.52.07 0 .13-.01.2-.01 5.45 0 13.08 5.4 21.49 15.23 14.08 16.44 29.31 43.95 39.75 71.81 10.99 29.33 15.73 55.74 13.56 75.07z"/><path fill="#8F85BA" d="M352.04 342.53c-.56-.95-1.24-2.14-2.09-3.67-3.44-6.24-8.47-15.96-14.93-28.9-.48-.95-1.64-1.34-2.6-.86-.95.48-1.34 1.64-.86 2.59 6.29 12.58 11.24 22.15 14.69 28.45 3.14 30.79 1.08 58.24-6.12 81.6-5.86 19.01-15.1 35.31-27.46 48.48-9.96 10.61-20.26 17.33-28.05 21.38 7.86-10.39 15.21-25.38 20.08-43.92.27-1.03-.35-2.09-1.38-2.36-1.03-.27-2.08.35-2.35 1.38-6.02 22.89-15.71 39.49-24.77 48.77-2.99 3.06-5.9 5.32-8.6 6.75-2.27 1.2-4.38 1.83-6.24 1.83-.54 0-1.06-.05-1.55-.15-1.25-.26-2.48-.89-3.69-1.85-2-1.58-3.9-4.07-5.61-7.3-1.43-2.7-2.72-5.9-3.81-9.55-3.59-12.03-4.76-27.54-3.29-43.69.1-1.06-.69-2-1.75-2.1-1.07-.09-1.99.69-2.09 1.75-1.58 17.28-.06 33.52 3.64 45.65-11.82-17.05-18.98-50.66-18.98-93.72 0-13.14 2.12-24.18 4.97-34.32 5.35-11.81 10.43-20.15 14.52-26.87 2.04-3.36 3.82-6.27 5.34-9.12.5-.94.14-2.11-.8-2.61s-2.11-.14-2.61.8c-1.46 2.75-3.21 5.61-5.23 8.93-1.26 2.07-2.61 4.29-4.04 6.72 3.84-11.49 7.14-22.78 7.61-36.28 1.01-28.98 4.99-58.64 10.91-81.39 6.32-24.3 14.39-38.33 22.14-38.52.07 0 .13-.01.2-.01 5.45 0 13.08 5.4 21.49 15.23 14.08 16.44 29.31 43.95 39.75 71.81 10.99 29.33 15.73 55.74 13.56 75.07z"/><path fill-rule="evenodd" d="M278.06 495.04c38.36-13.85 28.64-45.71 26.29-49.46-6.03 16.9-23.88 46.74-26.29 49.46zm70.14-152.99c-5.97-14.67-12.63-35.13-16.06-32.04-3.43 3.09 6.1 21.64 16.06 62.23 3.04 2.99 1.06-14.82 0-30.19zm-41.24-14.72c-5.54-1.37-9.48-4.99-9.69-4.48-.28.67 4.75 7.22 11.74 8.43 7.62 1.32 14.06-4.32 13.86-5.16-.19-.81-7.2 3.36-15.91 1.21zm-14.21-16.23c7.62 1.32 14.06-4.32 13.86-5.16-.19-.82-7.21 3.36-15.91 1.2-5.53-1.37-9.48-4.99-9.69-4.48-.28.67 4.75 7.23 11.74 8.44zm-16.39 14.91c7.62 1.32 14.06-4.32 13.86-5.16-.19-.82-7.21 3.36-15.91 1.2-5.53-1.37-9.48-4.99-9.69-4.48-.28.67 4.75 7.23 11.74 8.44zm27.84 34.29c-5.6-.69-9.76-3.81-9.94-3.27-.23.7 5.19 6.61 12.23 6.96 7.67.38 13.73-6.03 13.48-6.84-.24-.79-6.97 4.23-15.77 3.15zm-5.02 13.93c-.17-.83-7.29 3-15.93.43-5.5-1.64-9.35-5.45-9.57-4.95-.29.65 4.57 7.45 11.53 9 7.56 1.68 14.14-3.64 13.97-4.48zm-16.03-20.29c-.12-.85-7.45 2.06-15.89-1.61-5.37-2.33-8.95-6.62-9.21-6.15-.33.61 4.06 8 10.88 10.43 7.44 2.65 14.34-1.8 14.22-2.67zm-3.86-17.81c-.28.67 4.75 7.22 11.74 8.43 7.62 1.32 14.06-4.32 13.86-5.16-.19-.82-7.21 3.36-15.91 1.2-5.53-1.37-9.48-4.99-9.69-4.47z" clip-rule="evenodd" enable-background="new" opacity=".1"/><path d="M238.94 107.17c-3.43-11.21-16.57-38.34-64.55-48.03-3.72-.75-7.54-1.14-11.35-1.14-12.54 0-25.21 4.07-36.63 11.76-10.44 7.03-19.15 16.73-24.55 27.29-8.25 16.15-3.58 35.93 2.88 63.31 1.28 5.41 2.6 11.01 3.94 17.02 1.16 5.24 3.57 16.12 6.28 25.14 4.01 13.38 7.2 18.36 11.74 18.4h.07c1.64 0 4.66-.59 6.55-4.56.87-1.83 1.36-4.03 1.83-6.17.42-1.88 1.27-5.67 2.21-6.26 1.09.6 3.16 3.6 4.31 5.25 2.95 4.26 6.28 9.08 11.3 9.08 1.12 0 2.23-.25 3.29-.75 6.36-2.61 7.18-10.23 7.83-16.36.24-2.22.46-4.31.88-5.92.43-1.61.84-1.91.85-1.91.01 0 .02-.01.06-.01 1.77 0 5.82 3.68 8.25 5.88 3.95 3.59 7.37 6.69 11.09 6.69.9 0 1.75-.18 2.54-.54 5.14-2.33 4.66-9.55 4.1-17.92-.19-2.8-.51-7.62-.12-9.91 1.83 1.07 4.87 3.93 6.64 5.6 4 3.77 6.89 6.5 10.02 6.5.86 0 1.71-.22 2.44-.62 3.9-2.18 2.7-7.65 2.05-10.59-.78-3.54-2.12-7.87-3.55-12.46-1.23-3.95-2.49-8.03-3.33-11.42-.35-1.44-.57-2.57-.71-3.44 2.76 2.01 6.73 5.69 8.94 7.75 5.97 5.54 8.5 7.79 11.19 7.79.96 0 1.87-.3 2.62-.86 1.24-.93 2.01-2.44 2.29-4.48.86-6.21-2.59-21.04-12.14-36.58 6.52 2.74 11.49 4.59 15.06 4.59 1.97 0 3.54-.58 4.67-1.72 3.31-3.36 3.72-11.55 1.01-20.4zm-3.74 17.68c-.39.4-1.06.57-1.92.57-5.92 0-21.26-8.27-24.11-8.27-.57 0-.64.33-.03 1.14 16.07 21 19.39 42.28 16.6 44.37-.09.06-.18.09-.31.09-2.96 0-17.29-16.91-22.37-16.91-.33 0-.62.07-.87.23-4.97 3.07 11.12 37.1 6.76 39.55-.16.09-.35.13-.55.13-3.48 0-12.62-12.5-17.54-12.5-.36 0-.71.07-1.02.22-5.39 2.54 1.73 25.92-3.66 28.36-.3.14-.62.2-.96.2-4.76 0-13.19-12.57-19.33-12.57-.46 0-.9.07-1.33.22-6.8 2.37-1.61 21.06-9.85 24.3-.6.29-1.17.43-1.74.43-5.88 0-10.18-14.37-15.6-14.37-.2 0-.41.02-.61.06-6.79 1.38-4.06 16.97-10 16.97h-.04c-5.22-.04-11.56-28.19-14.29-40.51-8.1-36.57-16.24-59.91-7.14-77.74 10.03-19.65 32.76-36.94 57.74-36.94 3.5 0 7.04.34 10.59 1.06 62.27 12.56 67.03 56.38 61.58 61.91z"/><linearGradient id="d" x1="169.0822" x2="169.0822" y1="676.1409" y2="520.943" gradientTransform="matrix(1 0 0 -1 0 738)" gradientUnits="userSpaceOnUse"><stop offset="0" style="stop-color:#fba980"/><stop offset="1" style="stop-color:#f7cb6b"/></linearGradient><path fill="url(#d)" d="M235.2 124.85c-.4.4-1.06.57-1.92.57-5.92 0-21.26-8.27-24.11-8.27-.57 0-.64.33-.03 1.14 16.07 21 19.39 42.28 16.6 44.37-.09.06-.18.09-.31.09-2.96 0-17.29-16.91-22.37-16.91-.33 0-.62.07-.87.23-4.97 3.07 11.12 37.1 6.76 39.55-.16.09-.35.13-.55.13-3.48 0-12.62-12.5-17.54-12.5-.36 0-.71.07-1.02.22-5.39 2.54 1.73 25.92-3.66 28.36-.3.14-.62.2-.96.2-4.76 0-13.19-12.57-19.33-12.57-.46 0-.9.07-1.33.22-6.8 2.37-1.6 21.06-9.85 24.3-.6.29-1.17.43-1.74.43-5.88 0-10.18-14.37-15.6-14.37-.2 0-.41.02-.61.06-6.79 1.38-4.06 16.97-10 16.97h-.04c-5.22-.04-11.56-28.19-14.29-40.51-8.1-36.57-16.24-59.91-7.14-77.74 10.03-19.65 32.76-36.94 57.74-36.94 3.5 0 7.04.34 10.59 1.06 62.27 12.56 67.03 56.38 61.58 61.91z"/><path fill-rule="evenodd" d="M190.18 145.1c-.42-.75 1.62-2.87 2.27-4.31 1.39-3.09.69-6.4 1.44-6.57 1.17-.27 5.27 5.8 2.88 9.24-1.67 2.39-5.97 2.74-6.59 1.64zm-7.2 22.99c-2.58 1.85-7.31.38-7.41-.82-.09-.95 3.13-1.56 4.94-3.7 3.18-3.74 1.83-9.19 2.27-9.24.62-.07 4.49 10.68.2 13.76zm-8.03-25.25c-.15-.49 2.48-1.29 4.12-3.49 1.75-2.36 1.62-5.14 2.06-5.13.59.01 2.09 4.56-.2 7.19-1.98 2.24-5.81 2.03-5.98 1.43zm-9.27 14.58c-3.34 1.59-7.86.33-8.03-1.03-.13-1.02 5.19-3.43 6.18-4.11 2.74-1.86 5.61-5.37 6.38-4.93 1.24.72.11 7.86-4.53 10.07zm-1.65 9.03c.65.03 2.48 13.7-2.06 15.4-2.86 1.07-7.46-2.9-7-4.11.27-.72 2.58-.15 4.32-1.03 4.56-2.28 4.24-10.28 4.74-10.26zm-19.76 2.26c-3.3 1.88-7.65.19-7.62-.41.02-.45 2.9-.19 5.56-1.64 3.74-2.03 5.05-5.96 5.56-5.75.59.24.19 5.69-3.5 7.8zm-1.24 10.47c.27.14-2.14 8.92-7.21 9.24-3.74.24-7.06-4.27-6.59-4.93.44-.62 4.19 2.37 8.03 1.24 3.97-1.18 5.57-5.65 5.77-5.55z" clip-rule="evenodd" opacity=".17"/><path fill="#D4D5D7" d="M116.74 124.91c-.47-3.45-1.93-9.74-6.41-13.08-1.9-1.41-5.15-3.07-8.05-3.07-1.21 0-2.24.29-3.14.89-1.56 1.03-2.8 3.09-3.18 5.25-.25 1.43-.04 2.49.28 2.92.15.21.3.31 1.09.55h.01c.19.06.4.12.66.19 1.03.29 2.31.65 3.79 1.38 6.31 3.08 10.76 8.09 14.01 11.74.32.35.66.74 1.01 1.12 0-.01.01-.03.01-.04.26-1.92.36-4.65-.08-7.85zM105 115.6c.62-.87 1.82-1.07 2.69-.45l2.42 1.72c.86.62 1.07 1.83.44 2.69-.38.52-.97.81-1.57.81-.39 0-.78-.12-1.12-.36l-2.41-1.72c-.87-.62-1.07-1.83-.45-2.69z"/><path fill="#FFF6A6" d="M122.24 172.99c-5.55 6.58-18.92 5.58-27.67.35 1.13-3.03 2.84-6.02 5.45-8.69.96-.98 2.94-1.26 5.04-1.57 4.4-.63 10.42-1.49 11.36-9.9.12-1.06-.65-2.01-1.71-2.14-1.06-.12-2.01.65-2.14 1.71-.6 5.44-3.9 5.92-8.06 6.51-2.65.38-5.39.77-7.26 2.69-7.96 8.16-8.54 18.41-8.93 25.19-.11 2.03-.25 4.53-.64 5.3-.28-.02-.74-.17-1.34-.56-3.22-2.12-7.55-8.87-9.44-18.69-1.9-9.95-.95-22.17 2.55-32.68 3.47-10.39 8.88-17.26 14.47-18.39.36-.07.74-.11 1.14-.11.41 0 .83.04 1.28.11 2.01.33 4.4 1.38 6.95 3.09 3.51 2.36 7.31 5.99 10.73 10.31l.02.02c4.87 6.15 8.96 13.68 10.34 20.88.85 4.27 1.65 12.09-2.14 16.57z"/><path fill-rule="evenodd" d="M119.79 136.77c3.97 5.76 7.15 12.36 8.41 18.93 1.15 6.03 1.57 14.36-3.01 19.78-2.98 3.53-8.23 5.71-14.42 5.97-5.89.25-11.98-1.27-17.34-4.3-.87 3.71-1.07 7.28-1.24 10.17v.05c-.26 4.55-.46 8.16-3.47 8.84-.27.06-.59.1-.95.1-.92 0-2.11-.26-3.53-1.2-4.01-2.63-9-10.2-11.11-21.19-4.07-21.28 4.51-51.4 19.22-55.39-1.2-3.72.7-9.48 4.66-12.1 1.66-1.1 3.47-1.53 5.27-1.53 4.21 0 8.34 2.34 10.36 3.84 8.91 6.66 9.35 22.55 7.15 28.03zm-20.65-27.12c-1.56 1.03-2.8 3.09-3.18 5.25-.25 1.43-.04 2.49.28 2.92.15.21.3.31 1.09.55h.01c.19.06.4.12.66.19 1.03.29 2.31.65 3.79 1.38 6.31 3.08 10.76 8.09 14.01 11.74.09.1.18.21.28.31.24.26.48.54.73.81v-.01c0-.01.01-.02.01-.03.27-1.93.37-4.66-.07-7.85-.47-3.45-1.93-9.74-6.41-13.08-1.9-1.41-5.15-3.07-8.05-3.07-1.22 0-2.25.29-3.15.89zm-4.57 63.69c8.75 5.24 22.12 6.23 27.67-.35 3.79-4.49 2.98-12.31 2.17-16.57-1.38-7.19-5.47-14.73-10.34-20.88-.01-.01-.01-.02-.02-.02-3.42-4.32-7.22-7.95-10.73-10.31-2.56-1.71-4.95-2.77-6.96-3.09-.45-.07-.88-.11-1.28-.11s-.78.03-1.14.11c-5.59 1.13-11 8-14.47 18.39-3.5 10.51-4.45 22.73-2.55 32.68 1.88 9.82 6.21 16.57 9.44 18.69.6.39 1.06.54 1.34.56.38-.77.53-3.27.64-5.3.38-6.78.96-17.02 8.93-25.19 1.87-1.91 4.61-2.31 7.26-2.69 4.16-.6 7.46-1.07 8.06-6.51.12-1.06 1.08-1.83 2.14-1.71 1.06.12 1.82 1.07 1.71 2.14-.94 8.41-6.96 9.27-11.36 9.9h-.01c-2.1.3-4.07.59-5.03 1.57-2.62 2.67-4.33 5.67-5.47 8.69zm14.41-52.97c.6 0 1.19-.28 1.57-.81.62-.86.42-2.07-.44-2.69l-2.42-1.72c-.87-.62-2.07-.42-2.69.45-.62.86-.42 2.07.45 2.69l2.41 1.72c.34.24.74.36 1.12.36z" clip-rule="evenodd"/><path fill="#FFF" d="M84.39 130.04c.01-.04.02-.07.03-.1-1.88 2.88-3.57 6.44-4.94 10.57-3.5 10.51-4.45 22.73-2.55 32.68.75 3.93 1.9 7.35 3.21 10.19-.65-6.99-2.74-29.52 4.25-53.34z"/><path d="M105.06 163.08c-2.1.3-4.08.59-5.04 1.57-2.61 2.67-4.32 5.67-5.45 8.69.4.24.82.47 1.24.69 2.16.16 5.73-.73 6.97-4.07.86-2.31 2.88-4.95 4.92-7.32-.91.19-1.8.32-2.64.44z" enable-background="new" opacity=".26"/><path d="M138.13 97.92c-.06.01-.11.01-.16.02-1.05.17-1.76 1.17-1.59 2.22 1.28 7.71 8.05 13.55 15.74 13.59 8.2.04 15.26-6.43 16.04-14.73.1-1.06-.68-2-1.74-2.11-1.06-.1-2 .68-2.11 1.74-.6 6.33-5.94 11.26-12.18 11.24-5.84-.03-10.97-4.48-11.95-10.36-.16-1-1.06-1.69-2.05-1.61zM216.22 507.78l4.32-43.02c.51-.35 1.01-.77 1.48-1.29 2.67-2.95 4.13-8.14 3.71-13.23-.09-1.06-1.02-1.87-2.08-1.77-1.06.09-1.85 1.02-1.77 2.08.22 2.67-.17 5.08-.86 7-.51 1.41-1.17 2.56-1.87 3.32-.6.66-1.2 1.02-1.71 1.03-.09 0-.26-.07-.48-.25-.1-.08-.2-.18-.32-.31-.57-.6-1.33-1.79-2.08-3.89-.22-.64-.45-1.34-.67-2.15v-.01c-.07-.27-.15-.56-.22-.85-.51-2.11-.97-4.78-1.29-8.15-.1-1.06-1.04-1.83-2.1-1.74-1.06.11-1.84 1.04-1.74 2.11.33 3.4.81 6.4 1.44 8.95-.07.64-.17 1.22-.26 1.77-.28 1.6-.64 2.86-1.02 3.84-.96 2.43-2.07 3.14-2.54 3.14-.16-.02-.38-.11-.64-.28-1.08-.72-2.83-2.87-3.9-6.82-.72-2.64-1.12-6.07-.83-10.42.07-1.07-.74-1.98-1.8-2.06-1.06-.07-1.98.73-2.06 1.8-.78 11.65 2.99 17.25 4.8 19.23l1.62 38.05c-5.04 2.04-11.85 5.95-16.1 13-4.17 6.91-6.06 13.61-5.63 19.89.41 6.05 2.91 10.42 4.93 13.02 1.97 2.54 5.75 6.07 8.09 5.37.62-.18 1.12-.62 1.38-1.2.49-1.08.03-2.09-.61-3.47-.81-1.77-2.16-4.72-2.16-8.66 0-7.13 4.3-13.57 7.98-16.94 2.17-1.98 4.04-2.82 4.83-2.74.02.01 1.69.76 2.76 9.84.68 5.75.87 12.74 1.02 17.84.13 4.62.2 6.9.46 7.97.33 1.35 1.3 1.88 2.11 1.93.06.01.11.01.17.01 1.5 0 2.68-1.36 4.7-5.37 1.15-2.3 2.16-4.64 2.27-4.95 6.08-15.84 1.46-33.09-3.34-41.58.01-.01.01-.03.01-.04zm-.27 40.24c-.34.86-1.25 2.86-2.16 4.67-.03-.94-.06-1.97-.09-2.98-.57-20.45-1.85-30.92-7.26-31.41-2.95-.27-6.15 2.22-7.81 3.74-4.26 3.89-9.23 11.4-9.23 19.78 0 2.58.48 4.8 1.05 6.61-1.26-1.41-2.59-3.32-3.56-5.74-1.96-4.84-2.9-12.9 3.68-23.83 4.56-7.55 12.62-11.03 17.04-12.42 1.01-.32 1.57-1.41 1.25-2.42-.24-.77-.92-1.28-1.68-1.34l-1.46-34.48c.15.02.3.03.44.03h.04c3.24-.03 5.15-2.98 6.26-6.11 1.18 2.01 2.56 3.21 4.12 3.54l-3.85 38.39c-.43-.01-.86.14-1.23.42-.83.66-.97 1.88-.31 2.71 3.52 4.44 11.56 23.11 4.76 40.84zM182.26 463.38c.82-.38 1.6-.97 2.32-1.77 2.67-2.95 4.13-8.14 3.71-13.23-.09-1.06-1.02-1.87-2.08-1.77-1.06.09-1.85 1.02-1.77 2.08.24 2.87-.24 5.46-1.03 7.44-.48 1.21-1.08 2.2-1.7 2.88-.6.66-1.2 1.02-1.7 1.03-.17 0-.53-.21-1-.78-.25-.3-.53-.7-.82-1.23-.49-.88-1.01-2.12-1.51-3.82-.07-.25-.15-.51-.22-.78v-.01c-.07-.27-.15-.56-.22-.85-.51-2.1-.97-4.78-1.29-8.14-.1-1.06-1.04-1.83-2.1-1.74-1.06.1-1.84 1.04-1.74 2.1.33 3.4.82 6.4 1.45 8.95-.02.21-.06.4-.09.6-.22 1.56-.49 2.85-.82 3.89-1.02 3.35-2.4 4.26-2.93 4.27-.33-.04-.88-.37-1.51-1.04-1.09-1.18-2.42-3.38-3.22-6.84-.59-2.52-.9-5.71-.64-9.64.07-1.07-.74-1.98-1.8-2.06-1.06-.07-1.98.73-2.06 1.8-.66 9.87 1.95 15.41 3.86 18.06l.07 40.97c-7.89 2.79-20.25 10-24.18 28.17-2.3 10.69 4.94 26.3 7.91 28.53 1.17.88 2.21.43 2.5.28.48-.26 1.27-.93 1.17-2.49-1.28-20.61 6.33-30.4 8.69-32.92 1.75-1.86 3.32-2.75 4.4-3.03 1.28 3.34 1.51 17.73 1.65 26.52.07 4.73.14 9.19.32 12.46.22 4.12.38 7.11 2.84 7.11.62 0 1.54-.22 2.42-1.29 4.77-5.78 10.22-42.76 7.4-57.35-.53-2.77-1.66-3.97-2.34-4.69-.06-.07-.14-.15-.2-.22 1.23-12.25 3.06-22.85 4.83-33.1.48-2.73.96-5.52 1.43-8.35zm-5.22 7.7c-1.79 10.35-3.64 21.05-4.88 33.5-.17 1.63.69 2.53 1.25 3.13.51.54 1.04 1.1 1.36 2.77 2.43 12.61-1.8 40.58-5.02 50.67-.17-3.4-.25-8.21-.32-12.39-.4-24.3-1-30.41-4.84-30.41-2.46 0-5.26 1.54-7.88 4.34-6.14 6.53-9.69 17.58-9.86 30.28-2.43-5.14-5.23-13.66-3.81-20.22 4.18-19.38 18.96-24.89 25.13-26.36.23-.06.38-.1.46-.12 1.01-.32 1.6-1.41 1.28-2.42-.32-1.02-1.39-1.59-2.4-1.27-.04.01-.11.02-.2.04l-.06-36.54c.5.19 1 .3 1.48.3h.04c3.24-.03 5.14-2.98 6.26-6.11.97 1.65 2.07 2.75 3.3 3.28-.43 2.54-.86 5.06-1.29 7.53z"/><path fill="#DCD7B0" d="M175.02 460.27c-1.12 3.14-3.03 6.08-6.26 6.11h-.04c-.48 0-.98-.11-1.48-.3l.06 36.54c.09-.02.16-.04.2-.04 1.01-.32 2.08.25 2.4 1.27.32 1.01-.26 2.11-1.28 2.42-.07.02-.23.07-.46.12-6.16 1.47-20.94 6.98-25.13 26.36-1.42 6.56 1.38 15.07 3.81 20.22.17-12.7 3.72-23.75 9.86-30.28 2.62-2.8 5.42-4.34 7.88-4.34 3.84 0 4.45 6.11 4.84 30.41.06 4.18.14 8.98.32 12.39 3.22-10.09 7.45-38.05 5.02-50.67-.33-1.67-.85-2.23-1.36-2.77-.56-.6-1.42-1.5-1.25-3.13 1.24-12.44 3.09-23.14 4.88-33.5.43-2.48.86-5 1.29-7.54-1.22-.53-2.33-1.62-3.3-3.27zM211.18 507.18c-.66-.83-.53-2.05.31-2.71.36-.28.8-.43 1.23-.42l3.85-38.39c-1.56-.33-2.94-1.53-4.12-3.54-1.12 3.14-3.03 6.08-6.26 6.11h-.04c-.15 0-.3-.01-.45-.03l1.46 34.48c.76.06 1.44.57 1.68 1.34.32 1.01-.24 2.1-1.25 2.42-4.41 1.39-12.48 4.87-17.04 12.42-6.58 10.92-5.63 18.99-3.67 23.83.97 2.41 2.3 4.32 3.56 5.74-.57-1.8-1.05-4.03-1.05-6.61 0-8.38 4.97-15.89 9.23-19.78 1.65-1.51 4.86-4 7.81-3.74 5.41.49 6.69 10.96 7.26 31.41.03 1.01.06 2.04.09 2.98.91-1.81 1.82-3.82 2.16-4.67 6.81-17.73-1.23-36.4-4.76-40.84z"/><path fill-rule="evenodd" d="M208.97 443.22c-1.35-.39-3.69 2.5-4.25 5.4-.88 4.57 2.74 8.85 4.25 8.49 2.34-.56 2.53-13.16 0-13.89zm12.93 4.82c-5.89-11.5-6.48 11.45-4.82 12.54.79.52 3.05-1.4 4.25-3.09 2.72-3.86 1.1-8.41.57-9.45zm-50.38-6.56c-1.35-.39-3.69 2.5-4.25 5.4-.88 4.57 2.74 8.85 4.25 8.49 2.35-.56 2.53-13.16 0-13.89zm8.11 17.37c.79.52 3.05-1.4 4.25-3.09 2.73-3.87 1.11-8.42.58-9.45-5.89-11.51-6.49 11.44-4.83 12.54z" clip-rule="evenodd" opacity=".05"/><path fill-rule="evenodd" d="M212.07 527.14c-.38-.86 2.32-2.64 1.93-3.47-.36-.76-2.95-.03-3.28-.77-.33-.72 1.78-2.33 1.54-2.7-.23-.35-2.22.83-2.9.19-.3-.28-.25-.8-.19-1.16.19-1.2.98-3.33.77-3.48-.29-.2-2.2 2.67-3.47 2.32-1.62-.45-1.56-5.79-1.74-5.79-.17.01.06 5.28-1.16 5.59-1.08.28-2.96-3.45-3.28-3.28-.37.18 2.07 5.12.96 5.98-.95.74-4.16-1.88-4.44-1.54-.27.33 2.79 3.17 2.32 3.86-.44.65-3.64-1.01-4.25-.19-.59.79 1.79 3.13 1.16 4.05-.62.92-3.85-.28-4.05.19-.18.44 2.53 1.8 2.32 2.71-.24.99-3.79.68-4.05 1.73-.23.93 2.37 2.2 2.12 2.9-.24.68-2.89-.03-3.28.77-.35.72 1.06 2.59 2.32 2.51 1.11-.08 2.56-2.96 4.25-7.91.29-.85.87-2.35 1.74-3.67 1.15-1.75 2.38-2.07 3.47-3.86.88-1.43 1.17-2.7 2.51-3.28.42-.18 1.18-.32 2.12-.19 1.14.15 1.85.52 2.32.96.74.7.79 1.44 1.16 2.51.45 1.29 1.14 1.79 1.54 3.09.41 1.35.41 2.63.38 3.47-.03 1.14.04 2.15 0 3.28-.05 1.59-.09 2.92.19 4.63.37 2.28 1.04 3.46 1.74 3.67.94.28 2.17-.49 2.12-.96-.04-.39-1.1-.53-1.74-1.16-.58-.57-1.05-1.48-.77-1.93.43-.7 2.58-.03 2.71-.38.15-.44-3.05-1.71-2.9-2.7.14-.89 2.9-1.09 2.9-1.54-.01-.49-3.18-.6-3.28-1.35-.12-.85 3.78-2.07 3.67-2.51-.1-.39-3.11.23-3.48-.59zm.85-23.23c.71-8.48 3.53-29.43 5.34-40.04-1.22-1.71-3.15-2.36-3.77-2.27-3.28 2.98-8.12 42.37-1.57 42.31zm-42.43-4.48c.12 2.23 2.79 3.15 3.09 2.51 2.53-5.49 5.92-40.08 5.4-42.26-3.9-16.33-9.23 26.1-8.49 39.75zm-1.29 27.35c.21-.75 2.59-.57 2.71-1.16.13-.68-3-1.63-2.9-2.51.09-.78 2.7-.99 2.71-1.54.01-.59-3-.86-3.09-1.74-.07-.74 1.99-1.57 1.93-1.73-.08-.19-2.96 1.13-3.86.19-.74-.77.15-2.84 0-2.9-.13-.04-.6 1.35-1.16 1.35-.76-.01-1.27-2.56-1.54-2.51-.3.06.11 3.34-.38 3.47-.53.14-1.74-3.23-2.32-3.09-.62.15.1 4.15-.77 4.44-.81.26-2.51-2.88-2.9-2.71-.43.21 1.38 4.53.58 5.01-.57.35-2.13-1.52-2.71-1.15-.77.48 1.12 4.36.19 5.01-.7.49-2.56-1.22-3.09-.77-.62.53 1.35 3.45.58 4.25-.62.64-2.55-.6-3.09 0-.72.8 1.99 3.84 1.16 5.01-.71 1.01-3.32-.25-3.86.58-.63.98 1.89 4.43 3.47 4.05 1-.24 1.16-2.19 2.12-5.01.64-1.88 1.4-3.61 2.12-4.82.98-1.64 2.04-2.34 2.9-4.05.59-1.17 1.07-2.43 2.12-3.67.69-.81 1.45-1.45 2.51-1.73.81-.22 1.85-.28 2.71.19 1.03.57 1.45 1.68 1.74 2.9.59 2.45.66 5.49.58 6.17-.17 1.58-.41 3.06-.58 4.63-.15 1.39-.04 3.95 0 6.17.03 1.59.11 3.45 1.35 4.25.87.56 2.19.53 2.51 0 .35-.59-.83-1.53-.77-2.7.06-1.36 1.6-2.14 1.35-3.09-.3-1.17-3.05-1.26-3.09-1.93-.04-.75 3.3-1.33 3.28-2.12-.02-.75-3.12-1.2-3.09-1.73.03-.54 3.25-.55 3.47-1.54.25-1.08-3.16-2.52-2.89-3.47z" clip-rule="evenodd" opacity=".17"/></svg>