<svg xmlns="http://www.w3.org/2000/svg" xml:space="preserve" version="1.0" viewBox="0 0 184.56 188.2"><path d="M71.12 133.35c-.14.94-.27 1.88-.39 2.82l.95.22c1.34-10.44 3.69-20.53 6.93-29.62l28.43 30.8c-1.13 1.04-2.73 3.13-4.64 5.86l1.01.23c1.97-2.81 3.6-4.9 4.61-5.67l.42-.32-30.19-32.72-.27.74c-3.11 8.56-5.42 17.86-6.86 27.66z"/><path fill="#E8E8E8" d="m71.68 136.4 30.72 7.04c1.9-2.73 3.51-4.82 4.63-5.86l-28.42-30.8c-3.24 9.09-5.58 19.18-6.93 29.62z"/><path fill-rule="evenodd" d="M75.54 126.67c.17-.03.28 1.11 1.12 1.99 1.14 1.18 2.84 1.17 2.83 1.43-.01.29-2.03.93-3.28-.12-1.29-1.09-.91-3.26-.67-3.3zm7.21 7.78c1.46.87 3.06.95 3.04 1.17-.01.23-1.6.6-2.98-.06-1.68-.79-2.37-2.73-2.18-2.86.13-.09.85 1 2.12 1.75z" clip-rule="evenodd" opacity=".15"/><path d="m131.66 114.75.48.14.45.12c4.2.96 12.22-.99 17.57-4.34 5.91-3.7 9.17-8.26 11.06-11.89-.69.67-1.4 1.24-2.09 1.71-1.93 3.06-4.88 6.48-9.48 9.37-5.13 3.21-12.76 5.11-16.75 4.24l11.85-34.91c7.82-2.66 17.42-5.19 19.28-2.37.65.98.08 2.52-.73 3.92-.18.31-.37.61-.56.9-.05.08-.11.16-.16.24-1.39 2.02-3.27 3.96-4.18 4.9-.24.25-.41.43-.51.54-.18.2-.16.5.04.68.2.17.5.16.68-.04.08-.1.26-.28.48-.51 1.22-1.26 2.56-2.72 3.68-4.2.17-.22.32-.43.48-.65l.61-.91c1.28-2.03 1.9-3.98.97-5.38-1.83-2.77-8.39-2.11-20.62 2.07l-.23.08-12.32 36.29z"/><path d="M154.23 102.28c.05.18.19.31.36.34.07.02.15.02.23 0 .04-.01 2.04-.57 4.3-2.13.69-.47 1.4-1.04 2.09-1.71 1.5-1.45 2.88-3.4 3.69-5.97 1.53-4.89.1-9.03-1.03-11.14-.19.3-.39.61-.61.91.12.24.23.51.35.79.85 2.12 1.55 5.41.38 9.15-.31.97-.7 1.84-1.15 2.63-.41.72-.87 1.36-1.36 1.94-.34.41-.7.78-1.06 1.12-.33.31-.67.6-1 .87-2.43 1.93-4.81 2.6-4.85 2.61-.26.07-.41.34-.34.59z"/><path fill="#FFF6A6" d="M132.9 114.1c3.99.88 11.61-1.02 16.75-4.24 4.6-2.88 7.54-6.3 9.48-9.37-2.27 1.56-4.26 2.12-4.3 2.13-.08.02-.16.02-.23 0-.17-.04-.31-.17-.36-.34-.07-.25.08-.52.34-.59.04-.01 2.42-.68 4.85-2.61.33-.26.67-.55 1-.87.36-.34.71-.72 1.06-1.12.49-.58.95-1.22 1.36-1.94.45-.79.84-1.66 1.15-2.63 1.17-3.75.47-7.03-.38-9.15-.12-.28-.23-.55-.35-.79-.15.22-.31.43-.48.65-1.12 1.48-2.46 2.93-3.68 4.2-.22.23-.4.41-.48.51-.18.2-.48.22-.68.04-.2-.17-.22-.48-.04-.68.1-.11.27-.29.51-.54.9-.93 2.78-2.88 4.18-4.9.05-.08.11-.16.16-.24l.56-.9c.81-1.4 1.38-2.95.73-3.92-1.86-2.82-11.46-.29-19.28 2.37L132.9 114.1z"/><path fill-rule="evenodd" d="M143.31 79.14c1.92-1.19 3.68-1.81 3.87-1.18.86 2.9-1.32 16.95-7.47 24.89-1.61 8.09-3.31 10.59-6.2 11.52-.55.18-1.18-.18-1.75-.55-5.93-3.83-1.12-26.8 11.55-34.68zm20.58 3.53c.23.77-.35 1.76-1.85 3.04-1.26 1.08-3.98 2.71-3.82 1.74 1.1-1.11 3.79-4.37 4.77-5.67.27-.35.78.5.9.89zm-4.11 17.24c-.41 2.06-2.52 3.37-3.79 5.05-.71-.77-1.25-1.93-.93-3.04 1.76-.87 2.69-1.68 4.72-2.01z" clip-rule="evenodd" opacity=".05"/><path fill="none" d="m151.244575 86.503445 6.483068-28.285794 26.823744 6.147968-6.483068 28.285794z"/><path d="M95.65 74.26c6.59-15.7 16.73-28.08 28.56-34.86 1.38-.79 3.33-.6 5.5.52 3.36 1.74 6.89 5.45 9.68 10.17 2.32 3.92 5.26 10.46 6.09 19.33 0 .04.01.08.01.13.2 1.76.35 4.62 0 8.68-.36 4.19-1.16 8.66-2.38 13.27-1.19 4.48-3.01 8.47-5.43 11.93-1.53 5.23-2.87 9.18-3.86 11.26-4.38 9.3-9.67 16.48-15.29 20.76-4.73 3.61-9.56 5.06-13.63 4.13-.11-.03-.22-.05-.33-.08-8.46-2.24-14.04-10.36-15.7-22.87-.81-6.13-.64-13.21.51-20.47 1.16-7.32 3.33-14.9 6.27-21.9zm-5.32 22.07c-1.14 7.17-1.31 14.15-.51 20.19 1.61 12.1 6.93 19.94 14.99 22.07 3.85 1.01 8.51-.36 13.13-3.88 5.5-4.19 10.69-11.25 15-20.41.86-1.83 1.94-4.94 3.08-8.7-1.35 1.62-2.85 3.12-4.5 4.47-.12.1-.27.13-.41.1-.1-.02-.19-.08-.26-.16-.17-.21-.14-.51.07-.68 2.24-1.84 4.21-3.95 5.88-6.31.65-.92 1.26-1.88 1.82-2.87 1.52-2.69 2.71-5.65 3.57-8.88.64-2.4 2.35-9.46 2.55-16.36.05-1.79 0-3.57-.2-5.26 0-.05 0-.09-.01-.13l-.03-.24c-.84-8.57-3.68-14.88-5.93-18.68-2.71-4.57-6.1-8.15-9.3-9.81-.71-.37-1.38-.62-2-.77-1.02-.23-1.9-.16-2.58.22-11.64 6.68-21.64 18.9-28.15 34.4-2.91 6.92-5.06 14.42-6.21 21.69z"/><path fill="#FFF6A6" d="M90.33 96.33c-1.14 7.17-1.31 14.15-.51 20.19 1.61 12.1 6.93 19.94 14.99 22.07 3.85 1.01 8.51-.36 13.13-3.88 5.5-4.19 10.69-11.25 15-20.41.86-1.83 1.94-4.94 3.08-8.7-1.35 1.62-2.85 3.12-4.5 4.47-.12.1-.27.13-.41.1-.1-.02-.19-.08-.26-.16-.17-.21-.14-.51.07-.68 2.24-1.84 4.21-3.95 5.88-6.31.65-.92 1.26-1.88 1.82-2.87 1.52-2.69 2.71-5.65 3.57-8.88.64-2.4 2.35-9.46 2.55-16.36.05-1.79 0-3.57-.2-5.26-.01-.09-.02-.17-.03-.26v-.11c-.84-8.57-3.68-14.88-5.93-18.68-2.71-4.57-6.1-8.15-9.3-9.81-.71-.37-1.38-.62-2-.77-1.02-.23-1.9-.16-2.58.22-11.64 6.68-21.64 18.9-28.15 34.4-2.92 6.92-5.07 14.42-6.22 21.69z"/><path fill-rule="evenodd" d="M136.95 104.06c-.35-.09-5.4 6.74-8.41 7.04-1.36.14-2.8-4.27-2.8-4.27s-3.72 2.97-4.83 2.51c-1.59-.67-1.82-5.13-1.82-5.13s-3.38 2.68-5.63 1.85c-.91-.33-1.3-5.33-1.3-5.33s-3.51 3.19-5.22 2.11-1.79-14.68-5.34-4.21c-6.8 20.05-8.42 32.04-3.84 36.7 4.18 4.24 10.49 4.18 13.35 3.69 18.95-7.51 26.19-34.87 25.84-34.96z" clip-rule="evenodd" opacity=".1"/><path d="M86.61 74.62c4.14-6.26 9.45-12.18 13.86-15.44 2.9-2.14 5.2-3.04 6.85-2.66.02.01.05.01.07.02 5.41 1.38 4.47 19.55 2.06 32.02-.7 3.66-.37 6.89-.02 10.31.15 1.43.3 2.88.37 4.39v.07c.13 2.68.03 5.55-.72 8.84-1.7 7.43-4.05 13.66-6.78 18.03-1.79 2.87-3.7 4.8-5.62 5.74-1.08 1.2-2.23 1.87-3.35 1.85-.19 0-.39-.03-.58-.07-1.25-.29-2.53-1.41-3.66-3.2-2.33-1.65-5.22-4.35-7.53-8.3-2.34-4.01-3.72-8.61-4.1-13.69-.42-5.66.41-11.9 2.48-18.59-.37.31-.54.32-.74.24-.2-.08-.32-.28-.31-.5.24-5.14 2.98-11.91 7.72-19.06zm-6.67 17.97c.19-.2.42-.45.71-.77 1.18-1.32 2.94-3.4 5.23-6.17.17-.2.47-.23.68-.07.2.17.23.47.06.68-2.23 2.7-3.96 4.74-5.14 6.08-2.47 7.29-3.5 14.06-3.05 20.12.36 4.93 1.7 9.4 3.97 13.28 1.83 3.13 3.95 5.33 5.62 6.74-1.33-2.96-2.28-7-2.43-11.76-.01-.26.2-.49.47-.5.27-.01.49.2.49.47.19 5.88 1.62 10.44 3.3 13.2.56.91 1.14 1.62 1.71 2.11.48.42.96.69 1.41.79.13.03.26.05.38.05.32.01.65-.08 1-.24.57-.27 1.17-.77 1.77-1.46.5-.57.99-1.28 1.46-2.1 1.54-2.72 2.69-6.41 3.23-10.41.04-.26.28-.45.54-.41.26.04.45.28.41.54-.58 4.28-1.85 8.13-3.42 10.86 3.81-3.48 7.42-11.22 9.81-21.66.73-3.18.83-5.98.7-8.6-.64-3.16-1.41-5.47-2.03-7.32-.31-.93-.58-1.73-.79-2.51-.07-.26.08-.52.34-.59.26-.07.52.08.59.34.2.75.47 1.54.77 2.46.19.57.4 1.19.61 1.85-.29-3-.47-5.92.17-9.22 1.36-7.08 2.05-14.49 1.88-20.34-.18-6.24-1.36-10.09-3.23-10.57-.02 0-.03-.01-.05-.01-1.32-.3-3.47.58-6.06 2.5-4.33 3.2-9.55 9.02-13.63 15.2-4.31 6.49-6.93 12.63-7.48 17.44z"/><path fill="#FFF6A6" d="M79.94 92.59c.19-.2.42-.45.71-.77 1.18-1.32 2.94-3.4 5.23-6.17.17-.2.47-.23.68-.07.2.17.23.47.06.68-2.23 2.7-3.96 4.74-5.14 6.08-2.47 7.29-3.5 14.06-3.05 20.12.36 4.93 1.7 9.4 3.97 13.28 1.83 3.13 3.95 5.33 5.62 6.74-1.33-2.96-2.28-7-2.43-11.76-.01-.26.2-.49.47-.5.27-.01.49.2.49.47.19 5.88 1.62 10.44 3.3 13.2.56.91 1.14 1.62 1.71 2.11.48.42.96.69 1.41.79.13.03.26.05.38.05.32.01.65-.08 1-.24.57-.27 1.17-.77 1.77-1.46.5-.57.99-1.28 1.46-2.1 1.54-2.72 2.69-6.41 3.23-10.41.04-.26.28-.45.54-.41.26.04.45.28.41.54-.58 4.28-1.85 8.13-3.42 10.86 3.81-3.48 7.42-11.22 9.81-21.66.73-3.18.83-5.98.7-8.6-.64-3.16-1.41-5.47-2.03-7.32-.31-.93-.58-1.73-.79-2.51-.07-.26.08-.52.34-.59.26-.07.52.08.59.34.2.75.47 1.54.77 2.46.19.57.4 1.19.61 1.85-.29-3-.47-5.92.17-9.22 1.36-7.08 2.05-14.49 1.88-20.34-.18-6.24-1.36-10.09-3.23-10.57-.02 0-.03-.01-.05-.01-1.32-.3-3.47.58-6.06 2.5-4.33 3.2-9.55 9.02-13.63 15.2-4.31 6.49-6.93 12.63-7.48 17.44z"/><path fill-rule="evenodd" d="M89.42 133.67c-8.54-5.49-4.41-12.67-3.63-13.45.52 4.43 3.2 12.66 3.63 13.45zM80.9 92.69c2.26-3.22 5.02-7.81 5.68-6.87.66.94-2.68 4.91-7.35 14.19-.91.55.56-3.66 1.67-7.32zm10.83-1.28c1.42-.02 2.58-.68 2.6-.55.03.18-1.55 1.49-3.32 1.39-1.92-.11-3.17-1.83-3.08-2.02.09-.18 1.56 1.22 3.8 1.18zm4.35-3.14c-1.92-.11-3.17-1.83-3.08-2.02.09-.19 1.56 1.22 3.79 1.18 1.42-.02 2.58-.68 2.6-.55.03.17-1.55 1.48-3.31 1.39zm3.14 4.52c-1.92-.11-3.17-1.83-3.08-2.02.09-.19 1.56 1.22 3.79 1.18 1.42-.02 2.58-.68 2.6-.55.04.18-1.54 1.49-3.31 1.39zm-8.66 6.77c1.4.15 2.58-.38 2.59-.24.02.18-1.63 1.31-3.35 1.01-1.88-.33-3-2.22-2.89-2.41.1-.18 1.46 1.41 3.65 1.64zm.45 3.65c.09-.19 1.6 1.13 3.84.99 1.43-.09 2.57-.8 2.6-.67.03.17-1.52 1.55-3.3 1.54-1.93-.01-3.23-1.66-3.14-1.86zm5.02-4.02c.08-.2 1.69.91 3.95.49 1.43-.27 2.54-1.11 2.58-.98.05.17-1.43 1.71-3.22 1.92-1.97.23-3.39-1.23-3.31-1.43zm1.92-4.11c.03.18-1.55 1.49-3.32 1.39-1.92-.11-3.17-1.83-3.08-2.02.09-.19 1.56 1.22 3.79 1.18 1.43-.03 2.59-.68 2.61-.55z" clip-rule="evenodd" opacity=".1"/><path d="M120.46 41.83c1.45-2.53 6.15-8.37 18.33-8.05.94.02 1.89.14 2.82.36 3.04.7 5.89 2.39 8.24 4.89 2.14 2.29 3.72 5.12 4.44 7.98 1.1 4.37-1.13 8.91-4.22 15.19-.61 1.24-1.24 2.52-1.9 3.91-.57 1.2-1.76 3.71-2.92 5.74-1.72 3.02-2.77 4.05-3.87 3.81h-.02c-.4-.09-1.1-.4-1.34-1.47-.11-.49-.11-1.05-.1-1.6 0-.48.01-1.45-.19-1.64-.3.08-.97.7-1.34 1.03-.95.87-2.03 1.85-3.25 1.57-.27-.06-.53-.19-.76-.36-1.4-.99-1.17-2.88-.99-4.4.07-.55.13-1.07.12-1.48-.01-.41-.1-.51-.1-.51h-.01c-.43-.1-1.62.57-2.33.97-1.16.65-2.16 1.21-3.06 1-.22-.05-.42-.14-.59-.27-1.12-.85-.6-2.57 0-4.57.2-.67.55-1.82.58-2.4-.5.16-1.4.68-1.92.99-1.18.69-2.03 1.19-2.79 1.02-.21-.05-.4-.15-.56-.29-.82-.75-.23-2 .09-2.68.39-.81.95-1.79 1.55-2.82.52-.89 1.05-1.81 1.44-2.58.16-.33.28-.59.36-.79-.78.33-1.95 1.01-2.6 1.38-1.76 1.01-2.5 1.41-3.15 1.26-.23-.05-.44-.18-.59-.35-.25-.3-.35-.7-.31-1.21.14-1.55 1.8-4.96 4.98-8.19-1.73.3-3.04.47-3.91.27-.48-.11-.83-.34-1.04-.68-.59-1.03-.24-3.04.91-5.03zm-.07 4.49c.07.12.22.2.43.25 1.44.33 5.62-.82 6.31-.66.14.03.14.12-.06.28-5.07 4.2-7.05 9.17-6.49 9.83.02.02.04.03.07.04.72.16 5.14-3.14 6.37-2.85.08.02.15.05.2.1 1.04 1.02-4.76 8.38-3.84 9.21.03.03.08.05.13.06.85.19 3.76-2.33 4.95-2.06.09.02.17.06.24.11 1.17.91-1.86 6.19-.69 7.08.07.05.14.08.22.1 1.15.26 3.9-2.31 5.39-1.97.11.03.21.07.31.13 1.52.95-.78 5.19 1.04 6.44.13.1.26.17.4.2 1.43.33 3.27-2.92 4.58-2.62.05.01.1.03.14.05 1.57.71.04 4.34 1.48 4.67h.01c1.27.28 4.37-6.19 5.72-9.03 4-8.41 7.27-13.62 6.05-18.45-1.34-5.32-5.9-10.78-11.96-12.17-.85-.19-1.73-.31-2.63-.33-15.8-.41-19.39 9.95-18.37 11.59z"/><linearGradient id="a" x1="144.7265" x2="126.2906" y1="216.8979" y2="183.1501" gradientTransform="matrix(1 0 0 -1 0 252)" gradientUnits="userSpaceOnUse"><stop offset="0" style="stop-color:#715dd3"/><stop offset=".5023" style="stop-color:#8769e9"/><stop offset="1" style="stop-color:#7148b5"/></linearGradient><path fill="url(#a)" d="M120.39 46.32c.07.12.22.2.44.25 1.44.33 5.62-.82 6.31-.66.14.03.14.12-.06.28-5.06 4.2-7.05 9.17-6.49 9.83.02.02.04.03.07.04.72.16 5.14-3.14 6.37-2.85.08.02.15.05.2.1 1.03 1.02-4.76 8.38-3.84 9.21.03.03.08.05.13.06.85.19 3.76-2.33 4.95-2.06.09.02.17.06.24.11 1.17.91-1.86 6.19-.69 7.08.07.05.14.08.22.1 1.15.26 3.9-2.31 5.39-1.97.11.03.21.07.31.13 1.52.95-.78 5.19 1.04 6.44.13.1.26.17.4.2 1.43.33 3.27-2.92 4.58-2.62.05.01.1.03.14.05 1.57.71.04 4.34 1.48 4.67h.01c1.27.28 4.37-6.19 5.72-9.03 4-8.41 7.27-13.62 6.05-18.45-1.34-5.32-5.9-10.78-11.96-12.17-.85-.19-1.73-.31-2.63-.33-15.81-.41-19.4 9.95-18.38 11.59z"/><path fill-rule="evenodd" d="M130.19 53.73c.14-.16-.23-.79-.31-1.17-.17-.83.19-1.59.02-1.67-.27-.13-1.6 1.11-1.21 2.08.26.67 1.28 1 1.5.76zm.47 5.98c.52.59 1.75.5 1.84.21.07-.22-.67-.55-.99-1.17-.56-1.08.07-2.33-.04-2.37-.15-.05-1.68 2.34-.81 3.33zm3.35-5.68c.06-.11-.53-.45-.81-1.07-.29-.67-.11-1.34-.21-1.36-.14-.03-.76.99-.35 1.75.35.65 1.29.82 1.37.68zm1.44 4.05c.72.57 1.89.52 2.01.2.09-.24-1.07-1.12-1.27-1.34-.56-.6-1.06-1.61-1.27-1.55-.36.1-.48 1.9.53 2.69zm-.11 2.28c-.16-.03-1.36 3.18-.36 3.85.64.42 1.97-.29 1.93-.61-.03-.19-.62-.18-.99-.49-.98-.8-.45-2.72-.58-2.75zm4.67 1.65c.7.64 1.85.47 1.87.32.02-.11-.69-.21-1.26-.71-.79-.7-.89-1.73-1.03-1.7-.15.03-.36 1.37.42 2.09zm-.28 2.61c-.07.02.02 2.28 1.24 2.64.89.27 1.95-.64 1.87-.83-.07-.17-1.15.34-2.02-.15-.89-.5-1.03-1.68-1.09-1.66z" clip-rule="evenodd" opacity=".6"/><path fill="#D4D5D7" d="M149.09 52.97c.31-.81 1.01-2.25 2.28-2.81.54-.24 1.42-.46 2.12-.3.29.07.53.2.71.39.32.34.51.9.48 1.45-.02.36-.13.61-.23.69-.05.04-.09.06-.29.07-.05 0-.1.01-.17.01-.27.01-.6.03-1 .12-1.7.4-3.06 1.36-4.05 2.07-.1.07-.2.14-.31.22v-.01c.05-.48.18-1.15.46-1.9zm3.37-1.61c-.1-.25-.38-.36-.63-.26l-.68.28c-.24.1-.36.38-.26.63.06.15.19.25.34.28.09.02.2.02.29-.02l.68-.28c.25-.1.36-.38.26-.63z"/><path fill="#EEB566" d="M145.09 64.32c.96 1.86 4.15 2.39 6.55 1.67-.09-.99-.35-2-.94-2.95-.63-1.03-1.54-1.58-2.27-2.02l-.11-.07c-.23-.14-.3-.43-.16-.66.14-.23.43-.3.66-.16l.11.07c.78.47 1.84 1.12 2.59 2.34.73 1.2 1.02 2.47 1.09 3.66.02.06.02.13.01.19.05 1.12-.07 2.17-.17 3.01-.07.59-.15 1.33-.08 1.55.07.01.19 0 .36-.06.9-.33 2.32-1.73 3.33-4.01 1.01-2.31 1.46-5.32 1.2-8.06-.26-2.71-1.19-4.68-2.49-5.26-.08-.04-.17-.07-.27-.09-.1-.02-.2-.04-.32-.04-.51-.03-1.14.09-1.86.36-.98.38-2.11 1.05-3.18 1.9-1.52 1.22-2.94 2.82-3.67 4.49-.42.99-1.05 2.84-.38 4.14z"/><path fill-rule="evenodd" d="M147.7 55.67c-1.28 1.18-2.42 2.6-3.09 4.12-.61 1.4-1.18 3.39-.37 4.96.53 1.02 1.68 1.84 3.17 2.25 1.36.37 2.86.36 4.28-.03 0 .83-.1 1.62-.18 2.31v.01c-.15 1.32-.25 2.19.43 2.51.06.03.14.06.22.08.22.05.53.05.92-.09 1.12-.41 2.75-1.97 3.87-4.52 2.17-4.93 1.76-12.71-1.59-14.5.5-.83.36-2.34-.46-3.19-.34-.36-.76-.56-1.19-.66-1.02-.23-2.15.1-2.73.35-2.52 1.12-3.51 4.95-3.28 6.4zm6.51-5.42c.32.34.51.9.48 1.45-.02.36-.13.61-.23.69-.05.04-.09.06-.29.07-.05 0-.1.01-.17.01-.27.01-.6.03-1 .12-1.7.4-3.06 1.36-4.05 2.07-.03.02-.06.04-.08.06-.07.05-.15.1-.22.16v-.01c.04-.48.17-1.15.45-1.9.31-.81 1.01-2.25 2.28-2.81.54-.24 1.42-.46 2.12-.3.3.06.53.19.71.39zm-2.57 15.73c-2.4.72-5.59.2-6.55-1.67-.67-1.3-.04-3.15.4-4.14.73-1.67 2.15-3.27 3.67-4.49h.01c1.07-.86 2.19-1.53 3.18-1.9.71-.27 1.35-.4 1.86-.36.11.01.22.02.32.04s.19.05.27.09c1.29.58 2.22 2.55 2.49 5.26.27 2.74-.18 5.76-1.2 8.06-1 2.28-2.43 3.67-3.33 4.01-.17.06-.29.07-.36.06-.08-.22.01-.96.08-1.55v-.01c.1-.84.22-1.88.16-3 .01-.06.01-.13-.01-.19-.08-1.2-.36-2.47-1.09-3.66-.75-1.23-1.81-1.87-2.59-2.34l-.11-.07c-.23-.14-.52-.07-.66.16s-.07.52.16.66l.11.07c.73.44 1.64 1 2.27 2.02.56.96.83 1.97.92 2.95zm-.41-13.68c-.14-.03-.27-.14-.34-.28-.1-.24.01-.53.26-.63l.68-.28c.25-.1.53.01.63.26.1.24-.01.52-.26.63l-.68.28c-.09.03-.2.04-.29.02z" clip-rule="evenodd"/><path fill="#FFF" d="M156.66 56.01v-.03c.29.8.51 1.76.61 2.84.27 2.74-.18 5.76-1.2 8.06-.4.91-.87 1.68-1.34 2.29.54-1.65 2.3-7 1.93-13.16z"/><path d="M149.98 64.67c-.16-1.25-1.44-3.11-1.71-3.77.02.02.04.03.06.04l.11.07c.73.44 1.64 1 2.27 2.02.58.95.84 1.96.94 2.95-.06.02-.13.04-.19.05-.55-.07-1.37-.48-1.48-1.36z" opacity=".26"/><path d="M145.44 45.19c.01 0 .03.01.04.01.24.1.36.38.26.63-.74 1.8-2.71 2.84-4.57 2.42-1.99-.45-3.34-2.41-3.07-4.46.04-.26.28-.45.54-.41.26.04.45.28.42.54-.21 1.57.82 3.06 2.33 3.4 1.42.32 2.91-.48 3.47-1.85.08-.24.34-.35.58-.28zM103.72 140.2l1.34-10.67c-.11-.11-.2-.24-.29-.4-.49-.86-.55-2.2-.17-3.41.08-.25.35-.4.6-.31.25.08.39.35.31.6-.2.63-.24 1.24-.18 1.74.04.37.14.69.27.91.11.19.24.32.36.34.02.01.07 0 .13-.03.03-.01.06-.03.1-.06.17-.12.42-.36.72-.83.09-.14.18-.3.28-.49.03-.06.07-.13.1-.19.24-.48.5-1.1.77-1.9.08-.25.35-.39.61-.31.25.08.39.35.31.61-.27.81-.55 1.5-.85 2.09-.02.16-.03.3-.03.44-.02.41 0 .73.03.99.1.64.33.88.44.9.04 0 .1-.01.17-.03.3-.11.85-.54 1.32-1.44.32-.6.61-1.41.78-2.48.04-.26.29-.44.55-.4.26.04.44.29.4.55-.46 2.87-1.68 4.02-2.23 4.39l-2.51 9.14c1.11.77 2.54 2.1 3.18 4.05.63 1.91.72 3.64.26 5.13-.44 1.44-1.28 2.36-1.92 2.88-.62.51-1.73 1.15-2.26.85-.14-.08-.24-.21-.27-.37-.06-.29.11-.51.34-.81.29-.38.79-1.02 1.01-1.98.4-1.73-.29-3.53-1-4.55-.42-.6-.82-.91-1.02-.93 0 0-.45.09-1.22 2.23-.48 1.36-.92 3.04-1.24 4.27-.29 1.11-.43 1.66-.55 1.91-.15.31-.42.38-.62.35-.01 0-.03-.01-.04-.01-.36-.08-.57-.48-.84-1.56-.15-.62-.27-1.24-.28-1.32-.6-4.18 1.48-8.1 3.12-9.89.01.01.02 0 .02 0zm-2.17 9.77c.03.23.14.76.26 1.25.06-.23.12-.47.19-.72 1.28-4.93 2.17-7.39 3.51-7.21.73.1 1.37.88 1.69 1.34.82 1.18 1.61 3.28 1.14 5.31-.14.62-.38 1.14-.62 1.54.38-.27.81-.66 1.18-1.19.74-1.07 1.42-2.97.43-5.98-.69-2.08-2.45-3.38-3.44-3.96-.23-.13-.3-.43-.17-.66.1-.17.29-.26.48-.23l2.27-8.28c-.04 0-.07-.01-.11-.02h-.01c-.78-.19-1.08-1.01-1.18-1.83-.4.42-.8.64-1.2.63l-1.2 9.52c.11.02.2.08.28.17.17.21.13.51-.08.68-1.1.88-4.09 4.96-3.42 9.64zM114.42 131.32c-.18-.14-.33-.33-.47-.56-.49-.86-.55-2.2-.17-3.41.08-.25.35-.4.6-.31.25.08.39.35.31.6-.22.68-.24 1.34-.16 1.86.05.32.14.59.25.79.11.19.24.32.36.35.04.01.14-.02.29-.13.08-.06.17-.14.27-.25.17-.19.36-.46.58-.84.03-.06.06-.11.1-.18.03-.06.07-.13.1-.19.24-.48.5-1.11.77-1.9.08-.25.36-.39.61-.31.25.08.39.36.31.61-.27.81-.55 1.51-.85 2.09-.01.05-.01.1-.01.15-.03.39-.04.72-.02.99.06.87.34 1.17.47 1.2.08.01.24-.04.43-.17.33-.22.78-.68 1.16-1.48.28-.58.53-1.33.69-2.3.04-.26.29-.44.55-.4.26.04.44.29.4.55-.39 2.43-1.33 3.62-1.94 4.16l-2.29 9.93c1.76 1.11 4.36 3.55 4.3 8.17-.04 2.72-2.66 6.1-3.5 6.48-.33.15-.56-.02-.62-.07-.1-.09-.26-.3-.15-.67 1.46-4.93.15-7.72-.28-8.46-.32-.55-.65-.85-.9-.98-.5.74-1.35 4.21-1.88 6.34-.28 1.14-.55 2.22-.77 3-.28.99-.49 1.7-1.08 1.56-.15-.03-.36-.14-.52-.45-.84-1.67-.11-10.93 1.39-14.31.28-.64.62-.87.83-1 .02-.01.04-.03.06-.04.38-3.04.53-5.71.67-8.29.03-.71.07-1.41.11-2.13zm.84 2.16c-.14 2.61-.29 5.31-.68 8.39-.05.4-.31.57-.48.69-.15.1-.31.21-.49.6-1.29 2.92-1.82 9.94-1.6 12.56.23-.82.52-1.98.76-2.99 1.45-5.87 1.93-7.32 2.86-7.1.6.14 1.19.67 1.67 1.49 1.13 1.92 1.38 4.8.71 7.89.88-1.11 2.03-3.02 2.05-4.69.06-4.93-3.22-7.09-4.63-7.79-.05-.03-.09-.04-.1-.06-.23-.13-.31-.43-.17-.66.13-.23.42-.31.65-.17.01 0 .03.01.05.02l2.04-8.85c-.13.02-.26.02-.38-.01h-.01c-.78-.19-1.08-1.01-1.18-1.83-.33.35-.66.55-.98.61-.02.65-.05 1.28-.09 1.9z"/><path fill="#DCD7B0" d="M116.35 130.97c.1.82.4 1.64 1.18 1.83h.01c.12.03.24.03.38.01l-2.04 8.85c-.02-.01-.04-.02-.05-.02-.23-.13-.52-.06-.65.17-.14.23-.05.52.17.66.02.01.05.03.1.06 1.41.7 4.69 2.86 4.63 7.79-.02 1.67-1.17 3.58-2.05 4.69.66-3.09.42-5.96-.71-7.89-.48-.82-1.08-1.35-1.67-1.49-.93-.21-1.42 1.23-2.86 7.1-.25 1.01-.53 2.17-.76 2.99-.22-2.62.31-9.64 1.6-12.56.17-.39.33-.49.49-.6.17-.11.43-.28.48-.69.39-3.09.54-5.78.68-8.39.03-.62.07-1.26.11-1.9.31-.06.64-.26.96-.61zM104.97 140.34c.21-.17.24-.47.08-.67-.07-.09-.17-.15-.28-.17l1.2-9.52c.4.01.8-.21 1.2-.63.1.82.4 1.64 1.18 1.83h.01c.04.01.07.01.11.02l-2.27 8.28c-.19-.03-.38.06-.48.23-.13.23-.06.52.17.66.99.58 2.76 1.88 3.44 3.96.99 3.01.31 4.92-.43 5.98-.37.53-.8.92-1.18 1.19.24-.4.48-.92.62-1.54.47-2.03-.32-4.13-1.14-5.31-.32-.46-.96-1.24-1.69-1.34-1.34-.18-2.23 2.28-3.51 7.21-.06.24-.13.49-.19.72-.12-.49-.23-1.03-.26-1.25-.67-4.7 2.32-8.78 3.42-9.65z"/><path fill-rule="evenodd" d="M109.06 124.95c.35-.02.76.81.73 1.55-.04 1.16-1.16 1.99-1.5 1.82-.54-.27.12-3.33.77-3.37zm-3.4.45c2.07-2.46.94 3.13.47 3.31-.22.08-.66-.51-.86-.99-.44-1.08.2-2.1.39-2.32zm12.59 1.21c.35-.02.76.81.73 1.55-.04 1.16-1.16 1.99-1.5 1.82-.55-.26.11-3.33.77-3.37zm-2.94 3.76c-.22.08-.66-.51-.86-.99-.45-1.09.2-2.1.38-2.32 2.08-2.46.95 3.14.48 3.31z" clip-rule="evenodd" opacity=".05"/><path fill-rule="evenodd" d="M103.65 145.12c.14-.19-.42-.77-.27-.95.13-.16.72.16.84 0s-.3-.66-.22-.74c.08-.07.49.32.69.21.09-.05.11-.18.11-.27.02-.3-.05-.86.01-.89.08-.03.38.77.71.76.42-.02.7-1.32.74-1.31.04.01-.31 1.28-.03 1.42.25.13.91-.67.98-.61.08.06-.79 1.12-.57 1.4.19.23 1.11-.22 1.16-.13.05.1-.85.61-.78.81.07.18.94-.04 1.04.19.1.22-.61.66-.51.92.1.26.95.15.97.27.02.12-.71.29-.71.53 0 .25.88.38.89.65 0 .24-.7.4-.68.58.02.18.7.15.75.37.04.19-.4.57-.7.48-.27-.08-.46-.86-.59-2.15-.02-.22-.08-.62-.22-.99-.18-.49-.46-.64-.63-1.13-.14-.4-.14-.72-.43-.93-.09-.07-.27-.14-.5-.16-.29-.03-.48.02-.62.1-.22.13-.27.31-.42.54-.18.29-.38.37-.55.66-.18.3-.25.62-.29.82-.06.28-.13.52-.18.79-.08.39-.14.71-.3 1.11-.22.53-.44.78-.62.79-.24.02-.5-.24-.46-.35.03-.09.3-.07.49-.18.17-.11.34-.3.29-.42-.07-.19-.62-.15-.64-.24-.01-.12.84-.25.85-.5.01-.22-.64-.43-.62-.54.03-.12.8.03.87-.15.08-.2-.8-.71-.75-.81.07-.09.76.23.9.05zm1.08-5.67c.3-2.09.78-7.33.93-10 .39-.35.9-.4 1.04-.34.63.9-.38 10.71-1.97 10.34zm10.54 1.27c-.15.53-.85.61-.89.44-.31-1.47.79-10.05 1.04-10.54 1.86-3.75.79 6.83-.15 10.1zm-1.2 6.7c-.01-.19-.6-.28-.59-.43.01-.17.82-.23.84-.45.02-.19-.6-.39-.57-.52.03-.14.78-.04.85-.25.06-.18-.4-.49-.37-.53.03-.04.66.44.93.26.22-.15.12-.7.16-.7.03 0 .07.36.21.39.18.04.45-.55.51-.52.07.03-.21.8-.1.86.12.06.6-.69.73-.62.14.07-.25 1-.06 1.12.18.11.77-.56.85-.49.09.07-.59 1.02-.42 1.18.12.12.6-.25.72-.13.16.16-.51.99-.32 1.2.14.16.69-.15.79-.01.12.16-.52.76-.38 1 .12.19.65 0 .75.17.13.23-.69.82-.56 1.15.12.28.82.12.9.35.1.27-.71.97-1.07.79-.23-.11-.16-.6-.24-1.33-.05-.49-.14-.95-.25-1.29-.15-.45-.37-.68-.48-1.14-.08-.32-.12-.65-.31-1.01-.12-.23-.27-.43-.51-.56-.18-.1-.43-.17-.67-.1-.28.08-.44.33-.58.61-.28.56-.46 1.29-.48 1.46-.05.39-.07.76-.12 1.15-.04.35-.21.96-.34 1.5-.1.38-.22.83-.57.95-.24.09-.56.01-.61-.14-.05-.16.29-.32.34-.61.06-.33-.27-.61-.16-.82.14-.27.81-.14.86-.3.05-.18-.73-.51-.68-.7.05-.18.82-.12.85-.25.02-.13-.76-.31-.76-.57.01-.26.92-.43.91-.67z" clip-rule="evenodd" opacity=".17"/><path d="M125.32 166.75c-.11 1.4-.24 2.81-.37 4.21h-1.44c1.51-15.53 1.46-30.89-.2-45.1l-51.09 35.1c1.28 1.87 2.9 5.43 4.74 10h-1.54c-1.91-4.72-3.57-8.27-4.76-9.71l-.5-.6 54.26-37.29.14 1.16c1.68 13.38 1.93 27.59.76 42.23z"/><path fill="#8F85BA" d="M123.51 170.96H76.96c-1.84-4.57-3.46-8.13-4.74-10l51.09-35.1c1.66 14.21 1.71 29.57.2 45.1z"/><path fill-rule="evenodd" d="M121.16 155.63c-.24-.1-.77 1.51-2.27 2.5-2.03 1.33-4.47.75-4.54 1.14-.08.43 2.62 2.02 4.77.91 2.22-1.15 2.38-4.41 2.04-4.55zm-12.94 8.86c-2.39.77-4.72.37-4.77.68-.06.34 2.1 1.39 4.32.91 2.67-.58 4.31-3.16 4.09-3.4-.17-.19-1.56 1.13-3.64 1.81z" clip-rule="evenodd" opacity=".15"/><path d="m44.31 119.81-.73.05c-.22.02-.45.02-.69.02-6.36 0-17.26-5.48-23.86-12.09-7.29-7.31-10.48-14.98-11.99-20.85.77 1.2 1.61 2.26 2.45 3.17 1.77 5.07 4.88 10.99 10.55 16.67 6.33 6.35 16.68 11.62 22.71 11.68L37.2 64.08c-10.38-6.43-23.36-13.27-26.98-9.82-1.25 1.2-.95 3.62-.25 5.91.15.51.33 1 .51 1.48l.15.39c1.34 3.38 3.4 6.81 4.4 8.46.26.44.45.75.56.95.19.35.06.78-.29.97-.35.19-.77.06-.96-.29-.09-.17-.28-.49-.52-.89-1.34-2.23-2.79-4.78-3.91-7.28-.17-.37-.32-.74-.47-1.1l-.58-1.52c-1.16-3.36-1.42-6.38.38-8.1 3.55-3.4 12.77-.28 29 9.82l.3.18 5.77 56.57z"/><path d="M15.93 94.32c-.13.24-.37.38-.63.38-.11 0-.23-.03-.33-.08-.05-.03-2.74-1.5-5.49-4.5-.83-.91-1.67-1.97-2.45-3.17-1.67-2.6-3.03-5.87-3.34-9.84-.58-7.57 2.83-13.08 5.16-15.76.17.5.37 1.01.58 1.52-.25.31-.5.65-.76 1.03-1.92 2.78-4.01 7.3-3.57 13.11.12 1.5.39 2.89.78 4.18.35 1.17.81 2.26 1.32 3.26.36.7.74 1.36 1.15 1.97.37.56.76 1.09 1.15 1.58 2.87 3.6 6.07 5.35 6.12 5.37.37.17.5.6.31.95z"/><path fill="#8F85BA" d="M42.75 118.46c-6.03-.06-16.38-5.33-22.71-11.68-5.67-5.69-8.78-11.61-10.55-16.67 2.75 3.01 5.44 4.48 5.49 4.5.11.06.22.08.33.08.25 0 .5-.14.63-.38.18-.35.05-.78-.29-.96-.06-.03-3.26-1.78-6.12-5.37-.39-.49-.78-1.02-1.15-1.58-.41-.61-.79-1.27-1.15-1.97-.51-1-.97-2.09-1.32-3.26-.39-1.29-.67-2.68-.78-4.18-.45-5.8 1.64-10.32 3.57-13.11.26-.37.52-.72.76-1.03.15.36.31.73.47 1.1 1.12 2.5 2.57 5.05 3.91 7.28.24.41.44.72.52.89.19.35.62.47.96.29.35-.19.47-.62.29-.97-.11-.19-.3-.51-.56-.95-.99-1.65-3.05-5.08-4.4-8.46l-.15-.39-.51-1.48c-.7-2.29-1.01-4.72.25-5.91 3.61-3.45 16.6 3.38 26.98 9.82l5.53 54.39z"/><path fill-rule="evenodd" d="M39.29 64.49c-2.37-2.36-4.7-3.84-5.18-2.98-2.19 3.91-3.69 24.93 2.54 38.45-.35 12.22 1.27 16.41 5.12 18.71.73.43 1.76.13 2.7-.21 9.8-3.6 10.46-38.39-5.18-53.97zM8.5 62.77c-.59 1.03-.07 2.66 1.66 5 1.47 1.97 4.84 5.24 4.92 3.79-1.21-1.97-4.01-7.57-5-9.77-.26-.6-1.28.46-1.58.98zm.22 26.28c-.09 3.12 2.52 5.71 3.79 8.56 1.28-.87 2.44-2.38 2.35-4.09-2.25-1.84-3.32-3.32-6.14-4.47z" clip-rule="evenodd" opacity=".05"/><path fill="none" d="M0 26.96h20.21v27.32H0z"/><path d="M109.52 73.23c-4.3-24.87-14.82-46.12-29.61-59.84-1.72-1.6-4.59-1.97-8.09-1.07-5.41 1.4-11.71 5.59-17.3 11.49-4.64 4.9-11.03 13.37-15.14 25.92-.02.06-.04.12-.05.19-.87 2.47-2.03 6.56-2.87 12.54-.87 6.18-1.19 12.9-.95 19.96.23 6.87 1.53 13.23 3.89 19.05.47 8.06 1.11 14.21 1.83 17.55 3.24 14.89 8.48 27.02 15.16 35.07 5.62 6.78 12.09 10.49 18.26 10.49.17 0 .34-.01.5-.01 12.92-.43 23.63-10.32 30.15-27.85 3.19-8.59 5.27-18.88 6.01-29.75.74-10.99.12-22.65-1.79-33.74zm.37 33.65c-.73 10.74-2.78 20.89-5.93 29.35-6.31 16.96-16.56 26.52-28.87 26.92-5.88.19-12.14-3.35-17.62-9.96-6.53-7.88-11.67-19.79-14.87-34.46-.64-2.93-1.16-7.78-1.56-13.59 1.41 2.8 3.07 5.45 5 7.95.14.18.35.28.56.28.15 0 .3-.05.43-.15.31-.24.37-.69.13-1-2.62-3.41-4.75-7.1-6.38-11.06-.63-1.54-1.19-3.13-1.67-4.75-1.3-4.39-2.03-9.07-2.2-14.02-.12-3.68-.26-14.46 1.73-24.49.52-2.61 1.18-5.17 2.03-7.54.02-.07.03-.13.05-.18.04-.12.08-.23.12-.34 4.04-12.11 10.21-20.29 14.71-25.04 5.41-5.71 11.47-9.76 16.62-11.09 1.14-.3 2.19-.44 3.14-.44 1.55 0 2.8.4 3.64 1.18 14.56 13.51 24.92 34.48 29.17 59.04 1.9 10.96 2.51 22.51 1.77 33.39z"/><path fill="#8F85BA" d="M109.89 106.88c-.73 10.74-2.78 20.89-5.93 29.35-6.31 16.96-16.56 26.52-28.87 26.92-5.88.19-12.14-3.35-17.62-9.96-6.53-7.88-11.67-19.79-14.87-34.46-.64-2.93-1.16-7.78-1.56-13.59 1.41 2.8 3.07 5.45 5 7.95.14.18.35.28.56.28.15 0 .3-.05.43-.15.31-.24.37-.69.13-1-2.62-3.41-4.75-7.1-6.38-11.06-.63-1.54-1.19-3.13-1.67-4.75-1.3-4.39-2.03-9.07-2.2-14.02-.12-3.68-.26-14.46 1.73-24.49.52-2.61 1.18-5.17 2.03-7.54.04-.12.08-.24.13-.36.02-.05.03-.11.04-.16 4.04-12.11 10.21-20.29 14.71-25.04 5.41-5.71 11.47-9.76 16.62-11.09 1.14-.3 2.19-.44 3.14-.44 1.55 0 2.8.4 3.64 1.18 14.56 13.51 24.92 34.48 29.17 59.04 1.9 10.96 2.51 22.51 1.77 33.39z"/><path fill-rule="evenodd" d="M40.22 102.61c.53-.01 5.55 11.53 9.78 12.97 1.91.65 5.43-5.24 5.43-5.24s4.38 5.53 6.13 5.23c2.5-.44 4.31-6.82 4.31-6.82s3.99 4.99 7.49 4.54c1.42-.18 3.63-7.27 3.63-7.27s4 5.77 6.81 4.77c2.81-1 7.43-20.62 9.08-4.32 3.17 31.23 1.55 49.1-6.59 54.3-7.41 4.74-16.49 2.56-20.44.91-24.77-17.11-26.15-59.06-25.63-59.07z" clip-rule="evenodd" opacity=".1"/><path d="M122.41 76.73c-3.89-10.42-9.59-20.73-14.86-26.9-3.46-4.06-6.48-6.12-8.98-6.12h-.11c-8.25.2-12.88 26.77-13.54 45.59-.19 5.52-1.74 10.07-3.37 14.9-.69 2.02-1.38 4.07-1.99 6.22 0 .02-.01.03-.01.05-.01.02-.01.04-.02.06-1.07 3.83-1.87 8.01-1.87 13.02 0 11.3 1.31 21.09 3.8 28.3 1.64 4.74 3.74 8.16 6.2 10.16 1.16 2.09 2.59 3.45 4.21 3.79.28.06.57.09.86.09 1.9 0 4.11-1.2 6.33-3.42 3.9-1.6 8.95-4.56 13.58-9.5 4.69-5.02 8.2-11.22 10.42-18.43 2.47-8.04 3.33-17.34 2.57-27.69.43.58.67.65.99.59.32-.05.56-.3.62-.62 1.34-7.49-.37-18.17-4.83-30.09zm3.66 28.19c-.2-.35-.46-.79-.77-1.36-1.26-2.3-3.11-5.89-5.49-10.66-.18-.35-.6-.49-.95-.32-.35.18-.49.6-.32.96 2.31 4.64 4.13 8.17 5.4 10.49 1.16 11.35.4 21.48-2.25 30.09-2.15 7.01-5.55 13.02-10.1 17.88-3.66 3.91-7.45 6.39-10.31 7.88 2.89-3.83 5.59-9.36 7.38-16.19.1-.38-.13-.77-.51-.87-.38-.1-.76.13-.86.51-2.21 8.44-5.78 14.56-9.11 17.98-1.1 1.13-2.17 1.96-3.16 2.49-.83.44-1.61.67-2.3.67-.2 0-.39-.02-.57-.06-.46-.1-.91-.33-1.36-.68-.74-.58-1.44-1.5-2.06-2.69-.52-.99-1-2.18-1.4-3.52-1.32-4.44-1.75-10.16-1.21-16.11.04-.39-.25-.74-.64-.78-.39-.03-.73.26-.77.65-.58 6.37-.02 12.36 1.34 16.83-4.34-6.29-6.98-18.68-6.98-34.56 0-4.85.78-8.92 1.83-12.66 1.97-4.35 3.83-7.43 5.34-9.91.75-1.24 1.4-2.31 1.96-3.36.18-.35.05-.78-.29-.96-.35-.18-.77-.05-.96.29-.54 1.01-1.18 2.07-1.92 3.29-.46.76-.96 1.58-1.49 2.48 1.41-4.24 2.62-8.4 2.8-13.38.37-10.68 1.83-21.62 4.01-30.01 2.32-8.96 5.29-14.13 8.14-14.2h.07c2.01 0 4.81 1.99 7.9 5.62 5.18 6.06 10.78 16.21 14.62 26.48 4.05 10.82 5.79 20.56 4.99 27.69z"/><path fill="#8F85BA" d="M126.07 104.92c-.21-.35-.46-.79-.77-1.36-1.26-2.3-3.11-5.89-5.49-10.66-.18-.35-.6-.49-.95-.32-.35.18-.49.6-.32.96 2.31 4.64 4.13 8.17 5.4 10.49 1.16 11.35.4 21.48-2.25 30.09-2.15 7.01-5.55 13.02-10.1 17.88-3.66 3.91-7.45 6.39-10.31 7.88 2.89-3.83 5.59-9.36 7.38-16.19.1-.38-.13-.77-.51-.87-.38-.1-.76.13-.86.51-2.21 8.44-5.78 14.56-9.11 17.98-1.1 1.13-2.17 1.96-3.16 2.49-.83.44-1.61.67-2.3.67-.2 0-.39-.02-.57-.06-.46-.1-.91-.33-1.36-.68-.74-.58-1.44-1.5-2.06-2.69-.52-.99-1-2.18-1.4-3.52-1.32-4.44-1.75-10.16-1.21-16.11.04-.39-.25-.74-.64-.78-.39-.03-.73.26-.77.65-.58 6.37-.02 12.36 1.34 16.83-4.34-6.29-6.98-18.68-6.98-34.56 0-4.85.78-8.92 1.83-12.66 1.97-4.35 3.83-7.43 5.34-9.91.75-1.24 1.4-2.31 1.96-3.36.18-.35.05-.78-.29-.96-.35-.18-.77-.05-.96.29-.54 1.01-1.18 2.07-1.92 3.29-.46.76-.96 1.58-1.49 2.48 1.41-4.24 2.63-8.4 2.8-13.38.37-10.68 1.83-21.62 4.01-30.01 2.32-8.96 5.29-14.13 8.14-14.2h.07c2.01 0 4.81 1.99 7.9 5.62 5.18 6.06 10.78 16.21 14.62 26.48 4.05 10.82 5.79 20.56 4.99 27.69z"/><path fill-rule="evenodd" d="M98.88 161.15c14.1-5.11 10.53-16.85 9.66-18.24-2.22 6.24-8.78 17.24-9.66 18.24zm25.78-56.41c-2.19-5.41-4.64-12.95-5.9-11.81-1.26 1.14 2.24 7.98 5.9 22.95 1.12 1.09.39-5.47 0-11.14zm-15.16-5.43c-2.03-.51-3.49-1.84-3.56-1.65-.1.25 1.75 2.66 4.32 3.11 2.8.49 5.17-1.59 5.1-1.9-.08-.3-2.66 1.24-5.86.44zm-5.22-5.98c2.8.49 5.17-1.59 5.1-1.9-.07-.3-2.65 1.24-5.85.44-2.03-.51-3.49-1.84-3.56-1.65-.11.24 1.74 2.66 4.31 3.11zm-6.03 5.49c2.8.49 5.17-1.59 5.1-1.9-.07-.3-2.65 1.24-5.85.44-2.03-.51-3.49-1.84-3.56-1.65-.11.25 1.74 2.67 4.31 3.11zm10.23 12.65c-2.06-.25-3.59-1.41-3.65-1.21-.09.26 1.91 2.44 4.5 2.57 2.82.14 5.05-2.22 4.96-2.52-.09-.3-2.57 1.55-5.81 1.16zm-1.84 5.13c-.06-.31-2.68 1.11-5.86.16-2.02-.61-3.44-2.01-3.52-1.82-.11.24 1.68 2.75 4.24 3.32 2.79.62 5.2-1.35 5.14-1.66zm-5.89-7.48c-.04-.31-2.74.76-5.84-.59-1.97-.86-3.29-2.44-3.39-2.27-.12.22 1.49 2.95 4 3.85 2.73.98 5.27-.67 5.23-.99zm-1.42-6.57c-.1.25 1.75 2.66 4.32 3.11 2.8.49 5.17-1.59 5.1-1.9-.07-.3-2.65 1.24-5.85.44-2.04-.5-3.49-1.84-3.57-1.65z" clip-rule="evenodd" opacity=".1"/><path d="M84.49 18.13C83.23 14 78.4 3.99 60.76.42 59.39.14 57.99 0 56.59 0c-4.61 0-9.27 1.5-13.47 4.34-3.84 2.59-7.04 6.17-9.02 10.06-3.03 5.95-1.31 13.25 1.06 23.34.47 2 .96 4.06 1.45 6.28.43 1.93 1.31 5.94 2.31 9.27 1.48 4.93 2.65 6.77 4.31 6.78h.03c.6 0 1.71-.22 2.41-1.68.32-.67.5-1.49.67-2.27.15-.69.47-2.09.81-2.31.4.22 1.16 1.33 1.58 1.94 1.08 1.57 2.31 3.35 4.16 3.35.41 0 .82-.09 1.21-.28 2.34-.96 2.64-3.77 2.88-6.03.09-.82.17-1.59.32-2.18.16-.59.31-.71.31-.71h.02c.65 0 2.14 1.36 3.03 2.17 1.45 1.32 2.71 2.47 4.08 2.47.33 0 .64-.07.94-.2 1.89-.86 1.71-3.52 1.51-6.61-.07-1.03-.19-2.81-.05-3.65.67.39 1.79 1.45 2.44 2.07 1.47 1.39 2.53 2.4 3.68 2.4.32 0 .63-.08.9-.23 1.43-.81.99-2.82.75-3.9-.29-1.3-.78-2.9-1.3-4.59-.45-1.45-.92-2.96-1.22-4.21-.13-.53-.21-.95-.26-1.27 1.02.74 2.47 2.1 3.29 2.86 2.2 2.04 3.12 2.87 4.11 2.87.35 0 .69-.11.97-.32.46-.34.74-.9.84-1.65.32-2.29-.95-7.76-4.46-13.49 2.4 1.01 4.22 1.69 5.54 1.69.72 0 1.3-.21 1.72-.64 1.2-1.26 1.35-4.28.35-7.54zm-1.37 6.52c-.15.15-.39.21-.71.21-2.18 0-7.82-3.05-8.86-3.05-.21 0-.24.12-.01.42 5.91 7.74 7.13 15.59 6.1 16.36-.03.02-.07.03-.11.03-1.09 0-6.36-6.23-8.22-6.23-.12 0-.23.03-.32.08-1.83 1.13 4.09 13.68 2.48 14.58-.06.03-.13.05-.2.05-1.28 0-4.64-4.61-6.45-4.61-.13 0-.26.03-.38.08-1.98.94.64 9.56-1.35 10.46-.11.05-.23.07-.35.07-1.75 0-4.85-4.64-7.11-4.64-.17 0-.33.03-.49.08-2.5.87-.59 7.77-3.62 8.96-.22.11-.43.16-.64.16-2.16 0-3.74-5.3-5.73-5.3-.07 0-.15.01-.22.02-2.5.51-1.49 6.26-3.68 6.26h-.01c-1.92-.02-4.25-10.39-5.25-14.94-2.98-13.48-5.97-22.09-2.62-28.67C39.05 7.8 47.41 1.42 56.59 1.42c1.29 0 2.59.13 3.89.39 22.89 4.64 24.64 20.8 22.64 22.84z"/><linearGradient id="b" x1="58.8108" x2="58.8108" y1="250.577" y2="193.3506" gradientTransform="matrix(1 0 0 -1 0 252)" gradientUnits="userSpaceOnUse"><stop offset="0" style="stop-color:#fba980"/><stop offset="1" style="stop-color:#f7cb6b"/></linearGradient><path fill="url(#b)" d="M83.12 24.65c-.15.15-.39.21-.71.21-2.18 0-7.82-3.05-8.86-3.05-.21 0-.24.12-.01.42 5.91 7.74 7.13 15.59 6.1 16.36-.03.02-.07.03-.11.03-1.09 0-6.36-6.23-8.22-6.23-.12 0-.23.03-.32.08-1.83 1.13 4.09 13.68 2.48 14.58-.06.03-.13.05-.2.05-1.28 0-4.64-4.61-6.45-4.61-.13 0-.26.03-.38.08-1.98.94.64 9.56-1.35 10.46-.11.05-.23.07-.35.07-1.75 0-4.85-4.64-7.11-4.64-.17 0-.33.03-.49.08-2.5.87-.59 7.77-3.62 8.96-.22.11-.43.16-.64.16-2.16 0-3.74-5.3-5.73-5.3-.07 0-.15.01-.22.02-2.5.51-1.49 6.26-3.68 6.26h-.01c-1.92-.02-4.25-10.39-5.25-14.94-2.98-13.48-5.97-22.09-2.62-28.67C39.05 7.8 47.41 1.42 56.59 1.42c1.29 0 2.59.13 3.89.39 22.89 4.64 24.64 20.8 22.64 22.84z"/><path fill-rule="evenodd" d="M66.57 32.12c-.15-.28.6-1.06.83-1.59.51-1.14.25-2.36.53-2.42.43-.1 1.94 2.14 1.06 3.41-.61.87-2.19 1-2.42.6zm-2.65 8.47c-.95.68-2.69.14-2.73-.3-.03-.35 1.15-.58 1.82-1.36 1.17-1.38.67-3.39.83-3.41.23-.03 1.66 3.94.08 5.07zm-2.95-9.31c-.05-.18.91-.47 1.51-1.29.64-.87.6-1.89.76-1.89.22 0 .77 1.68-.07 2.65-.73.83-2.14.76-2.2.53zm-3.41 5.38c-1.23.59-2.89.12-2.95-.38-.05-.38 1.91-1.27 2.27-1.51 1.01-.69 2.06-1.98 2.35-1.82.45.26.04 2.9-1.67 3.71zm-.61 3.33c.24.01.91 5.05-.76 5.68-1.05.4-2.74-1.07-2.57-1.51.1-.27.95-.06 1.59-.38 1.68-.85 1.56-3.8 1.74-3.79zm-7.26.83c-1.21.69-2.81.07-2.8-.15.01-.17 1.06-.07 2.04-.61 1.37-.75 1.86-2.2 2.04-2.12.22.1.08 2.11-1.28 2.88zm-.46 3.86c.1.05-.79 3.29-2.65 3.41-1.38.09-2.6-1.57-2.42-1.82.16-.23 1.54.87 2.95.46 1.46-.43 2.05-2.08 2.12-2.05z" clip-rule="evenodd" opacity=".17"/><path fill="#D4D5D7" d="M39.57 24.67c-.17-1.27-.71-3.59-2.36-4.82-.7-.52-1.89-1.13-2.96-1.13-.45 0-.82.11-1.15.33-.57.38-1.03 1.14-1.17 1.94-.09.53-.01.92.1 1.08.06.08.11.11.4.2.07.02.15.04.24.07.38.11.85.24 1.39.51 2.32 1.14 3.96 2.98 5.15 4.33.12.13.24.27.37.41v-.02c.11-.71.15-1.72-.01-2.9zm-4.32-3.43c.23-.32.67-.39.99-.17l.89.64c.32.23.39.67.16.99-.14.19-.36.3-.58.3-.14 0-.29-.04-.41-.13l-.89-.64c-.31-.23-.39-.67-.16-.99z"/><path fill="#FFF6A6" d="M41.59 42.4c-2.04 2.42-6.96 2.06-10.17.13.42-1.12 1.04-2.22 2-3.21.35-.36 1.08-.47 1.85-.58 1.62-.23 3.83-.55 4.18-3.65.04-.39-.24-.74-.63-.79-.39-.04-.74.24-.79.63-.22 2.01-1.43 2.18-2.96 2.4-.97.14-1.98.28-2.67.99-2.93 3.01-3.14 6.79-3.28 9.29-.04.75-.09 1.67-.23 1.96-.1-.01-.27-.06-.49-.21-1.19-.78-2.78-3.27-3.47-6.89-.7-3.67-.35-8.18.94-12.05 1.27-3.83 3.26-6.37 5.32-6.78.13-.03.27-.04.42-.04.15 0 .31.01.47.04.74.12 1.62.51 2.56 1.14 1.29.87 2.69 2.21 3.95 3.8l.01.01c1.79 2.27 3.29 5.05 3.8 7.7.29 1.57.58 4.46-.81 6.11z"/><path fill-rule="evenodd" d="M40.69 29.04c1.46 2.12 2.63 4.56 3.09 6.98.42 2.22.58 5.29-1.11 7.29-1.09 1.3-3.03 2.1-5.3 2.2-2.17.09-4.41-.47-6.38-1.59-.32 1.37-.39 2.68-.46 3.75v.01c-.1 1.68-.17 3.01-1.27 3.26-.1.02-.22.04-.35.04-.34 0-.78-.1-1.3-.44-1.48-.97-3.31-3.76-4.09-7.81-1.5-7.85 1.66-18.95 7.07-20.42-.44-1.37.26-3.49 1.71-4.46.61-.41 1.28-.56 1.94-.56 1.55 0 3.07.86 3.81 1.42 3.29 2.45 3.45 8.31 2.64 10.33zm-7.59-9.99c-.57.38-1.03 1.14-1.17 1.94-.09.53-.01.92.1 1.08.06.08.11.11.4.2.07.02.15.04.24.07.38.11.85.24 1.39.51 2.32 1.14 3.96 2.98 5.15 4.33.03.04.07.08.1.11l.27.3v-.02c.1-.71.14-1.72-.02-2.9-.17-1.27-.71-3.59-2.36-4.82-.7-.52-1.89-1.13-2.96-1.13-.44 0-.81.1-1.14.33zm-1.68 23.48c3.22 1.93 8.13 2.3 10.17-.13 1.39-1.66 1.1-4.54.8-6.11-.51-2.65-2.01-5.43-3.8-7.7 0 0 0-.01-.01-.01-1.26-1.59-2.65-2.93-3.95-3.8-.94-.63-1.82-1.02-2.56-1.14-.17-.03-.32-.04-.47-.04-.15 0-.29.01-.42.04-2.06.42-4.04 2.95-5.32 6.78-1.29 3.88-1.64 8.38-.94 12.05.69 3.62 2.28 6.11 3.47 6.89.22.14.39.2.49.21.14-.28.19-1.21.23-1.96.14-2.5.35-6.28 3.28-9.29.69-.71 1.69-.85 2.67-.99 1.53-.22 2.74-.4 2.96-2.4.05-.39.4-.67.79-.63.39.05.67.4.63.79-.35 3.1-2.56 3.42-4.18 3.65-.77.11-1.5.22-1.85.58-.95.99-1.58 2.09-1.99 3.21zM36.72 23c.22 0 .44-.1.58-.3.23-.32.15-.77-.16-.99l-.89-.64c-.32-.23-.76-.15-.99.17-.23.32-.15.76.17.99l.89.64c.11.08.25.13.4.13z" clip-rule="evenodd"/><path fill="#FFF" d="M27.68 26.57c0-.02.01-.03.01-.04-.69 1.06-1.31 2.37-1.82 3.9-1.29 3.88-1.64 8.38-.94 12.05.28 1.45.7 2.71 1.18 3.76-.24-2.59-1-10.89 1.57-19.67z"/><path d="M35.27 38.75c-.77.11-1.5.22-1.85.58-.96.99-1.59 2.09-2 3.21.15.09.3.17.45.26.79.06 2.11-.27 2.56-1.5.32-.85 1.06-1.82 1.81-2.7-.33.05-.66.1-.97.15z" opacity=".26"/><path d="M47.43 14.72c-.02 0-.04 0-.06.01-.39.06-.65.43-.58.82.47 2.84 2.96 5 5.79 5.01 3.02.02 5.61-2.37 5.9-5.43.04-.39-.25-.74-.64-.78-.39-.04-.74.25-.77.64-.22 2.33-2.18 4.15-4.48 4.14-2.15-.01-4.03-1.65-4.39-3.82-.07-.36-.41-.62-.77-.59zM76.14 165.85l1.59-15.87c.19-.13.37-.28.54-.48.98-1.09 1.52-3 1.36-4.88-.03-.39-.37-.69-.77-.65-.39.03-.68.38-.65.77.08.98-.06 1.87-.32 2.58-.19.52-.43.94-.69 1.22-.22.24-.44.38-.63.38-.03 0-.1-.03-.18-.09-.04-.03-.07-.07-.12-.11-.21-.22-.49-.66-.77-1.43-.08-.23-.17-.49-.25-.79-.03-.1-.05-.21-.08-.31-.19-.78-.36-1.76-.47-3-.04-.39-.38-.68-.77-.64-.39.04-.68.39-.64.78.12 1.25.3 2.36.53 3.3-.03.23-.06.45-.1.65-.1.59-.24 1.06-.38 1.42-.35.9-.76 1.16-.93 1.16-.06-.01-.14-.04-.24-.1-.4-.27-1.04-1.06-1.43-2.51-.26-.97-.41-2.24-.31-3.84.03-.39-.27-.73-.66-.76-.39-.02-.73.27-.76.66-.29 4.29 1.1 6.36 1.76 7.09l.59 14.03c-1.85.75-4.36 2.19-5.92 4.79-1.53 2.55-2.23 5.02-2.07 7.33.15 2.23 1.07 3.84 1.81 4.8.72.94 2.11 2.24 2.97 1.98.23-.07.41-.23.51-.44.18-.4.01-.77-.22-1.28-.3-.65-.79-1.74-.79-3.19 0-2.63 1.58-5 2.93-6.24.8-.73 1.49-1.04 1.78-1.01.01 0 .62.28 1.01 3.63.25 2.12.32 4.7.37 6.58.05 1.7.07 2.54.17 2.94.12.5.48.69.78.71h.06c.55 0 .98-.5 1.73-1.98.42-.85.79-1.71.84-1.82 2.23-5.84.54-12.2-1.23-15.33.05-.04.05-.05.05-.05zm-.1 14.84c-.12.32-.46 1.06-.79 1.72-.01-.35-.02-.73-.03-1.1-.21-7.54-.68-11.4-2.67-11.58-1.08-.1-2.26.82-2.87 1.38-1.57 1.43-3.39 4.21-3.39 7.29 0 .95.17 1.77.39 2.44-.46-.52-.95-1.23-1.31-2.12-.72-1.78-1.07-4.76 1.35-8.79 1.68-2.79 4.64-4.07 6.26-4.58.37-.12.58-.52.46-.89-.09-.28-.34-.47-.62-.49l-.54-12.71c.05.01.11.01.16.01h.01c1.19-.01 1.89-1.1 2.3-2.25.43.74.94 1.18 1.51 1.31l-1.41 14.16c-.16 0-.32.05-.45.15-.31.24-.36.69-.11 1 1.3 1.62 4.25 8.51 1.75 15.05zM63.66 149.48c.3-.14.59-.36.85-.65.98-1.09 1.52-3 1.36-4.88-.03-.39-.37-.69-.77-.65-.39.03-.68.38-.65.77.09 1.06-.09 2.01-.38 2.74-.18.45-.4.81-.62 1.06-.22.24-.44.38-.63.38-.06 0-.2-.08-.37-.29-.09-.11-.19-.26-.3-.45-.18-.33-.37-.78-.56-1.41-.03-.09-.05-.19-.08-.29-.03-.1-.05-.21-.08-.31-.19-.78-.36-1.76-.47-3-.04-.39-.38-.68-.77-.64-.39.04-.68.39-.64.78.12 1.25.3 2.36.53 3.3-.01.08-.02.15-.03.22-.08.58-.18 1.05-.3 1.43-.38 1.24-.88 1.57-1.08 1.57-.12-.01-.32-.14-.56-.38-.4-.43-.89-1.25-1.19-2.52-.22-.93-.33-2.1-.23-3.55.03-.39-.27-.73-.66-.76-.39-.03-.73.27-.76.66-.24 3.64.72 5.68 1.42 6.66l.03 15.11c-2.9 1.03-7.45 3.69-8.89 10.39-.85 3.94 1.82 9.7 2.91 10.52.43.32.81.16.92.1.18-.1.47-.34.43-.92-.47-7.6 2.33-11.21 3.19-12.14.64-.69 1.22-1.01 1.62-1.11.47 1.23.56 6.54.61 9.78.03 1.74.05 3.39.12 4.6.08 1.52.14 2.62 1.04 2.62.23 0 .57-.08.89-.48 1.75-2.13 3.76-15.77 2.72-21.15-.2-1.02-.61-1.46-.86-1.73-.02-.02-.05-.06-.07-.08.45-4.52 1.12-8.43 1.78-12.21.18-1.02.35-2.05.53-3.09zm-1.92 2.84c-.66 3.82-1.34 7.76-1.79 12.35-.06.6.25.93.46 1.15.19.2.38.4.5 1.02.89 4.65-.66 14.96-1.84 18.68-.06-1.26-.09-3.03-.12-4.57-.15-8.96-.37-11.21-1.78-11.21-.9 0-1.93.57-2.9 1.6-2.26 2.41-3.56 6.48-3.63 11.17-.89-1.9-1.92-5.04-1.4-7.45 1.54-7.14 6.97-9.18 9.24-9.72.08-.02.14-.04.17-.05.37-.12.59-.52.47-.89-.12-.38-.51-.59-.88-.47-.02 0-.04.01-.07.02l-.02-13.47c.18.07.37.11.54.11h.01c1.19-.01 1.89-1.1 2.3-2.25.36.61.76 1.01 1.21 1.21-.16.93-.32 1.85-.47 2.77z"/><path fill="#DCD7B0" d="M60.99 148.33c-.41 1.16-1.11 2.24-2.3 2.25h-.01c-.18 0-.36-.04-.54-.11l.02 13.47c.03-.01.06-.01.08-.02.37-.12.77.09.88.47.12.37-.1.78-.47.89-.03.01-.08.03-.17.05-2.27.54-7.7 2.57-9.24 9.72-.52 2.42.51 5.56 1.4 7.45.06-4.68 1.37-8.76 3.63-11.17.97-1.03 1.99-1.6 2.9-1.6 1.41 0 1.63 2.25 1.78 11.21.02 1.54.05 3.31.12 4.57 1.18-3.72 2.74-14.03 1.84-18.68-.12-.62-.31-.82-.5-1.02-.21-.22-.52-.55-.46-1.15.46-4.59 1.14-8.53 1.79-12.35.16-.91.32-1.84.47-2.78-.45-.19-.86-.59-1.22-1.2zM74.29 165.63c-.24-.31-.19-.76.11-1 .13-.11.29-.16.45-.15l1.41-14.16c-.57-.12-1.08-.56-1.51-1.31-.41 1.16-1.11 2.24-2.3 2.25h-.01c-.05 0-.11 0-.16-.01l.54 12.71c.28.02.53.21.62.49.12.37-.09.77-.46.89-1.62.51-4.59 1.8-6.26 4.58-2.42 4.03-2.07 7-1.35 8.79.36.89.84 1.59 1.31 2.12-.21-.66-.39-1.49-.39-2.44 0-3.09 1.83-5.86 3.39-7.29.61-.56 1.79-1.47 2.87-1.38 1.99.18 2.46 4.04 2.67 11.58.01.37.02.75.03 1.1.34-.67.67-1.41.79-1.72 2.5-6.53-.45-13.42-1.75-15.05z"/><path fill-rule="evenodd" d="M73.47 142.04c-.5-.14-1.36.92-1.56 1.99-.32 1.68 1.01 3.26 1.56 3.13.87-.2.93-4.85 0-5.12zm4.76 1.78c-2.17-4.24-2.38 4.22-1.77 4.62.29.19 1.12-.52 1.56-1.14 1-1.42.4-3.1.21-3.48zm-18.52-2.42c-.49-.14-1.36.92-1.56 1.99-.32 1.68 1.01 3.26 1.56 3.13.86-.2.93-4.85 0-5.12zm2.98 6.4c.29.19 1.12-.52 1.56-1.14 1-1.43.41-3.1.21-3.49-2.16-4.23-2.38 4.23-1.77 4.63z" clip-rule="evenodd" opacity=".05"/><path fill-rule="evenodd" d="M74.61 172.99c-.14-.32.85-.97.71-1.28-.13-.28-1.08-.01-1.21-.28-.12-.27.66-.86.57-1-.08-.13-.82.31-1.06.07-.11-.1-.09-.3-.07-.43.07-.44.36-1.23.28-1.28-.11-.07-.81.99-1.28.85-.59-.17-.57-2.14-.64-2.14-.06 0 .02 1.95-.43 2.06-.4.1-1.09-1.27-1.21-1.21-.14.07.76 1.89.35 2.21-.35.27-1.53-.69-1.63-.57-.1.12 1.02 1.17.85 1.42-.16.24-1.34-.37-1.56-.07-.22.29.66 1.15.43 1.49-.23.34-1.42-.1-1.49.07-.07.16.93.66.85 1-.09.37-1.39.25-1.49.64-.09.34.87.81.78 1.07-.09.25-1.06-.01-1.21.28-.13.26.39.96.85.92.41-.03.94-1.09 1.56-2.92.11-.31.32-.87.64-1.35.42-.65.87-.76 1.28-1.42.32-.53.43-1 .92-1.21.15-.07.43-.12.78-.07.42.06.68.19.85.36.27.26.29.53.43.92.17.48.42.66.57 1.14.15.5.15.97.14 1.28-.01.42.01.79 0 1.21-.02.58-.03 1.08.07 1.71.14.84.38 1.28.64 1.35.35.1.8-.18.78-.36-.01-.14-.4-.2-.64-.43-.21-.21-.39-.54-.28-.71.16-.26.95-.01.99-.14.06-.16-1.12-.63-1.07-1 .05-.33 1.07-.4 1.07-.57 0-.18-1.17-.22-1.21-.5-.04-.31 1.39-.76 1.35-.92-.01-.12-1.12.11-1.26-.19zm.32-8.57c.26-3.13 1.3-10.85 1.96-14.76-.45-.63-1.16-.87-1.39-.84-1.2 1.1-2.98 15.62-.57 15.6zm-15.6-1.65c.05.82 1.03 1.16 1.14.92.93-2.02 2.18-14.78 1.99-15.58-1.44-6.02-3.4 9.63-3.13 14.66zm-.48 10.09c.08-.28.95-.21.99-.43.05-.25-1.1-.6-1.07-.92.03-.29.99-.37.99-.57 0-.22-1.1-.32-1.14-.64-.03-.27.73-.58.71-.64-.03-.07-1.09.42-1.42.07-.27-.28.06-1.05 0-1.07-.05-.02-.22.5-.43.5-.28 0-.47-.94-.57-.92-.11.02.04 1.23-.14 1.28-.19.05-.64-1.19-.85-1.14-.23.06.04 1.53-.28 1.64-.3.1-.92-1.06-1.06-1-.16.08.51 1.67.21 1.85-.21.13-.78-.56-.99-.42-.28.18.41 1.61.07 1.85-.26.18-.94-.45-1.14-.28-.23.2.5 1.27.21 1.57-.23.24-.94-.22-1.14 0-.26.29.73 1.42.43 1.85-.26.37-1.22-.09-1.42.21-.23.36.69 1.63 1.28 1.49.37-.09.43-.81.78-1.85.24-.7.52-1.33.78-1.78.36-.61.75-.86 1.06-1.49.22-.43.39-.9.78-1.35.25-.3.53-.53.92-.64.3-.08.68-.1.99.07.38.21.53.62.64 1.07.22.9.24 2.03.21 2.28-.06.58-.15 1.13-.21 1.71-.05.51-.02 1.45 0 2.28.01.59.04 1.27.5 1.57.32.21.81.2.92 0 .13-.22-.3-.56-.28-1 .02-.5.59-.79.5-1.14-.11-.43-1.12-.46-1.14-.71-.02-.28 1.21-.49 1.21-.78-.01-.28-1.15-.44-1.14-.64.01-.2 1.19-.2 1.28-.57.12-.43-1.14-.97-1.04-1.31z" clip-rule="evenodd" opacity=".17"/></svg>