<svg xmlns="http://www.w3.org/2000/svg" fill="none" viewBox="0 0 128 123"><path fill="#40A4FF" d="M28.8001 18.6981c-10.9965 0-19.91167-2.2029-19.91167-4.919V75.269c0-2.7174 8.91387-4.919 19.91167-4.919 10.9978 0 19.9117 2.2028 19.9117 4.919V13.7791c0 2.7161-8.9152 4.919-19.9117 4.919Z" opacity=".3"/><path fill="#B3B3B3" d="M28.8001 80.1882c10.9969 0 19.9117-2.2024 19.9117-4.9191 0-2.7167-8.9148-4.919-19.9117-4.919s-19.91167 2.2023-19.91167 4.919c0 2.7167 8.91477 4.9191 19.91167 4.9191Z"/><path fill="url(#a)" d="m51.0618 84.5606-2.3501-9.2916c0 2.7162-8.9139 4.9191-19.9117 4.9191-10.9977 0-19.91166-2.2029-19.91166-4.9191l-2.35008 9.2916c-.09088.1792-.13824.3622-.13824.5465 0 2.7175 10.02878 4.9191 22.39998 4.9191s22.4-2.2029 22.4-4.9191c0-.1843-.0473-.3661-.1382-.5465Z"/><path fill="#fff" d="M39.8144 50.8952c-1.0419 8.5235-6.0582 12.6861-11.5379 12.0167-5.4797-.6695-9.3466-5.9175-8.3046-14.441 1.0419-8.5235 6.5971-17.0957 12.0768-16.4263 5.4796.6695 8.8076 10.3271 7.7657 18.8506Z"/><path fill="#FBA980" d="M24.5234 42.2079c.4377-.3072.7974-.7565.9024-1.2813.1753-.8678-.3879-1.7523-1.1418-2.2156-.2841-.1741-.5888-.3009-.9075-.3956-.7296 1.2442-1.376 2.6164-1.911 4.0602.9472.4979 2.1772.4493 3.0579-.1677ZM34.1505 33.7483c.3059-.0602.5913-.1843.8537-.3507-.8921-.745-1.8816-1.2224-2.9555-1.353-.0128-.0013-.0269-.0025-.0397-.0038-.023.3341.041.6694.2164.9574.3801.6259 1.2044.8922 1.9251.7501ZM39.5982 45.7559c-.5555.1319-1.0201.6285-1.0585 1.1981-.0371.5619.3328 1.1008.8294 1.3658.1946.1036.4058.1702.6221.206.0282-.9382.0064-1.8777-.0602-2.8083-.1113 0-.2227.0128-.3328.0384ZM36.0923 59.5801c-.4889.1024-.8627.5299-1.0201 1.0048-.0436.1319-.0717.2688-.0845.4071.5107-.4109.9932-.8832 1.4425-1.4196-.1126-.0166-.2278-.0166-.3379.0077ZM30.5651 52.9536c-.686-.1792-1.4579.0986-1.9059.6464-.4493.5491-.5721 1.3338-.3545 2.0083.2176.6746.7552 1.2289 1.4067 1.5092l.3494.3008c.7859.1779 1.6359-.3085 1.9891-1.033.3533-.7245.2522-1.6192-.1446-2.3206-.2944-.5172-.7629-.96-1.3402-1.1111ZM22.8659 57.9865c.16-.5466-.0333-1.1622-.4212-1.5795-.1459-.1575-.3276-.2957-.5401-.32-.2125-.0243-.4519.1011-.4954.3097l-.4633.832c.2611.6016.5632 1.1597.9024 1.673.4684-.0742.8819-.4531 1.0176-.9152ZM25.6858 46.2425c-.105.1152-.1408.2765-.1613.4313-.0512.393-.0154.8256.2393 1.129.2548.3034.7796.3943 1.0432.0986l-.7014-1.7204c-.1203-.0998-.3149-.0537-.4198.0615ZM31.4343 42.7954c.1395-.2816.0768-.649-.1472-.8691l-.6336 1.28c.311.0448.6413-.1293.7808-.4109ZM35.5007 42.3154c-.4595.2343-.9651.5223-1.1033 1.0189-.1024.3648.0448.7859.352 1.0086.3072.2228.7526.2317 1.0688.0205.3148-.2099.4787-.6259.3916-.9945l-.7091-1.0535ZM21.3222 49.3578c.2355-.2931.16-.7577-.1037-1.0253-.2637-.2675-.6669-.3584-1.0419-.3264L20 48.2532c-.009.0717-.0192.1433-.0282.215-.0346.2829-.064.5632-.087.8384.1446.1075.2982.1997.4684.2586.3316.1165.7476.0678.969-.2074ZM28.1396 33.5742c.0691-.1818.0755-.3712.046-.5632-.4518.2752-.8972.6029-1.3312.9766.0909.0615.1933.1075.3034.1293.3981.0794.8358-.1626.9818-.5427Z"/><path fill="url(#b)" d="M28.8001 16.238c10.9969 0 19.9117-2.2024 19.9117-4.9191 0-2.71667-8.9148-4.919-19.9117-4.919S8.88843 8.60223 8.88843 11.3189c0 2.7167 8.91477 4.9191 19.91167 4.9191Z"/><path fill="#40A4FF" d="M28.8001 18.6981c-10.9965 0-19.91167-2.2029-19.91167-4.919V75.269c0 2.7161 8.91387 4.919 19.91167 4.919 10.9978 0 19.9117-2.2029 19.9117-4.919V13.7791c0 2.7161-8.9152 4.919-19.9117 4.919Z" opacity=".15"/><path fill="url(#c)" d="M28.8001 16.2379c-10.9965 0-19.91167-2.2029-19.91167-4.9191v2.4602c0 2.7174 8.91387 4.919 19.91167 4.919 10.9978 0 19.9117-2.2028 19.9117-4.919v-2.4602c0 2.7175-8.9152 4.9191-19.9117 4.9191Z"/><path fill="#40A4FF" d="M99.2 18.6981c-10.9965 0-19.9117-2.2029-19.9117-4.919V75.269c0-2.7174 8.9139-4.919 19.9117-4.919 10.998 0 19.912 2.2028 19.912 4.919V13.7791c0 2.7161-8.916 4.919-19.912 4.919Z" opacity=".3"/><path fill="#fff" d="M108.379 41.3542c4.197 6.144 3.312 11.7235-.638 14.4217-3.95 2.6983-9.4692 1.4938-13.6663-4.6502-4.1971-6.144-5.4835-14.9018-1.5335-17.6 3.9501-2.6982 11.6408 1.6845 15.8378 7.8285Z"/><path fill="#57F5A1" d="M91.5059 39.3574c.1933-.2969.2509-.6617.2611-1.015.0269-.9894-.3277-1.9712-.937-2.7482-.494 1.1021-.718 2.4551-.7027 3.9424.1293.1434.2893.2458.4851.2765.3482.0551.7002-.1587.8935-.4557ZM104.534 37.3785c-.311.5747-.242 1.2954.024 1.8918.266.5965.708 1.0957 1.145 1.5821.225.2509.457.5056.757.6579.301.1524.688.1805.959-.0179.291-.2125.357-.5913.334-.9638-.916-1.2173-1.963-2.3514-3.081-3.3575-.051.0653-.098.1344-.138.2074ZM103.072 55.3651c-.462-.32-1.004-.5491-1.566-.5504-.562-.0013-1.14.256-1.436.7347-.147.2394-.2059.5325-.1739.8103 1.5509.686 3.1109.9036 4.5829.6848-.317-.6682-.799-1.257-1.407-1.6794ZM94.8276 47.5928c.0026.4185.0039.8358.0064 1.2544.0026.3904.0845.8896.4647.9766.3571.0819.6707-.329.6387-.695-.032-.3661-.2842-.6682-.5248-.946l-.585-.59ZM98.1493 43.2538c-.0333.5209.1318 1.0534.4557 1.463.4262-.4237.334-1.2403-.1754-1.5603l-.2803.0973ZM102.039 46.4627c-.296.5504-.284 1.2544.031 1.7946.189.3264.521.608.898.5952.507-.0167.849-.5312.99-1.0176.213-.7399.166-1.5539-.132-2.2643l-.493.2252c-.502-.16-1.045.2036-1.294.6669ZM96.7857 36.2227c-.3686.3289-.4915.9408-.192 1.3337.2957.3866.9498.4186 1.2813.0615.3315-.3571.2496-1.0074-.1587-1.2736l.3878-.3175c-.4262-.1971-.9676-.1177-1.3184.1959ZM93.6334 43.2859c.0832.2624.1651.5235.2483.7859.2701-.1613.1869-.6592-.1203-.7232l-.128-.0627ZM105.632 52.4735c-.109.1997.064.4788.284.4967l-.36.0064c.162.0845.368.0922.521-.0064.154-.0986.233-.3098.158-.4749-.104-.2278-.484-.2406-.603-.0218ZM108.874 48.6529c.119-.0064.237-.0128.356-.0192l-.334.4391c.473-.2176.58-.96.187-1.3018-.213.2342-.293.5786-.209.8819ZM95.7643 52.8141c-.16-.1753-.4096-.2675-.6425-.2521.2969.3584.5977.6963.9036 1.0111.0026-.279-.0755-.5555-.2611-.759ZM109.562 53.1071c-.283-.0665-.501.2496-.59.5261-.126.3904-.176.8038-.153 1.2134.388-.384.732-.8051 1.027-1.2582.001-.2227-.078-.4326-.284-.4813Z"/><path fill="#B3B3B3" d="M99.2 80.1882c10.997 0 19.912-2.2024 19.912-4.9191 0-2.7167-8.915-4.919-19.912-4.919-10.9969 0-19.9117 2.2023-19.9117 4.919 0 2.7167 8.9148 4.9191 19.9117 4.9191Z"/><path fill="url(#d)" d="m121.462 84.5606-2.35-9.2916c0 2.7162-8.914 4.9191-19.912 4.9191-10.9978 0-19.9117-2.2029-19.9117-4.9191l-2.3501 9.2916c-.0909.1792-.1382.3622-.1382.5465 0 2.7175 10.0288 4.9191 22.4 4.9191 12.371 0 22.4-2.2029 22.4-4.9191 0-.1843-.047-.3661-.138-.5465Z"/><path fill="url(#e)" d="M99.2 16.238c10.997 0 19.912-2.2024 19.912-4.9191 0-2.71667-8.915-4.919-19.912-4.919-10.9969 0-19.9117 2.20233-19.9117 4.919 0 2.7167 8.9148 4.9191 19.9117 4.9191Z"/><path fill="url(#f)" d="M99.2 16.2379c-10.9965 0-19.9117-2.2029-19.9117-4.9191v2.4602c0 2.7174 8.9139 4.919 19.9117 4.919 10.998 0 19.912-2.2028 19.912-4.919v-2.4602c0 2.7175-8.916 4.9191-19.912 4.9191Z"/><path fill="#40A4FF" d="M99.2 18.6981c-10.9965 0-19.9117-2.2029-19.9117-4.919V75.269c0 2.7161 8.9139 4.919 19.9117 4.919 10.998 0 19.912-2.2029 19.912-4.919V13.7791c0 2.7161-8.916 4.919-19.912 4.919Z" opacity=".15"/><path fill="#FF887C" d="M76.1511 77.3157c-5.1212 11.2602-13.8175 14.8071-21.0559 11.5149-7.2397-3.2921-10.281-12.1779-5.1584-23.4393 5.1225-11.2615 16.4672-20.6336 23.7068-17.3415 7.2397 3.2922 7.6301 18.0045 2.5075 29.2659Z"/><path fill="#fff" d="M72.3996 65.1007c-.6937-.2253-1.4566-.3354-2.1478-.1037-.6912.2304-1.2813.8717-1.2723 1.6013.0115.8.8384 1.4861 1.6268 1.3478.7885-.1382 1.3338-1.0637 1.0727-1.8202l.7206-1.0252ZM64.8003 78.9936c-.6848-1.1456-2.3501-1.3926-3.5546-.8179-1.2044.5747-2.0045 1.7587-2.5536 2.9747l-.8179 1.9866c.9882.791 2.3155 1.1418 3.5648.9408 1.2493-.201 2.4013-.9485 3.0912-2.0096.5927-.9088.8269-2.1427.2701-3.0746ZM59.2349 60.4683c-.6349.4826-1.2519 1.184-1.1328 1.9725.1548 1.0266 1.527 1.4618 2.4819 1.056.9549-.4058 1.5641-1.335 2.1158-2.2131l.1165-2.4243c-1.2954.256-2.5306.8115-3.5814 1.6089ZM71.5561 55.2689c.8307-.5952.9612-1.952.2585-2.6944l-2.8927 2.0723c.4774.9037 1.8035 1.2173 2.6342.6221ZM74.0981 76.0756c.4339.2995 1.047.2304 1.4912-.0525.4441-.2829.7475-.7424.9817-1.2147-.16-.0781-.3212-.1562-.4812-.2355l.4224-1.5731c-.8359.1305-1.7268.2867-2.345.864-.6183.5772-.7655 1.7305-.0691 2.2118ZM49.6859 75.3111c.928-.2726 1.623-1.2825 1.4106-2.2272-.2125-.9446-1.4221-1.5564-2.2541-1.0623l-1.3619 2.0697c-.018.1946-.0346.3891-.0474.5811.5555.6016 1.463.8704 2.2528.6387ZM52.4749 61.8034c.0461-.3034.0051-.6221-.1075-.9101-.6042.9587-1.1687 1.9456-1.6845 2.953.1203-.0538.2393-.1114.3545-.1754.7092-.3994 1.3159-1.0637 1.4375-1.8675ZM67.9387 47.7017c-.7065.1728-1.4246.4147-2.1478.718.3878-.0076.7834-.1433 1.1546-.2803.3392-.1241.6848-.2521.9932-.4377ZM78.2566 58.3538c-.5529.4839-.8102 1.3888-.3533 1.9635.3802.4775 1.1034.5376 1.6756.3072-.0333-.9779-.114-1.9289-.2407-2.8415-.3968.1254-.7705.2982-1.0816.5708ZM58.6844 88.4172c-.2547-.791-1.3312-1.1353-2.0544-.7257-.5056.2867-.7961.8537-.8281 1.4361.8512.3315 1.7216.5683 2.5997.7129.2892-.4428.4428-.9267.2828-1.4233ZM70.5244 85.0675c-.279-.416-.8537-.5709-1.335-.4339-.4813.1369-.8653.5196-1.0957.9638-.3212.6195-.3596 1.3735-.1241 2.0275.928-.6118 1.8317-1.344 2.7033-2.1977-.0256-.1267-.0729-.2483-.1485-.3597Z"/><path fill="#B3B3B3" d="M64 108.8c14.1385 0 25.6-2.865 25.6-6.4 0-3.5346-11.4615-6.4-25.6-6.4-14.1385 0-25.6 2.8654-25.6 6.4 0 3.535 11.4615 6.4 25.6 6.4Z"/><path fill="url(#g)" d="M92.6221 114.49 89.6 102.4c0 3.534-11.4611 6.4-25.6 6.4-14.1389 0-25.6-2.866-25.6-6.4l-3.0221 12.09c-.1164.232-.1779.471-.1779.71 0 3.534 12.8947 6.4 28.8 6.4s28.8-2.866 28.8-6.4c0-.241-.0614-.478-.1779-.71Z"/><path fill="url(#h)" d="M64 25.6c14.1385 0 25.6-2.8653 25.6-6.4 0-3.5346-11.4615-6.4-25.6-6.4-14.1385 0-25.6 2.8654-25.6 6.4 0 3.5347 11.4615 6.4 25.6 6.4Z"/><path fill="#fff" d="M48 25.6001v81.7149c2.7827.57 6.0416.995 9.6 1.229V26.8278c-3.5584-.2327-6.8173-.6577-9.6-1.2277Z" opacity=".64"/><path fill="url(#i)" d="M64 25.5999c-14.1389 0-25.6-2.8659-25.6-6.3999v3.2c0 3.534 11.4611 6.3999 25.6 6.3999 14.1389 0 25.6-2.8659 25.6-6.3999v-3.2c0 3.534-11.4611 6.3999-25.6 6.3999Z"/><path fill="#40A4FF" d="M64 28.7999c-14.1389 0-25.6-2.8659-25.6-6.4V102.4c0 3.534 11.4611 6.4 25.6 6.4 14.1389 0 25.6-2.866 25.6-6.4V22.3999c0 3.5341-11.4611 6.4-25.6 6.4Z" opacity=".2"/><defs><linearGradient id="a" x1="48.7111" x2="8.92138" y1="82.6476" y2="75.0979" gradientUnits="userSpaceOnUse"><stop stop-color="#979797"/><stop offset=".724051" stop-color="#B3B3B3"/><stop offset="1" stop-color="#979797"/></linearGradient><linearGradient id="c" x1="46.4994" x2="13.5993" y1="15.0084" y2="3.91144" gradientUnits="userSpaceOnUse"><stop stop-color="#979797"/><stop offset=".724051" stop-color="#B3B3B3"/><stop offset="1" stop-color="#979797"/></linearGradient><linearGradient id="d" x1="119.111" x2="79.3213" y1="82.6476" y2="75.0979" gradientUnits="userSpaceOnUse"><stop stop-color="#979797"/><stop offset=".724051" stop-color="#B3B3B3"/><stop offset="1" stop-color="#979797"/></linearGradient><linearGradient id="f" x1="116.899" x2="83.9992" y1="15.0084" y2="3.91144" gradientUnits="userSpaceOnUse"><stop stop-color="#979797"/><stop offset=".724051" stop-color="#B3B3B3"/><stop offset="1" stop-color="#979797"/></linearGradient><linearGradient id="g" x1="89.6" x2="38.4" y1="112" y2="102.4" gradientUnits="userSpaceOnUse"><stop stop-color="#979797"/><stop offset=".724051" stop-color="#B3B3B3"/><stop offset="1" stop-color="#979797"/></linearGradient><linearGradient id="i" x1="86.7556" x2="44.3556" y1="24" y2="9.86662" gradientUnits="userSpaceOnUse"><stop stop-color="#979797"/><stop offset=".724051" stop-color="#B3B3B3"/><stop offset="1" stop-color="#979797"/></linearGradient><radialGradient id="b" cx="0" cy="0" r="1" gradientTransform="matrix(0 4.91904 -19.9117 0 28.8001 11.3189)" gradientUnits="userSpaceOnUse"><stop stop-color="#B3B3B3"/><stop offset=".0001" stop-color="#B3B3B3"/><stop offset="1" stop-color="#999"/></radialGradient><radialGradient id="e" cx="0" cy="0" r="1" gradientTransform="matrix(0 4.91904 -19.9117 0 99.2 11.3189)" gradientUnits="userSpaceOnUse"><stop stop-color="#B3B3B3"/><stop offset=".0001" stop-color="#B3B3B3"/><stop offset="1" stop-color="#999"/></radialGradient><radialGradient id="h" cx="0" cy="0" r="1" gradientTransform="matrix(0 6.4 -25.6 0 64 19.2)" gradientUnits="userSpaceOnUse"><stop stop-color="#B3B3B3"/><stop offset=".0001" stop-color="#B3B3B3"/><stop offset="1" stop-color="#999"/></radialGradient></defs></svg>