<svg xmlns="http://www.w3.org/2000/svg" fill="none" viewBox="0 0 93 129"><path fill="#FFD953" d="M69.4757 28.2256c-.6572-4.834-2.7067-13.6371-8.9761-18.3154-2.6634-1.98027-7.212-4.30644-11.2763-4.30644-1.6949 0-3.1391.40643-4.3929 1.24524-2.1792 1.43548-3.9174 4.3237-4.4535 7.359-.3459 1.9976-.0519 3.4936.3978 4.0903.2162.294.4151.4323 1.5219.7696h.0087c.2594.0778.5621.1643.9253.2681 1.4441.4064 3.2341.9166 5.3095 1.9283 8.8291 4.3151 15.0639 11.3282 19.6125 16.4476.441.4929.9253 1.0376 1.4095 1.5738 0-.0173.0087-.0432.0087-.0605.3718-2.6981.5188-6.5289-.0951-10.9996ZM53.0368 15.1765c.8648-1.2193 2.551-1.496 3.7703-.6312l3.3812 2.4126c1.2106.8647 1.496 2.5597.6226 3.7703-.5275.735-1.3577 1.1328-2.1965 1.1328-.5447 0-1.0982-.1643-1.5738-.5015l-3.3725-2.4127c-1.2193-.8734-1.496-2.5596-.6313-3.7703ZM77.1806 95.5635c-7.6098 9.0275-25.7781 7.8695-38.0143.908 1.7468-5.2923 4.4534-10.5154 8.8377-15.0121 4.7302-4.8598 10.4116-6.745 14.9774-8.2583l.7091-.2421c1.4182-.467 2.1792-1.9976 1.7122-3.4158-.4756-1.4182-2.0062-2.1792-3.4244-1.7035l-.7004.2334c-4.8513 1.6085-11.4925 3.8136-17.148 9.6074-5.5084 5.6468-8.6734 12.2708-10.6018 18.7391-.1643.3286-.2594.6745-.294 1.029-1.6949 6.0874-2.3435 11.9854-2.871 16.7414-.3631 3.347-.8215 7.48-1.5219 8.613-.3891-.026-1.0464-.233-1.9025-.796-4.5139-2.966-10.5758-12.417-13.2133-26.1754-2.6634-13.9398-1.3317-31.0531 3.5714-45.7712 4.8512-14.5537 12.4264-24.1783 20.2524-25.7608.5016-.1038 1.0377-.147 1.5998-.147.5707 0 1.1674.0519 1.7987.1556 2.8104.4584 6.157 1.9371 9.737 4.3324 4.9204 3.3034 10.2386 8.3881 15.0293 14.4413.0087.0087.0173.0173.026.0346 6.8142 8.6129 12.5475 19.1628 14.4759 29.2371 1.1414 5.9755 2.2656 16.9232-3.0353 23.2099Z"/><path fill="#000" fill-rule="evenodd" d="M73.7476 44.8286c5.5603 8.0681 10.0138 17.3123 11.7778 26.5132 1.6171 8.4399 2.1965 20.1054-4.2113 27.7065-4.1681 4.9467-11.5271 7.9907-20.1918 8.3617-7.9384.338-16.1362-1.617-23.4347-5.56-1.0291 4.583-1.522 9.037-1.9457 12.928l-.0039.036c-.8193 7.417-1.3603 12.314-5.4873 13.247-.3804.077-.8215.138-1.3317.138-1.2884 0-2.9574-.372-4.9463-1.678-5.6209-3.683-12.6081-14.285-15.55685-29.6691C2.71716 67.0526 14.7285 24.8702 35.3268 19.2753c-1.6776-5.2058.9858-13.27387 6.5202-16.9404C44.1732.795652 46.7069.198975 49.2233.198975c5.889 0 11.6828 3.277395 14.5105 5.378735C76.2121 14.8997 76.8174 37.1497 73.7476 44.8286ZM44.8304 6.84889c-2.1792 1.43548-3.9173 4.32371-4.4535 7.35901-.3459 1.9976-.0518 3.4936.3978 4.0903.2162.294.4151.4323 1.522.7696h.0086c.2594.0778.5619.1642.925.2679l.0003.0001c1.4441.4065 3.2342.9167 5.3096 1.9284 8.829 4.3151 15.0639 11.3282 19.6125 16.4475.1261.141.2558.2862.388.4343.33.3696.6757.7568 1.0215 1.1396 0-.0087.0022-.0195.0043-.0303.0022-.0108.0043-.0216.0043-.0303.3719-2.698.5189-6.5288-.0951-10.9995-.6572-4.834-2.7066-13.6371-8.9761-18.31541-2.6634-1.98027-7.212-4.30644-11.2763-4.30644-1.6949 0-3.139.40643-4.3929 1.24524ZM39.1663 96.4714c12.2362 6.9616 30.4045 8.1196 38.0143-.908 5.3009-6.2867 4.1768-17.2345 3.0353-23.2099-1.9284-10.0743-7.6617-20.6242-14.4759-29.2371-.0086-.0173-.0173-.0259-.0259-.0346-4.7907-6.0532-10.1089-11.1379-15.0294-14.4413-3.58-2.3953-6.9266-3.874-9.737-4.3324-.6313-.1037-1.228-.1556-1.7987-.1556-.5621 0-1.0982.0432-1.5998.147-7.826 1.5825-15.4011 11.2071-20.2524 25.7608-4.9031 14.7181-6.2348 31.8314-3.5714 45.7712 2.6375 13.7585 8.6994 23.2095 13.2134 26.1755.8561.562 1.5133.77 1.9024.796.7005-1.133 1.1588-5.266 1.522-8.613l.0085-.077c.5259-4.742 1.1766-10.609 2.8624-16.6645.0346-.3545.1297-.7004.294-1.029 1.9284-6.4683 5.0934-13.0923 10.6019-18.7391 5.6554-5.7938 12.2967-7.9989 17.1479-9.6074l.7005-.2334c1.4181-.4757 2.9487.2853 3.4244 1.7035.4669 1.4182-.2941 2.9488-1.7122 3.4158l-.7091.2421c-4.5659 1.5133-10.2473 3.3985-14.9775 8.2583-4.3842 4.4967-7.0909 9.7198-8.8377 15.0121Zm19.448-74.6105c.8388 0 1.669-.3978 2.1965-1.1328.8734-1.2107.588-2.9056-.6226-3.7703l-3.3812-2.4127c-1.2193-.8647-2.9056-.588-3.7703.6313-.8648 1.2107-.588 2.8969.6313 3.7703l3.3725 2.4127c.4756.3372 1.029.5015 1.5738.5015Z" clip-rule="evenodd"/><path fill="#fff" d="M24.1888 35.4114c.0172-.0605.0259-.0951.0345-.147-2.6288 4.0297-4.9982 9.0193-6.9179 14.8045-4.9032 14.718-6.2349 31.8314-3.5715 45.7711 1.055 5.5 2.6635 10.299 4.4881 14.277-.8993-9.798-3.8222-41.3523 5.9668-74.7056Z"/><path fill="#D78D1F" d="M49.9235 91.3176c2.4646-6.6499 11.8298-15.2542 14.1386-18.5229-.121.0605-.2421.121-.3804.1643l-.7091.2421c-4.5659 1.5133-10.2473 3.3985-14.9775 8.2583-4.3842 4.4967-7.0909 9.7198-8.8377 15.0121.3286.1816.6572.3632.9945.5448 3.0266.2334 8.0335-1.0118 9.7716-5.6987Z"/><path fill="#FFEC7D" fill-rule="evenodd" d="M55.6741 47.1117c-.4324-.934-8.6043.3632-14.7008 5.9408-10.204 9.3393-12.9885 28.6837-12.1064 28.8566 2.6547.5189 5.2403-12.9625 12.1064-22.0683 6.1657-8.1806 15.1504-11.752 14.7008-12.7291ZM40.3769 14.208c.5361-3.0353 2.2743-5.92352 4.4535-7.359 1.2538-.83881 2.698-1.24524 4.3929-1.24524.5967 0 1.202.05188 1.8073.14701-.5967.92528-1.9716 2.26563-4.0038 4.01243-.1284.10992-.2548.21743-.3792.3231-1.4504 1.2328-2.6099 2.2184-3.0798 3.9228-.476 1.7109.1377 3.4603.5986 4.774.1168.3331.2238.6381.3008.9074-.2722-.0816-.5374-.1564-.7937-.2287-.1509-.0425-.2987-.0842-.4429-.1258l-.0008-.0003c-.3629-.1036-.6653-.19-.9245-.2678h-.0087c-1.1068-.3373-1.3057-.4756-1.5219-.7696-.4497-.5967-.7437-2.0927-.3978-4.0903Zm27.4038 17.6236c.9166-.5102 1.4787-1.4182 1.8333-2.4646.441 3.9779.294 7.3936-.0432 9.8495 0 .0087-.0022.0195-.0044.0303-.0021.0108-.0043.0216-.0043.0303-.3457-.3827-.6913-.7698-1.0212-1.1393-.1323-.1482-.2621-.2935-.3883-.4346l-.0483-.0541c-1.7613-1.9762-3.7778-4.2386-6.0915-6.518 1.7901.8215 4.0557 1.6603 5.7679.7005Z" clip-rule="evenodd"/><path fill="#fff" fill-rule="evenodd" d="m82.4233 74.7923 5.4998-10.9131L80.59 74.187l-11.1379-6.33 10.524 8.1459-6.1052 13.3344 7.9384-12.729 10.9996 4.2459-10.3856-6.0619Zm-56.2 8.6042L15.8464 97.8292.0820007 88.9655 14.9816 100.372l-8.64747 18.669 11.24167-17.822 15.5655 5.941-14.7007-8.492 7.7827-15.2715ZM49.0008 6.15723 41.6677 16.465l-11.1379-6.3299 10.524 8.1459-6.1052 13.3344 7.9384-12.7291 10.9996 4.2459-10.377-6.0618 5.4912-10.91317Z" clip-rule="evenodd"/></svg>