<svg width="36" height="83" viewBox="0 0 36 83" fill="none" xmlns="http://www.w3.org/2000/svg">
<path d="M4.27913 22.5651C6.95847 15.5639 10.8767 8.6361 14.506 4.48525C16.8885 1.75729 18.9663 0.37571 20.6833 0.37571C20.7083 0.37571 20.7333 0.377239 20.7567 0.377239C26.431 0.508817 29.6181 18.3699 30.0696 31.0106C30.2024 34.7193 31.2663 37.7808 32.3912 41.0228C32.863 42.3814 33.3411 43.7569 33.7582 45.2058C33.7613 45.2165 33.7644 45.2272 33.7676 45.2364C33.7723 45.2517 33.7769 45.2639 33.7801 45.2792C34.519 47.8527 35.069 50.6617 35.069 54.0277C35.069 61.6225 34.1644 68.1984 32.4521 73.0439C31.3257 76.2324 29.8821 78.5304 28.1886 79.8737C27.3918 81.2783 26.4076 82.1901 25.2936 82.4196C25.1015 82.4594 24.9031 82.4778 24.7 82.4778C23.3955 82.4778 21.8722 81.6745 20.3474 80.1813C17.6618 79.1026 14.1919 77.1198 11.0064 73.7966C7.77712 70.4261 5.36493 66.2584 3.83857 61.4099C2.13878 56.009 1.54666 49.7575 2.07316 42.8022C1.77632 43.1908 1.60915 43.2367 1.39043 43.2015C1.17327 43.1663 1.00611 43.0026 0.965488 42.7838C0.0374832 37.7517 1.21389 30.5715 4.27913 22.5651ZM1.7607 41.5032C1.9013 41.2691 2.07472 40.9723 2.28875 40.5929C3.15896 39.0461 4.43067 36.6379 6.0664 33.4326C6.18826 33.1969 6.48041 33.1006 6.72257 33.2184C6.96316 33.3377 7.06159 33.6238 6.93973 33.861C5.34774 36.9791 4.0979 39.349 3.22457 40.9096C2.42936 48.5381 2.95118 55.3404 4.77282 61.1283C6.25388 65.8376 8.59108 69.8783 11.7188 73.1418C14.2388 75.7718 16.8432 77.4349 18.8132 78.4386C16.826 75.8636 14.9653 72.1488 13.7342 67.5558C13.6654 67.3003 13.8217 67.0387 14.0826 66.9714C14.3435 66.904 14.6091 67.057 14.6778 67.3126C16.1995 72.9857 18.6523 77.0968 20.9442 79.3964C21.7004 80.1552 22.4378 80.7137 23.1205 81.0686C23.6939 81.367 24.2297 81.5215 24.7 81.5215C24.8359 81.5215 24.9671 81.5093 25.0921 81.4833C25.4077 81.419 25.7202 81.263 26.0248 81.0258C26.531 80.6341 27.0122 80.0175 27.4449 79.2174C27.8058 78.5488 28.1339 77.7547 28.4089 76.852C29.3166 73.8716 29.6134 70.0267 29.2416 66.0258C29.2166 65.7627 29.415 65.5301 29.6837 65.5056C29.954 65.4827 30.1883 65.677 30.2133 65.9386C30.6117 70.2195 30.2274 74.2434 29.2916 77.2498C32.2803 73.024 34.0925 64.6963 34.0925 54.0277C34.0925 50.7719 33.5567 48.0363 32.8349 45.5225C31.4819 42.5972 30.1977 40.5286 29.1635 38.864C28.6463 38.0302 28.198 37.3095 27.8136 36.6042C27.6871 36.3717 27.7777 36.081 28.0152 35.957C28.2526 35.8331 28.5479 35.9218 28.676 36.1544C29.0463 36.8352 29.4884 37.5452 29.9977 38.3683C30.3164 38.8808 30.6586 39.4316 31.0195 40.0345C30.0493 37.1871 29.2135 34.3888 29.0947 31.0443C28.8385 23.864 27.8324 16.514 26.3357 10.8775C24.7375 4.85704 22.6955 1.37938 20.7349 1.33348C20.7177 1.33348 20.702 1.33195 20.6849 1.33195C19.3053 1.33195 17.3775 2.67069 15.248 5.10642C11.6876 9.17924 7.83493 15.9969 5.19308 22.9001C2.41062 30.1691 1.21077 36.7129 1.7607 41.5032Z" fill="black"/>
<path d="M1.76069 41.5032C1.9013 41.2691 2.07472 40.9723 2.28875 40.5929C3.15895 39.0461 4.43067 36.6379 6.0664 33.4326C6.18826 33.197 6.48041 33.1006 6.72257 33.2184C6.96316 33.3377 7.06159 33.6238 6.93973 33.861C5.34774 36.9791 4.0979 39.349 3.22457 40.9096C2.42936 48.5381 2.95117 55.3404 4.77282 61.1283C6.25388 65.8376 8.59108 69.8783 11.7188 73.1418C14.2388 75.7718 16.8432 77.4349 18.8132 78.4386C16.826 75.8636 14.9653 72.1488 13.7342 67.5558C13.6654 67.3003 13.8217 67.0387 14.0826 66.9714C14.3435 66.904 14.6091 67.057 14.6778 67.3126C16.1995 72.9857 18.6523 77.0968 20.9442 79.3964C21.7004 80.1552 22.4378 80.7137 23.1205 81.0686C23.6939 81.367 24.2297 81.5215 24.7 81.5215C24.8359 81.5215 24.9671 81.5093 25.0921 81.4833C25.4077 81.419 25.7202 81.263 26.0248 81.0258C26.531 80.6341 27.0122 80.0175 27.4449 79.2174C27.8058 78.5488 28.1339 77.7547 28.4089 76.852C29.3166 73.8716 29.6134 70.0267 29.2416 66.0258C29.2166 65.7627 29.415 65.5301 29.6837 65.5056C29.954 65.4827 30.1883 65.677 30.2133 65.9386C30.6117 70.2195 30.2274 74.2434 29.2916 77.2498C32.2803 73.024 34.0925 64.6963 34.0925 54.0277C34.0925 50.7719 33.5567 48.0363 32.8349 45.5225C31.4819 42.5972 30.1977 40.5286 29.1635 38.864C28.6463 38.0302 28.198 37.3095 27.8136 36.6042C27.6871 36.3717 27.7777 36.081 28.0152 35.957C28.2526 35.8331 28.5479 35.9219 28.676 36.1544C29.0463 36.8353 29.4884 37.5452 29.9977 38.3683C30.3164 38.8808 30.6586 39.4316 31.0195 40.0345C30.0493 37.1872 29.2135 34.3888 29.0947 31.0443C28.8385 23.864 27.8324 16.514 26.3357 10.8775C24.7375 4.85703 22.6955 1.37938 20.7348 1.33348C20.7177 1.33348 20.702 1.33195 20.6849 1.33195C19.3053 1.33195 17.3775 2.67069 15.248 5.10642C11.6876 9.17924 7.83493 15.9969 5.19308 22.9001C2.41062 30.1691 1.21077 36.7129 1.76069 41.5032Z" fill="#6189CB"/>
<path opacity="0.1" fill-rule="evenodd" clip-rule="evenodd" d="M20.4724 79.2923C10.7705 75.8605 13.228 67.9658 13.8232 67.0356C15.3496 71.2262 19.8631 78.6191 20.4724 79.2923ZM2.73088 41.3854C4.24006 37.7502 5.92578 32.6813 6.79286 33.4463C7.65994 34.2113 5.24931 38.8074 2.73088 48.867C1.96379 49.6045 2.46372 45.1935 2.73088 41.3854ZM13.1639 37.7364C14.5637 37.3967 15.5621 36.5002 15.6152 36.6272C15.6855 36.7924 14.4138 38.4172 12.6452 38.7156C10.7174 39.0415 9.08944 37.6446 9.13943 37.4365C9.18787 37.2361 10.9611 38.2704 13.1639 37.7364ZM16.7572 33.7156C14.8293 34.0415 13.2014 32.6446 13.2514 32.4365C13.2998 32.2346 15.0746 33.2688 17.2759 32.7349C18.6757 32.3952 19.674 31.4986 19.7272 31.6256C19.7975 31.7909 18.5257 33.4157 16.7572 33.7156ZM20.9036 37.409C18.9757 37.7349 17.3478 36.338 17.3978 36.1299C17.4462 35.9279 19.221 36.9622 21.4222 36.4283C22.8221 36.0886 23.8204 35.192 23.8735 35.319C23.9438 35.4843 22.6721 37.1091 20.9036 37.409ZM13.8623 45.905C15.2777 45.7352 16.3307 44.961 16.376 45.0941C16.4354 45.267 15.0637 46.7327 13.2827 46.8199C11.3423 46.9148 9.80966 45.3266 9.87215 45.1262C9.93308 44.9304 11.6344 46.1727 13.8623 45.905ZM15.1309 49.3566C15.1746 49.1516 16.9744 50.1002 19.16 49.4622C20.5505 49.0552 21.5238 48.1112 21.5816 48.2367C21.655 48.3973 20.4271 50.0834 18.6664 50.4674C16.751 50.8851 15.0871 49.5662 15.1309 49.3566ZM19.1866 44.3306C19.2163 44.121 21.0723 44.8416 23.2064 43.9313C24.564 43.353 25.4702 42.2912 25.5358 42.4074C25.6202 42.5589 24.5094 44.3903 22.783 44.9931C20.9004 45.6495 19.1553 44.5448 19.1866 44.3306ZM20.1615 39.9166C20.2318 40.0819 18.9601 41.7067 17.1915 42.0051C15.2637 42.3309 13.6357 40.9341 13.6857 40.726C13.7342 40.524 15.5089 41.5583 17.7102 41.0243C19.11 40.6862 20.1084 39.7896 20.1615 39.9166Z" fill="black"/>
<ellipse rx="6.62416" ry="6.48714" transform="matrix(-1 0 0 1 16.2589 21.3977)" fill="#7A0D0D"/>
<path fill-rule="evenodd" clip-rule="evenodd" d="M13.8583 23.1966C13.5261 23.1815 13.1935 22.9333 13.1304 22.876C13.1293 22.8742 13.1282 22.8725 13.1271 22.8709C13.1685 22.7819 13.22 22.6927 13.2842 22.605C13.3443 22.5229 13.4799 22.473 13.6471 22.4714C13.65 22.4713 13.6528 22.4713 13.6556 22.4713C13.6663 22.4713 13.6771 22.4716 13.6878 22.472C13.759 22.4746 13.8285 22.4856 13.8913 22.503C13.9925 22.5312 14.0755 22.5761 14.1168 22.6302C14.1483 22.6715 14.2081 22.68 14.2503 22.6491C14.2926 22.6182 14.3012 22.5597 14.2697 22.5183C14.1799 22.4007 14.0118 22.3308 13.8427 22.3012C13.7788 22.2901 13.7148 22.2844 13.6548 22.2844C13.6516 22.2844 13.6484 22.2844 13.6453 22.2845C13.6444 22.2845 13.6435 22.2846 13.6427 22.2846C13.4127 22.2873 13.2255 22.3643 13.1291 22.4961C12.8033 22.9412 12.7726 23.4263 12.7542 23.7162C12.7506 23.7741 12.7463 23.8414 12.7396 23.8872C12.5892 23.731 12.2473 23.0291 12.3094 22.2024C12.3762 21.3145 12.7266 20.767 13.0063 20.5679C13.0831 20.5133 13.1418 20.4946 13.175 20.4946C13.1807 20.4946 13.1856 20.4952 13.1898 20.4962C13.2316 20.5063 13.2737 20.5195 13.3157 20.5342C13.3815 20.5573 13.4472 20.5855 13.5125 20.6192C13.6051 20.667 13.6966 20.7254 13.7854 20.7924C13.996 20.9715 14.1461 21.1749 14.2547 21.2666C14.307 21.3363 14.3564 21.4092 14.402 21.4851C14.6674 21.9273 14.7625 22.3856 14.6628 22.7423C14.601 22.9634 14.4778 23.1082 14.0501 23.1802C14.0259 23.1843 14.0008 23.1882 13.9746 23.1919C13.9361 23.1972 13.8972 23.1984 13.8583 23.1966Z" fill="#FFED74"/>
<path fill-rule="evenodd" clip-rule="evenodd" d="M13.3344 20.0066C13.3594 19.9708 13.3889 19.9403 13.4215 19.9192C13.4584 19.8953 13.4998 19.8821 13.5468 19.8781C13.5567 19.8773 13.5664 19.8763 13.5768 19.8763C13.7202 19.8763 13.8809 19.9565 13.9749 20.0253C14.1961 20.1869 14.2685 20.4914 14.292 20.6586C14.3121 20.8021 14.3091 20.926 14.2979 21.0178C14.1833 20.8857 14.0579 20.7676 13.9265 20.6666C13.819 20.5743 13.6956 20.4862 13.5527 20.4178C13.5372 20.4103 13.5224 20.4041 13.5078 20.3981C13.4535 20.3759 13.4053 20.3623 13.3652 20.3512C13.3437 20.3453 13.3286 20.3409 13.317 20.3371C13.2916 20.3288 13.285 20.3238 13.2783 20.3151C13.2626 20.2944 13.2522 20.2427 13.2645 20.1739C13.2753 20.1135 13.3005 20.0551 13.3344 20.0066Z" fill="#CFD0D2"/>
<path fill-rule="evenodd" clip-rule="evenodd" d="M20.0314 20.7102C19.7385 20.7102 18.9804 20.3094 18.8396 20.3094C18.8113 20.3094 18.8079 20.3256 18.8383 20.3645C19.6323 21.3818 19.7967 22.4126 19.6589 22.5137C19.6548 22.5167 19.6497 22.5182 19.6436 22.5182C19.4974 22.5182 18.7888 21.6993 18.5377 21.6993C18.5214 21.6993 18.507 21.7028 18.4948 21.7101C18.2491 21.8588 19.0444 23.5073 18.8288 23.6257C18.8207 23.6302 18.8116 23.6323 18.8014 23.6323C18.6295 23.6323 18.1778 23.0265 17.9347 23.0265C17.9166 23.0265 17.8997 23.0298 17.8841 23.037C17.6179 23.16 17.9696 24.2924 17.7028 24.4107C17.6881 24.4172 17.6724 24.4202 17.6557 24.4202C17.4204 24.4202 17.0035 23.8113 16.7 23.8113C16.6774 23.8113 16.6554 23.8147 16.6341 23.822C16.2982 23.9369 16.5548 24.8422 16.1475 24.9993C16.118 25.0134 16.0895 25.0198 16.0615 25.0198C15.7708 25.0198 15.558 24.3235 15.2905 24.3235C15.2804 24.3235 15.2703 24.3245 15.2601 24.3266C14.9243 24.3935 15.0598 25.1489 14.766 25.1489C14.7653 25.1489 14.7646 25.1489 14.764 25.1489C14.5301 25.147 14.2508 24.026 14.1001 23.372C14.5485 23.2948 14.7632 23.13 14.8553 22.8007C14.9685 22.3956 14.8663 21.8849 14.5749 21.3994C14.536 21.3346 14.4942 21.2719 14.4504 21.2111C14.5495 20.9279 14.5187 20.1895 14.089 19.8755C13.992 19.8046 13.7961 19.696 13.5942 19.69C13.6231 19.5973 13.6595 19.5076 13.7048 19.4207C14.2008 18.469 15.3245 17.6315 16.5592 17.6315C16.7319 17.6315 16.9069 17.6479 17.0826 17.6827C20.1606 18.2921 20.3959 20.4146 20.1264 20.6822C20.1069 20.7017 20.0741 20.7102 20.0314 20.7102Z" fill="white"/>
<path fill-rule="evenodd" clip-rule="evenodd" d="M19.2479 20.4559C19.5225 20.5704 19.8577 20.7102 20.0306 20.7102C20.0733 20.7102 20.106 20.7017 20.1256 20.6822C20.3951 20.4146 20.1598 18.2921 17.0818 17.6827C16.9061 17.6479 16.7311 17.6315 16.5584 17.6315C15.3237 17.6315 14.1999 18.469 13.704 19.4207C13.6587 19.5076 13.6223 19.5973 13.5934 19.69C13.7953 19.696 13.9911 19.8046 14.0882 19.8755C14.5179 20.1895 14.5487 20.9279 14.4496 21.2111C14.4934 21.2719 14.5352 21.3346 14.5741 21.3994C14.8655 21.8849 14.9676 22.3956 14.8544 22.8007C14.7624 23.13 14.5477 23.2948 14.0993 23.372C14.25 24.026 14.5292 25.147 14.7631 25.1489H14.7652C14.9089 25.1489 14.9499 24.9682 14.9936 24.7757C15.0392 24.5746 15.0878 24.3607 15.2593 24.3266C15.2695 24.3245 15.2796 24.3235 15.2897 24.3235C15.4206 24.3235 15.5385 24.4905 15.6588 24.6608C15.7843 24.8385 15.9123 25.0198 16.0607 25.0198C16.0886 25.0198 16.1172 25.0134 16.1467 24.9993C16.3599 24.9171 16.3912 24.6299 16.4208 24.3583C16.4477 24.111 16.4732 23.8767 16.6333 23.822C16.6546 23.8147 16.6766 23.8113 16.6992 23.8113C16.8606 23.8113 17.054 23.9835 17.2352 24.1447C17.3947 24.2867 17.5447 24.4202 17.6549 24.4202C17.6716 24.4202 17.6873 24.4172 17.702 24.4107C17.8354 24.3515 17.8141 24.0388 17.7928 23.7254C17.7715 23.4122 17.7502 23.0985 17.8833 23.037C17.8989 23.0298 17.9158 23.0265 17.9338 23.0265C18.0659 23.0265 18.2595 23.2052 18.4364 23.3685C18.5851 23.5058 18.722 23.6323 18.8006 23.6323C18.8107 23.6323 18.8198 23.6302 18.8279 23.6257C18.9318 23.5687 18.801 23.1564 18.6651 22.7279C18.5189 22.267 18.3666 21.7872 18.494 21.7101C18.5061 21.7028 18.5206 21.6993 18.5369 21.6993C18.6793 21.6993 18.9689 21.9627 19.2196 22.1908C19.4109 22.3648 19.5795 22.5182 19.6428 22.5182C19.6489 22.5182 19.654 22.5167 19.6581 22.5137C19.7959 22.4126 19.6315 21.3818 18.8375 20.3645C18.8071 20.3256 18.8105 20.3094 18.8388 20.3094C18.8965 20.3094 19.0576 20.3766 19.2479 20.4559ZM13.138 22.885C13.2011 22.9424 13.5337 23.1906 13.8659 23.2057C13.9048 23.2075 13.9437 23.2063 13.9822 23.2009C14.0084 23.1973 14.0335 23.1934 14.0577 23.1893C14.4854 23.1173 14.6086 22.9725 14.6704 22.7514C14.7701 22.3947 14.675 21.9364 14.4096 21.4942C14.364 21.4183 14.3146 21.3454 14.2623 21.2757C14.2166 21.2371 14.1636 21.1787 14.1018 21.1107C14.0167 21.0171 13.915 20.9052 13.793 20.8015C13.7042 20.7345 13.6127 20.6761 13.5201 20.6282C13.4548 20.5945 13.3891 20.5663 13.3233 20.5433C13.2813 20.5286 13.2392 20.5153 13.1973 20.5053C13.1932 20.5043 13.1883 20.5037 13.1826 20.5037C13.1494 20.5037 13.0907 20.5224 13.0139 20.577C12.7342 20.7761 12.3837 21.3236 12.317 22.2114C12.2549 23.0382 12.5968 23.74 12.7472 23.8962C12.7539 23.8505 12.7582 23.7832 12.7618 23.7252L12.7619 23.7252C12.7802 23.4353 12.8109 22.9502 13.1367 22.5052C13.2331 22.3734 13.4203 22.2964 13.6503 22.2937L13.6528 22.2936L13.6624 22.2935C13.7224 22.2935 13.7864 22.2991 13.8503 22.3103C14.0194 22.3399 14.1875 22.4098 14.2773 22.5274C14.3088 22.5688 14.3002 22.6273 14.2579 22.6582C14.2157 22.6891 14.1559 22.6806 14.1244 22.6393C14.0831 22.5852 14.0001 22.5402 13.8989 22.5121C13.8361 22.4946 13.7666 22.4836 13.6954 22.4811C13.6847 22.4807 13.6739 22.4804 13.6632 22.4804L13.6547 22.4804C13.4875 22.4821 13.3518 22.532 13.2918 22.6141C13.2276 22.7018 13.1761 22.791 13.1347 22.8799L13.138 22.885ZM13.4112 19.9096C13.3786 19.9307 13.3491 19.9612 13.3241 19.997C13.2902 20.0455 13.265 20.1039 13.2542 20.1643C13.2419 20.2332 13.2523 20.2849 13.268 20.3055C13.2747 20.3143 13.2813 20.3192 13.3067 20.3275C13.3183 20.3313 13.3334 20.3357 13.3549 20.3416C13.395 20.3527 13.4432 20.3663 13.4975 20.3886C13.5121 20.3945 13.5269 20.4008 13.5424 20.4082C13.6853 20.4766 13.8087 20.5647 13.9162 20.657C14.0476 20.758 14.173 20.8761 14.2876 21.0083C14.2988 20.9164 14.3018 20.7925 14.2817 20.649C14.2582 20.4819 14.1858 20.1773 13.9646 20.0157C13.8706 19.9469 13.7099 19.8667 13.5665 19.8667C13.5575 19.8667 13.5489 19.8674 13.5404 19.8682C13.5391 19.8683 13.5378 19.8684 13.5365 19.8685C13.4895 19.8725 13.4481 19.8857 13.4112 19.9096ZM16.5586 17.4446C16.747 17.4446 16.9359 17.463 17.1198 17.4995C19.4914 17.9691 20.1414 19.2828 20.3107 19.8258C20.4445 20.2546 20.4248 20.6515 20.2617 20.8134C20.2059 20.8689 20.1282 20.897 20.0308 20.897C19.8542 20.897 19.6082 20.8071 19.2862 20.6746C19.7579 21.4275 19.9288 22.1456 19.8863 22.4466C19.8723 22.5453 19.8341 22.6182 19.7728 22.6633C19.7355 22.6906 19.6906 22.705 19.643 22.705C19.51 22.705 19.385 22.5961 19.0899 22.3277C18.9804 22.228 18.7845 22.0499 18.6479 21.9524C18.6548 21.9947 18.6658 22.0493 18.6832 22.1192C18.7242 22.2837 18.7869 22.4813 18.8475 22.6724C18.918 22.8947 18.9846 23.1045 19.023 23.2761C19.0549 23.4182 19.1142 23.6829 18.9215 23.7887C18.8853 23.8086 18.8435 23.8191 18.8008 23.8191C18.6465 23.8191 18.5036 23.6872 18.3057 23.5045L18.3057 23.5045C18.2181 23.4236 18.068 23.285 17.9773 23.233C17.9583 23.3438 17.9742 23.5773 17.9835 23.7128L17.9835 23.713L17.9835 23.7132C18.011 24.1184 18.0348 24.4684 17.7809 24.5809C17.7417 24.5983 17.6994 24.6071 17.6551 24.6071C17.4712 24.6071 17.3024 24.4569 17.1071 24.2831L17.1071 24.283C16.9874 24.1765 16.787 23.9982 16.6994 23.9982C16.6984 23.9982 16.6977 23.9982 16.6972 23.9983C16.6966 23.9983 16.6964 23.9984 16.6963 23.9984L16.6962 23.9984C16.6955 23.999 16.6752 24.0142 16.6545 24.0913C16.6335 24.1691 16.6225 24.2703 16.6108 24.3775L16.6107 24.3781L16.6107 24.3781C16.5784 24.6751 16.5381 25.0443 16.2236 25.1706C16.171 25.1945 16.1163 25.2067 16.0609 25.2067C15.8125 25.2067 15.6476 24.9732 15.5021 24.7672L15.5021 24.7672C15.4457 24.6872 15.343 24.5419 15.2894 24.513C15.2425 24.5412 15.2008 24.725 15.1801 24.8161L15.1801 24.8163L15.1801 24.8163C15.1566 24.9197 15.1324 25.0265 15.0894 25.1148C14.9959 25.3071 14.8463 25.3357 14.7654 25.3357H14.7618C14.5373 25.3339 14.38 25.0924 14.1814 24.4444C14.0723 24.0883 13.9728 23.672 13.9087 23.3931C13.5632 23.3966 13.2207 23.1878 13.0621 23.0641C12.9791 23.3166 12.964 23.5557 12.9525 23.7366L12.9525 23.7368C12.9394 23.9447 12.9307 24.0821 12.8052 24.1087C12.7953 24.1108 12.7853 24.1118 12.7752 24.1118C12.7319 24.1118 12.6873 24.0924 12.6421 24.054C12.4213 23.8659 12.0602 23.0848 12.1269 22.1977C12.1983 21.247 12.5741 20.659 12.902 20.4257C12.9642 20.3815 13.0242 20.3506 13.0808 20.3333C13.0322 20.1529 13.1257 19.8863 13.3155 19.7634C13.3383 19.7486 13.3617 19.7365 13.3855 19.7265C13.4202 19.5912 13.4689 19.4612 13.5342 19.3358C13.8008 18.8243 14.2317 18.355 14.7477 18.0143C15.3121 17.6416 15.9383 17.4446 16.5586 17.4446ZM13.9201 20.4368C13.9006 20.4368 13.881 20.431 13.864 20.4189L13.7591 20.3442C13.7164 20.3138 13.707 20.2554 13.738 20.2137C13.769 20.1719 13.8287 20.1627 13.8713 20.193L13.9763 20.2678C14.0189 20.2981 14.0283 20.3566 13.9973 20.3983C13.9786 20.4234 13.9496 20.4368 13.9201 20.4368Z" fill="black"/>
<path fill-rule="evenodd" clip-rule="evenodd" d="M16.6108 19.3433C16.5865 19.6286 16.3514 19.862 16.0641 19.8863C15.757 19.9122 15.4737 19.697 15.4187 19.3962C15.4093 19.3454 15.3599 19.3117 15.3079 19.3207C15.256 19.3298 15.2215 19.3784 15.2308 19.4292C15.2991 19.8024 15.6362 20.0753 16.0143 20.0753C16.0362 20.0753 16.0583 20.0744 16.0805 20.0725C16.4593 20.0405 16.769 19.7337 16.801 19.3589C16.8054 19.3074 16.7664 19.2623 16.7138 19.258C16.6621 19.2537 16.6152 19.2919 16.6108 19.3433Z" fill="black"/>
</svg>
