<svg width="126" height="307" fill="none" xmlns="http://www.w3.org/2000/svg"><path d="M112.771 82.73c-9.783-26.103-24.09-51.932-37.34-67.408C66.73 5.152 59.145 0 52.876 0c-.092 0-.183.006-.269.006-20.718.49-32.355 67.083-34.003 114.213-.485 13.827-4.37 25.242-8.477 37.329-1.723 5.066-3.468 10.194-4.991 15.596-.012.04-.023.08-.035.114-.017.057-.034.103-.045.16C2.358 177.012.35 187.486.35 200.035c0 28.317 3.302 52.834 9.554 70.9 4.113 11.888 9.384 20.456 15.568 25.464 2.909 5.237 6.503 8.637 10.57 9.492.701.149 1.426.217 2.167.217 4.764 0 10.325-2.995 15.893-8.562 9.806-4.022 22.475-11.415 34.106-23.805 11.791-12.566 20.599-28.105 26.172-46.182 6.206-20.137 8.368-43.445 6.446-69.377 1.084 1.449 1.694 1.62 2.493 1.489.793-.131 1.403-.741 1.551-1.557 3.389-18.762-.907-45.532-12.099-75.383Zm9.196 70.609a139.003 139.003 0 0 1-1.928-3.394c-3.178-5.767-7.821-14.746-13.793-26.696a1.791 1.791 0 0 0-2.396-.799 1.784 1.784 0 0 0-.793 2.396c5.813 11.625 10.376 20.462 13.565 26.28 2.903 28.442.998 53.804-5.653 75.383-5.408 17.558-13.942 32.624-25.362 44.791-9.201 9.806-18.71 16.006-25.903 19.749 7.256-9.601 14.05-23.451 18.545-40.576a1.785 1.785 0 0 0-1.272-2.179 1.779 1.779 0 0 0-2.174 1.272c-5.556 21.152-14.512 36.48-22.88 45.053-2.761 2.83-5.454 4.912-7.946 6.235-2.094 1.113-4.05 1.689-5.767 1.689-.497 0-.976-.046-1.432-.143-1.153-.239-2.293-.821-3.406-1.705-1.848-1.461-3.605-3.76-5.185-6.743-1.318-2.493-2.516-5.453-3.52-8.819-3.314-11.112-4.398-25.447-3.04-40.364a1.785 1.785 0 0 0-1.614-1.94 1.784 1.784 0 0 0-1.934 1.615c-1.455 15.961-.052 30.963 3.365 42.172-10.912-15.755-17.53-46.804-17.53-86.581 0-12.139 1.957-22.338 4.593-31.71 4.94-10.907 9.629-18.619 13.405-24.826 1.888-3.109 3.525-5.795 4.929-8.425a1.787 1.787 0 0 0-.736-2.413 1.789 1.789 0 0 0-2.413.736c-1.352 2.538-2.966 5.185-4.826 8.254a426.602 426.602 0 0 0-3.73 6.212c3.542-10.616 6.594-21.049 7.027-33.519.936-26.77 4.61-54.174 10.074-75.19 5.836-22.446 13.291-35.412 20.45-35.583.063 0 .12-.006.183-.006 5.037 0 12.076 4.992 19.851 14.073 13 15.185 27.067 40.604 36.713 66.342 10.16 27.101 14.541 51.499 12.533 69.359Z" fill="#000"/><path d="M121.967 153.339a144.469 144.469 0 0 1-1.928-3.394c-3.177-5.767-7.821-14.746-13.793-26.696a1.791 1.791 0 0 0-2.396-.799 1.784 1.784 0 0 0-.793 2.396c5.813 11.625 10.376 20.462 13.565 26.28 2.904 28.442.998 53.804-5.653 75.383-5.408 17.558-13.941 32.624-25.362 44.791-9.2 9.806-18.71 16.006-25.903 19.749 7.256-9.601 14.05-23.451 18.545-40.576a1.785 1.785 0 0 0-1.272-2.179 1.779 1.779 0 0 0-2.174 1.272c-5.556 21.152-14.512 36.48-22.88 45.053-2.76 2.83-5.453 4.912-7.946 6.235-2.094 1.113-4.05 1.689-5.767 1.689-.496 0-.976-.046-1.432-.143-1.152-.239-2.293-.821-3.406-1.705-1.848-1.461-3.605-3.76-5.185-6.743-1.318-2.493-2.515-5.453-3.52-8.819-3.314-11.112-4.398-25.447-3.04-40.364a1.785 1.785 0 0 0-1.614-1.94 1.784 1.784 0 0 0-1.934 1.615c-1.455 15.961-.051 30.963 3.366 42.172-10.913-15.755-17.53-46.804-17.53-86.581 0-12.139 1.957-22.338 4.592-31.71 4.94-10.907 9.629-18.619 13.405-24.826 1.889-3.109 3.526-5.795 4.929-8.425a1.787 1.787 0 0 0-.736-2.413 1.789 1.789 0 0 0-2.413.736c-1.352 2.538-2.966 5.185-4.826 8.254a426.602 426.602 0 0 0-3.73 6.212c3.542-10.616 6.594-21.049 7.027-33.519.936-26.77 4.61-54.174 10.074-75.19 5.836-22.446 13.291-35.412 20.45-35.583.063 0 .12-.006.183-.006 5.037 0 12.076 4.992 19.851 14.073 13 15.185 27.067 40.604 36.714 66.342 10.159 27.101 14.54 51.499 12.532 69.359Z" fill="#6189CB"/><path opacity=".1" fill-rule="evenodd" clip-rule="evenodd" d="M53.646 294.232c35.424-12.795 26.451-42.23 24.278-45.698-5.574 15.624-22.053 43.188-24.278 45.698ZM118.425 152.9c-5.511-13.554-11.666-32.452-14.832-29.6-3.166 2.852 5.636 19.988 14.832 57.494 2.801 2.75.975-13.696 0-27.894Zm-38.094-13.605c-5.111-1.266-8.756-4.609-8.95-4.136-.257.616 4.386 6.675 10.844 7.787 7.039 1.215 12.983-3.993 12.8-4.769-.176-.747-6.65 3.109-14.694 1.118Zm-13.12-14.991c7.04 1.215 12.983-3.993 12.8-4.769-.176-.753-6.656 3.103-14.694 1.112-5.111-1.266-8.756-4.609-8.95-4.135-.257.616 4.387 6.674 10.844 7.792Zm-15.14 13.77c7.04 1.215 12.984-3.993 12.801-4.769-.177-.752-6.657 3.104-14.694 1.113-5.111-1.267-8.757-4.609-8.95-4.136-.257.616 4.386 6.674 10.843 7.792Zm25.71 31.677c-5.168-.633-9.013-3.52-9.178-3.024-.217.645 4.791 6.11 11.294 6.435 7.085.354 12.681-5.568 12.453-6.315-.222-.73-6.434 3.902-14.569 2.904ZM73.15 182.62c-.16-.765-6.731 2.772-14.711.393-5.077-1.517-8.631-5.037-8.842-4.569-.268.599 4.215 6.885 10.644 8.317 6.994 1.557 13.069-3.36 12.91-4.141Zm-14.808-18.739c-.109-.782-6.886 1.905-14.678-1.489-4.957-2.156-8.265-6.115-8.505-5.681-.308.564 3.748 7.392 10.051 9.64 6.874 2.447 13.246-1.671 13.132-2.47Zm-3.56-16.457c-.257.616 4.387 6.674 10.844 7.786 7.04 1.215 12.983-3.993 12.8-4.769-.176-.753-6.656 3.104-14.694 1.113-5.11-1.261-8.756-4.604-8.95-4.13Z" fill="#000"/><circle cx="69.03" cy="78.378" fill="#7A0D0D" r="24.186"/><path fill-rule="evenodd" clip-rule="evenodd" d="M77.795 85.085c1.213-.056 2.427-.981 2.658-1.195a.443.443 0 0 1 .012-.02 5.901 5.901 0 0 0-.574-.99c-.22-.307-.715-.493-1.325-.499h-.03l-.118.002c-.26.01-.514.051-.744.116-.369.105-.672.273-.823.474a.349.349 0 0 1-.558-.417c.328-.438.941-.699 1.559-.81a3.94 3.94 0 0 1 .72-.062h.01c.84.01 1.523.298 1.876.79 1.19 1.659 1.301 3.468 1.368 4.548.013.216.029.467.054.638.549-.583 1.797-3.2 1.57-6.282-.243-3.31-1.523-5.352-2.544-6.094-.28-.203-.495-.273-.616-.273a.223.223 0 0 0-.054.006 5.566 5.566 0 0 0-1.178.458 6.991 6.991 0 0 0-.997.646c-.769.668-1.317 1.426-1.713 1.768-.192.26-.372.532-.538.815-.97 1.649-1.317 3.357-.952 4.687.225.825.675 1.364 2.237 1.633.088.015.18.03.275.043.14.02.283.025.425.018Z" fill="#FFED74"/><path fill-rule="evenodd" clip-rule="evenodd" d="M79.71 73.192a1.202 1.202 0 0 0-.318-.326.962.962 0 0 0-.457-.153c-.036-.004-.072-.007-.11-.007-.523 0-1.11.299-1.453.555-.808.603-1.072 1.738-1.158 2.361a5.344 5.344 0 0 0-.022 1.34 9.41 9.41 0 0 1 1.356-1.31 6.232 6.232 0 0 1 1.365-.927 4.325 4.325 0 0 1 .685-.248 3.83 3.83 0 0 0 .176-.053c.093-.031.117-.05.141-.082.057-.077.095-.27.05-.527a1.61 1.61 0 0 0-.255-.623Z" fill="#CFD0D2"/><path fill-rule="evenodd" clip-rule="evenodd" d="M55.258 75.815c1.07 0 3.837-1.495 4.351-1.495.104 0 .116.06.005.206-2.899 3.793-3.5 7.636-2.996 8.013a.09.09 0 0 0 .056.017c.534 0 3.121-3.053 4.038-3.053.06 0 .112.013.157.04.897.554-2.007 6.7-1.22 7.142.03.017.063.024.1.024.628 0 2.277-2.258 3.165-2.258.066 0 .127.012.184.04.972.458-.312 4.68.662 5.12a.412.412 0 0 0 .172.036c.86 0 2.382-2.27 3.49-2.27.082 0 .163.013.24.04 1.227.428.29 3.804 1.777 4.39a.71.71 0 0 0 .314.076c1.061 0 1.838-2.596 2.815-2.596.037 0 .074.003.111.011 1.226.25.732 3.066 1.804 3.066h.008c.854-.007 1.873-4.186 2.424-6.625-1.638-.288-2.421-.902-2.758-2.13-.413-1.51-.04-3.414 1.024-5.224.142-.242.295-.476.454-.703-.361-1.055-.249-3.808 1.32-4.98.355-.264 1.07-.668 1.807-.691a6.156 6.156 0 0 0-.404-1.004c-1.81-3.548-5.914-6.67-10.422-6.67-.63 0-1.27.06-1.911.19-11.239 2.272-12.098 10.186-11.114 11.184.071.072.191.104.347.104Z" fill="#fff"/><path fill-rule="evenodd" clip-rule="evenodd" d="M58.115 74.867c-1.002.427-2.226.948-2.857.948-.156 0-.276-.032-.347-.104-.984-.998-.125-8.912 11.114-11.184.641-.13 1.28-.19 1.91-.19 4.509 0 8.612 3.122 10.423 6.67.165.324.298.658.404 1.004-.737.023-1.453.428-1.807.692-1.569 1.17-1.681 3.924-1.32 4.98-.16.226-.312.46-.454.701-1.064 1.81-1.437 3.715-1.024 5.225.336 1.228 1.12 1.842 2.758 2.13-.55 2.439-1.57 6.618-2.424 6.625h-.008c-.525 0-.674-.674-.834-1.391-.166-.75-.344-1.547-.97-1.675a.553.553 0 0 0-.11-.011c-.48 0-.91.622-1.349 1.257-.458.663-.925 1.339-1.467 1.339a.71.71 0 0 1-.314-.076c-.778-.307-.893-1.378-1-2.39-.1-.923-.192-1.796-.777-2a.724.724 0 0 0-.24-.04c-.59 0-1.296.642-1.957 1.243-.583.53-1.13 1.027-1.533 1.027a.413.413 0 0 1-.172-.035c-.487-.22-.41-1.387-.332-2.555.078-1.168.156-2.338-.33-2.567a.428.428 0 0 0-.184-.04c-.483 0-1.19.667-1.835 1.276-.544.512-1.043.983-1.33.983a.2.2 0 0 1-.1-.024c-.38-.213.098-1.75.595-3.347.534-1.719 1.09-3.508.624-3.795a.293.293 0 0 0-.156-.04c-.52 0-1.578.982-2.493 1.832-.698.649-1.314 1.22-1.545 1.22a.09.09 0 0 1-.056-.016c-.503-.377.097-4.22 2.996-8.013.111-.145.099-.206-.005-.206-.21 0-.799.251-1.494.547Zm22.31 9.056c-.23.214-1.445 1.14-2.658 1.196a2.275 2.275 0 0 1-.425-.018 8.571 8.571 0 0 1-.275-.043c-1.562-.269-2.012-.809-2.238-1.633-.364-1.33-.017-3.038.953-4.687.166-.283.346-.555.537-.815.167-.144.36-.361.587-.615.31-.349.681-.766 1.127-1.153a6.97 6.97 0 0 1 .996-.646 5.541 5.541 0 0 1 1.179-.458.222.222 0 0 1 .053-.006c.122 0 .336.07.617.273 1.021.742 2.3 2.784 2.544 6.094.227 3.082-1.022 5.7-1.57 6.281a9.093 9.093 0 0 1-.054-.637c-.067-1.081-.18-2.89-1.369-4.549-.352-.491-1.035-.778-1.875-.788h-.01l-.034-.001c-.22 0-.453.02-.687.063-.617.11-1.23.37-1.558.809a.349.349 0 0 0 .558.417c.15-.202.454-.37.823-.474a3.173 3.173 0 0 1 .86-.118h.032c.61.006 1.106.192 1.325.498.234.327.422.66.573.991a.514.514 0 0 0-.011.02Zm-.997-11.093c.119.079.227.192.318.326.124.18.216.398.255.623.045.257.007.45-.05.527-.024.033-.048.051-.141.082-.043.014-.098.03-.176.053a4.346 4.346 0 0 0-.685.248 6.236 6.236 0 0 0-1.365.927c-.48.377-.937.817-1.356 1.31a5.349 5.349 0 0 1 .022-1.34c.086-.623.35-1.758 1.157-2.36.344-.257.93-.556 1.454-.556.033 0 .064.003.096.005l.014.002a.964.964 0 0 1 .457.153Zm-11.492-9.19c-.688 0-1.378.068-2.05.204-8.659 1.75-11.032 6.649-11.65 8.673-.489 1.6-.417 3.079.179 3.683.203.207.487.311.843.311.645 0 1.543-.335 2.718-.829-1.722 2.807-2.346 5.485-2.19 6.607.05.368.19.64.414.808.136.102.3.155.474.155.485 0 .942-.406 2.02-1.406.4-.372 1.114-1.036 1.613-1.4a7.838 7.838 0 0 1-.129.622c-.15.613-.378 1.35-.6 2.063-.257.828-.5 1.61-.64 2.25-.117.53-.334 1.517.37 1.912a.902.902 0 0 0 .44.113c.564 0 1.086-.492 1.809-1.173.32-.302.868-.818 1.198-1.012.07.413.012 1.283-.022 1.789v.001c-.1 1.511-.187 2.816.74 3.235.143.065.297.098.459.098.672 0 1.288-.56 2-1.208h.001c.437-.397 1.168-1.062 1.488-1.062h.012c0 .001.076.055.153.347.076.29.116.667.159 1.067v.002c.118 1.108.265 2.484 1.414 2.955a1.4 1.4 0 0 0 .594.135c.907 0 1.509-.871 2.04-1.64.206-.297.581-.84.777-.947.17.105.323.79.399 1.13v.001c.086.385.174.784.331 1.113.341.717.888.824 1.183.824h.013c.82-.007 1.394-.908 2.12-3.324.398-1.328.76-2.88.995-3.92 1.262.014 2.512-.765 3.091-1.226.303.941.359 1.833.4 2.507v.001c.048.775.08 1.288.538 1.387a.512.512 0 0 0 .11.011c.158 0 .32-.072.486-.215.806-.701 2.124-3.614 1.881-6.921-.26-3.545-1.633-5.737-2.83-6.607a2.3 2.3 0 0 0-.653-.345c.177-.672-.164-1.666-.857-2.124a1.623 1.623 0 0 0-.255-.138 6.873 6.873 0 0 0-.544-1.457c-.973-1.907-2.546-3.656-4.43-4.927-2.061-1.39-4.347-2.124-6.612-2.124Zm9.633 11.156a.346.346 0 0 0 .204-.067l.384-.279a.348.348 0 1 0-.41-.563l-.383.278a.348.348 0 0 0 .205.63Z" fill="#000"/><path fill-rule="evenodd" clip-rule="evenodd" d="M67.746 70.719c.089 1.063.947 1.934 1.996 2.024 1.121.097 2.155-.706 2.357-1.827a.349.349 0 0 1 .685.123c-.249 1.391-1.48 2.409-2.86 2.409-.08 0-.161-.004-.242-.01-1.383-.12-2.514-1.264-2.63-2.661a.348.348 0 1 1 .694-.058Z" fill="#000"/></svg>