<svg xmlns="http://www.w3.org/2000/svg" fill="none" viewBox="0 0 36 83"><path fill="#000" d="M4.27913 22.5651C6.95847 15.5639 10.8767 8.6361 14.506 4.48525 16.8885 1.75729 18.9663.37571 20.6833.37571c.025 0 .05.001529.0734.001529C26.431.508817 29.6181 18.3699 30.0696 31.0106c.1328 3.7087 1.1967 6.7702 2.3216 10.0122.4718 1.3586.9499 2.7341 1.367 4.183.0031.0107.0062.0214.0094.0306.0047.0153.0093.0275.0125.0428.7389 2.5735 1.2889 5.3825 1.2889 8.7485 0 7.5948-.9046 14.1707-2.6169 19.0162-1.1264 3.1885-2.57 5.4865-4.2635 6.8298-.7968 1.4046-1.781 2.3164-2.895 2.5459-.1921.0398-.3905.0582-.5936.0582-1.3045 0-2.8278-.8033-4.3526-2.2965-2.6856-1.0787-6.1555-3.0615-9.341-6.3847-3.22928-3.3705-5.64147-7.5382-7.16783-12.3867-1.69979-5.4009-2.29191-11.6524-1.76541-18.6077-.29684.3886-.46401.4345-.68273.3993-.21716-.0352-.38432-.1989-.424942-.4177-.9280048-5.0321.248402-12.2123 3.313642-20.2187ZM1.7607 41.5032c.1406-.2341.31402-.5309.52805-.9103.87021-1.5468 2.14192-3.955 3.77765-7.1603.12186-.2357.41401-.332.65617-.2142.24059.1193.33902.4054.21716.6426-1.59199 3.1181-2.84183 5.488-3.71516 7.0486-.79521 7.6285-.27339 14.4308 1.54825 20.2187 1.48106 4.7093 3.81826 8.75 6.94598 12.0135 2.52 2.63 5.1244 4.2931 7.0944 5.2968-1.9872-2.575-3.8479-6.2898-5.079-10.8828-.0688-.2555.0875-.5171.3484-.5844.2609-.0674.5265.0856.5952.3412 1.5217 5.6731 3.9745 9.7842 6.2664 12.0838.7562.7588 1.4936 1.3173 2.1763 1.6722.5734.2984 1.1092.4529 1.5795.4529.1359 0 .2671-.0122.3921-.0382.3156-.0643.6281-.2203.9327-.4575.5062-.3917.9874-1.0083 1.4201-1.8084.3609-.6686.689-1.4627.964-2.3654.9077-2.9804 1.2045-6.8253.8327-10.8262-.025-.2631.1734-.4957.4421-.5202.2703-.0229.5046.1714.5296.433.3984 4.2809.0141 8.3048-.9217 11.3112 2.9887-4.2258 4.8009-12.5535 4.8009-23.2221 0-3.2558-.5358-5.9914-1.2576-8.5052-1.353-2.9253-2.6372-4.9939-3.6714-6.6585-.5172-.8338-.9655-1.5545-1.3499-2.2598-.1265-.2325-.0359-.5232.2016-.6472.2374-.1239.5327-.0352.6608.1974.3703.6808.8124 1.3908 1.3217 2.2139.3187.5125.6609 1.0633 1.0218 1.6662-.9702-2.8474-1.806-5.6457-1.9248-8.9902-.2562-7.1803-1.2623-14.5303-2.759-20.1668-1.5982-6.02046-3.6402-9.49812-5.6008-9.54402-.0172 0-.0329-.00153-.05-.00153-1.3796 0-3.3074 1.33874-5.4369 3.77447C11.6876 9.17924 7.83493 15.9969 5.19308 22.9001c-2.78246 7.269-3.98231 13.8128-3.43238 18.6031Z"/><path fill="#92ACD8" d="M1.76069 41.5032c.14061-.2341.31403-.5309.52806-.9103.8702-1.5468 2.14192-3.955 3.77765-7.1603.12186-.2357.41401-.332.65617-.2142.24059.1193.33902.4054.21716.6426-1.59199 3.1181-2.84183 5.488-3.71516 7.0486-.79521 7.6285-.2734 14.4308 1.54825 20.2187 1.48106 4.7093 3.81826 8.75 6.94598 12.0135 2.52 2.63 5.1244 4.2931 7.0944 5.2968-1.9872-2.575-3.8479-6.2898-5.079-10.8828-.0688-.2555.0875-.5171.3484-.5844.2609-.0674.5265.0856.5952.3412 1.5217 5.6731 3.9745 9.7842 6.2664 12.0838.7562.7588 1.4936 1.3173 2.1763 1.6722.5734.2984 1.1092.4529 1.5795.4529.1359 0 .2671-.0122.3921-.0382.3156-.0643.6281-.2203.9327-.4575.5062-.3917.9874-1.0083 1.4201-1.8084.3609-.6686.689-1.4627.964-2.3654.9077-2.9804 1.2045-6.8253.8327-10.8262-.025-.2631.1734-.4957.4421-.5202.2703-.0229.5046.1714.5296.433.3984 4.2809.0141 8.3048-.9217 11.3112 2.9887-4.2258 4.8009-12.5535 4.8009-23.2221 0-3.2558-.5358-5.9914-1.2576-8.5052-1.353-2.9253-2.6372-4.9939-3.6714-6.6585-.5172-.8338-.9655-1.5545-1.3499-2.2598-.1265-.2325-.0359-.5232.2016-.6472.2374-.1239.5327-.0352.6608.1974.3703.6809.8124 1.3908 1.3217 2.2139.3187.5125.6609 1.0633 1.0218 1.6662-.9702-2.8474-1.806-5.6457-1.9248-8.9902-.2562-7.1803-1.2623-14.5303-2.759-20.1668-1.5982-6.02047-3.6402-9.49812-5.6009-9.54402-.0171 0-.0328-.00153-.0499-.00153-1.3796 0-3.3074 1.33873-5.4369 3.77447C11.6876 9.17924 7.83493 15.9969 5.19308 22.9001c-2.78246 7.269-3.98231 13.8128-3.43239 18.6031Z"/><path fill="#000" fill-rule="evenodd" d="M20.4724 79.2923c-9.7019-3.4318-7.2444-11.3265-6.6492-12.2567 1.5264 4.1906 6.0399 11.5835 6.6492 12.2567ZM2.73088 41.3854c1.50918-3.6352 3.1949-8.7041 4.06198-7.9391.86708.765-1.54355 5.3611-4.06198 15.4207-.76709.7375-.26716-3.6735 0-7.4816Zm10.43302-3.649c1.3998-.3397 2.3982-1.2362 2.4513-1.1092.0703.1652-1.2014 1.79-2.97 2.0884-1.9278.3259-3.55576-1.071-3.50577-1.2791.04844-.2004 1.82167.8339 4.02447.2999Zm3.5933-4.0208c-1.9279.3259-3.5558-1.071-3.5058-1.2791.0484-.2019 1.8232.8323 4.0245.2984 1.3998-.3397 2.3981-1.2363 2.4513-1.1093.0703.1653-1.2015 1.7901-2.97 2.09Zm4.1464 3.6934c-1.9279.3259-3.5558-1.071-3.5058-1.2791.0484-.202 1.8232.8323 4.0244.2984 1.3999-.3397 2.3982-1.2363 2.4513-1.1093.0703.1653-1.2014 1.7901-2.9699 2.09Zm-7.0413 8.496c1.4154-.1698 2.4684-.944 2.5137-.8109.0594.1729-1.3123 1.6386-3.0933 1.7258-1.9404.0949-3.47304-1.4933-3.41055-1.6937.06093-.1958 1.76225 1.0465 3.99015.7788Zm1.2686 3.4516c.0437-.205 1.8435.7436 4.0291.1056 1.3905-.407 2.3638-1.351 2.4216-1.2255.0734.1606-1.1545 1.8467-2.9152 2.2307-1.9154.4177-3.5793-.9012-3.5355-1.1108Zm4.0557-5.026c.0297-.2096 1.8857.511 4.0198-.3993 1.3576-.5783 2.2638-1.6401 2.3294-1.5239.0844.1515-1.0264 1.9829-2.7528 2.5857-1.8826.6564-3.6277-.4483-3.5964-.6625Zm.9749-4.414c.0703.1653-1.2014 1.7901-2.97 2.0885-1.9278.3258-3.5558-1.071-3.5058-1.2791.0485-.202 1.8232.8323 4.0245.2983 1.3998-.3381 2.3982-1.2347 2.4513-1.1077Z" clip-rule="evenodd" opacity=".1"/></svg>