<svg width="36" height="75" fill="none" xmlns="http://www.w3.org/2000/svg"><path d="M4.28 20.266c2.679-6.292 6.597-12.518 10.226-16.248C16.89 1.565 18.966.323 20.684.323l.073.002c5.674.118 8.861 16.17 9.313 27.53.133 3.334 1.197 6.085 2.322 8.999.471 1.22.95 2.457 1.367 3.76l.009.027c.005.013.01.024.012.038.74 2.313 1.29 4.837 1.29 7.862 0 6.826-.905 12.736-2.617 17.09-1.127 2.866-2.57 4.932-4.264 6.139-.797 1.262-1.781 2.082-2.895 2.288a3.24 3.24 0 0 1-.594.052c-1.304 0-2.827-.722-4.352-2.064a27.488 27.488 0 0 1-9.341-5.738c-3.23-3.029-5.642-6.774-7.168-11.132-1.7-4.854-2.292-10.472-1.765-16.723-.297.35-.464.39-.683.359a.49.49 0 0 1-.425-.376c-.928-4.522.248-10.975 3.313-18.17ZM1.76 37.286c.14-.21.314-.477.528-.818.87-1.39 2.142-3.554 3.778-6.435.122-.212.414-.298.656-.192.24.107.339.364.217.577-1.592 2.803-2.842 4.932-3.715 6.335-.795 6.856-.273 12.97 1.548 18.171 1.481 4.232 3.818 7.864 6.946 10.797a26.655 26.655 0 0 0 7.095 4.76c-1.988-2.314-3.848-5.653-5.08-9.78-.068-.23.088-.465.349-.526.26-.06.526.077.595.307 1.522 5.099 3.975 8.793 6.267 10.86.756.682 1.493 1.184 2.176 1.503.573.268 1.11.407 1.58.407.135 0 .267-.011.392-.034.315-.058.628-.199.932-.412.506-.352.988-.906 1.42-1.625.361-.6.69-1.314.964-2.126.908-2.678 1.205-6.134.833-9.73-.025-.236.173-.445.442-.467.27-.02.505.154.53.39.398 3.846.014 7.463-.922 10.165 2.989-3.798 4.8-11.282 4.8-20.87 0-2.927-.535-5.385-1.257-7.644-1.353-2.63-2.637-4.488-3.671-5.985-.517-.749-.966-1.397-1.35-2.03-.127-.21-.036-.47.201-.582.238-.111.533-.032.661.177.37.612.813 1.25 1.322 1.99.319.46.661.956 1.022 1.497-.97-2.559-1.806-5.073-1.925-8.08-.256-6.452-1.262-13.058-2.759-18.124-1.598-5.41-3.64-8.536-5.6-8.577l-.05-.001c-1.38 0-3.308 1.203-5.438 3.392-3.56 3.66-7.413 9.787-10.055 15.991-2.782 6.533-3.982 12.414-3.432 16.72Z" fill="#000"/><path d="M1.76 37.286c.142-.21.315-.477.529-.818.87-1.39 2.142-3.554 3.778-6.435.122-.212.414-.298.656-.192.24.107.339.364.217.577-1.592 2.803-2.842 4.932-3.715 6.335-.795 6.856-.274 12.97 1.548 18.171 1.481 4.232 3.818 7.864 6.946 10.797a26.653 26.653 0 0 0 7.095 4.76c-1.988-2.314-3.848-5.653-5.08-9.78-.068-.23.088-.465.349-.526.26-.06.526.077.595.307 1.522 5.099 3.974 8.793 6.266 10.86.757.682 1.494 1.184 2.177 1.503.573.268 1.109.407 1.58.407.135 0 .266-.011.391-.034.316-.058.628-.199.933-.412.506-.352.987-.906 1.42-1.625.361-.6.69-1.314.964-2.126.908-2.678 1.205-6.134.833-9.73-.025-.236.173-.445.442-.467.27-.02.505.154.53.39.398 3.846.014 7.463-.922 10.165 2.989-3.798 4.8-11.282 4.8-20.87 0-2.927-.535-5.385-1.257-7.644-1.353-2.63-2.637-4.488-3.671-5.985-.517-.749-.966-1.397-1.35-2.03-.127-.21-.036-.47.201-.582.238-.111.533-.032.661.177.37.612.813 1.25 1.322 1.99.319.46.66.956 1.022 1.497-.97-2.559-1.806-5.073-1.925-8.08-.256-6.452-1.262-13.058-2.76-18.124-1.597-5.41-3.64-8.536-5.6-8.577l-.05-.001c-1.38 0-3.307 1.203-5.437 3.392-3.56 3.66-7.413 9.787-10.055 15.991-2.782 6.533-3.982 12.414-3.432 16.72Z" fill="#6189CB"/><path opacity=".1" fill-rule="evenodd" clip-rule="evenodd" d="M20.473 71.248c-9.702-3.084-7.244-10.179-6.65-11.015 1.527 3.766 6.04 10.41 6.65 11.015ZM2.732 37.181c1.509-3.267 3.195-7.823 4.062-7.135.867.687-1.544 4.818-4.062 13.858-.767.663-.268-3.301 0-6.723Zm10.433-3.28c1.4-.305 2.398-1.11 2.45-.997.071.149-1.2 1.609-2.969 1.877-1.928.293-3.556-.962-3.506-1.15.049-.18 1.822.75 4.025.27Zm3.593-3.614c-1.928.293-3.556-.962-3.506-1.149.049-.182 1.823.748 4.025.268 1.4-.305 2.398-1.11 2.45-.997.071.149-1.2 1.609-2.969 1.879Zm4.146 3.32c-1.928.293-3.555-.963-3.506-1.15.049-.181 1.824.748 4.025.268 1.4-.305 2.398-1.11 2.451-.996.07.148-1.201 1.608-2.97 1.878Zm-7.041 7.635c1.415-.152 2.468-.848 2.514-.728.06.155-1.313 1.472-3.094 1.55-1.94.086-3.473-1.341-3.41-1.522.06-.175 1.762.941 3.99.7Zm1.269 3.102c.043-.184 1.843.669 4.029.095 1.39-.365 2.363-1.214 2.421-1.101.074.144-1.154 1.66-2.915 2.005-1.915.375-3.58-.81-3.535-.999Zm4.055-4.517c.03-.188 1.886.46 4.02-.358 1.358-.52 2.264-1.474 2.33-1.37.084.136-1.027 1.782-2.753 2.324-1.883.59-3.628-.403-3.597-.596Zm.975-3.966c.07.148-1.201 1.608-2.97 1.877-1.928.292-3.556-.963-3.505-1.15.048-.182 1.823.748 4.024.268 1.4-.304 2.398-1.11 2.451-.995Z" fill="#000"/><ellipse rx="6.624" ry="5.83" transform="matrix(-1 0 0 1 16.26 19.217)" fill="#7A0D0D"/><path fill-rule="evenodd" clip-rule="evenodd" d="M13.86 20.834c-.333-.014-.666-.237-.729-.288 0-.002-.002-.003-.003-.005.041-.08.093-.16.157-.239.06-.074.196-.119.363-.12h.041c.07.003.14.013.203.029a.447.447 0 0 1 .226.114.104.104 0 0 0 .133.017c.042-.028.051-.08.02-.118-.09-.105-.258-.168-.428-.195a1.216 1.216 0 0 0-.188-.015h-.012c-.23.003-.417.072-.513.19-.326.4-.357.836-.375 1.097a1.921 1.921 0 0 1-.015.154c-.15-.14-.492-.772-.43-1.515.067-.798.417-1.29.697-1.469a.35.35 0 0 1 .169-.066l.014.002a1.651 1.651 0 0 1 .323.11c.093.043.184.096.273.156.21.161.36.344.47.426.052.063.101.128.147.197.265.397.36.809.26 1.13-.061.198-.184.328-.612.393l-.076.01a.705.705 0 0 1-.116.005Z" fill="#FFED74"/><path fill-rule="evenodd" clip-rule="evenodd" d="M13.335 17.967a.31.31 0 0 1 .087-.079.287.287 0 0 1 .125-.037l.03-.001c.144 0 .305.072.399.134.22.145.293.419.317.569.02.129.017.24.006.323a2.469 2.469 0 0 0-.372-.316 1.733 1.733 0 0 0-.418-.241 1.319 1.319 0 0 0-.191-.055c-.026-.008-.032-.012-.039-.02-.016-.018-.026-.065-.014-.127a.363.363 0 0 1 .07-.15Z" fill="#CFD0D2"/><path fill-rule="evenodd" clip-rule="evenodd" d="M20.033 18.6c-.293 0-1.051-.361-1.192-.361-.028 0-.032.015-.001.05.794.914.958 1.84.82 1.931a.027.027 0 0 1-.015.004c-.146 0-.855-.736-1.106-.736a.089.089 0 0 0-.043.01c-.245.133.55 1.615.334 1.721a.06.06 0 0 1-.027.006c-.172 0-.624-.544-.867-.544a.132.132 0 0 0-.05.01c-.267.11.085 1.128-.182 1.234a.128.128 0 0 1-.047.009c-.235 0-.652-.548-.956-.548a.22.22 0 0 0-.065.01c-.336.103-.08.917-.487 1.058a.215.215 0 0 1-.086.018c-.29 0-.503-.625-.771-.625-.01 0-.02 0-.03.002-.336.06-.2.74-.495.74h-.002c-.234-.002-.513-1.01-.663-1.598.448-.069.663-.217.755-.513.113-.364.01-.823-.28-1.26a2.422 2.422 0 0 0-.125-.169c.099-.254.068-.918-.362-1.2a1.028 1.028 0 0 0-.494-.167c.029-.083.065-.163.11-.242.496-.855 1.62-1.608 2.855-1.608.172 0 .347.015.523.046 3.078.548 3.313 2.456 3.044 2.696-.02.018-.052.025-.095.025Z" fill="#fff"/><path fill-rule="evenodd" clip-rule="evenodd" d="M19.25 18.37c.274.104.609.23.782.23.043 0 .075-.008.095-.026.27-.24.034-2.148-3.044-2.696a2.992 2.992 0 0 0-.523-.046c-1.235 0-2.359.753-2.855 1.608a1.387 1.387 0 0 0-.11.242c.202.006.397.103.494.167.43.282.461.946.362 1.2.044.055.085.111.124.17.292.436.394.895.28 1.259-.091.296-.306.444-.754.513.15.588.43 1.596.663 1.597h.003c.143 0 .184-.162.228-.335.046-.18.094-.373.266-.404a.165.165 0 0 1 .03-.002c.131 0 .249.15.37.303.125.16.253.322.401.322a.215.215 0 0 0 .086-.018c.213-.074.244-.332.274-.576.027-.222.052-.433.213-.482a.221.221 0 0 1 .066-.01c.16 0 .354.155.535.3.16.128.31.248.42.248a.127.127 0 0 0 .047-.009c.134-.053.112-.334.091-.616-.021-.281-.043-.563.09-.619a.132.132 0 0 1 .051-.009c.132 0 .326.16.503.307.148.124.285.237.364.237a.06.06 0 0 0 .027-.006c.104-.05-.027-.421-.163-.806-.146-.415-.298-.846-.17-.915a.089.089 0 0 1 .042-.01c.143 0 .432.237.683.442.191.156.36.294.423.294a.027.027 0 0 0 .015-.004c.138-.09-.026-1.017-.82-1.931-.03-.035-.027-.05.001-.05.058 0 .219.06.41.132Zm-6.11 2.184c.062.051.395.274.727.288.04.002.078 0 .116-.004l.076-.01c.428-.065.55-.195.613-.394.1-.32.004-.733-.261-1.13a2.304 2.304 0 0 0-.147-.196c-.046-.035-.1-.088-.16-.149-.086-.084-.188-.184-.31-.278a1.959 1.959 0 0 0-.273-.155 1.621 1.621 0 0 0-.337-.112.351.351 0 0 0-.169.066c-.28.178-.63.67-.697 1.468-.062.744.28 1.374.43 1.515.007-.041.011-.102.015-.154.018-.26.05-.697.375-1.097.096-.118.284-.187.514-.19h.012c.06 0 .124.005.188.015.169.027.337.09.427.195.031.038.023.09-.02.118a.104.104 0 0 1-.133-.017.447.447 0 0 0-.226-.114.977.977 0 0 0-.236-.029h-.008c-.167.002-.303.047-.363.12a1.386 1.386 0 0 0-.157.24l.003.004Zm.272-2.674a.364.364 0 0 0-.157.229c-.012.062-.001.108.014.127.007.007.014.012.039.02l.048.012a1.318 1.318 0 0 1 .188.06c.143.061.266.14.373.223.132.091.257.197.372.316a1.134 1.134 0 0 0-.006-.323c-.024-.15-.096-.424-.317-.569a.803.803 0 0 0-.424-.133h-.004a.288.288 0 0 0-.126.038Zm3.148-2.216c.188 0 .377.017.561.05 2.372.422 3.022 1.602 3.191 2.09.134.386.114.743-.049.888a.335.335 0 0 1-.23.075c-.178 0-.424-.08-.745-.2.471.677.642 1.322.6 1.593a.27.27 0 0 1-.114.195.234.234 0 0 1-.13.037c-.133 0-.258-.098-.553-.34-.11-.089-.305-.249-.442-.336.007.038.018.087.036.15.04.147.103.325.164.497.07.2.137.388.175.542.032.128.091.366-.101.461a.273.273 0 0 1-.12.027c-.155 0-.298-.118-.496-.283a2.458 2.458 0 0 0-.328-.243c-.02.1-.003.309.006.43v.001c.027.364.051.679-.203.78a.337.337 0 0 1-.126.024c-.183 0-.352-.135-.548-.292-.12-.095-.32-.256-.407-.256h-.003c-.001.001-.021.015-.042.084-.021.07-.032.16-.044.257-.032.268-.072.6-.387.713a.428.428 0 0 1-.163.032c-.248 0-.413-.21-.559-.395-.056-.072-.159-.202-.212-.228-.047.025-.089.19-.11.272-.023.093-.047.19-.09.269a.357.357 0 0 1-.324.198h-.004c-.224-.001-.382-.218-.58-.8-.11-.32-.209-.695-.273-.945-.345.003-.688-.185-.847-.296-.083.227-.098.442-.11.604-.012.187-.021.31-.146.335a.159.159 0 0 1-.03.002.22.22 0 0 1-.134-.052c-.22-.169-.582-.87-.515-1.668.072-.854.447-1.383.775-1.592a.664.664 0 0 1 .18-.084c-.05-.162.044-.401.234-.512a.464.464 0 0 1 .07-.033c.034-.121.083-.238.149-.351.266-.46.697-.881 1.213-1.188a3.56 3.56 0 0 1 1.81-.512Zm-2.639 2.69a.104.104 0 0 1-.056-.017l-.105-.067c-.042-.027-.052-.08-.02-.117a.104.104 0 0 1 .133-.018l.105.067c.042.027.052.08.02.117a.1.1 0 0 1-.077.035Z" fill="#000"/><path fill-rule="evenodd" clip-rule="evenodd" d="M16.612 17.37c-.024.257-.26.467-.547.489-.307.023-.59-.17-.645-.44-.01-.046-.059-.077-.11-.069-.053.009-.087.052-.078.098.068.335.405.58.784.58.021 0 .044 0 .066-.002.378-.029.688-.304.72-.641.005-.046-.035-.087-.087-.09-.052-.005-.099.03-.103.076Z" fill="#000"/></svg>