<svg xmlns="http://www.w3.org/2000/svg" fill="none" viewBox="0 0 52 126"><path fill="#000" d="M46.1855 33.9877C42.1665 23.2638 36.289 12.6525 30.845 6.29462 27.2712 2.11617 24.1544 0 21.5789 0c-.0375 0-.075.0023422-.1102.0023422C12.9572.203883 8.17644 27.5618 7.49917 46.9237c-.19919 5.6807-1.79511 10.37-3.48243 15.3358-.70773 2.0811-1.42484 4.1879-2.05055 6.4072-.00469.0164-.00938.0328-.01406.0468-.00703.0235-.01406.0422-.01875.0656C.824909 72.7209 0 77.0235 0 82.1792c0 11.6331 1.35688 21.7058 3.92535 29.1268 1.68966 4.884 3.85504 8.404 6.39535 10.462 1.1952 2.151 2.6716 3.548 4.3425 3.899.2883.061.5859.089.8906.089 1.9568 0 4.2417-1.23 6.5289-3.517 4.0285-1.652 9.2334-4.689 14.0118-9.78 4.844-5.162 8.4623-11.546 10.7519-18.9724 2.5497-8.2725 3.4379-17.8481 2.6481-28.5016.4453.5953.6961.6656 1.0242.6117.3257-.0539.5764-.3047.6374-.6398 1.392-7.7077-.3726-18.7057-4.9706-30.9692Zm3.7777 29.0077c-.2109-.3585-.471-.8132-.7921-1.3944-1.3053-2.3692-3.2129-6.0579-5.6665-10.9675-.1828-.3609-.621-.5086-.9843-.3281-.3609.1828-.5085.621-.3257.9843 2.388 4.776 4.2628 8.4061 5.5728 10.7964 1.1928 11.6847.4101 22.1038-2.3224 30.9693-2.2216 7.2136-5.7275 13.4026-10.4192 18.4006-3.78 4.029-7.6866 6.576-10.6418 8.114 2.981-3.944 5.7721-9.634 7.6187-16.67.1031-.391-.1312-.792-.5226-.895-.3913-.103-.7897.131-.8928.523-2.2826 8.689-5.9619 14.986-9.3998 18.509-1.1342 1.162-2.2404 2.017-3.2645 2.561-.86.457-1.6639.694-2.3692.694-.2039 0-.4008-.019-.5883-.059-.4734-.098-.942-.337-1.399-.701-.7593-.599-1.4811-1.544-2.1303-2.77-.5413-1.024-1.0334-2.24-1.44589-3.623-1.36157-4.565-1.80684-10.454-1.24909-16.582.0375-.403-.26012-.7594-.6632-.7969-.40543-.0351-.75696.2629-.79445.6629-.59759 6.557-.02109 12.721 1.38266 17.326-4.4831-6.473-7.20155-19.2286-7.20155-35.5698 0-4.9869.80382-9.1771 1.88651-13.0274C5.38065 64.671 7.307 61.5026 8.8584 58.9529c.77569-1.2772 1.4483-2.381 2.0248-3.4614.1898-.3562.0539-.8014-.3023-.9912-.3562-.1899-.79917-.054-.99134.3023-.5554 1.0428-1.21861 2.1302-1.98259 3.391-.47807.7851-.9913 1.6287-1.53264 2.5521 1.4553-4.3613 2.70908-8.6475 2.88718-13.7704.38433-10.998 1.89359-22.2561 4.13859-30.8896 2.3974-9.22161 5.4604-14.54837 8.4014-14.61868.0258 0 .0493-.00234.075-.00234 2.0693 0 4.9612 2.05056 8.1554 5.7814C35.0727 13.4845 40.8517 23.927 44.8146 34.5009c4.1737 11.1339 5.9736 21.157 5.1486 28.4945Z"/><path fill="#FFF6A6" d="M49.9633 62.9953c-.2109-.3585-.4711-.8132-.7921-1.3944-1.3053-2.3692-3.2129-6.0579-5.6666-10.9675-.1828-.3609-.621-.5085-.9842-.3281-.3609.1828-.5086.621-.3258.9843 2.388 4.776 4.2628 8.4061 5.5728 10.7964 1.1929 11.6847.4101 22.1038-2.3224 30.9693-2.2216 7.2137-5.7275 13.4027-10.4191 18.4007-3.7801 4.029-7.6867 6.576-10.6418 8.114 2.9809-3.945 5.772-9.635 7.6187-16.67.1031-.391-.1313-.792-.5226-.895-.3914-.103-.7898.131-.8929.523-2.2826 8.689-5.9618 14.986-9.3998 18.509-1.1342 1.162-2.2403 2.017-3.2644 2.561-.8601.457-1.6639.694-2.3693.694-.2039 0-.4007-.019-.5882-.059-.4734-.098-.9421-.337-1.3991-.701-.7593-.6-1.4811-1.544-2.1302-2.77-.5414-1.024-1.0335-2.24-1.44595-3.623-1.36157-4.565-1.80684-10.454-1.24909-16.582.0375-.403-.26012-.7595-.6632-.797-.40543-.0351-.75696.262-.79445.663-.59759 6.557-.02109 12.721 1.38266 17.326-4.4831-6.473-7.20155-19.2287-7.20155-35.5699 0-4.9869.80382-9.1771 1.88651-13.0274 2.02946-4.4808 3.95581-7.6492 5.5072-10.1989.7757-1.2772 1.44827-2.381 2.02477-3.4613.1898-.3562.0539-.8015-.3023-.9913-.3562-.1899-.79913-.0539-.9913.3023-.5554 1.0428-1.21861 2.1302-1.98259 3.391-.47807.7851-.9913 1.6287-1.53264 2.5521 1.4553-4.3613 2.70907-8.6475 2.88718-13.7704.38433-10.998 1.89355-22.2561 4.13865-30.8896 2.3973-9.22159 5.4603-14.54835 8.4014-14.61866.0258 0 .0492-.00234.075-.00234 2.0693 0 4.9611 2.05055 8.1553 5.78139C35.0727 13.4844 40.8518 23.927 44.8146 34.5008c4.1738 11.1339 5.9736 21.157 5.1487 28.4945Z"/><path fill="#000" fill-rule="evenodd" d="M21.8952 120.877c14.5531-5.256 10.8668-17.349 9.9739-18.773-2.2896 6.418-9.0599 17.742-9.9739 18.773Zm26.6127-58.062c-2.2638-5.5681-4.7924-13.3321-6.0931-12.1603-1.3006 1.1717 2.3154 8.2115 6.0931 23.62 1.1507 1.1296.4007-5.6267 0-11.4597Zm-15.6498-5.5892c-2.0998-.5203-3.5973-1.8935-3.677-1.699-.1054.2531 1.8022 2.7419 4.455 3.1988 2.8919.4992 5.3338-1.6404 5.2588-1.9591-.0726-.307-2.7325 1.2772-6.0368.4593Zm-5.3901-6.1587c2.8919.4992 5.3338-1.6404 5.2588-1.9592-.0726-.3093-2.7348 1.2749-6.0368.457-2.0998-.5202-3.5973-1.8935-3.6769-1.699-.1055.2531 1.8021 2.7419 4.4549 3.2012Zm-6.2196 5.6572c2.8919.4992 5.3338-1.6405 5.2588-1.9592-.0726-.3093-2.7349 1.2749-6.0368.457-2.0998-.5202-3.5973-1.8935-3.677-1.699-.1054.2531 1.8022 2.7419 4.455 3.2012Zm10.5621 13.0134c-2.1232-.2601-3.7027-1.4459-3.7707-1.2421-.089.2649 1.9686 2.5099 4.6402 2.6435 2.9106.1453 5.2095-2.2872 5.1158-2.5942-.0914-.3-2.6435 1.6029-5.9853 1.1928Zm-1.9029 5.2869c-.0656-.314-2.7653 1.1389-6.0439.1617-2.0857-.6234-3.5457-2.0693-3.6324-1.8771-.1101.246 1.7319 2.8286 4.373 3.4168 2.8731.6398 5.3689-1.3803 5.3033-1.7014Zm-6.0837-7.6984c-.0445-.321-2.8286.7828-6.0298-.6116-2.0365-.8858-3.3957-2.5122-3.4941-2.3341-.1266.232 1.5396 3.0371 4.1292 3.9605 2.8239 1.0053 5.4416-.6867 5.3947-1.0148Zm-1.4623-6.7609c-.1055.2531 1.8021 2.7419 4.4549 3.1988 2.8919.4992 5.3338-1.6404 5.2588-1.9591-.0726-.3094-2.7348 1.2748-6.0368.457-2.0998-.5179-3.5973-1.8912-3.6769-1.6967Z" clip-rule="evenodd" opacity=".1"/></svg>