<svg width="32" height="32" fill="none" xmlns="http://www.w3.org/2000/svg"><path fill-rule="evenodd" clip-rule="evenodd" d="M9.403.096C11.11.018 11.655 0 16 0c4.345 0 4.89.018 6.597.096C24.3.174 25.463.444 26.48.84a7.844 7.844 0 0 1 2.834 1.846 7.842 7.842 0 0 1 1.846 2.833c.395 1.018.666 2.181.744 3.884C31.98 11.11 32 11.655 32 16c0 4.345-.019 4.89-.096 6.597-.078 1.703-.349 2.866-.744 3.883a7.844 7.844 0 0 1-1.846 2.834 7.844 7.844 0 0 1-2.834 1.846c-1.017.395-2.18.666-3.883.744C20.89 31.98 20.345 32 16 32c-4.345 0-4.89-.019-6.597-.096-1.703-.078-2.866-.349-3.884-.744a7.842 7.842 0 0 1-2.834-1.846A7.844 7.844 0 0 1 .84 26.48C.444 25.463.174 24.3.096 22.598.018 20.89 0 20.345 0 16c0-4.345.018-4.89.096-6.597C.174 7.7.444 6.537.84 5.52a7.842 7.842 0 0 1 1.845-2.833A7.842 7.842 0 0 1 5.52.84C6.537.444 7.7.174 9.403.096Zm13.062 2.88C20.778 2.9 20.272 2.883 16 2.883s-4.778.016-6.465.093c-1.56.071-2.408.332-2.971.551-.747.29-1.28.637-1.84 1.197a4.957 4.957 0 0 0-1.197 1.84c-.22.563-.48 1.41-.55 2.97-.078 1.688-.094 2.194-.094 6.466s.016 4.778.093 6.465c.071 1.56.332 2.407.551 2.971.29.747.637 1.28 1.197 1.84s1.093.907 1.84 1.197c.563.219 1.41.48 2.97.55 1.688.078 2.193.094 6.466.094 4.272 0 4.778-.016 6.465-.093 1.56-.071 2.407-.332 2.971-.551a4.956 4.956 0 0 0 1.84-1.197c.56-.56.907-1.093 1.197-1.84.219-.564.48-1.41.55-2.97.078-1.688.094-2.194.094-6.466s-.016-4.778-.093-6.465c-.072-1.56-.332-2.408-.551-2.971a4.958 4.958 0 0 0-1.197-1.84 4.958 4.958 0 0 0-1.84-1.197c-.564-.219-1.41-.48-2.97-.55Z" fill="url(#a)"/><path fill-rule="evenodd" clip-rule="evenodd" d="M7.784 16a8.216 8.216 0 1 1 16.432 0 8.216 8.216 0 0 1-16.432 0Zm2.883 0a5.333 5.333 0 1 0 10.666 0 5.333 5.333 0 0 0-10.666 0Z" fill="url(#b)"/><path d="M26.46 7.46a1.92 1.92 0 1 1-3.84 0 1.92 1.92 0 0 1 3.84 0Z" fill="url(#c)"/><defs><linearGradient id="a" x1="3.354" y1="-6.371" x2="-5.997" y2="24.523" gradientUnits="userSpaceOnUse"><stop stop-color="#515BD4"/><stop offset=".26" stop-color="#9510B8"/><stop offset=".66" stop-color="#E51804"/><stop offset="1" stop-color="#FEDA77"/></linearGradient><linearGradient id="b" x1="3.354" y1="-6.371" x2="-5.997" y2="24.523" gradientUnits="userSpaceOnUse"><stop stop-color="#515BD4"/><stop offset=".26" stop-color="#9510B8"/><stop offset=".66" stop-color="#E51804"/><stop offset="1" stop-color="#FFBF00"/></linearGradient><linearGradient id="c" x1="3.354" y1="-6.371" x2="-5.997" y2="24.523" gradientUnits="userSpaceOnUse"><stop stop-color="#515BD4"/><stop offset=".26" stop-color="#9510B8"/><stop offset=".66" stop-color="#E51804"/><stop offset="1" stop-color="#FFBF00"/></linearGradient></defs></svg>