<svg xmlns="http://www.w3.org/2000/svg" fill="none" viewBox="0 0 470 470"><path fill="#595959" fill-rule="evenodd" d="m220.368 440.509 11.857.558L230.861 470l-11.857-.559 1.364-28.932Zm63.264-17.154 10.666 39.416-11.458 3.101-10.666-39.417 11.458-3.1Zm-98.785-1.477c.311.045.748.136 1.316.278l.251.064 1.667.427c4.292 1.1 7.531 2.29 9.717 3.564 2.185 1.276 3.616 2.818 4.297 4.625.634 1.674.778 3.693.439 6.057-.341 2.362-1.102 5.845-2.28 10.443-1.032 4.024-1.913 7.097-2.64 9.219-.728 2.121-1.62 3.803-2.672 5.043-1.18 1.414-2.674 2.337-4.48 2.773-1.707.412-3.903.424-6.589.037l-.479-.072 5.132-20.007c.854-3.335 1.396-5.525 1.622-6.57.326-1.589.409-2.783.246-3.582-.164-.797-.609-1.37-1.335-1.72-.739-.312-1.816-.651-3.234-1.014-1.545-.396-2.603-.595-3.171-.598l-.107.002 2.3-8.969Zm-2.946-.514.487.068-5.131 20.007c-.58 2.261-1.098 4.436-1.551 6.525-.327 1.592-.42 2.794-.282 3.605.139.812.577 1.372 1.316 1.684.611.322 1.684.677 3.218 1.071 1.466.376 2.511.591 3.136.644l.127.009-2.285 8.911c-.311-.044-.749-.136-1.317-.277l-.251-.063-1.667-.427c-5.597-1.435-9.463-3.08-11.601-4.937-1.107-.937-1.893-2.018-2.356-3.238-.463-1.221-.669-2.643-.622-4.265.037-1.42.242-3.011.613-4.775.37-1.764.968-4.256 1.794-7.475 1.032-4.025 1.909-7.088 2.633-9.189.722-2.103 1.616-3.794 2.678-5.073 1.171-1.375 2.648-2.283 4.437-2.723 1.688-.415 3.896-.442 6.624-.082Zm-33.543-13.246 5.469 2.731c2.512 1.257 4.424 2.521 5.734 3.796 1.309 1.274 2.132 2.636 2.469 4.087.3 1.345.23 2.792-.211 4.339-.443 1.549-1.22 3.439-2.335 5.668-1.433 2.868-2.804 4.947-4.113 6.239-1.652 1.534-3.552 2.281-5.701 2.242l-.324-.012-1.298 16.404-11.148-5.572 1.537-14.758-2.124-1.063 4.059-8.121 1.805.901c1.097.548 1.952.921 2.562 1.115.61.195 1.137.247 1.58.159.406-.105.787-.381 1.14-.823.354-.443.77-1.142 1.247-2.097.478-.956.791-1.717.942-2.283.15-.567.145-1.044-.013-1.433-.16-.39-.496-.756-1.009-1.102-.471-.316-1.216-.733-2.236-1.25l-.285-.143-1.806-.902 4.059-8.122Zm149.198 12.252.366.009c1.926.073 3.502.558 4.728 1.456 1.168.833 2.124 2.019 2.869 3.558.744 1.542 1.454 3.554 2.125 6.035.641 2.369 1.03 4.375 1.168 6.018.138 1.643-.07 3.115-.621 4.411-.624 1.481-1.739 2.775-3.344 3.886-1.511 1.046-3.58 1.942-6.206 2.691l-.499.139-4.755 1.287-2.372-8.766 1.374-.373c1.223-.33 2.117-.623 2.683-.88.566-.255.975-.602 1.225-1.038.262-.398.36-.905.295-1.525-.065-.617-.257-1.518-.577-2.702-.321-1.183-.609-2.059-.865-2.625-.256-.566-.601-.975-1.038-1.225-.426-.212-.959-.285-1.596-.215-.579.064-1.384.231-2.415.501l-.316.084-1.374.373-2.373-8.766 4.755-1.287c2.473-.669 4.602-1.017 6.386-1.045l.377-.001Zm21.758-10.07 9.459 18.359c1.071 2.077 2.128 4.047 3.178 5.909.813 1.406 1.542 2.366 2.185 2.88.642.514 1.343.644 2.101.386.671-.167 1.709-.614 3.116-1.338 1.346-.693 2.27-1.228 2.773-1.603l.101-.078 4.213 8.179c-.261.172-.651.395-1.168.666l-.23.12-1.53.788c-5.136 2.646-9.118 3.986-11.949 4.019-1.451.037-2.756-.249-3.913-.854-1.157-.606-2.256-1.529-3.299-2.773-.915-1.086-1.821-2.411-2.714-3.977-.897-1.563-2.104-3.823-3.627-6.778-1.903-3.693-3.282-6.565-4.138-8.618-.857-2.05-1.313-3.907-1.368-5.57-.041-1.803.461-3.464 1.506-4.981 1.043-1.517 2.811-3.096 5.304-4.736Zm-183.803-8.604 10.618 5.306-18.256 36.527-10.618-5.307 18.256-36.526Zm204.78 2.537c1.584.829 3.035 2.242 4.351 4.234 1.316 1.993 3.062 5.101 5.236 9.32 1.903 3.694 3.287 6.575 4.153 8.643.865 2.07 1.316 3.917 1.354 5.545.057 1.84-.444 3.524-1.505 5.048-1.002 1.442-2.636 2.911-4.9 4.406l-.406.264-9.46-18.361c-1.576-3.06-2.626-5.056-3.151-5.987-.813-1.405-1.546-2.352-2.197-2.84-.652-.489-1.367-.621-2.142-.399-.758.257-1.789.721-3.088 1.39-1.419.732-2.342 1.285-2.768 1.661l-.079.072-4.24-8.229c.261-.174.65-.396 1.167-.668l.23-.119 1.53-.788c3.939-2.03 7.15-3.294 9.629-3.794 2.481-.499 4.576-.298 6.286.602Zm-130.096 23.914 33.378 1.572-.446 9.486-33.378-1.573.446-9.485Zm-95.496-41.929 4.787 3.802c2.199 1.748 3.808 3.38 4.827 4.897 1.018 1.517 1.542 3.02 1.572 4.508.018 1.378-.35 2.779-1.101 4.202-.753 1.426-1.904 3.114-3.455 5.064-1.993 2.51-3.764 4.263-5.312 5.256-1.932 1.16-3.946 1.5-6.04 1.019l-.315-.078-4.654 15.782-9.7589-7.753 4.5487-14.124-1.8589-1.475 5.6481-7.11 1.58 1.253c.96.763 1.719 1.303 2.276 1.62.556.316 1.062.478 1.513.481.42-.02.848-.209 1.286-.57.437-.359.989-.958 1.654-1.793.664-.837 1.128-1.517 1.392-2.041.264-.523.358-.991.283-1.405-.077-.413-.33-.842-.76-1.286-.396-.407-1.039-.967-1.931-1.684l-.249-.2-1.58-1.254 5.648-7.111Zm264.308 24.013 5.821 7.2-.508.411c-3.078 2.488-6.05 4.663-8.921 6.525-1.58 1.042-2.825 1.81-3.737 2.308l-.19.103-5.448-6.738c1.94-1.314 4.142-2.839 6.605-4.576 1.526-1.132 2.597-1.946 3.213-2.445 1.661-1.344 2.716-2.272 3.165-2.788Zm-275.556-32.946 9.295 7.383-25.3978 31.973-9.2944-7.382 25.3972-31.974Zm250.889 11.216 7.501 9.278c.323.4.612.725.867.977.254.253.49.419.707.497.241.111.501.118.779.02.237-.084.541-.247.91-.493l.189-.13 7.004-4.365c1.471-.884 2.736-1.525 3.791-1.919 1.054-.395 2.11-.535 3.168-.424 2.553.327 5.323 2.336 8.308 6.028 3.16 3.909 4.511 7.343 4.057 10.306-.197 1.33-.712 2.597-1.542 3.803-.748 1.085-1.727 2.204-2.938 3.354l-.413.385-7.835-9.692c-.522-.647-.947-1.078-1.276-1.296-.329-.217-.645-.293-.947-.227-.269.059-.645.235-1.127.527l-.186.115-6.237 3.897c-3.652 2.342-6.797 3.079-9.434 2.208-1.145-.345-2.258-.998-3.337-1.957-1.08-.959-2.267-2.238-3.561-3.838-2.761-3.415-3.875-6.586-3.339-9.512.42-2.374 2.05-4.888 4.891-7.542ZM84.4816 355.715l6.899 8.389-23.28 35.975-7.6908-9.35 4.2722-6.203-6.296-7.655 8.6427-3.882 3.0162 3.668 14.4367-20.942ZM409.87 379.539l7.087 5.958-.42.499c-2.546 3.03-5.051 5.731-7.513 8.107-1.352 1.322-2.429 2.315-3.228 2.979l-.167.137-6.633-5.576c1.654-1.659 3.525-3.576 5.61-5.751 1.283-1.403 2.178-2.407 2.689-3.014 1.374-1.634 2.233-2.748 2.575-3.339Zm-40.936-1.309 5.372 6.646c-1.114.698-3.036 1.972-5.764 3.821-1.465 1.083-2.629 1.973-3.49 2.668-.923.747-1.786 1.481-2.589 2.201l-.475.43-5.783-7.154 1.153-.933c2.523-2.04 5.276-3.985 8.257-5.836.96-.573 2.068-1.187 3.319-1.843Zm46.998-12.36c3.846 3.234 5.828 6.349 5.948 9.342.06 1.344-.204 2.687-.789 4.029-.527 1.208-1.275 2.493-2.244 3.853l-.331.456-9.541-8.02c-.636-.535-1.135-.877-1.5-1.029-.364-.151-.689-.164-.973-.041-.253.109-.588.353-1.006.731l-.161.148-5.378 5.017c-3.14 2.995-6.085 4.318-8.84 3.966-1.189-.12-2.407-.55-3.649-1.285-1.244-.735-2.653-1.764-4.228-3.087-3.362-2.827-5.059-5.726-5.093-8.701-.038-2.318.997-4.977 3.106-7.975l.258-.362 9.132 7.676c.394.331.74.596 1.038.795.298.199.561.317.789.352.259.063.514.019.768-.129.218-.127.484-.346.8-.657l.162-.163 6.042-5.621c1.276-1.149 2.395-2.019 3.354-2.608.962-.587 1.971-.927 3.029-1.019 2.57-.166 5.672 1.278 9.307 4.332ZM82.1443 352.874l.641.778-9.5817 13.951-23.3132 10.337-7.54-9.167 39.7939-15.899Zm311.7337-2.828 6.542 5.5c-.747.697-1.907 1.83-3.479 3.397l-.86.86c-.192.192-.389.39-.591.593-1.232 1.342-2.204 2.438-2.917 3.285-.764.909-1.471 1.794-2.122 2.653l-.385.513-7.041-5.919.955-1.136c2.087-2.484 4.419-4.918 6.992-7.304.833-.746 1.803-1.56 2.906-2.442ZM246.482 106.907c6.012 0 12.037.602 17.908 1.788 75.673 15.3 96.413 58.104 101.816 75.797 4.268 13.971 3.639 26.904-1.564 32.179-1.783 1.809-4.26 2.724-7.366 2.724-5.521 0-13.167-2.812-23.136-6.984l-.626-.262.449.735c14.712 24.262 20.042 47.29 18.699 57-.445 3.215-1.664 5.591-3.622 7.059-1.188.89-2.62 1.361-4.142 1.361-4.241 0-8.231-3.549-17.647-12.294-3.375-3.136-9.317-8.656-13.647-11.89l-.457-.338.046.281c.222 1.336.564 3.027 1.082 5.153 1.102 4.512 2.694 9.792 4.325 15.065l.613 1.976c.102.329.204.657.306.985 2.248 7.24 4.373 14.078 5.6 19.667 1.016 4.632 2.909 13.255-3.242 16.704-1.155.648-2.486.991-3.849.991-4.925 0-9.486-4.301-15.799-10.253-2.696-2.541-7.247-6.831-10.16-8.653l-.317-.192-.055.362c-.519 3.737-.035 11.005.25 15.279.879 13.205 1.638 24.61-6.463 28.276-1.252.567-2.602.855-4.014.855-5.87 0-11.254-4.894-17.487-10.559-3.744-3.402-9.958-9.05-12.837-9.275l-.172-.006-.042.001c-.036.002-.053.006-.057.006-.007.005-.663.479-1.335 3.026-.668 2.539-1.021 5.845-1.394 9.345-.138 1.298-.282 2.638-.45 3.996l-.094.743c-1.116 8.553-3.364 17.618-11.811 21.082-1.677.78-3.422 1.177-5.189 1.177-7.925 0-13.188-7.609-17.83-14.322-1.747-2.526-4.88-7.055-6.627-8.186l-.16-.096-.115.08c-1.45 1.145-2.732 6.912-3.374 9.802l-.15.675c-.705 3.154-1.464 6.366-2.743 9.053-2.93 6.15-7.585 7.162-10.195 7.197l-.143.001h-.116c-7.164-.06-12.183-7.93-18.518-29.04-3.396-11.316-6.498-24.49-8.545-33.565l-.156-.69h-.516l-.517-.009c-10.495-.294-20.737-6.596-25.735-10.518l-.245-.194-.229.725c-2.45 7.962-2.914 15.471-3.269 21.192-.42 6.777-.697 11.253-4.702 12.119-.315.069-.634.102-.956.102-1.38.001-2.805-.632-4.246-1.884-7.047-6.128-18.568-31.579-16.44-60.483 2.279-30.976 14.27-50.134 24.731-57.734 1.984-1.442 3.902-2.448 5.706-3.013-1.55-5.877 1.433-14.561 7.488-18.568.728-.483 1.475-.875 2.234-1.202 1.109-4.407 2.661-8.644 4.746-12.729 8.505-16.666 22.255-31.959 38.72-43.059 18.008-12.143 37.99-18.561 57.782-18.561Zm157.774 224.697 35.708 19.807-5.757 10.38-35.709-19.807 5.758-10.38ZM246.482 112.996l-1.181.008c-38.93.538-74.231 27.591-89.897 58.289-1.445 2.832-2.606 5.754-3.528 8.773 6.44.198 12.69 3.735 15.785 6.045 13.713 10.232 14.697 34.291 11.535 43.517 1.396 1.981 2.729 4.023 3.971 6.135 9.297 15.818 12.558 32.459 8.946 45.658-2.939 10.73-9.788 16.1-24.095 18.612 1.491 6.607 3.375 14.675 5.489 22.666l.412 1.545c4.561 16.978 10.111 33.154 15.056 33.672l.224.013h.066c4.624 0 5.915-5.989 7.323-12.32l.143-.645.174-.772.178-.772c1.35-5.779 3.127-11.303 7.948-12.284.325-.066.648-.098.968-.098 3.696 0 7.065 4.252 10.45 9.075l.441.632c.148.211.295.424.442.636l1.108 1.6c.149.215.298.429.447.642l.447.638c3.438 4.875 6.991 9.273 11.006 9.458l.262.006.298-.008c.797-.042 1.61-.253 2.446-.66 6.238-2.457 7.595-10.531 8.506-18.678l.112-1.018.085-.795c.071-.661.141-1.32.212-1.974l.087-.782c.805-7.142 1.92-13.506 6.526-15.115.58-.203 1.179-.313 1.793-.34l.307-.007.37.01c4.454.226 9.635 4.467 14.652 8.97l.834.752.326.296.651.59c5.082 4.619 9.88 9.035 13.438 9.217l.225.005.263-.008c.435-.028.848-.126 1.24-.303 8.512-3.853-2.711-40.75 5.785-44.757.426-.2.884-.309 1.369-.336l.244-.007.28.009c3.255.191 7.604 3.64 11.963 7.603l.654.598c.217.2.435.402.653.603l.754.704.305.285.609.572.605.57c4.727 4.456 9.104 8.616 11.672 8.788l.162.005.19-.008c.248-.022.475-.089.682-.204 3.37-1.891-1.003-15.751-5.418-29.967l-.541-1.741c-4.406-14.226-8.539-28.333-4.698-30.707.333-.205.718-.318 1.15-.346l.219-.007.245.008c3.862.246 10.814 6.153 17.578 12.345l.862.791c7.173 6.603 13.974 13.27 16.458 13.529l.143.008.114-.006c.146-.015.272-.06.376-.138 4.396-3.296-.849-36.882-26.184-70.026-.97-1.269-.861-1.797.042-1.797 2.27 0 9.569 3.334 17.44 6.632l.987.412c7.252 3.016 14.83 5.884 19.303 6.01l.3.004.267-.004c1.23-.034 2.18-.314 2.764-.906 8.598-8.719 1.089-77.875-97.124-97.731-5.605-1.134-11.19-1.669-16.701-1.669ZM64.803 325.4l2.31 4.351c1.371 2.586 2.2352 4.828 2.5913 6.721.3549 1.895.2314 3.539-.3728 4.934-.5519 1.323-1.4968 2.519-2.8334 3.587-1.3378 1.067-3.1421 2.204-5.414 3.41-2.1675 1.149-4.0371 1.973-5.6087 2.472-1.5728.497-3.0519.622-4.4383.372-1.5823-.281-3.0922-1.081-4.5321-2.4-1.3541-1.241-2.6871-3.059-3.9981-5.455l-.2455-.456-2.31-4.352 8.022-4.255.6682 1.258c.5936 1.118 1.0767 1.925 1.4518 2.42.3739.496.8024.818 1.2843.965.4464.167.9639.15 1.5527-.051.5876-.2 1.4232-.586 2.507-1.162 1.0825-.574 1.8719-1.05 2.3681-1.424.495-.375.8179-.803.9651-1.285.1115-.463.0641-.997-.1449-1.602-.191-.55-.5321-1.299-1.0242-2.245l-.1521-.289-.6683-1.259 8.0219-4.255Zm375.742 6.244 7.941 4.404-7.312 13.183-7.941-4.404 7.312-13.183ZM58.0714 312.712l5.5636 10.486-36.0714 19.137L22 331.849l36.0714-19.137Zm367.0546 13.569 7.942 4.405-5.959 10.743-7.941-4.405 5.958-10.743Zm-12.348-10.04 7.941 4.405-7.313 13.183-7.94-4.405 7.312-13.183Zm-274.01-109.662-.126.003c-1.08.045-2.904.673-5.257 2.383-8.927 6.487-20.109 24.326-22.238 53.255-1.963 26.667 8.713 49.347 13.581 54.736l.146.158.052-.386c.186-1.467.308-3.455.416-5.186.584-9.443 1.563-25.25 11.959-39.75 3.078-4.295 9.049-6.804 16.388-6.893l.083-.003.151-.002h.153l.643.007c1.725.036 3.542.217 5.354.541 5.396.963 10.759 3.24 13.623 7.073 1.006 1.347.73 3.255-.618 4.261-.498.373-1.074.57-1.652.601l-.174.005c-.925-.002-1.838-.424-2.435-1.222-1.316-1.762-3.967-3.226-7.195-4.144-2.002-.569-4.223-.927-6.493-1.01-.343-.013-.685-.023-1.029-.023-.088 0-.179 0-.269.001-5.334.053-9.664 1.681-11.582 4.355-2.047 2.857-3.689 5.764-5.012 8.662.036.053.072.11.105.166 2.014 1.87 12.627 9.956 23.227 10.448.355.017.71.025 1.065.025l.531-.007c.708-.019 1.414-.074 2.116-.174.837-.117 1.635-.244 2.408-.378 13.649-2.347 17.578-7.064 19.55-14.268 3.182-11.624.149-26.554-8.322-40.963-1.453-2.473-3.03-4.848-4.7-7.119-3.464-2.989-8.255-9.615-14.973-15.451-2.834-2.183-5.752-4.085-8.708-5.644-2.082-1.098-4.181-2.017-6.279-2.768-1.342-.48-2.684-.911-4.019-1.239-.133-.033-.29-.05-.47-.05Zm12.55-20.442c-.333 0-.643.032-.957.059-1.5.132-2.824.561-3.999 1.34-1.04.687-1.982 1.681-2.78 2.847-1.081 1.579-1.887 3.482-2.23 5.45-.392 2.245-.061 3.929.441 4.601.212.286.423.446 1.235.718.369.123.851.267 1.535.46 1.282.36 2.819.802 4.553 1.529.465.193.937.397 1.431.639 4.56 2.23 8.499 5.099 11.929 8.107 3.931 3.085 7.69 6.659 11.159 10.642l.69.802.043-.379c.32-2.951.383-6.845-.232-11.326-.748-5.446-3.057-15.368-10.116-20.635-3.001-2.239-8.129-4.854-12.702-4.854Zm7.591 9.739.173.002c.507.021 1.013.168 1.469.45l.192.129 3.349 2.436c1.36.99 1.661 2.893.672 4.253-.596.82-1.524 1.254-2.465 1.254-.552 0-1.108-.15-1.605-.459l-.183-.123-3.35-2.436c-1.36-.989-1.66-2.893-.671-4.253.586-.806 1.494-1.239 2.419-1.253Zm81.258-38.881c5.301-.001 8.633 3.4 8.633 12.749 0 10.687-8.38 19.372-18.785 19.556l-.336.003c-10.561 0-29.119-13.978-19.121-19.559 3.533-1.973 7.052-3.966 10.444-5.773.837 3.117 3.673 5.414 7.054 5.414 4.038 0 7.311-3.274 7.311-7.312 0-1.48-.443-2.855-1.198-4.005 2.187-.679 4.206-1.073 5.998-1.073ZM63.2373 85.2072l21.5743 5.8105 10.5052 10.6463-8.0267 7.921-24.0528-24.3778ZM395.523 65.5156c2.309.2089 4.843 1.5207 7.6 3.9376l.332.2954-8.605 8.2617c-.371.3573-.672.6718-.901.9484-.23.2742-.375.5235-.435.7466-.088.2493-.074.5093.047.7775.103.23.293.5184.568.8644l.145.1779 4.946 6.6069c1.006 1.3912 1.752 2.5961 2.235 3.6134.483 1.0172.713 2.0583.692 3.1207-.108 2.5722-1.875 5.5019-5.299 8.7909-3.625 3.481-6.932 5.12-9.924 4.919-1.341-.082-2.648-.488-3.92-1.212-1.146-.654-2.343-1.533-3.592-2.642l-.418-.378 8.99-8.6328c.599-.5745.994-1.0351 1.183-1.3817.188-.3454.236-.6671.144-.9627-.081-.2627-.288-.622-.62-1.078l-.131-.1755-4.413-5.8829c-2.645-3.44-3.647-6.5096-3.004-9.2113.247-1.1704.804-2.3349 1.667-3.4922.863-1.1586 2.036-2.4489 3.521-3.8745 3.167-3.0423 6.232-4.4205 9.192-4.1368Zm-22.498 18.558c1.474 1.8221 3.18 3.8851 5.121 6.1915 1.258 1.4245 2.162 2.4216 2.71 2.9925 1.397 1.4563 2.381 2.4033 2.951 2.844l.096.0726-6.679 6.4138-.452-.472c-2.74-2.8544-5.16-5.632-7.26-8.3325-1.172-1.4868-2.046-2.6624-2.619-3.5267l-.118-.1804 6.25-6.0028ZM67.0596 72.1808l43.7784 11.7515 1.21 1.2251-8.408 8.2949-43.8628-11.7516-1.1669-1.1822 8.4493-8.3377Zm338.2074-.717 1.027 1.0707c2.247 2.3396 4.42 4.9167 6.518 7.7299.57.7956 1.182 1.6985 1.836 2.7094l.283.4398-6.165 5.9197c-.791-1.0505-2.224-2.8572-4.297-5.4176-1.204-1.3686-2.189-2.4524-2.956-3.2512-.823-.8557-1.627-1.6536-2.413-2.3925l-.469-.4362 6.636-6.372Zm-31.375-26.5526 9.763 6.7518-12.626 18.2577c-2.206 3.1895-3.936 5.5517-5.191 7.0889-1.256 1.5372-2.559 2.6566-3.91 3.3581-1.529.8179-3.196 1.1087-5.002.8689-1.702-.2246-3.7-.9749-5.994-2.2509l-.434-.2454 23.394-33.8291ZM83.367 56.0906l24.011 24.3353-21.5741-5.8105-10.4636-10.6049 8.0267-7.9199Zm272.659-23.5352 9.762 6.7518-13.976 20.2092c-.832 1.2048-1.599 2.3823-2.299 3.5338-.543.9235-.835 1.6594-.876 2.2078-.043.5472.178 1.0612.664 1.542.365.4298 1.014.9733 1.947 1.6333l.261.1828 1.123.7763c.208.1444.451.2819.73.4132l.216.0973-5.199 7.5174c-.215-.1078-.493-.2767-.834-.5067l-.176-.12-1.024-.7087c-3.418-2.3634-5.863-4.4632-7.335-6.2984-1.472-1.8363-2.221-3.6762-2.244-5.5208-.026-1.7022.472-3.4982 1.491-5.3915.976-1.8099 2.586-4.3474 4.832-7.6125l.311-.4498 12.626-18.2565Zm-250.672 7.3074 11.066 17.4398c1.251 1.9716 2.482 3.8376 3.694 5.5992.935 1.3283 1.747 2.2197 2.433 2.6732.686.4546 1.396.5199 2.129.1958.652-.2255 1.647-.7644 2.983-1.612 1.278-.8109 2.151-1.4254 2.617-1.8445l.094-.0868 4.929 7.768c-.245.1963-.613.4525-1.104.7696l-.218.1396-1.453.9223c-4.879 3.0946-8.725 4.7861-11.541 5.0734-1.441.1662-2.767-.0024-3.973-.5009-1.209-.4998-2.385-1.3224-3.534-2.4679-1.01-.9994-2.03-2.2375-3.061-3.7165-1.032-1.4767-2.437-3.6193-4.219-6.4254-2.226-3.5089-3.857-6.245-4.893-8.2131-1.038-1.9657-1.6571-3.7735-1.8613-5.4259-.2006-1.7924.1495-3.4922 1.0533-5.0959.903-1.6037 2.523-3.3343 4.859-5.192Zm20.349-7.9211c1.654.6849 3.224 1.961 4.714 3.8282 1.489 1.866 3.505 4.8039 6.049 8.8137 2.226 3.5076 3.863 6.2532 4.91 8.2356 1.047 1.9835 1.663 3.7842 1.846 5.4021.22 1.8269-.127 3.5481-1.047 5.1624-.869 1.5258-2.365 3.1352-4.486 4.8273l-.381.2995-11.066-17.441c-1.844-2.9059-3.069-4.7992-3.675-5.6811-.936-1.3271-1.749-2.2043-2.443-2.6317-.693-.4273-1.416-.495-2.168-.2053-.733.324-1.717.8784-2.952 1.6618-1.348.8547-2.217 1.4892-2.608 1.9016l-.072.0796-4.96-7.8178c.245-.1963.612-.4526 1.103-.7689l.218-.1392 1.453-.9223c3.741-2.3741 6.827-3.9207 9.252-4.6401 2.426-.7193 4.531-.7075 6.313.0356Zm197.641-15.258c.3.0872.721.2408 1.263.4607l.239.0984 1.59.6588c4.093 1.6974 7.131 3.3319 9.114 4.9036 1.983 1.5716 3.182 3.3011 3.6 5.1873.389 1.7461.248 3.7652-.424 6.0562-.672 2.291-1.917 5.6313-3.734 10.0161-1.592 3.8389-2.898 6.7566-3.919 8.752-1.02 1.9978-2.14 3.5361-3.359 4.6152-1.368 1.2321-2.977 1.936-4.826 2.1105-1.748.1659-3.925-.133-6.528-.8957l-.464-.1394 7.911-19.0791c.738-1.7808 1.328-3.2203 1.77-4.3182l.18-.4496c.257-.6431.452-1.145.586-1.5056.549-1.5289.798-2.6981.75-3.5124-.048-.812-.409-1.4423-1.079-1.8922-.686-.4131-1.705-.8997-3.056-1.46-1.474-.611-2.493-.958-3.055-1.041l-.106-.0131 3.547-8.5525Zm-2.845-.9263.473.1357-7.912 19.0791c-.893 2.158-1.714 4.2365-2.458 6.2414-.548 1.5289-.812 2.7052-.788 3.5278.022.8238.376 1.4411 1.062 1.8542.56.4036 1.572.9081 3.034 1.5146 1.398.5806 2.404.9408 3.014 1.0819l.125.0268-3.523 8.4979c-.302-.0882-.723-.2411-1.265-.4608l-.239-.0983-1.59-.6587c-5.337-2.2127-8.932-4.3885-10.786-6.5287-.964-1.0838-1.589-2.2648-1.873-3.5385-.285-1.2761-.29-2.7124-.012-4.3101.237-1.4007.664-2.9474 1.282-4.6413.615-1.6927 1.561-4.0751 2.834-7.1459 1.591-3.8365 2.893-6.7447 3.907-8.7247 1.012-1.9776 2.135-3.5242 3.37-4.6412 1.352-1.1954 2.944-1.885 4.776-2.0678 1.73-.1716 3.92.1143 6.569.8566Zm-157.561 8.8224 10.22 27.0998-11.107 4.189-10.219-27.101 11.106-4.1878ZM282.242 4.92616l11.581 2.59959-8.943 39.84255-11.583-2.5996 8.945-39.84254Zm-88.506-.90926 3.189 20.4062c.361 2.3076.744 4.5095 1.153 6.6082.329 1.5918.717 2.7325 1.165 3.4222.449.6908 1.072 1.0339 1.874 1.0291.688.0523 1.814-.0439 3.379-.2884 1.496-.2338 2.541-.45 3.136-.6466l.12-.0419 1.421 9.0879c-.303.082-.743.1714-1.319.2656l-.255.0406-1.701.2659c-5.707.8927-9.911.9093-12.608.0487-1.387-.4238-2.536-1.1051-3.443-2.0441-.908-.9401-1.66-2.1639-2.255-3.6726-.529-1.3188-.969-2.8619-1.325-4.6282-.356-1.7663-.791-4.2923-1.305-7.5757-.641-4.1047-1.044-7.2646-1.212-9.4831-.166-2.2162-.013-4.1214.458-5.7179.531-1.72478 1.531-3.14209 3-4.25315 1.468-1.10987 3.644-2.05118 6.528-2.82275Zm16.043-1.69745c2.511.30863 4.436 1.15973 5.775 2.55211 1.243 1.28793 2.174 3.0839 2.796 5.39034.621 2.3052 1.297 5.8033 2.031 10.4957.641 4.1047 1.047 7.2752 1.217 9.5104.168 2.2376.015 4.1332-.463 5.6894-.526 1.764-1.532 3.2038-3.019 4.3173-1.406 1.0515-3.418 1.9305-6.039 2.6359l-.468.1227-3.191-20.4062c-.532-3.4008-.9-5.6265-1.104-6.6758-.329-1.5906-.724-2.7195-1.189-3.389-.466-.6671-1.102-1.0185-1.907-1.0529-.801.0048-1.925.1211-3.371.3466-1.576.246-2.626.4815-3.149.7036l-.097.0443-1.431-9.14846c.303-.08102.743-.17021 1.319-.2644l.255-.04067 1.701-.26708c4.378-.68373 7.823-.87128 10.334-.56384ZM246.98.750201l6.105.319309c2.803.14601 5.061.54129 6.772 1.18584 1.709.64456 3.009 1.5645 3.897 2.75865.813 1.11225 1.327 2.46783 1.54 4.0632.214 1.5954.257 3.6382.126 6.1274-.167 3.2014-.592 5.655-1.277 7.3632-.9 2.0665-2.344 3.5108-4.328 4.3337l-.301.1188 5.367 15.5548-12.447-.6505-4.49-14.1422-2.372-.1235.475-9.0689 2.015.1057c1.224.0641 2.156.0641 2.793-.0024.637-.0653 1.141-.2279 1.511-.4855.33-.2599.57-.6635.717-1.2108.148-.5472.25-1.3544.305-2.4203.056-1.0671.04-1.8909-.049-2.469-.088-.5793-.284-1.0149-.586-1.3093-.302-.292-.756-.495-1.365-.6066-.558-.1012-1.407-.1854-2.549-.25087l-.319-.01738-2.015-.10565.475-9.067699ZM232.636 0l11.853.619628-2.132 40.777972-11.853-.6196L232.636 0Zm-63.778 9.66122 3.35 8.88488-31.265 11.7908-3.351-8.8849 31.266-11.79078Z" clip-rule="evenodd"/></svg>