<svg xmlns="http://www.w3.org/2000/svg" fill="none" viewBox="0 0 128 128"><circle cx="64" cy="64" r="64" fill="#7A0D0D"/><path fill="#FFED74" fill-rule="evenodd" d="M87.1935 81.7475c3.2093-.149 6.4228-2.5975 7.0329-3.1636.0103-.0171.0206-.0342.0315-.0505-.4003-.8773-.8974-1.7576-1.5175-2.6226-.5805-.8097-1.8915-1.3027-3.5067-1.3186-.0274-.0003-.0546-.0003-.0817-.0003-.1038 0-.2077.0029-.3112.0065-.6877.0253-1.36.1339-1.9662.3062-.9777.2776-1.7801.7213-2.1786 1.2546-.3048.4077-.8827.4915-1.2904.1868-.408-.3048-.4915-.8824-.187-1.2904.8673-1.1605 2.4913-1.85 4.125-2.1417.6175-.1103 1.2361-.1658 1.8161-.1658.0307 0 .0616 0 .092.0006.0083 0 .0165.0006.0248.0009 2.2223.0268 4.0304.7867 4.9623 2.0871 3.1477 4.3906 3.4442 9.1767 3.6214 12.0362.0352.5717.0765 1.2361.1414 1.6872 1.4529-1.5411 4.7564-8.4655 4.1564-16.6218-.645-8.7596-4.0302-14.1611-6.7333-16.1253-.7414-.5383-1.3087-.7224-1.6299-.7224-.0546 0-.1024.0053-.1422.0153-.4048.0991-.8107.2295-1.2169.375-.6354.2274-1.2709.5056-1.9013.8381-.895.472-1.7786 1.0481-2.6368 1.7089-2.0343 1.7671-3.4848 3.7734-4.5339 4.6785-.5059.6877-.9829 1.4069-1.4231 2.1556-2.5648 4.3631-3.4834 8.8838-2.5199 12.4035.5971 2.1813 1.7868 3.6097 5.9198 4.3204.234.0404.4756.0787.729.1144.3717.0525.7478.0646 1.124.0472Z" clip-rule="evenodd"/><path fill="#CFD0D2" fill-rule="evenodd" d="M92.2621 50.2762c-.2416-.3532-.5272-.6541-.8417-.8623-.3561-.2357-.7567-.3658-1.211-.4057-.095-.0082-.1894-.018-.2897-.018-1.385 0-2.9376.7918-3.8462 1.47-2.1374 1.5948-2.8365 4.5992-3.0631 6.2479-.1944 1.4161-.1652 2.6383-.0575 3.5445 1.1077-1.3039 2.3184-2.4689 3.5881-3.4654 1.0387-.9107 2.2315-1.7795 3.6121-2.4547.1495-.0732.2923-.1348.4333-.1935.5251-.2198.9904-.3538 1.3783-.4629.2074-.0584.3534-.1021.4652-.1395.2458-.0821.3095-.1307.3738-.2172.1519-.2035.2522-.7136.1336-1.3933-.1041-.5959-.3481-1.172-.6752-1.6499Z" clip-rule="evenodd"/><path fill="#fff" fill-rule="evenodd" d="M27.5573 57.2172c2.83 0 10.1544-3.954 11.5149-3.954.2738 0 .3065.1599.013.544-7.6716 10.0361-9.2599 20.2055-7.9283 21.2035.0393.0295.0888.0436.1478.0436 1.4125 0 8.259-8.0787 10.6848-8.0787.1576 0 .2968.0342.4145.1068 2.3736 1.4671-5.3098 17.7307-3.2268 18.8989.0782.0437.1661.0643.2641.0643 1.6614 0 6.0252-5.9762 8.3743-5.9762.1743 0 .338.033.4885.1038 2.5721 1.2131-.8257 12.3855 1.7514 13.552.1425.0643.2942.0944.4552.0944 2.2736 0 6.3013-6.0075 9.2337-6.0075.2186 0 .431.0333.6363.105 3.2457 1.134.7667 10.0656 4.7018 11.6158.2847.1387.5608.2021.8304.2021 2.8088 0 4.865-6.8695 7.4498-6.8695.0971 0 .1947.0098.2932.0298 3.2442.6603 1.9356 8.1127 4.7741 8.1127h.0198c2.2597-.019 4.9575-11.0775 6.4137-17.5304-4.3322-.7608-6.4064-2.3866-7.2958-5.6358-1.0939-3.9964-.1068-9.0354 2.7087-13.8248.3759-.6396.7794-1.2579 1.2025-1.8576-.9576-2.7937-.6597-10.0786 3.4922-13.1767.9373-.6995 2.8297-1.7706 4.78-1.8305-.2791-.9142-.631-1.799-1.0682-2.6562-4.7918-9.3892-15.6491-17.6522-27.5779-17.6522-1.6689 0-3.3599.1619-5.057.505-29.7386 6.0128-32.0119 26.9528-29.4085 29.5928.1891.1921.5057.2756.9178.2756Z" clip-rule="evenodd"/><path fill="#000" fill-rule="evenodd" d="M35.1193 54.7089c-2.6522 1.1292-5.8907 2.508-7.5619 2.508-.4122 0-.7287-.0834-.9178-.2755-2.6034-2.64-.3301-23.58 29.4084-29.5928 1.6972-.3431 3.3882-.5051 5.057-.5051 11.9288 0 22.7862 8.2631 27.5779 17.6522.4372.8573.7892 1.742 1.0683 2.6563-1.9503.0599-3.8428 1.131-4.78 1.8305-4.1519 3.0981-4.4499 10.383-3.4923 13.1767-.423.5997-.8266 1.218-1.2024 1.8576-2.8155 4.7894-3.8026 9.8284-2.7087 13.8248.8894 3.2492 2.9636 4.875 7.2957 5.6358-1.4561 6.4529-4.1539 17.5116-6.4137 17.5306h-.0197c-1.3884 0-1.7846-1.7829-2.2067-3.6818-.4409-1.9835-.9099-4.0938-2.5674-4.4311-.0985-.02-.1962-.0298-.2932-.0298-1.2656 0-2.4045 1.6468-3.567 3.3278-1.2118 1.7523-2.4493 3.5417-3.8828 3.5417-.2696 0-.5458-.0634-.8304-.2021-2.0598-.8114-2.3622-3.6453-2.6481-6.3247-.2603-2.4394-.507-4.7507-2.0537-5.2911-.2053-.0717-.4178-.105-.6364-.105-1.5593 0-3.4283 1.6987-5.1786 3.2896-1.5412 1.4008-2.9904 2.7179-4.055 2.7179-.1611 0-.3127-.0301-.4552-.0944-1.2888-.5834-1.0833-3.6691-.8775-6.7602.2058-3.09.4119-6.1853-.8739-6.7918-.1505-.0708-.3142-.1038-.4886-.1038-1.276 0-3.1464 1.7633-4.8552 3.3743-1.4372 1.3548-2.7601 2.6019-3.5191 2.6019-.0979 0-.1858-.0206-.264-.0643-1.0036-.5629.2599-4.6299 1.5734-8.8579 1.4128-4.5473 2.8834-9.2808 1.6534-10.041-.1177-.0726-.257-.1068-.4145-.1068-1.3759 0-4.174 2.599-6.5961 4.8487-1.8481 1.7167-3.4774 3.23-4.0887 3.23-.059 0-.1086-.0141-.1478-.0437-1.3316-.998.2567-11.1674 7.9283-21.2034.2935-.3841.2607-.544-.013-.544-.5571 0-2.1141.6629-3.953 1.4459Zm59.0321 23.9644c-.61.5661-3.8235 3.0146-7.0329 3.1636-.3761.0174-.7522.0053-1.1239-.0472-.2535-.0357-.4951-.0741-.729-.1145-4.133-.7106-5.3228-2.1391-5.9199-4.3203-.9634-3.5197-.0448-8.0404 2.52-12.4035.4401-.7487.9171-1.4679 1.4231-2.1556.4413-.3808.9538-.9565 1.5508-1.6273.8221-.9236 1.8047-2.0276 2.9831-3.0512.8582-.6608 1.7417-1.2369 2.6368-1.7089.6304-.3325 1.2658-.6107 1.9013-.8381.4062-.1455.8121-.2759 1.2169-.375.0398-.01.0876-.0153.1421-.0153.3213 0 .8886.184 1.6299.7224 2.7032 1.9642 6.0883 7.3657 6.7333 16.1253.6 8.1563-2.7035 15.0806-4.1564 16.6217-.0649-.451-.1062-1.1154-.1413-1.6871v-.0008c-.1773-2.8596-.4741-7.6453-3.6215-12.0354-.9319-1.3004-2.74-2.0603-4.9622-2.0872-.0028-.0001-.0056-.0002-.0083-.0003-.0055-.0003-.011-.0005-.0165-.0005-.0304-.0006-.0614-.0006-.0921-.0006-.5799 0-1.1986.0554-1.816.1658-1.6338.2917-3.2578.9812-4.1251 2.1417-.3044.408-.2209.9856.1871 1.2904.4077.3047.9856.2209 1.2903-.1868.3986-.5334 1.201-.977 2.1786-1.2546.6063-.1723 1.2786-.2809 1.9662-.3063.1036-.0035.2074-.0064.3113-.0064.0271 0 .0542 0 .0817.0002 1.6151.016 2.9261.5089 3.5067 1.3187.6201.865 1.1172 1.7453 1.5175 2.6226-.0109.0162-.0212.0333-.0316.0505Zm-2.6356-29.3544c.3145.2083.6.5092.8416.8623.3272.4779.5712 1.0541.6753 1.65.1186.6797.0183 1.1897-.1336 1.3933-.0643.0864-.1281.1351-.3738.2171-.1118.0375-.2578.0811-.4652.1395-.388.1092-.8532.2431-1.3783.4629-.141.0587-.2838.1204-.4334.1935-1.3806.6753-2.5733 1.5441-3.612 2.4548-1.2697.9965-2.4804 2.1615-3.5881 3.4654-.1077-.9063-.1369-2.1285.0575-3.5445.2266-1.6488.9257-4.6531 3.063-6.2479.9086-.6782 2.4613-1.47 3.8463-1.47.0873 0 .1701.0074.2528.0147l.0369.0033c.4543.0398.8549.1699 1.211.4056ZM61.105 24.9998c-1.8205 0-3.6451.1823-5.4225.5416-22.9133 4.6327-29.1931 17.5935-30.8295 22.9508-1.2921 4.2303-1.1018 8.1462.4738 9.7437.5396.5475 1.2901.8248 2.2305.8248 1.7066 0 4.0832-.8874 7.1946-2.1942-4.5575 7.4276-6.2087 14.5122-5.7977 17.482.1345.9735.5035 1.6927 1.0965 2.1373.3599.2696.7936.4121 1.2541.4121 1.2844 0 2.4925-1.0747 5.3434-3.7227 1.0585-.9832 2.9509-2.7412 4.2708-3.7023-.0664.4172-.1732.9555-.3416 1.6453-.3959 1.6225-1.0016 3.5725-1.5875 5.4581-.6811 2.1922-1.3242 4.2629-1.6956 5.955-.308 1.4028-.8809 4.0135.9811 5.0579.3502.1961.7532.3 1.1659.3 1.4909 0 2.8721-1.3021 4.7837-3.1043l.0001-.0001c.8464-.7979 2.2969-2.1653 3.1725-2.6783.1834 1.0931.0299 3.3966-.0592 4.7341l-.0001.0019-.0001.0014c-.2661 3.9979-.4958 7.4506 1.9571 8.5605.3788.1717.788.2588 1.2155.2588 1.7772 0 3.4072-1.4816 5.2945-3.1968l.0005-.0005c1.1564-1.0511 3.092-2.8102 3.9386-2.8102.0204 0 .0286.002.0304.0023l.0002.0002c.0071.0054.2035.1553.4037.9161.202.7675.3088 1.7662.4218 2.8238l.0006.0056v.0004c.3127 2.9302.7014 6.5718 3.7407 7.8179.5083.237 1.0363.357 1.5712.357 2.4001 0 3.9934-2.3043 5.399-4.3368l.0001-.0002c.5455-.7888 1.5373-2.2225 2.0551-2.5078.4528.2783.8561 2.0918 1.056 2.9904l.0004.0018.0002.0009c.2265 1.0193.4607 2.0733.8759 2.9447.9033 1.897 2.3492 2.18 3.1303 2.18h.0351c2.1689-.018 3.6888-2.402 5.6072-8.7937 1.0546-3.5141 2.0152-7.6202 2.6344-10.372 3.3385.0348 6.6473-2.0261 8.1796-3.2463.8021 2.4912.9483 4.8499 1.0589 6.6348l.0001.0016c.1269 2.0518.211 3.4073 1.4234 3.6693.0959.021.1924.031.2897.031.4181.0003.8494-.1912 1.286-.5705 2.1336-1.8553 5.6216-9.5617 4.9776-18.3139-.69-9.3791-4.3207-15.1801-7.4884-17.4814-.6009-.4367-1.1812-.7411-1.7276-.9122.4691-1.7798-.4342-4.4091-2.2674-5.6225-.2206-.146-.4469-.2649-.6764-.3637-.3357-1.3346-.8057-2.6176-1.437-3.8546-2.5754-5.0463-6.7391-9.6764-11.7241-13.0377-5.4531-3.677-11.5031-5.6204-17.4961-5.6204Zm25.4902 29.5205c.1882 0 .3779-.0575.5413-.1764l1.0143-.7375c.4118-.2994.5029-.8762.2032-1.2877-.2991-.4118-.8762-.5027-1.2877-.2035l-1.0139.7375c-.4118.2994-.503.8761-.2036 1.288.1806.2478.4614.3796.7464.3796Z" clip-rule="evenodd"/><path fill="#000" fill-rule="evenodd" d="M60.601 43.7319c.2351 2.8147 2.5058 5.1175 5.2818 5.3573 2.9671.2552 5.7042-1.8682 6.2361-4.8354.0899-.5012.5681-.8334 1.0702-.7449.5013.09.8346.5691.7449 1.0703-.6602 3.6822-3.9173 6.3745-7.5698 6.3745-.2121 0-.4257-.0092-.6399-.0278-3.6592-.3156-6.652-3.3424-6.9606-7.0403-.0425-.5077.3342-.9531.8419-.9956.4998-.0425.9529.3342.9954.8419Z" clip-rule="evenodd"/></svg>