<svg xmlns="http://www.w3.org/2000/svg" fill="none" viewBox="0 0 128 108"><path fill="#C8A3B3" fill-rule="evenodd" d="M123.48 90.252c-12.211 24.422-24.2406 16.624-43.3429 7.4354C96.096 76.1067 97.9095 71.6938 102.987 46.6675c18.256 11.7878 32.704 19.1627 20.493 43.5845Z" clip-rule="evenodd"/><path fill="#C8A3B3" fill-rule="evenodd" d="M123.419 90.252c-12.211 24.422-24.2401 16.624-43.3423 7.4354C96.0355 76.1067 97.849 71.6938 102.927 46.6675c18.256 11.7878 32.703 19.1627 20.492 43.5845Z" clip-rule="evenodd"/><mask id="a" width="48" height="61" x="80" y="46" maskUnits="userSpaceOnUse" style="mask-type:alpha"><path fill="#fff" fill-rule="evenodd" d="M123.419 90.252c-12.211 24.422-24.2401 16.624-43.3423 7.4354C96.0355 76.1067 97.849 71.6938 102.927 46.6675c18.256 11.7878 32.703 19.1627 20.492 43.5845Z" clip-rule="evenodd"/></mask><g mask="url(#a)"><path fill="url(#b)" fill-rule="evenodd" d="M82.6762 92.4886c8.7048 8.1604 30.8898 12.9364 30.8898 12.9364l10.519-9.3698 5.017-11.8482V74.1723s-19.284-22.3666-29.137-21.218C86.8247 54.486 79.1195 78.1106 82.6762 92.4886Z" clip-rule="evenodd"/></g><path fill="#C8A3B3" fill-rule="evenodd" d="M87.8142 92.3678c28.3508-31.0109 20.0698-61.2359 1.209-78.5851C73.2121 15.3675 8.26194 94 19.2639 98.4128c24.3009 16.5632 54.1632 9.5512 68.5503-6.045Z" clip-rule="evenodd"/><path fill="url(#c)" fill-rule="evenodd" d="M61.3779.20902C101.879 6.73763 105.506 43.6122 94.7463 69.243c-10.7601 25.6308-45.0957 43.161-70.0012 32.159C4.3964 92.4134-7.23295 64.6488 5.09887 37.5672 17.4307 10.4855 42.1548-1.78583 61.3779.20902Z" clip-rule="evenodd"/><path fill="url(#d)" fill-rule="evenodd" d="M94.7056 69.2757C105.466 43.6449 101.839 6.77034 61.3371.241735 42.114-1.75312 17.3899 10.5183 5.0581 37.5999c-12.33182 27.0816-.70247 54.8463 19.6463 63.8351 24.9054 11.002 59.241-6.5284 70.0012-32.1593ZM7.89916 38.3858C17.9339 17.4701 40.784 2.05529 60.4907 3.68744 101.657 11.0623 98.6347 45.5793 89.5068 69.1549c-9.128 23.5755-41.4026 36.7711-63.8958 28.2906C3.11785 88.9648-2.13556 59.3015 7.89916 38.3858Z" clip-rule="evenodd"/><path fill="url(#e)" fill-rule="evenodd" d="M62.5462 19.7068 47.7359 42.2547l13.7222 13.299 1.0881-35.8469Z" clip-rule="evenodd"/><path fill="#DFB6C8" fill-rule="evenodd" d="m35.1623 45.6399 12.5736-3.3852 14.8103-22.5479-27.3839 25.9331Z" clip-rule="evenodd"/><path fill="#DFB6C8" fill-rule="evenodd" d="m44.1694 58.4553-9.0071-12.8155 12.5736-3.3852-3.5665 16.2007Z" clip-rule="evenodd"/><path fill="url(#f)" fill-rule="evenodd" d="m61.458 55.5537-17.2887 2.9016 3.5666-16.2007L61.458 55.5537Z" clip-rule="evenodd"/><path fill="#DFB6C8" fill-rule="evenodd" d="m33.4092 49.3274 1.5717 28.5929 3.9897-17.2283-5.5614-11.3646Z" clip-rule="evenodd"/><path fill="url(#g)" fill-rule="evenodd" d="m59.5841 59.3015-20.6134 1.3904-3.9897 17.2283 24.6031-18.6187Z" clip-rule="evenodd"/><defs><linearGradient id="c" x1="23.8" x2="-20.2267" y1="-16.9622" y2="78.3763" gradientUnits="userSpaceOnUse"><stop stop-color="#DFB6C8"/><stop offset=".470056" stop-color="#FCF5D8"/><stop offset="1" stop-color="#DFB6C8"/></linearGradient><linearGradient id="d" x1="3.97651" x2="-53.0864" y1="-36.2171" y2="98.6772" gradientUnits="userSpaceOnUse"><stop stop-color="#DFB6C8"/><stop offset=".470056" stop-color="#FCF5D8"/><stop offset="1" stop-color="#DFB6C8"/></linearGradient><linearGradient id="e" x1="49.8804" x2="23.1342" y1="2.72574" y2="8.90103" gradientUnits="userSpaceOnUse"><stop stop-color="#DFB6C8"/><stop offset=".511719" stop-color="#FCF5D8"/><stop offset="1" stop-color="#DFB6C8"/></linearGradient><linearGradient id="f" x1="57.6424" x2="30.613" y1="20.8196" y2="43.1822" gradientUnits="userSpaceOnUse"><stop stop-color="#DFB6C8"/><stop offset=".470056" stop-color="#FCF5D8"/><stop offset="1" stop-color="#DFB6C8"/></linearGradient><linearGradient id="g" x1="50.9378" x2="26.833" y1="48.3826" y2="67.4704" gradientUnits="userSpaceOnUse"><stop stop-color="#DFB6C8"/><stop offset=".470056" stop-color="#FCF5D8"/><stop offset="1" stop-color="#DFB6C8"/></linearGradient><radialGradient id="b" cx="0" cy="0" r="1" gradientTransform="matrix(-9.88414 18.87852 -17.85156 -9.34646 102.969 84.2877)" gradientUnits="userSpaceOnUse"><stop stop-color="#FCF5D8"/><stop offset="1" stop-color="#DFB6C8"/></radialGradient></defs></svg>