<svg xmlns="http://www.w3.org/2000/svg" fill="none" viewBox="0 0 128 128"><path fill="#000" d="m0 26.8644 15.1864 41.2203 62.9153-21.6949L60.7458 3 2.16949 18.1864 0 26.8644ZM19.5254 87.6101l58.5763-19.5254L128 85.4407 62.9152 117.983 19.5254 87.6101Z"/><path fill="#333" d="m78.1017 48.5593 43.3903 15.1865-58.5767 21.6949-36.8814-21.6949 52.0678-15.1865Z"/><path fill="url(#a)" d="M78.1017 46.3899 19.5254 63.7458l43.3898 26.0339L128 63.7458 78.1017 46.3899ZM26.0339 63.7458l52.0678-15.1864 43.3903 15.1864-58.5768 21.6949-36.8813-21.6949Z"/><path fill="#1A1A1A" d="m15.1864 68.0848 6.5085-2.1695-2.1695-2.1695-4.339 4.339Z"/><path fill="#333" d="M58.5763 7.33887 73.7627 44.2202 21.6949 59.4067 6.50848 20.3558 58.5763 7.33887Z"/><path fill="#595959" d="M128 63.7458v28.2034L62.9153 124.492V89.7797L128 63.7458Z"/><path fill="url(#b)" d="M60.7458 3 2.16949 18.1864 19.5254 63.7458l58.5763-17.356L60.7458 3ZM6.50848 20.3559 58.5763 7.33898 73.7627 44.2203 21.6949 59.4068 6.50848 20.3559Z"/><path fill="#AA242E" d="M108.475 71.556v30.156L128 91.9492V63.7458l-19.525 7.8102ZM62.9153 124.492l28.2033-14.102V78.4985L62.9153 89.7799v34.7121Z"/><path fill="url(#c)" d="M91.1187 78.4983V110.39l17.3563-8.678V71.5559l-17.3563 6.9424Z"/><path fill="#C12B3D" d="M19.5254 63.7458v28.2034l13.017 9.7628V71.556l-13.017-7.8102ZM62.9153 89.7795 45.5593 79.366v32.108l17.356 13.017V89.7795Z"/><path fill="url(#d)" d="M32.5424 71.5559v30.1561l13.0169 9.763V79.3661l-13.0169-7.8102Z"/><path fill="#C12B3D" d="M2.16949 18.1865 0 26.8645l4.08906 11.0974 4.06476-4.0648-5.98433-15.7106ZM19.5254 63.7458l-6.2481-16.4013-4.84059 2.4194 6.74969 18.3209 4.339-4.339Z"/><path fill="url(#e)" d="m8.15384 33.897-4.06476 4.0647 4.34766 11.8021 4.84056-2.4194L8.15384 33.897Z"/><path fill="url(#f)" d="M40.2067 42.2625c-9.4173 1.8484-15.5214-1.7408-16.6374-7.4283-1.1159-5.6875 3.1779-11.3178 12.5952-13.1662 9.4174-1.8484 20.395.7845 21.511 6.472 1.116 5.6876-8.0514 12.2741-17.4688 14.1225Z"/><path fill="#FFD953" d="M89.5775 52.2769c.1579.0989.3141.1995.4651.3019-.151-.1024-.3072-.203-.4651-.3019ZM78.7144 49.304c.2361.0138.4704.0312.7047.0503-.2343-.0191-.4686-.0365-.7047-.0503ZM77.1037 49.2432c.2586.0034.5155.0104.7706.0191-.2551-.0087-.512-.0139-.7706-.0191ZM77.8899 49.2639c.2604.0104.5207.0226.7793.0365-.2586-.0139-.5189-.0261-.7793-.0365ZM79.5023 49.3594c.2499.0208.4998.0434.7463.0694-.2465-.0243-.4947-.0486-.7463-.0694ZM88.5326 51.6887c.3506.1805.689.3697 1.0119.5693-.3229-.1996-.6596-.3888-1.0119-.5693ZM53.163 58.5251c.2742-.361.5692-.7168.8851-1.0639-.3159.3471-.6109.7029-.8851 1.0639ZM77.0655 49.2432c-.531-.0069-1.0656-.0035-1.6036.0104.5363-.0139 1.0726-.0173 1.6036-.0104ZM52.3924 59.6342c.1128-.1805.2325-.3592.3558-.538-.1233.177-.2413.3575-.3558.538ZM52.7725 59.0596c.1232-.177.2516-.354.3853-.5293-.1337.1753-.2621.3523-.3853.5293ZM64.3557 51.1784c.191-.0642.3836-.1267.5798-.1874-.1944.0607-.3871.1232-.5798.1874Z"/><path fill="#D78D1F" d="M75.4428 49.2554h.0191c-.0069-.0017-.0139 0-.0191 0ZM79.4173 49.3542c.0278.0018.0573.0053.0851.007-.0278-.0035-.0556-.0052-.0851-.007ZM78.6674 49.3005c.0157.0018.0296.0018.0452.0035-.0139 0-.0295-.0017-.0452-.0035Z"/><path fill="#D78D1F" d="M75.8332 53.2368c.6613.3905 1.4631.5953 2.2112.4218 1.2392-.2847 2.0653-1.5464 2.225-2.8082.0608-.4756.0451-.9494-.0191-1.4215-.2464-.026-.4963-.0486-.7463-.0694-.0277-.0017-.0572-.0052-.085-.0069-.2326-.0191-.4686-.0348-.7047-.0504-.0156-.0017-.0295-.0017-.0451-.0034-.2586-.0157-.5172-.0278-.7793-.0365h-.0156c-.2551-.0087-.512-.0156-.7706-.0191h-.0399c-.5311-.0069-1.0657-.0035-1.6037.0104h-.0191c-.5432.0157-1.0917.0417-1.6401.0816-.0903 1.5343.7011 3.1154 2.0323 3.9016ZM78.6154 76.386l-.0624.0312.0624-.0312ZM53.1577 58.5304c.0018-.0018.0035-.0035.0052-.0053-.0017.0018-.0034.0035-.0052.0053ZM52.7481 59.096c.0087-.0122.0157-.0243.0243-.0347-.0086.0104-.0156.0225-.0243.0347Z"/><path fill="#D78D1F" d="M54.1956 60.4221c.8105-.1145 1.5013-.7324 1.8189-1.4874.1198-.2829.1927-.604.0989-.8973-.0937-.2933-.3992-.5328-.6994-.4651l-1.3642-.1128c-.3159.3488-.6109.7029-.8851 1.0639-.0018.0017-.0035.0035-.0052.0052-.1337.1753-.2621.3523-.3853.5293-.0087.0122-.0157.0243-.0243.0348-.1233.1787-.2413.3575-.3558.538.3749.571 1.1142.8886 1.8015.7914ZM64.3436 51.1819c.0035-.0017.0087-.0034.0122-.0034-.0035 0-.007.0017-.0122.0034Z"/><path fill="#D78D1F" d="M63.7258 52.1399c.0485.505.3575 1.0205.8487 1.1455.5241.1336 1.0864-.2396 1.2808-.7446.1944-.5051.0747-1.0865-.1909-1.5568l-.4287-.0851c-.0989.0295-.1996.059-.2985.0903-.1944.0607-.3888.1232-.5797.1874-.0035.0018-.0087.0035-.0121.0035-.1875.0625-.3732.1267-.5572.1909-.0572.2551-.0867.512-.0624.7689ZM89.5445 52.2578c.0104.007.0208.0139.0312.0208-.0086-.0086-.0191-.0156-.0312-.0208ZM88.51 51.6765c.0087.0035.0156.0087.0243.0122-.0087-.0035-.0173-.0087-.0243-.0122Z"/><path fill="#D78D1F" d="M87.9858 51.8881c.1337.5693.7099.998 1.2931.9633.2777-.0156.5311-.1215.7637-.2725-.151-.1024-.3072-.2031-.4652-.302-.0104-.0069-.0208-.0139-.0312-.0208-.3229-.1996-.6613-.3888-1.0119-.5693-.0087-.0035-.0156-.0087-.0243-.0122-.1753-.0885-.3541-.177-.5346-.2603-.0277.1579-.0277.3194.0104.4738Z"/><path fill="#FFD953" d="M93.9286 59.1343c.0017.0642.0017.1267.0017.1909 0-.0642 0-.1267-.0017-.1909ZM93.9164 58.8098c.0035.0573.0052.1146.0087.1736-.0035-.0573-.0052-.1146-.0087-.1736ZM93.9286 59.4414c-.0052.2499-.0208.5016-.0486.755.0278-.2551.0434-.5051.0486-.755ZM93.873 60.2556c-.0104.0868-.0208.1736-.0347.2604.0122-.0851.0243-.1736.0347-.2604ZM93.8904 58.4834c.0052.0469.0069.092.0121.1388-.0035-.0451-.0069-.0919-.0121-.1388ZM93.6908 57.3848c.0086.0347.0173.0694.026.1058-.0087-.0347-.0174-.0711-.026-.1058ZM93.8331 58.0581c.007.0382.0139.0764.0191.1128-.0069-.0382-.0139-.0763-.0191-.1128ZM93.7689 57.7146c.0087.0399.0173.0798.0243.1215-.007-.0417-.0156-.0816-.0243-.1215Z"/><path fill="#D78D1F" d="M93.88 60.1948c-.0018.0209-.0035.0399-.007.0608.0018-.0191.0035-.0399.007-.0608ZM93.5988 57.062c.033.1076.0642.2152.092.3228-.0278-.1076-.059-.2152-.092-.3228ZM93.8314 60.5592c.0017-.0138.0034-.0277.0069-.0416-.0017.0139-.0035.0278-.0069.0416ZM93.8522 58.1709c.0156.1041.0278.2083.0399.3124-.0121-.1041-.026-.2083-.0399-.3124ZM93.7168 57.4907c.0191.0747.0364.1493.0521.2239-.0157-.0746-.033-.1492-.0521-.2239ZM93.9303 59.3252c0 .0382-.0017.0764-.0017.1163 0-.0399.0017-.0781.0017-.1163ZM93.9025 58.6223c.0052.0625.0104.125.0139.1875-.0035-.0625-.0087-.125-.0139-.1875ZM93.7932 57.8359c.0139.0747.0278.1476.0399.2222-.0121-.0746-.026-.1493-.0399-.2222ZM93.9251 58.9834c.0017.0503.0035.1007.0035.151 0-.0503-.0018-.1007-.0035-.151Z"/><path fill="#D78D1F" d="M93.873 60.2554c.0018-.0208.0052-.0399.007-.0607.0277-.2534.0434-.5051.0486-.755 0-.0382.0017-.0781.0017-.1163 0-.0642 0-.1267-.0017-.1909-.0018-.0504-.0018-.1007-.0035-.151-.0017-.0573-.0052-.1146-.0087-.1736-.0035-.0625-.0087-.1249-.0139-.1874-.0034-.0469-.0069-.092-.0121-.1389-.0104-.1041-.0243-.21-.0399-.3124-.0052-.0382-.0122-.0763-.0191-.1128-.0122-.0746-.0243-.1475-.0399-.2221-.0087-.04-.0157-.0816-.0243-.1215-.0157-.0747-.033-.1493-.0521-.2239-.0087-.0347-.0174-.0695-.026-.1059-.0278-.1076-.059-.2169-.092-.3228-.0052-.0191-.0122-.0365-.0191-.0556-.4513.1684-.8522.4496-1.1247.8505-.5936.8712-.4547 2.1087.1597 2.9661.2603.3645.5918.6647.965.9095.1093-.394.1944-.7863.2534-1.175.0017-.0139.0034-.0278.0069-.0417.0122-.0833.0243-.1718.0347-.2586Z"/><path fill="#FFD953" d="M87.974 51.416c.0173.0087.0347.0174.0521.0243-.0174-.0087-.0348-.0173-.0521-.0243ZM73.8028 49.3351s0 .0017 0 0c.0416-.0018.0833-.0052.125-.007-.0434.0035-.0834.0052-.125.007ZM63.7866 51.3728v.0035c.1857-.066.3697-.1319.5589-.1944-.1892.0625-.3749.1267-.5589.1909ZM64.9355 50.9909c.0989-.0313.1996-.0608.2985-.0903-.0989.0295-.1996.059-.2985.0903ZM93.5797 61.7325c0-.0018 0-.0018.0018-.0035-.0018.0017-.0018.0035-.0018.0035ZM93.736 61.0798c.0365-.1753.0694-.3489.0955-.5224-.0261.1753-.059.3488-.0955.5224Z"/><path fill="#FFD953" d="M92.6147 60.8228c-.6144-.8573-.7532-2.0948-.1596-2.9661.2725-.3992.6716-.6821 1.1246-.8504-.177-.5485-.4165-1.0674-.715-1.5586-.67-1.1003-1.6315-2.0584-2.8221-2.8689-.2326.151-.486.2569-.7637.2725-.5831.0347-1.1593-.3957-1.293-.9633-.0364-.1545-.0382-.3159-.0104-.4721-2.1886-1.017-4.8423-1.6835-7.7251-1.9872.0642.4721.0798.9476.0191 1.4214-.1597 1.2618-.9858 2.5236-2.2251 2.8082-.7497.1718-1.5498-.0312-2.2111-.4217-1.3295-.7862-2.1209-2.3674-2.0306-3.9016-2.8724.2013-5.7917.7202-8.5669 1.5637l.4287.0833c.2655.4704.3853 1.0535.1909 1.5569-.1944.505-.7567.8782-1.2809.7445-.4912-.1249-.8001-.6421-.8487-1.1455-.0243-.2568.0052-.512.0608-.7636-4.2661 1.5047-7.51 3.6222-9.7385 6.0832l1.3642.1128c.3003-.0676.6057.1719.6995.4652.0937.2933.0208.6144-.099.8973-.3176.755-1.0083 1.3728-1.8189 1.4874-.6855.0972-1.4266-.2204-1.8015-.7897-.9563 1.5221-1.5759 3.131-1.8606 4.7746-.3436 1.9855-.203 4.0214.4235 6.0156.2864.9146.663 1.7789 1.1212 2.5843 3.6309 2.0913 9.0112 3.6638 14.0843 3.754 3.9294.0712 7.7634-.7463 11.297-2.0931.3107-.118.6196-.243.9251-.3697 6.2655-2.5912 11.4879-6.8069 14.4471-10.5784.3141-.6647.5658-1.3295.7497-1.989-.3731-.2412-.7046-.5415-.965-.906Zm-27.9274 9.1067c-.6821.9355-1.7928 1.5985-2.9522 1.5655-1.1577-.033-2.2997-.8557-2.5322-1.9907l.1857-.6352c-.0191-1.0188.387-2.0515 1.1402-2.7371.755-.6855 1.8554-.9893 2.8395-.7272.9841.2621 1.805 1.1073 1.9768 2.1122.1475.8453-.1545 1.7217-.6578 2.4125Zm6.8799-12.2654-.0434.0451-1.7928 1.8935c-.5138-.1614-.7151-.8331-.5242-1.3399.0104-.0277.0226-.0572.0347-.0833.2465-.5137.7914-.8174 1.3364-.9823.2152-.066.4478-.1146.6613-.0451.2135.0694.3905.295.328.512Zm6.5935 4.1897 2.0515.0711c-.1545.4235-.6005.7238-1.0518.7082-.4512-.0157-.8747-.3472-.9997-.7793Zm3.079 7.3693c-.4305.3332-1.0709.3662-1.5343.0781-.4617-.2881-.7151-.8765-.6057-1.411.1093-.5346.5727-.9754 1.1125-1.0587.7324-.1128 1.4093.3766 1.9873.84l-.9598 1.5516ZM93.5797 57.0063c.0052.0191.0122.0365.0191.0556-.0052-.0191-.0121-.0365-.0191-.0556Z"/><path fill="#D78D1F" d="M63.37 65.405c-.9841-.2621-2.0844.0416-2.8394.7272-.755.6856-1.1611 1.7183-1.1403 2.7371l-.1857.6352c.2326 1.1351 1.3728 1.9577 2.5322 1.9907 1.1577.033 2.2684-.63 2.9523-1.5655.505-.6925.8053-1.569.6612-2.4125-.1753-1.0032-.9962-1.8501-1.9803-2.1122ZM71.2409 57.1505c-.2134-.0694-.446-.0208-.6612.0452-.545.1666-1.09.4703-1.3364.9823-.0139.0278-.0243.0556-.0347.0833-.1892.5068.0104 1.1785.5241 1.3399l1.7929-1.8935.0434-.0452c.0607-.2152-.1146-.4425-.3281-.512ZM79.1604 62.6316c.4512.0156.8955-.2847 1.0517-.7082l-2.0514-.0711c.125.4339.5484.7637.9997.7793ZM79.0996 67.8903c-.1093.5346.1441 1.123.6058 1.4111.4616.2881 1.1021.2551 1.5343-.0781l.9597-1.5534c-.5797-.4634-1.2548-.9528-1.9872-.84-.5381.085-1.0032.5259-1.1126 1.0604Z"/><path fill="#1A1A1A" d="M93.6908 57.3849c.0087.0347.0174.0694.026.1058.0191.0747.0365.1493.0521.2239.0087.04.0174.0799.0243.1215.0139.0747.0278.1476.0399.2222.007.0382.0122.0763.0191.1128.0156.1041.0278.2083.0399.3124.0052.0469.007.092.0122.1388.0052.0625.0104.125.0139.1875.0034.0573.0052.1145.0086.1735.0018.0504.0035.1007.0035.151.0018.0643.0018.1267.0018.191 0 .0381-.0018.0763-.0018.1162-.0052.25-.0208.5016-.0486.755-.0017.0209-.0034.0399-.0069.0608-.0104.0868-.0208.1735-.0347.2603-.0018.0139-.0035.0278-.007.0417-.1579 1.0413-.4998 2.1018-1.0014 3.164 2.2406-2.8551 3.1848-5.4568 2.2962-6.9008-.4009-.6508-1.1906-1.0934-2.2615-1.3711.3089.5068.5571 1.0448.7342 1.6124.0312.1059.0624.2135.0902.3211ZM50.5318 64.4087c-1.6835 1.0396-2.7492 2.1938-2.803 3.4903-.0712 1.7269 1.6575 3.5597 4.3477 5.1096-.4582-.8054-.8348-1.6697-1.1212-2.5843-.6248-1.9942-.7672-4.0301-.4235-6.0156Z"/><path fill="#FFD953" d="M93.7359 61.0798c.0365-.1753.0695-.3489.0955-.5224-.026.1753-.059.3488-.0955.5224Z" opacity=".57"/><path fill="#fff" d="M84.395 50.4234c-.958-.111-1.9508-.1839-2.9713-.2152-.2465-.0087-.4964-.0139-.7481-.0173h-.085c-.2326-.0035-.4686-.0035-.7047-.0018-.0156.0018-.0312 0-.0468 0-.2569.0035-.5172.007-.7776.0139l-.0156.0017c-.2551.0053-.512.0157-.7706.0261l-.0382.0017c-.5311.0243-1.0656.0573-1.6019.1007-.0052 0-.0122.0017-.0174.0017-.5016.0399-1.0049.0885-1.5117.1475-.0417.0052-.0816.0087-.1232.0122v.0017c-2.8585.3315-5.7483.9338-8.4784 1.7981h-.0017c-.0972.0312-.1962.0625-.2933.0937-.191.0625-.3801.125-.5693.1909-.0035 0-.007.0018-.0122.0035-.1839.0625-.3662.1267-.5467.1927v.0034c-4.1897 1.5048-7.3242 3.466-9.4312 5.6563-.2985.3107-.5762.6266-.8331.9442l-.0052.0052c-.0069.0087-.0121.0156-.0191.0243 3.0529-1.2218 8.3187-3.4243 15.99-5.6736 5.7483-1.6888 10.3477-2.6677 13.6123-3.3116Z" opacity=".57"/><path fill="#FFD953" d="M93.5797 57.1799c.0052.0191.0139.0365.0191.0556-.0052-.0191-.0121-.0365-.0191-.0556Z" opacity=".57"/><path fill="#fff" d="M78.0982 65.9169c-.1128-.0781-3.3705 3.8166-9.0858 4.339-3.1362.2864-5.7049-.5588-6.0572 0-.3072.4877 1.2062 1.8103 3.0286 2.1695 5.3404 1.0501 12.2741-6.3991 12.1144-6.5085Z" opacity=".57"/><path fill="#FFD953" d="M87.9737 51.416c.0174.0087.0347.0174.0521.0243-.0174-.0087-.0347-.0173-.0521-.0243ZM73.8026 49.3351s0 .0017 0 0c.0417-.0018.0833-.0052.125-.007-.0434.0035-.0833.0052-.125.007ZM63.7865 51.3728v.0035c.1857-.066.3697-.1319.5589-.1944-.1892.0625-.3749.1267-.5589.1909ZM64.9355 50.9909c.0989-.0313.1996-.0608.2985-.0903-.0989.0295-.1996.059-.2985.0903ZM93.5797 61.7325c0-.0018 0-.0018.0017-.0035-.0017.0017-.0017.0035-.0017.0035ZM93.7359 61.0798c.0365-.1753.0695-.3489.0955-.5224-.026.1753-.059.3488-.0955.5224Z"/><path fill="#D78D1F" d="M65.0848 74.5931c-7.0761-1.0656-12.0572-4.7399-14.2857-4.7086.0486.1805.0989.361.1562.5397.2863.9147.663 1.779 1.1212 2.5843 3.6308 2.0914 9.0112 3.6639 14.0843 3.7541 3.9294.0712 7.7633-.7463 11.297-2.0931.1423-.1128.3003-.2048.4721-.269.1475-.0556.2985-.0868.453-.1007 2.3899-.9893 4.6288-2.2146 6.6473-3.5614-4.7451 2.3205-11.8593 5.0731-19.9454 3.8547Z"/><path fill="#FFD953" d="M93.5797 57.0063c.0052.0191.0121.0365.019.0556-.0052-.0191-.0121-.0365-.019-.0556Z"/><path fill="#fff" fill-rule="evenodd" d="m77.6399 66.5551 1.8529-3.6914-2.4706 3.4866-3.7525-2.1411 3.5457 2.7554-2.0569 4.5103 2.6745-4.3056 3.7059 1.4362-3.499-2.0504Zm-12.7907-18.186-3.4961 4.8819-5.3112-2.9982 5.0199 3.8581-2.9135 6.3151 3.7875-6.0284 5.2442 2.0095-4.9529-2.8724 2.6221-5.1656Z" clip-rule="evenodd"/><defs><linearGradient id="a" x1="59.3574" x2="89.7746" y1="45.028" y2="84.551" gradientUnits="userSpaceOnUse"><stop stop-color="#1A1A1A"/><stop offset=".4983" stop-color="#4D4D4D"/><stop offset="1" stop-color="#1A1A1A"/></linearGradient><linearGradient id="b" x1="33.6236" x2="40.3077" y1="8.64684" y2="32.9128" gradientUnits="userSpaceOnUse"><stop stop-color="#1A1A1A"/><stop offset=".4983" stop-color="#4D4D4D"/><stop offset="1" stop-color="#1A1A1A"/></linearGradient><linearGradient id="c" x1="99.7966" x2="99.7966" y1="71.5559" y2="110.39" gradientUnits="userSpaceOnUse"><stop stop-color="#FFD953"/><stop offset="1" stop-color="#D4B445"/></linearGradient><linearGradient id="d" x1="39.0508" x2="39.0508" y1="71.5559" y2="111.475" gradientUnits="userSpaceOnUse"><stop stop-color="#FFD953"/><stop offset="1" stop-color="#FFD953"/></linearGradient><linearGradient id="e" x1="4.08866" x2="13.2773" y1="41.8305" y2="41.8305" gradientUnits="userSpaceOnUse"><stop stop-color="#FFD953"/><stop offset="1" stop-color="#FFD953"/></linearGradient><radialGradient id="f" cx="0" cy="0" r="1" gradientTransform="matrix(14.78584 -3.2153 1.8656 8.57917 40.5833 31.9133)" gradientUnits="userSpaceOnUse"><stop stop-color="#020202"/><stop offset=".6531" stop-color="#050505"/><stop offset="1" stop-color="#0B0B0B"/></radialGradient></defs></svg>