<svg xmlns="http://www.w3.org/2000/svg" fill="none" viewBox="0 0 52 126"><path fill="#000" d="M5.43446 33.9877C9.45354 23.2638 15.331 12.6525 20.775 6.29462 24.3488 2.11617 27.4656 0 30.0411 0c.0375 0 .075.0023422.1102.0023422C38.6628.203883 43.4436 27.5618 44.1208 46.9237c.1992 5.6807 1.7951 10.37 3.4825 15.3358.7077 2.0811 1.4248 4.1879 2.0505 6.4072.0047.0164.0094.0328.0141.0468.007.0235.014.0422.0187.0656 1.1085 3.9418 1.9334 8.2444 1.9334 13.4001 0 11.6331-1.3569 21.7058-3.9254 29.1268-1.6896 4.884-3.855 8.404-6.3953 10.462-1.1952 2.151-2.6716 3.548-4.3425 3.899-.2883.061-.5859.089-.8906.089-1.9568 0-4.2417-1.23-6.5289-3.517-4.0285-1.652-9.2334-4.689-14.0118-9.78-4.844-5.162-8.46231-11.546-10.7519-18.9724-2.54972-8.2725-3.43791-17.8481-2.64815-28.5016-.44527.5953-.69602.6656-1.02411.6117-.325743-.0539-.576491-.3047-.637423-.6398-1.392033-7.7077.372608-18.7057 4.970543-30.9692ZM1.65675 62.9954c.21091-.3585.47104-.8132.7921-1.3944 1.30532-2.3692 3.21292-6.0579 5.66656-10.9675.18279-.3609.62103-.5086.98427-.3281.3609.1828.50854.621.32575.9843-2.38802 4.776-4.26282 8.4061-5.57283 10.7964-1.19284 11.6847-.4101 22.1038 2.32241 30.9693 2.22163 7.2136 5.72749 13.4026 10.41919 18.4006 3.78 4.029 7.6866 6.576 10.6418 8.114-2.981-3.944-5.7721-9.634-7.6187-16.67-.1031-.391.1312-.792.5226-.895.3913-.103.7897.131.8928.523 2.2826 8.689 5.9619 14.986 9.3998 18.509 1.1342 1.162 2.2404 2.017 3.2645 2.561.86.457 1.6639.694 2.3692.694.2039 0 .4008-.019.5883-.059.4733-.098.942-.337 1.399-.701.7593-.599 1.4811-1.544 2.1303-2.77.5413-1.024 1.0334-2.24 1.4459-3.623 1.3616-4.565 1.8068-10.454 1.2491-16.582-.0375-.403.2601-.7594.6632-.7969.4054-.0351.7569.2629.7944.6629.5976 6.557.0211 12.721-1.3826 17.326 4.4831-6.473 7.2015-19.2286 7.2015-35.5698 0-4.9869-.8038-9.1771-1.8865-13.0274-2.0295-4.4808-3.9558-7.6492-5.5072-10.1989-.7757-1.2772-1.4483-2.381-2.0248-3.4614-.1898-.3562-.0539-.8014.3023-.9912.3562-.1899.7992-.054.9913.3023.5554 1.0428 1.2186 2.1302 1.9826 3.391.4781.7851.9913 1.6287 1.5327 2.5521-1.4553-4.3613-2.7091-8.6475-2.8872-13.7704-.3843-10.998-1.8936-22.2561-4.1386-30.8896-2.3974-9.22161-5.4604-14.54837-8.4014-14.61868-.0258 0-.0493-.00234-.075-.00234-2.0693 0-4.9612 2.05056-8.1554 5.7814C16.5473 13.4845 10.7682 23.927 6.80541 34.5009 2.63165 45.6348.831841 55.6579 1.65675 62.9954Z"/><path fill="#8F85BA" d="M1.65671 62.9953c.21092-.3585.47104-.8132.7921-1.3944 1.30533-2.3692 3.21293-6.0579 5.66657-10.9675.18279-.3609.62102-.5085.98426-.3281.3609.1828.50854.621.32575.9843-2.38802 4.776-4.26282 8.4061-5.57283 10.7964-1.19283 11.6847-.4101 22.1038 2.32241 30.9693C8.3966 100.269 11.9025 106.458 16.5941 111.456c3.7801 4.029 7.6867 6.576 10.6418 8.114-2.9809-3.945-5.772-9.635-7.6187-16.67-.1031-.391.1313-.792.5226-.895.3914-.103.7898.131.8929.523 2.2826 8.689 5.9618 14.986 9.3997 18.509 1.1343 1.162 2.2404 2.017 3.2645 2.561.8601.457 1.6639.694 2.3693.694.2039 0 .4007-.019.5882-.059.4734-.098.9421-.337 1.3991-.701.7593-.6 1.4811-1.544 2.1302-2.77.5414-1.024 1.0335-2.24 1.446-3.623 1.3615-4.565 1.8068-10.454 1.249-16.582-.0375-.403.2602-.7595.6632-.797.4055-.0351.757.262.7945.663.5976 6.557.0211 12.721-1.3827 17.326 4.4831-6.473 7.2016-19.2287 7.2016-35.5699 0-4.9869-.8038-9.1771-1.8865-13.0274-2.0295-4.4808-3.9558-7.6492-5.5072-10.1989-.7757-1.2772-1.4483-2.381-2.0248-3.4613-.1898-.3562-.0539-.8015.3023-.9913.3562-.1899.7991-.0539.9913.3023.5554 1.0428 1.2186 2.1302 1.9826 3.391.4781.7851.9913 1.6287 1.5326 2.5521-1.4553-4.3613-2.709-8.6475-2.8872-13.7704-.3843-10.998-1.8935-22.2561-4.1386-30.8896-2.3974-9.22159-5.4603-14.54835-8.4014-14.61866-.0258 0-.0492-.00234-.075-.00234-2.0693 0-4.9611 2.05055-8.1553 5.78139C16.5473 13.4844 10.7682 23.927 6.80537 34.5008 2.63161 45.6347.831802 55.6578 1.65671 62.9953Z"/><path fill="#000" fill-rule="evenodd" d="M29.7248 120.877c-14.5531-5.256-10.8668-17.349-9.9739-18.773 2.2896 6.418 9.0599 17.742 9.9739 18.773ZM3.11209 62.815c2.26382-5.5681 4.79244-13.3321 6.09308-12.1603 1.30063 1.1717-2.31537 8.2115-6.09308 23.62-1.15065 1.1296-.40073-5.6267 0-11.4597Zm15.64981-5.5892c2.0998-.5203 3.5973-1.8935 3.677-1.699.1054.2531-1.8022 2.7419-4.455 3.1988-2.8919.4992-5.3338-1.6404-5.2588-1.9591.0726-.307 2.7325 1.2772 6.0368.4593Zm5.3901-6.1587c-2.8919.4992-5.3338-1.6404-5.2588-1.9592.0726-.3093 2.7348 1.2749 6.0368.457 2.0998-.5202 3.5973-1.8935 3.6769-1.699.1055.2531-1.8021 2.7419-4.4549 3.2012Zm6.2196 5.6572c-2.8919.4992-5.3338-1.6405-5.2588-1.9592.0726-.3093 2.7348 1.2749 6.0368.457 2.0998-.5202 3.5973-1.8935 3.677-1.699.1054.2531-1.8022 2.7419-4.455 3.2012ZM19.8095 69.7377c2.1232-.2601 3.7027-1.4459 3.7706-1.2421.0891.2649-1.9685 2.5099-4.6401 2.6435-2.9106.1453-5.2095-2.2872-5.1158-2.5942.0914-.3 2.6435 1.6029 5.9853 1.1928Zm1.9029 5.2869c.0656-.314 2.7653 1.1389 6.0439.1617 2.0857-.6234 3.5457-2.0693 3.6324-1.8771.1101.246-1.7319 2.8286-4.373 3.4168-2.8731.6398-5.3689-1.3803-5.3033-1.7014Zm6.0837-7.6984c.0445-.321 2.8286.7828 6.0298-.6116 2.0365-.8858 3.3957-2.5122 3.4941-2.3341.1266.232-1.5396 3.0371-4.1292 3.9605-2.8239 1.0053-5.4416-.6867-5.3947-1.0148Zm1.4623-6.7609c.1055.2531-1.8021 2.7419-4.4549 3.1988-2.8919.4992-5.3338-1.6404-5.2588-1.9591.0726-.3094 2.7348 1.2748 6.0368.457 2.0998-.5179 3.5973-1.8912 3.6769-1.6967Z" clip-rule="evenodd" opacity=".1"/></svg>