<svg xmlns="http://www.w3.org/2000/svg" fill="none" viewBox="0 0 16 16"><path fill="currentColor" fill-rule="evenodd" d="M.292893.292893c.390524-.3905241 1.023687-.3905241 1.414217 0L8 6.58579 14.2929.292893c.3905-.3905241 1.0237-.3905241 1.4142 0 .3905.390524.3905 1.023687 0 1.414217L9.41421 8l6.29289 6.2929c.3905.3905.3905 1.0237 0 1.4142-.3905.3905-1.0237.3905-1.4142 0L8 9.41421 1.70711 15.7071c-.39053.3905-1.023693.3905-1.414217 0-.3905241-.3905-.3905241-1.0237 0-1.4142L6.58579 8 .292893 1.70711c-.3905241-.39053-.3905241-1.023693 0-1.414217Z" clip-rule="evenodd"/></svg>