<svg width="25" height="25" fill="none" xmlns="http://www.w3.org/2000/svg"><path d="m1.707 13.434.083-.132L6.795 5.38a.17.17 0 0 1 .3.022c.836 1.896 1.557 4.254 1.22 5.722-.145.604-.54 1.422-.985 2.178-.057.11-.12.218-.188.322A.17.17 0 0 1 7 13.7H1.853a.173.173 0 0 1-.146-.266Z" fill="#fff"/><path d="M24.96 15.006v1.296c0 .074-.046.14-.112.17-.408.173-1.804.81-2.384 1.611-1.481 2.049-2.612 4.977-5.142 4.977H6.77C3.03 23.06 0 20.039 0 16.31v-.12c0-.099.081-.18.181-.18h5.882c.117 0 .202.108.192.222-.042.38.029.768.21 1.122a2.071 2.071 0 0 0 1.855 1.145h2.912V16.24H8.353a.184.184 0 0 1-.15-.29l.105-.152c.272-.385.66-.982 1.048-1.662.264-.459.52-.948.726-1.44.041-.09.075-.18.108-.269.056-.157.114-.304.156-.45.041-.125.075-.255.108-.377.098-.417.14-.86.14-1.318 0-.18-.009-.368-.025-.548a7.029 7.029 0 0 0-.059-.589 6.045 6.045 0 0 0-.08-.525 8.788 8.788 0 0 0-.167-.785l-.023-.1c-.05-.18-.092-.35-.15-.53a19.958 19.958 0 0 0-.553-1.629c-.073-.205-.156-.4-.24-.597-.122-.296-.247-.564-.361-.819a11.222 11.222 0 0 1-.158-.328 11.681 11.681 0 0 0-.173-.36c-.042-.089-.09-.171-.123-.254l-.355-.653a.115.115 0 0 1 .13-.168l2.226.6h.006c.005 0 .007.002.009.002l.293.08.322.091.119.033V1.89c0-.634.512-1.149 1.144-1.149.316 0 .603.128.81.337.205.209.334.494.334.812V3.84l.237.066a.188.188 0 0 1 .054.027l.248.186c.083.066.172.147.28.23.215.17.47.392.751.646.075.064.148.13.215.197.362.334.767.727 1.154 1.161.108.122.214.246.323.376.108.132.222.263.322.393.13.173.272.353.395.541.058.09.125.18.181.269.158.238.297.484.43.73.057.113.115.237.165.36.148.328.264.663.339.997.023.073.04.151.048.222v.016c.025.1.033.205.041.312a3.318 3.318 0 0 1-.18 1.463c-.05.14-.1.287-.165.426a5.766 5.766 0 0 1-.447.843 4.84 4.84 0 0 1-.19.304c-.072.105-.147.205-.214.302-.091.124-.189.254-.289.37a3.93 3.93 0 0 1-.28.351c-.14.163-.273.318-.412.467a4.295 4.295 0 0 1-.265.285c-.089.1-.18.188-.264.271-.14.139-.256.246-.353.335l-.23.209a.187.187 0 0 1-.122.045H13.52v2.259h2.23c.499 0 .973-.176 1.356-.498.131-.114.703-.606 1.379-1.348a.173.173 0 0 1 .085-.051l6.16-1.77a.181.181 0 0 1 .23.174Z" fill="#fff"/></svg>