<svg xmlns="http://www.w3.org/2000/svg" fill="none" viewBox="0 0 24 22"><path fill="currentColor" fill-rule="evenodd" d="M24 15.2291v-1.246c0-.1152-.112-.1987-.222-.1669l-5.922 1.701c-.032.008-.06.0259-.082.0497-.6344.6963-1.1735 1.1635-1.3162 1.2872l-.0098.0085c-.368.3099-.824.4789-1.304.4789H13v-2.172h1.704c.044 0 .086-.0159.118-.0437l.22-.2008c.094-.0854.206-.1887.34-.3219.0113-.0112.0227-.0225.0342-.0339.0705-.0698.1459-.1444.2198-.2264.088-.0854.174-.1808.254-.2742.134-.1431.262-.2922.396-.4491.096-.1034.184-.2206.27-.3379.096-.1112.19-.2364.278-.3556.0326-.0476.0673-.0957.1027-.1448.0341-.0474.069-.0957.1033-.1454.064-.0954.128-.1967.182-.2921.168-.2583.31-.5346.43-.8108.055-.1181.099-.2424.1417-.3633.0055-.0154.0109-.0308.0163-.046.048-.1411.088-.2742.118-.4154.072-.3318.088-.6617.056-.99154-.008-.10332-.016-.20468-.04-.30009v-.01586c-.008-.06757-.024-.14309-.046-.21263-.072-.32194-.184-.64387-.326-.95982-.048-.11726-.104-.23649-.158-.34579-.128-.23644-.262-.47293-.414-.70146-.0305-.04832-.0643-.09727-.0979-.14614-.0259-.03755-.0518-.07505-.0761-.11218-.0964-.14767-.2047-.29002-.3098-.42813-.0236-.03104-.0471-.06187-.0702-.0925-.062-.08092-.1299-.16184-.1983-.24329-.0374-.04458-.0749-.08932-.1117-.13431-.104-.1252-.206-.24443-.31-.36164-.372-.41731-.762-.7949-1.11-1.11679-.064-.06362-.134-.12719-.206-.18882-.27-.24439-.516-.45702-.722-.62199-.062-.04743-.1177-.09415-.1695-.13764-.035-.02938-.0682-.05729-.1005-.08294-.0635-.04695-.1184-.08854-.1643-.12332-.0279-.02113-.0525-.03975-.0737-.05552-.016-.01191-.034-.01986-.052-.02584L13 3.24639V1.37051c0-.30603-.124-.580252-.322-.780976S12.204.265625 11.9.265625c-.608 0-1.1.494803-1.1 1.104885v1.26383l-.114-.03181-.31-.08742-.282-.0775c-.0008 0-.0016-.00034-.0026-.00074-.0014-.00056-.0031-.00124-.0054-.00124h-.006l-2.14001-.57629c-.09396-.02583-.17399.07552-.12597.16096l.342.62796c.01944.04834.04408.09667.06941.14635.01632.032.03292.06457.0486.09805.05598.11132.112.22853.16598.34578.04798.10333.096.20468.15202.31596.02358.05242.04762.10548.07201.15929.08933.19713.18326.40441.27596.62766l.00077.00181c.07973.18817.15947.37637.22924.57247.19198.4948.37401 1.02339.53199 1.5659.0393.12126.0707.23863.10252.35757.01354.05062.02716.10152.04149.15314l.02198.09537c.06402.25239.12.50276.16001.75514.032.17288.062.3378.078.50474.024.18877.048.37755.056.56632.016.17292.024.35374.024.52661 0 .44116-.04.86638-.134 1.26778-.0058.0215-.0117.0433-.0176.0652-.0264.0977-.05373.1991-.08638.2965-.02965.1045-.06805.2091-.10793.3176-.01396.038-.02809.0765-.04209.1156-.00231.0062-.00461.0123-.00692.0185-.02971.0796-.05995.1606-.09708.2399-.19799.4729-.44401.9439-.69798 1.385-.37203.6538-.746 1.2281-1.00802 1.5977-.01594.0238-.03148.0464-.04647.0681-.01884.0274-.0368.0535-.0535.079-.08202.1152.00199.2782.14397.2782H10.8v2.172H8.00003c-.75201 0-1.448-.4233-1.78404-1.1009-.17399-.3398-.24199-.7134-.20197-1.0791.00999-.1093-.07203-.2126-.18403-.2126H.17403c-.0960343 0-.17403.0775-.17403.1729v.1152c0 3.5849 2.914 6.4902 6.51002 6.4902H16.656c1.9019 0 2.9818-1.722 4.0433-3.4146.2958-.4718.5903-.9413.9007-1.3706.558-.771 1.9-1.383 2.292-1.55.064-.0278.108-.0914.108-.1629ZM1.72162 12.3445l-.07983.1269c-.07029.1096.00761.2558.14062.2558h4.9488c.05513 0 .10643-.027.13684-.0731.06462-.1.12542-.2039.18054-.3096.42762-.7269.80769-1.5135.94642-2.0942.32498-1.41151-.36868-3.67875-1.17258-5.50182-.05319-.12112-.21856-.13268-.28885-.02113L1.72162 12.3445Z" clip-rule="evenodd"/></svg>