<svg width="24" height="22" fill="none" xmlns="http://www.w3.org/2000/svg"><g clip-path="url(#a)" fill="currentColor"><path d="M16.491 15.744a4.409 4.409 0 0 1 3.119-7.527H22V6.235a2 2 0 0 0-2-2h-.8V2.23a2 2 0 0 0-1.994-2L2 .18a2 2 0 0 0-2 2v16.855a2 2 0 0 0 2 2h18a2 2 0 0 0 2-2v-2h-2.39a4.398 4.398 0 0 1-3.119-1.291Zm-14.2-11.8A1 1 0 0 1 3 2.235h13.8v2H3a.997.997 0 0 1-.707-.293l-.002.002Z"/><path d="M19.6 9.835a2.8 2.8 0 0 0 0 5.6H24v-5.6h-4.4Zm0 4a1.2 1.2 0 1 1 0-2.4 1.2 1.2 0 0 1 0 2.4Z"/></g><defs><clipPath id="a"><path fill="currentColor" transform="translate(0 .18)" d="M0 0h24v20.855H0z"/></clipPath></defs></svg>